999
FreeCAD v0.20 29410 (Git)
  0
SECTION
  2
HEADER
  9
$ACADVER
  1
AC1014
  9
$ACADMAINTVER
 70
     9
  9
$DWGCODEPAGE
  3
ANSI_1252
  9
$TEXTSTYLE
  7
STANDARD
  9
$DIMSTYLE
  2
STANDARD
  9
$DIMTXSTY
  7
STANDARD
  9
$CMLSTYLE
  2
STANDARD
  9
$LUNITS
 70
2
  9
$INSUNITS
 70
4
  9
$PEXTMAX
 10
50
 20
50
 30
50
  9
$PEXTMIN
 10
0
 20
0
 30
0
  9
$HANDSEED
  5
FFFF
  0
ENDSEC
  0
SECTION
  2
CLASSES
  0
CLASS
  1
ACDBDICTIONARYWDFLT
  2
AcDbDictionaryWithDefault
  3
ObjectDBX Classes
 90
        0
280
     0
281
     0
  0
CLASS
  1
XRECORD
  2
AcDbXrecord
  3
ObjectDBX Classes
 90
        0
280
     0
281
     0
  0
CLASS
  1
LWPOLYLINE
  2
AcDbPolyline
  3
ObjectDBX Classes
 90
        0
280
     0
281
     1
  0
ENDSEC
  0
SECTION
  2
TABLES
  0
TABLE
  2
VPORT
  5
20
330
0
100
AcDbSymbolTable
 70
     1
  0
VPORT
  5
21
330
20
100
AcDbSymbolTableRecord
100
AcDbViewportTableRecord
  2
*ACTIVE
 70
     0
  0
ENDTAB
  0
TABLE
  2
LTYPE
  5
22
330
0
100
AcDbSymbolTable
 70
     1
  0
LTYPE
  5
23
330
21
100
AcDbSymbolTableRecord
100
AcDbLinetypeTableRecord
  2
BYBLOCK
 70
     0
  3

 72
    65
 73
     0
 40
0.0
  0
LTYPE
  5
24
330
21
100
AcDbSymbolTableRecord
100
AcDbLinetypeTableRecord
  2
BYLAYER
 70
     0
  3

 72
    65
 73
     0
 40
0.0
  0
LTYPE
  5
25
330
21
100
AcDbSymbolTableRecord
100
AcDbLinetypeTableRecord
  2
CONTINUOUS
 70
     0
  3
Solid line
 72
    65
 73
     0
 40
0.0
  0
ENDTAB
  0
TABLE
  2
LAYER
  5
A65
330
0
100
AcDbSymbolTable
 70
3
  0
LAYER
  5
A66
330
A65
100
AcDbSymbolTableRecord
100
AcDbLayerTableRecord
  2
0
 70
   0
 62
   7
  6
CONTINUOUS
  0
LAYER
  5
A67
330
A65
100
AcDbSymbolTableRecord
100
AcDbLayerTableRecord
  2
none
 70
    0
 62
    7
  6
CONTINUOUS
  0
LAYER
  5
A68
330
A65
100
AcDbSymbolTableRecord
100
AcDbLayerTableRecord
  2
Shape2DView023
 70
    0
 62
    7
  6
CONTINUOUS
  0
ENDTAB
  0
TABLE
  2
STYLE
  5
70
330
0
100
AcDbSymbolTable
 70
     2
  0
STYLE
  5
71
330
70
100
AcDbSymbolTableRecord
100
AcDbTextStyleTableRecord
  2
STANDARD
 70
     0
 40
0.0
 41
1.0
 50
0.0
 71
     0
 42
2.5
  3
arial.ttf
  4

  0
STYLE
  5
72
330
70
100
AcDbSymbolTableRecord
100
AcDbTextStyleTableRecord
  2
ANNOTATIVE
 70
     0
 40
0.0
 41
1.0
 50
0.0
 71
     0
 42
2.5
  3
arial.ttf
  4

  0
ENDTAB
  0
TABLE
  2
VIEW
  5
73
330
0
100
AcDbSymbolTable
 70
     0
  0
ENDTAB
  0
TABLE
  2
UCS
  5
74
330
0
100
AcDbSymbolTable
 70
     0
  0
ENDTAB
  0
TABLE
  2
APPID
  5
75
330
0
100
AcDbSymbolTable
 70
     2
  0
APPID
  5
76
330
75
100
AcDbSymbolTableRecord
100
AcDbRegAppTableRecord
  2
ACAD
 70
     0
  0
APPID
  5
77
330
75
100
AcDbSymbolTableRecord
100
AcDbRegAppTableRecord
  2
ACADANNOTATIVE
 70
     0
  0
ENDTAB
  0
TABLE
  2
DIMSTYLE
  5
78
330
0
100
AcDbSymbolTable
 70
     2
  0
DIMSTYLE
105
79
330
78
100
AcDbSymbolTableRecord
100
AcDbDimStyleTableRecord
  2
STANDARD
 70
     0
  3

  4

  5

  6

  7

 40
0.0
 41
2.5
 42
0.625
 43
3.75
 44
1.25
 45
0.0
 46
0.0
 47
0.0
 48
0.0
140
2.5
141
2.5
142
0.0
143
0.03937007874016
144
1.0
145
0.0
146
1.0
147
0.625
 71
     0
 72
     0
 73
     0
 74
     0
 75
     0
 76
     0
 77
     1
 78
     8
170
     0
171
     3
172
     1
173
     0
174
     0
175
     0
176
     0
177
     0
178
     0
270
     2
271
     2
272
     2
273
     2
274
     3
340
71
275
     0
280
     0
281
     0
282
     0
283
     0
284
     8
285
     0
286
     0
287
     3
288
     0
  0
ENDTAB
  0
TABLE
  2
BLOCK_RECORD
  5
A01
330
0
100
AcDbSymbolTable
  70
5
  0
BLOCK_RECORD
  5
A02
330
A01
100
AcDbSymbolTableRecord
100
AcDbBlockTableRecord
  2
*MODEL_SPACE
  0
BLOCK_RECORD
  5
A03
330
A01
100
AcDbSymbolTableRecord
100
AcDbBlockTableRecord
  2
*PAPER_SPACE
  0
ENDTAB
  0
ENDSEC
  0
SECTION
  2
BLOCKS
  0
BLOCK
  5
A04
330
A02
100
AcDbEntity
  8
0
100
AcDbBlockBegin
  2
*MODEL_SPACE
 70
   0
 10
0
 20
0
 30
0
  3
*MODEL_SPACE
  1
 
  0
ENDBLK
  5
A05
330
A02
100
AcDbEntity
  8
0
100
AcDbBlockEnd
  0
BLOCK
  5
A06
330
A03
100
AcDbEntity
 67
1
  8
0
100
AcDbBlockBegin
  2
*PAPER_SPACE
 70
   0
 10
0
 20
0
 30
0
  3
*PAPER_SPACE
  1
 
  0
ENDBLK
  5
A07
330
A03
100
AcDbEntity
 67
    1
  8
0
100
AcDbBlockEnd
  0
ENDSEC
  0
SECTION
  2
ENTITIES
  0
ELLIPSE
  5
A08
330
A02
100
AcDbEntity
  8
Shape2DView023
100
AcDbEllipse
 10
1.16157e-07
 20
1.519e-14
 30
0
 11
-5.88329e-06
 21
45
 31
0
 40
1
 41
4.74573
 42
4.95223
  0
LINE
  5
A09
330
A02
100
AcDbEntity
  8
Shape2DView023
100
AcDbLine
 10
43.7119
 20
10.6897
 30
0
 11
36.0086
 21
8.53136
 31
0
  0
LINE
  5
A0A
330
A02
100
AcDbEntity
  8
Shape2DView023
100
AcDbLine
 10
36.975
 20
-1.5
 30
0
 11
36.975
 21
1.5
 31
0
  0
LINE
  5
A0B
330
A02
100
AcDbEntity
  8
Shape2DView023
100
AcDbLine
 10
44.975
 20
-1.5
 30
0
 11
36.975
 21
-1.5
 31
0
  0
ELLIPSE
  5
A0C
330
A02
100
AcDbEntity
  8
Shape2DView023
100
AcDbEllipse
 10
1.16157e-07
 20
1.519e-14
 30
0
 11
-5.88329e-06
 21
45
 31
0
 40
1
 41
4.47255
 42
4.67905
  0
LINE
  5
A0D
330
A02
100
AcDbEntity
  8
Shape2DView023
100
AcDbLine
 10
36.0086
 20
-8.53136
 30
0
 11
43.7119
 21
-10.6897
 31
0
  0
LINE
  5
A0E
330
A02
100
AcDbEntity
  8
Shape2DView023
100
AcDbLine
 10
35.1992
 20
-11.4201
 30
0
 11
36.0086
 21
-8.53136
 31
0
  0
LINE
  5
A0F
330
A02
100
AcDbEntity
  8
Shape2DView023
100
AcDbLine
 10
42.9025
 20
-13.5785
 30
0
 11
35.1992
 21
-11.4201
 31
0
  0
ELLIPSE
  5
A10
330
A02
100
AcDbEntity
  8
Shape2DView023
100
AcDbEllipse
 10
1.16157e-07
 20
1.519e-14
 30
0
 11
-5.88329e-06
 21
45
 31
0
 40
1
 41
4.19936
 42
4.40587
  0
LINE
  5
A11
330
A02
100
AcDbEntity
  8
Shape2DView023
100
AcDbLine
 10
32.3715
 20
-17.93
 30
0
 11
39.2069
 21
-22.0867
 31
0
  0
LINE
  5
A12
330
A02
100
AcDbEntity
  8
Shape2DView023
100
AcDbLine
 10
30.8128
 20
-20.4932
 30
0
 11
32.3715
 21
-17.93
 31
0
  0
LINE
  5
A13
330
A02
100
AcDbEntity
  8
Shape2DView023
100
AcDbLine
 10
37.6481
 20
-24.6499
 30
0
 11
30.8128
 21
-20.4932
 31
0
  0
ELLIPSE
  5
A14
330
A02
100
AcDbEntity
  8
Shape2DView023
100
AcDbEllipse
 10
1.16157e-07
 20
1.519e-14
 30
0
 11
-5.88329e-06
 21
45
 31
0
 40
1
 41
3.92618
 42
4.13269
  0
LINE
  5
A15
330
A02
100
AcDbEntity
  8
Shape2DView023
100
AcDbLine
 10
26.3337
 20
-25.9988
 30
0
 11
31.7941
 21
-31.8455
 31
0
  0
LINE
  5
A16
330
A02
100
AcDbEntity
  8
Shape2DView023
100
AcDbLine
 10
24.1411
 20
-28.0465
 30
0
 11
26.3337
 21
-25.9988
 31
0
  0
LINE
  5
A17
330
A02
100
AcDbEntity
  8
Shape2DView023
100
AcDbLine
 10
29.6016
 20
-33.8932
 30
0
 11
24.1411
 21
-28.0465
 31
0
  0
ELLIPSE
  5
A18
330
A02
100
AcDbEntity
  8
Shape2DView023
100
AcDbEllipse
 10
1.16157e-07
 20
1.519e-14
 30
0
 11
-5.88329e-06
 21
45
 31
0
 40
1
 41
3.653
 42
3.8595
  0
LINE
  5
A19
330
A02
100
AcDbEntity
  8
Shape2DView023
100
AcDbLine
 10
18.3427
 20
-32.1395
 30
0
 11
22.0232
 21
-39.2425
 31
0
  0
LINE
  5
A1A
330
A02
100
AcDbEntity
  8
Shape2DView023
100
AcDbLine
 10
15.6791
 20
-33.5196
 30
0
 11
18.3427
 21
-32.1395
 31
0
  0
LINE
  5
A1B
330
A02
100
AcDbEntity
  8
Shape2DView023
100
AcDbLine
 10
19.3596
 20
-40.6227
 30
0
 11
15.6791
 21
-33.5196
 31
0
  0
ELLIPSE
  5
A1C
330
A02
100
AcDbEntity
  8
Shape2DView023
100
AcDbEllipse
 10
1.16157e-07
 20
1.519e-14
 30
0
 11
-5.88329e-06
 21
45
 31
0
 40
1
 41
3.37982
 42
3.58632
  0
LINE
  5
A1D
330
A02
100
AcDbEntity
  8
Shape2DView023
100
AcDbLine
 10
8.99141
 20
-35.8964
 30
0
 11
10.6191
 21
-43.7291
 31
0
  0
LINE
  5
A1E
330
A02
100
AcDbEntity
  8
Shape2DView023
100
AcDbLine
 10
6.05416
 20
-36.5068
 30
0
 11
8.99141
 21
-35.8964
 31
0
  0
LINE
  5
A1F
330
A02
100
AcDbEntity
  8
Shape2DView023
100
AcDbLine
 10
7.68181
 20
-44.3395
 30
0
 11
6.05416
 21
-36.5068
 31
0
  0
ELLIPSE
  5
A20
330
A02
100
AcDbEntity
  8
Shape2DView023
100
AcDbEllipse
 10
1.16157e-07
 20
1.519e-14
 30
0
 11
-5.88329e-06
 21
45
 31
0
 40
1
 41
3.10664
 42
3.31314
  0
LINE
  5
A21
330
A02
100
AcDbEntity
  8
Shape2DView023
100
AcDbLine
 10
-1.02676
 20
-36.9912
 30
0
 11
-1.5727
 21
-44.9725
 31
0
  0
LINE
  5
A22
330
A02
100
AcDbEntity
  8
Shape2DView023
100
AcDbLine
 10
-4.01977
 20
-36.7864
 30
0
 11
-1.02676
 21
-36.9912
 31
0
  0
LINE
  5
A23
330
A02
100
AcDbEntity
  8
Shape2DView023
100
AcDbLine
 10
-4.56571
 20
-44.7678
 30
0
 11
-4.01977
 21
-36.7864
 31
0
  0
ELLIPSE
  5
A24
330
A02
100
AcDbEntity
  8
Shape2DView023
100
AcDbEllipse
 10
1.16157e-07
 20
1.519e-14
 30
0
 11
-5.88329e-06
 21
45
 31
0
 40
1
 41
2.83345
 42
3.03996
  0
LINE
  5
A25
330
A02
100
AcDbEntity
  8
Shape2DView023
100
AcDbLine
 10
-10.9688
 20
-35.3424
 30
0
 11
-13.6478
 21
-42.8805
 31
0
  0
LINE
  5
A26
330
A02
100
AcDbEntity
  8
Shape2DView023
100
AcDbLine
 10
-13.7956
 20
-34.3378
 30
0
 11
-10.9688
 21
-35.3424
 31
0
  0
LINE
  5
A27
330
A02
100
AcDbEntity
  8
Shape2DView023
100
AcDbLine
 10
-16.4746
 20
-41.8759
 30
0
 11
-13.7956
 21
-34.3378
 31
0
  0
ELLIPSE
  5
A28
330
A02
100
AcDbEntity
  8
Shape2DView023
100
AcDbEllipse
 10
1.16157e-07
 20
1.519e-14
 30
0
 11
-5.88329e-06
 21
45
 31
0
 40
1
 41
2.56027
 42
2.76678
  0
LINE
  5
A29
330
A02
100
AcDbEntity
  8
Shape2DView023
100
AcDbLine
 10
-20.0973
 20
-31.0725
 30
0
 11
-24.7107
 21
-37.6082
 31
0
  0
LINE
  5
A2A
330
A02
100
AcDbEntity
  8
Shape2DView023
100
AcDbLine
 10
-22.5482
 20
-29.3424
 30
0
 11
-20.0973
 21
-31.0725
 31
0
  0
LINE
  5
A2B
330
A02
100
AcDbEntity
  8
Shape2DView023
100
AcDbLine
 10
-27.1616
 20
-35.8782
 30
0
 11
-22.5482
 21
-29.3424
 31
0
  0
ELLIPSE
  5
A2C
330
A02
100
AcDbEntity
  8
Shape2DView023
100
AcDbEllipse
 10
1.16157e-07
 20
1.519e-14
 30
0
 11
-5.88329e-06
 21
45
 31
0
 40
1
 41
2.28709
 42
2.49359
  0
LINE
  5
A2D
330
A02
100
AcDbEntity
  8
Shape2DView023
100
AcDbLine
 10
-27.7353
 20
-24.498
 30
0
 11
-33.941
 21
-29.5467
 31
0
  0
LINE
  5
A2E
330
A02
100
AcDbEntity
  8
Shape2DView023
100
AcDbLine
 10
-29.6286
 20
-22.1709
 30
0
 11
-27.7353
 21
-24.498
 31
0
  0
LINE
  5
A2F
330
A02
100
AcDbEntity
  8
Shape2DView023
100
AcDbLine
 10
-35.8342
 20
-27.2196
 30
0
 11
-29.6286
 21
-22.1709
 31
0
  0
ELLIPSE
  5
A30
330
A02
100
AcDbEntity
  8
Shape2DView023
100
AcDbEllipse
 10
1.16157e-07
 20
1.519e-14
 30
0
 11
-5.88329e-06
 21
45
 31
0
 40
1
 41
2.01391
 42
2.22041
  0
LINE
  5
A31
330
A02
100
AcDbEntity
  8
Shape2DView023
100
AcDbLine
 10
-33.3163
 20
-16.1067
 30
0
 11
-40.654
 21
-19.2939
 31
0
  0
LINE
  5
A32
330
A02
100
AcDbEntity
  8
Shape2DView023
100
AcDbLine
 10
-34.5115
 20
-13.3551
 30
0
 11
-33.3163
 21
-16.1067
 31
0
  0
LINE
  5
A33
330
A02
100
AcDbEntity
  8
Shape2DView023
100
AcDbLine
 10
-41.8492
 20
-16.5423
 30
0
 11
-34.5115
 21
-13.3551
 31
0
  0
ELLIPSE
  5
A34
330
A02
100
AcDbEntity
  8
Shape2DView023
100
AcDbEllipse
 10
1.16157e-07
 20
1.519e-14
 30
0
 11
-5.88329e-06
 21
45
 31
0
 40
1
 41
1.74073
 42
1.94723
  0
LINE
  5
A35
330
A02
100
AcDbEntity
  8
Shape2DView023
100
AcDbLine
 10
-36.4264
 20
-6.52079
 30
0
 11
-44.3518
 21
-7.61012
 31
0
  0
LINE
  5
A36
330
A02
100
AcDbEntity
  8
Shape2DView023
100
AcDbLine
 10
-36.8349
 20
-3.54873
 30
0
 11
-36.4264
 21
-6.52079
 31
0
  0
LINE
  5
A37
330
A02
100
AcDbEntity
  8
Shape2DView023
100
AcDbLine
 10
-44.7603
 20
-4.63807
 30
0
 11
-36.8349
 21
-3.54873
 31
0
  0
ELLIPSE
  5
A38
330
A02
100
AcDbEntity
  8
Shape2DView023
100
AcDbEllipse
 10
1.16157e-07
 20
1.519e-14
 30
0
 11
-5.88329e-06
 21
45
 31
0
 40
1
 41
1.46754
 42
1.67405
  0
LINE
  5
A39
330
A02
100
AcDbEntity
  8
Shape2DView023
100
AcDbLine
 10
-36.8349
 20
3.54873
 30
0
 11
-44.7603
 21
4.63807
 31
0
  0
LINE
  5
A3A
330
A02
100
AcDbEntity
  8
Shape2DView023
100
AcDbLine
 10
-36.4264
 20
6.52079
 30
0
 11
-36.8349
 21
3.54873
 31
0
  0
LINE
  5
A3B
330
A02
100
AcDbEntity
  8
Shape2DView023
100
AcDbLine
 10
-44.3518
 20
7.61012
 30
0
 11
-36.4264
 21
6.52079
 31
0
  0
ELLIPSE
  5
A3C
330
A02
100
AcDbEntity
  8
Shape2DView023
100
AcDbEllipse
 10
1.16157e-07
 20
1.519e-14
 30
0
 11
-5.88329e-06
 21
45
 31
0
 40
1
 41
1.19436
 42
1.40087
  0
LINE
  5
A3D
330
A02
100
AcDbEntity
  8
Shape2DView023
100
AcDbLine
 10
-34.5115
 20
13.3551
 30
0
 11
-41.8492
 21
16.5423
 31
0
  0
LINE
  5
A3E
330
A02
100
AcDbEntity
  8
Shape2DView023
100
AcDbLine
 10
-33.3163
 20
16.1067
 30
0
 11
-34.5115
 21
13.3551
 31
0
  0
LINE
  5
A3F
330
A02
100
AcDbEntity
  8
Shape2DView023
100
AcDbLine
 10
-40.654
 20
19.2939
 30
0
 11
-33.3163
 21
16.1067
 31
0
  0
ELLIPSE
  5
A40
330
A02
100
AcDbEntity
  8
Shape2DView023
100
AcDbEllipse
 10
1.16157e-07
 20
1.519e-14
 30
0
 11
-5.88329e-06
 21
45
 31
0
 40
1
 41
0.921181
 42
1.12768
  0
LINE
  5
A41
330
A02
100
AcDbEntity
  8
Shape2DView023
100
AcDbLine
 10
-29.6286
 20
22.1709
 30
0
 11
-35.8342
 21
27.2196
 31
0
  0
LINE
  5
A42
330
A02
100
AcDbEntity
  8
Shape2DView023
100
AcDbLine
 10
-27.7353
 20
24.498
 30
0
 11
-29.6286
 21
22.1709
 31
0
  0
LINE
  5
A43
330
A02
100
AcDbEntity
  8
Shape2DView023
100
AcDbLine
 10
-33.941
 20
29.5467
 30
0
 11
-27.7353
 21
24.498
 31
0
  0
ELLIPSE
  5
A44
330
A02
100
AcDbEntity
  8
Shape2DView023
100
AcDbEllipse
 10
1.16157e-07
 20
1.519e-14
 30
0
 11
-5.88329e-06
 21
45
 31
0
 40
1
 41
0.647999
 42
0.854502
  0
LINE
  5
A45
330
A02
100
AcDbEntity
  8
Shape2DView023
100
AcDbLine
 10
-22.5482
 20
29.3424
 30
0
 11
-27.1616
 21
35.8782
 31
0
  0
LINE
  5
A46
330
A02
100
AcDbEntity
  8
Shape2DView023
100
AcDbLine
 10
-20.0973
 20
31.0725
 30
0
 11
-22.5482
 21
29.3424
 31
0
  0
LINE
  5
A47
330
A02
100
AcDbEntity
  8
Shape2DView023
100
AcDbLine
 10
-24.7107
 20
37.6082
 30
0
 11
-20.0973
 21
31.0725
 31
0
  0
ELLIPSE
  5
A48
330
A02
100
AcDbEntity
  8
Shape2DView023
100
AcDbEllipse
 10
1.16157e-07
 20
1.519e-14
 30
0
 11
-5.88329e-06
 21
45
 31
0
 40
1
 41
0.374817
 42
0.58132
  0
LINE
  5
A49
330
A02
100
AcDbEntity
  8
Shape2DView023
100
AcDbLine
 10
-13.7956
 20
34.3378
 30
0
 11
-16.4746
 21
41.8759
 31
0
  0
LINE
  5
A4A
330
A02
100
AcDbEntity
  8
Shape2DView023
100
AcDbLine
 10
-10.9688
 20
35.3424
 30
0
 11
-13.7956
 21
34.3378
 31
0
  0
LINE
  5
A4B
330
A02
100
AcDbEntity
  8
Shape2DView023
100
AcDbLine
 10
-13.6478
 20
42.8805
 30
0
 11
-10.9688
 21
35.3424
 31
0
  0
ELLIPSE
  5
A4C
330
A02
100
AcDbEntity
  8
Shape2DView023
100
AcDbEllipse
 10
1.16157e-07
 20
1.519e-14
 30
0
 11
-5.88329e-06
 21
45
 31
0
 40
1
 41
0.101635
 42
0.308138
  0
LINE
  5
A4D
330
A02
100
AcDbEntity
  8
Shape2DView023
100
AcDbLine
 10
-4.01977
 20
36.7864
 30
0
 11
-4.56571
 21
44.7678
 31
0
  0
LINE
  5
A4E
330
A02
100
AcDbEntity
  8
Shape2DView023
100
AcDbLine
 10
-1.02676
 20
36.9912
 30
0
 11
-4.01977
 21
36.7864
 31
0
  0
LINE
  5
A4F
330
A02
100
AcDbEntity
  8
Shape2DView023
100
AcDbLine
 10
-1.5727
 20
44.9725
 30
0
 11
-1.02676
 21
36.9912
 31
0
  0
ELLIPSE
  5
A50
330
A02
100
AcDbEntity
  8
Shape2DView023
100
AcDbEllipse
 10
1.16157e-07
 20
1.519e-14
 30
0
 11
-5.88329e-06
 21
45
 31
0
 40
1
 41
6.11164
 42
0.0349559
  0
LINE
  5
A51
330
A02
100
AcDbEntity
  8
Shape2DView023
100
AcDbLine
 10
6.05416
 20
36.5068
 30
0
 11
7.68181
 21
44.3395
 31
0
  0
LINE
  5
A52
330
A02
100
AcDbEntity
  8
Shape2DView023
100
AcDbLine
 10
8.99141
 20
35.8964
 30
0
 11
6.05416
 21
36.5068
 31
0
  0
LINE
  5
A53
330
A02
100
AcDbEntity
  8
Shape2DView023
100
AcDbLine
 10
10.6191
 20
43.7291
 30
0
 11
8.99141
 21
35.8964
 31
0
  0
ELLIPSE
  5
A54
330
A02
100
AcDbEntity
  8
Shape2DView023
100
AcDbEllipse
 10
1.16157e-07
 20
1.519e-14
 30
0
 11
-5.88329e-06
 21
45
 31
0
 40
1
 41
5.83846
 42
6.04496
  0
LINE
  5
A55
330
A02
100
AcDbEntity
  8
Shape2DView023
100
AcDbLine
 10
15.6791
 20
33.5196
 30
0
 11
19.3596
 21
40.6227
 31
0
  0
LINE
  5
A56
330
A02
100
AcDbEntity
  8
Shape2DView023
100
AcDbLine
 10
18.3427
 20
32.1395
 30
0
 11
15.6791
 21
33.5196
 31
0
  0
LINE
  5
A57
330
A02
100
AcDbEntity
  8
Shape2DView023
100
AcDbLine
 10
22.0232
 20
39.2425
 30
0
 11
18.3427
 21
32.1395
 31
0
  0
ELLIPSE
  5
A58
330
A02
100
AcDbEntity
  8
Shape2DView023
100
AcDbEllipse
 10
1.16157e-07
 20
1.519e-14
 30
0
 11
-5.88329e-06
 21
45
 31
0
 40
1
 41
5.56527
 42
5.77178
  0
LINE
  5
A59
330
A02
100
AcDbEntity
  8
Shape2DView023
100
AcDbLine
 10
24.1411
 20
28.0465
 30
0
 11
29.6016
 21
33.8932
 31
0
  0
LINE
  5
A5A
330
A02
100
AcDbEntity
  8
Shape2DView023
100
AcDbLine
 10
26.3337
 20
25.9988
 30
0
 11
24.1411
 21
28.0465
 31
0
  0
LINE
  5
A5B
330
A02
100
AcDbEntity
  8
Shape2DView023
100
AcDbLine
 10
31.7941
 20
31.8455
 30
0
 11
26.3337
 21
25.9988
 31
0
  0
ELLIPSE
  5
A5C
330
A02
100
AcDbEntity
  8
Shape2DView023
100
AcDbEllipse
 10
1.16157e-07
 20
1.519e-14
 30
0
 11
-5.88329e-06
 21
45
 31
0
 40
1
 41
5.29209
 42
5.4986
  0
LINE
  5
A5D
330
A02
100
AcDbEntity
  8
Shape2DView023
100
AcDbLine
 10
30.8128
 20
20.4932
 30
0
 11
37.6481
 21
24.6499
 31
0
  0
LINE
  5
A5E
330
A02
100
AcDbEntity
  8
Shape2DView023
100
AcDbLine
 10
32.3715
 20
17.93
 30
0
 11
30.8128
 21
20.4932
 31
0
  0
LINE
  5
A5F
330
A02
100
AcDbEntity
  8
Shape2DView023
100
AcDbLine
 10
39.2069
 20
22.0867
 30
0
 11
32.3715
 21
17.93
 31
0
  0
ELLIPSE
  5
A60
330
A02
100
AcDbEntity
  8
Shape2DView023
100
AcDbEllipse
 10
1.16157e-07
 20
1.519e-14
 30
0
 11
-5.88329e-06
 21
45
 31
0
 40
1
 41
5.01891
 42
5.22541
  0
LINE
  5
A61
330
A02
100
AcDbEntity
  8
Shape2DView023
100
AcDbLine
 10
35.1992
 20
11.4201
 30
0
 11
42.9025
 21
13.5785
 31
0
  0
LINE
  5
A62
330
A02
100
AcDbEntity
  8
Shape2DView023
100
AcDbLine
 10
36.0086
 20
8.53136
 30
0
 11
35.1992
 21
11.4201
 31
0
  0
LINE
  5
A63
330
A02
100
AcDbEntity
  8
Shape2DView023
100
AcDbLine
 10
36.975
 20
1.5
 30
0
 11
44.975
 21
1.5
 31
0
  0
ELLIPSE
  5
A64
330
A02
100
AcDbEntity
  8
Shape2DView023
100
AcDbEllipse
 10
1.16157e-07
 20
1.519e-14
 30
0
 11
-2.74553e-06
 21
21
 31
0
 40
1
 41
0
 42
6.28318
  0
ENDSEC
  0
SECTION
  2
OBJECTS
  0
DICTIONARY
  5
F000
330
0
100
AcDbDictionary
  3
ACAD_GROUP
350
F001
  0
DICTIONARY
  5
F001
330
F000
100
AcDbDictionary
  0
ENDSEC
  0
EOF