999
FreeCAD v0.21 33668 +26 (Git)
  0
SECTION
  2
HEADER
  9
$ACADVER
  1
AC1014
  9
$ACADMAINTVER
 70
     9
  9
$DWGCODEPAGE
  3
ANSI_1252
  9
$TEXTSTYLE
  7
STANDARD
  9
$DIMSTYLE
  2
STANDARD
  9
$DIMTXSTY
  7
STANDARD
  9
$CMLSTYLE
  2
STANDARD
  9
$LUNITS
 70
2
  9
$INSUNITS
 70
4
  9
$PEXTMAX
 10
50
 20
50
 30
50
  9
$PEXTMIN
 10
0
 20
0
 30
0
  9
$HANDSEED
  5
FFFF
  0
ENDSEC
  0
SECTION
  2
CLASSES
  0
CLASS
  1
ACDBDICTIONARYWDFLT
  2
AcDbDictionaryWithDefault
  3
ObjectDBX Classes
 90
        0
280
     0
281
     0
  0
CLASS
  1
XRECORD
  2
AcDbXrecord
  3
ObjectDBX Classes
 90
        0
280
     0
281
     0
  0
CLASS
  1
LWPOLYLINE
  2
AcDbPolyline
  3
ObjectDBX Classes
 90
        0
280
     0
281
     1
  0
ENDSEC
  0
SECTION
  2
TABLES
  0
TABLE
  2
VPORT
  5
20
330
0
100
AcDbSymbolTable
 70
     1
  0
VPORT
  5
21
330
20
100
AcDbSymbolTableRecord
100
AcDbViewportTableRecord
  2
*ACTIVE
 70
     0
  0
ENDTAB
  0
TABLE
  2
LTYPE
  5
22
330
0
100
AcDbSymbolTable
 70
     1
  0
LTYPE
  5
23
330
21
100
AcDbSymbolTableRecord
100
AcDbLinetypeTableRecord
  2
BYBLOCK
 70
     0
  3

 72
    65
 73
     0
 40
0.0
  0
LTYPE
  5
24
330
21
100
AcDbSymbolTableRecord
100
AcDbLinetypeTableRecord
  2
BYLAYER
 70
     0
  3

 72
    65
 73
     0
 40
0.0
  0
LTYPE
  5
25
330
21
100
AcDbSymbolTableRecord
100
AcDbLinetypeTableRecord
  2
CONTINUOUS
 70
     0
  3
Solid line
 72
    65
 73
     0
 40
0.0
  0
ENDTAB
  0
TABLE
  2
LAYER
  5
A56
330
0
100
AcDbSymbolTable
 70
3
  0
LAYER
  5
A57
330
A56
100
AcDbSymbolTableRecord
100
AcDbLayerTableRecord
  2
0
 70
   0
 62
   7
  6
CONTINUOUS
  0
LAYER
  5
A58
330
A56
100
AcDbSymbolTableRecord
100
AcDbLayerTableRecord
  2
none
 70
    0
 62
    7
  6
CONTINUOUS
  0
LAYER
  5
A59
330
A56
100
AcDbSymbolTableRecord
100
AcDbLayerTableRecord
  2
Shape2DView015
 70
    0
 62
    7
  6
CONTINUOUS
  0
ENDTAB
  0
TABLE
  2
STYLE
  5
70
330
0
100
AcDbSymbolTable
 70
     2
  0
STYLE
  5
71
330
70
100
AcDbSymbolTableRecord
100
AcDbTextStyleTableRecord
  2
STANDARD
 70
     0
 40
0.0
 41
1.0
 50
0.0
 71
     0
 42
2.5
  3
arial.ttf
  4

  0
STYLE
  5
72
330
70
100
AcDbSymbolTableRecord
100
AcDbTextStyleTableRecord
  2
ANNOTATIVE
 70
     0
 40
0.0
 41
1.0
 50
0.0
 71
     0
 42
2.5
  3
arial.ttf
  4

  0
ENDTAB
  0
TABLE
  2
VIEW
  5
73
330
0
100
AcDbSymbolTable
 70
     0
  0
ENDTAB
  0
TABLE
  2
UCS
  5
74
330
0
100
AcDbSymbolTable
 70
     0
  0
ENDTAB
  0
TABLE
  2
APPID
  5
75
330
0
100
AcDbSymbolTable
 70
     2
  0
APPID
  5
76
330
75
100
AcDbSymbolTableRecord
100
AcDbRegAppTableRecord
  2
ACAD
 70
     0
  0
APPID
  5
77
330
75
100
AcDbSymbolTableRecord
100
AcDbRegAppTableRecord
  2
ACADANNOTATIVE
 70
     0
  0
ENDTAB
  0
TABLE
  2
DIMSTYLE
  5
78
330
0
100
AcDbSymbolTable
 70
     2
  0
DIMSTYLE
105
79
330
78
100
AcDbSymbolTableRecord
100
AcDbDimStyleTableRecord
  2
STANDARD
 70
     0
  3

  4

  5

  6

  7

 40
0.0
 41
2.5
 42
0.625
 43
3.75
 44
1.25
 45
0.0
 46
0.0
 47
0.0
 48
0.0
140
2.5
141
2.5
142
0.0
143
0.03937007874016
144
1.0
145
0.0
146
1.0
147
0.625
 71
     0
 72
     0
 73
     0
 74
     0
 75
     0
 76
     0
 77
     1
 78
     8
170
     0
171
     3
172
     1
173
     0
174
     0
175
     0
176
     0
177
     0
178
     0
270
     2
271
     2
272
     2
273
     2
274
     3
340
71
275
     0
280
     0
281
     0
282
     0
283
     0
284
     8
285
     0
286
     0
287
     3
288
     0
  0
ENDTAB
  0
TABLE
  2
BLOCK_RECORD
  5
A01
330
0
100
AcDbSymbolTable
  70
5
  0
BLOCK_RECORD
  5
A02
330
A01
100
AcDbSymbolTableRecord
100
AcDbBlockTableRecord
  2
*MODEL_SPACE
  0
BLOCK_RECORD
  5
A03
330
A01
100
AcDbSymbolTableRecord
100
AcDbBlockTableRecord
  2
*PAPER_SPACE
  0
ENDTAB
  0
ENDSEC
  0
SECTION
  2
BLOCKS
  0
BLOCK
  5
A04
330
A02
100
AcDbEntity
  8
0
100
AcDbBlockBegin
  2
*MODEL_SPACE
 70
   0
 10
0
 20
0
 30
0
  3
*MODEL_SPACE
  1
 
  0
ENDBLK
  5
A05
330
A02
100
AcDbEntity
  8
0
100
AcDbBlockEnd
  0
BLOCK
  5
A06
330
A03
100
AcDbEntity
 67
1
  8
0
100
AcDbBlockBegin
  2
*PAPER_SPACE
 70
   0
 10
0
 20
0
 30
0
  3
*PAPER_SPACE
  1
 
  0
ENDBLK
  5
A07
330
A03
100
AcDbEntity
 67
    1
  8
0
100
AcDbBlockEnd
  0
ENDSEC
  0
SECTION
  2
ENTITIES
  0
SPLINE
  5
A08
330
A02
100
AcDbEntity
  8
Shape2DView015
100
AcDbSpline
210
0
220
0
230
1
 70
8
 71
2
 72
6
 73
3
 74
0
 40
0.41029
 40
0.41029
 40
0.41029
 40
0.583746
 40
0.583746
 40
0.583746
 10
-814.745
 20
87.5501
 30
0
 10
-803.149
 20
91.1556
 30
0
 10
-791.564
 20
94.8249
 30
0
  0
SPLINE
  5
A09
330
A02
100
AcDbEntity
  8
Shape2DView015
100
AcDbSpline
210
0
220
0
230
1
 70
8
 71
3
 72
14
 73
10
 74
0
 40
0
 40
0
 40
0
 40
0
 40
0.19707
 40
0.19707
 40
0.19707
 40
0.601754
 40
0.601754
 40
0.601754
 40
1
 40
1
 40
1
 40
1
 10
-791.564
 20
94.8249
 30
0
 10
-791.299
 20
94.9095
 30
0
 10
-791.019
 20
94.9532
 30
0
 10
-790.725
 20
94.9559
 30
0
 10
-790.125
 20
94.9614
 30
0
 10
-789.503
 20
94.7669
 30
0
 10
-788.99
 20
94.4197
 30
0
 10
-788.483
 20
94.0805
 30
0
 10
-788.082
 20
93.6017
 30
0
 10
-787.829
 20
93.0898
 30
0
  0
SPLINE
  5
A0A
330
A02
100
AcDbEntity
  8
Shape2DView015
100
AcDbSpline
210
0
220
0
230
1
 70
8
 71
3
 72
8
 73
4
 74
0
 40
0.609832
 40
0.609832
 40
0.609832
 40
0.609832
 40
0.674381
 40
0.674381
 40
0.674381
 40
0.674381
 10
-775.078
 20
67.9867
 30
0
 10
-779.248
 20
76.1013
 30
0
 10
-783.534
 20
84.4425
 30
0
 10
-787.829
 20
93.0898
 30
0
  0
SPLINE
  5
A0B
330
A02
100
AcDbEntity
  8
Shape2DView015
100
AcDbSpline
210
0
220
0
230
1
 70
8
 71
3
 72
17
 73
13
 74
0
 40
0.262087
 40
0.262087
 40
0.262087
 40
0.262087
 40
0.349023
 40
0.349023
 40
0.349023
 40
0.435959
 40
0.435959
 40
0.435959
 40
0.522896
 40
0.522896
 40
0.522896
 40
0.609832
 40
0.609832
 40
0.609832
 40
0.609832
 10
-737.277
 20
-57.0356
 30
0
 10
-736.02
 20
-46.2134
 30
0
 10
-736.405
 20
-35.5692
 30
0
 10
-738.027
 20
-25.1529
 30
0
 10
-739.649
 20
-14.7294
 30
0
 10
-742.487
 20
-4.52726
 30
0
 10
-746.125
 20
5.62697
 30
0
 10
-749.766
 20
15.7836
 30
0
 10
-754.209
 20
25.9042
 30
0
 10
-759.131
 20
36.2225
 30
0
 10
-764.055
 20
46.5402
 30
0
 10
-769.462
 20
57.0572
 30
0
 10
-775.078
 20
67.9867
 30
0
  0
SPLINE
  5
A0C
330
A02
100
AcDbEntity
  8
Shape2DView015
100
AcDbSpline
210
0
220
0
230
1
 70
8
 71
3
 72
17
 73
13
 74
0
 40
0
 40
0
 40
0
 40
0
 40
0.0655217
 40
0.0655217
 40
0.0655217
 40
0.131043
 40
0.131043
 40
0.131043
 40
0.196565
 40
0.196565
 40
0.196565
 40
0.262087
 40
0.262087
 40
0.262087
 40
0.262087
 10
-797.597
 20
-159.134
 30
0
 10
-788.106
 20
-149.962
 30
0
 10
-779.855
 20
-141.082
 30
0
 10
-772.734
 20
-132.389
 30
0
 10
-765.615
 20
-123.695
 30
0
 10
-759.624
 20
-115.186
 30
0
 10
-754.684
 20
-106.765
 30
0
 10
-749.745
 20
-98.3457
 30
0
 10
-745.859
 20
-90.0102
 30
0
 10
-742.976
 20
-81.7195
 30
0
 10
-740.093
 20
-73.4313
 30
0
 10
-738.22
 20
-65.1901
 30
0
 10
-737.277
 20
-57.0356
 30
0
  0
ELLIPSE
  5
A0D
330
A02
100
AcDbEntity
  8
Shape2DView015
100
AcDbEllipse
 10
-808.02
 20
-148.348
 30
0
 11
-9.33725e-07
 21
15
 31
0
 40
1
 41
3.14159
 42
3.90986
  0
LINE
  5
A0E
330
A02
100
AcDbEntity
  8
Shape2DView015
100
AcDbLine
 10
-817.375
 20
-163.348
 30
0
 11
-808.02
 21
-163.348
 31
0
  0
ELLIPSE
  5
A0F
330
A02
100
AcDbEntity
  8
Shape2DView015
100
AcDbEllipse
 10
-817.375
 20
-148.348
 30
0
 11
-9.05436e-07
 21
15
 31
0
 40
1
 41
3.03184
 42
3.14159
  0
LINE
  5
A10
330
A02
100
AcDbEntity
  8
Shape2DView015
100
AcDbLine
 10
-821.984
 20
-162.931
 30
0
 11
-819.018
 21
-163.257
 31
0
  0
ELLIPSE
  5
A11
330
A02
100
AcDbEntity
  8
Shape2DView015
100
AcDbEllipse
 10
-820.341
 20
-148.021
 30
0
 11
-9.19603e-07
 21
15
 31
0
 40
1
 41
2.78487
 42
3.03184
  0
LINE
  5
A12
330
A02
100
AcDbEntity
  8
Shape2DView015
100
AcDbLine
 10
-828.125
 20
-161.128
 30
0
 11
-825.579
 21
-162.077
 31
0
  0
ELLIPSE
  5
A13
330
A02
100
AcDbEntity
  8
Shape2DView015
100
AcDbEllipse
 10
-822.887
 20
-147.072
 30
0
 11
-1.05016e-06
 21
15
 31
0
 40
1
 41
2.55836
 42
2.78487
  0
LINE
  5
A14
330
A02
100
AcDbEntity
  8
Shape2DView015
100
AcDbLine
 10
-832.799
 20
-158.503
 30
0
 11
-831.148
 21
-159.592
 31
0
  0
ELLIPSE
  5
A15
330
A02
100
AcDbEntity
  8
Shape2DView015
100
AcDbEllipse
 10
-824.539
 20
-145.983
 30
0
 11
-7.33442e-07
 21
15
 31
0
 40
1
 41
2.37577
 42
2.55836
  0
LINE
  5
A16
330
A02
100
AcDbEntity
  8
Shape2DView015
100
AcDbLine
 10
-836.383
 20
-155.403
 30
0
 11
-834.935
 21
-156.795
 31
0
  0
ELLIPSE
  5
A17
330
A02
100
AcDbEntity
  8
Shape2DView015
100
AcDbEllipse
 10
-825.986
 20
-144.591
 30
0
 11
-1.03772e-06
 21
15
 31
0
 40
1
 41
2.14535
 42
2.37577
  0
LINE
  5
A18
330
A02
100
AcDbEntity
  8
Shape2DView015
100
AcDbLine
 10
-840.915
 20
-149.132
 30
0
 11
-838.578
 21
-152.743
 31
0
  0
ELLIPSE
  5
A19
330
A02
100
AcDbEntity
  8
Shape2DView015
100
AcDbEllipse
 10
-828.324
 20
-140.98
 30
0
 11
-1.0726e-06
 21
15
 31
0
 40
1
 41
1.92337
 42
2.14535
  0
LINE
  5
A1A
330
A02
100
AcDbEntity
  8
Shape2DView015
100
AcDbLine
 10
-844.087
 20
-141.579
 30
0
 11
-842.401
 21
-146.159
 31
0
  0
ELLIPSE
  5
A1B
330
A02
100
AcDbEntity
  8
Shape2DView015
100
AcDbEllipse
 10
-830.009
 20
-136.399
 30
0
 11
-8.58694e-07
 21
15
 31
0
 40
1
 41
1.77953
 42
1.92337
  0
LINE
  5
A1C
330
A02
100
AcDbEntity
  8
Shape2DView015
100
AcDbLine
 10
-845.826
 20
-134.116
 30
0
 11
-844.684
 21
-139.507
 31
0
  0
ELLIPSE
  5
A1D
330
A02
100
AcDbEntity
  8
Shape2DView015
100
AcDbEllipse
 10
-831.151
 20
-131.008
 30
0
 11
-9.74327e-07
 21
15
 31
0
 40
1
 41
1.6873
 42
1.77953
  0
LINE
  5
A1E
330
A02
100
AcDbEntity
  8
Shape2DView015
100
AcDbLine
 10
-846.757
 20
-126.71
 30
0
 11
-846.05
 21
-132.752
 31
0
  0
ELLIPSE
  5
A1F
330
A02
100
AcDbEntity
  8
Shape2DView015
100
AcDbEllipse
 10
-831.858
 20
-124.967
 30
0
 11
-9.24513e-07
 21
15
 31
0
 40
1
 41
1.62905
 42
1.6873
  0
LINE
  5
A20
330
A02
100
AcDbEntity
  8
Shape2DView015
100
AcDbLine
 10
-847.214
 20
-119.308
 30
0
 11
-846.833
 21
-125.84
 31
0
  0
ELLIPSE
  5
A21
330
A02
100
AcDbEntity
  8
Shape2DView015
100
AcDbEllipse
 10
-832.239
 20
-118.435
 30
0
 11
-9.45769e-07
 21
15
 31
0
 40
1
 41
1.58651
 42
1.62905
  0
LINE
  5
A22
330
A02
100
AcDbEntity
  8
Shape2DView015
100
AcDbLine
 10
-847.456
 20
-104.775
 30
0
 11
-847.237
 21
-118.67
 31
0
  0
LINE
  5
A23
330
A02
100
AcDbEntity
  8
Shape2DView015
100
AcDbLine
 10
-847.675
 20
-91.0033
 30
0
 11
-847.456
 21
-104.775
 31
0
  0
LINE
  5
A24
330
A02
100
AcDbEntity
  8
Shape2DView015
100
AcDbLine
 10
-848.023
 20
-85.1144
 30
0
 11
-847.675
 21
-91.0033
 31
0
  0
LINE
  5
A25
330
A02
100
AcDbEntity
  8
Shape2DView015
100
AcDbLine
 10
-848.621
 20
-80.0759
 30
0
 11
-848.023
 21
-85.1144
 31
0
  0
LINE
  5
A26
330
A02
100
AcDbEntity
  8
Shape2DView015
100
AcDbLine
 10
-849.429
 20
-76.296
 30
0
 11
-848.621
 21
-80.0759
 31
0
  0
LINE
  5
A27
330
A02
100
AcDbEntity
  8
Shape2DView015
100
AcDbLine
 10
-850.057
 20
-74.6018
 30
0
 11
-849.429
 21
-76.296
 31
0
  0
ELLIPSE
  5
A28
330
A02
100
AcDbEntity
  8
Shape2DView015
100
AcDbEllipse
 10
-848.242
 20
-59.712
 30
0
 11
-9.5821e-07
 21
15
 31
0
 40
1
 41
1.70453
 42
3.02029
  0
LINE
  5
A29
330
A02
100
AcDbEntity
  8
Shape2DView015
100
AcDbLine
 10
-863.108
 20
-61.712
 30
0
 11
-855.219
 21
-61.712
 31
0
  0
LINE
  5
A2A
330
A02
100
AcDbEntity
  8
Shape2DView015
100
AcDbLine
 10
-855.219
 20
-61.712
 30
0
 11
-855.219
 21
-57.712
 31
0
  0
LINE
  5
A2B
330
A02
100
AcDbEntity
  8
Shape2DView015
100
AcDbLine
 10
-855.219
 20
-57.712
 30
0
 11
-863.108
 21
-57.712
 31
0
  0
ELLIPSE
  5
A2C
330
A02
100
AcDbEntity
  8
Shape2DView015
100
AcDbEllipse
 10
-848.242
 20
-59.712
 30
0
 11
-9.5821e-07
 21
15
 31
0
 40
1
 41
6.17247
 42
1.43706
  0
LINE
  5
A2D
330
A02
100
AcDbEntity
  8
Shape2DView015
100
AcDbLine
 10
-846.585
 20
-44.8038
 30
0
 11
-843.412
 21
-45.1565
 31
0
  0
ELLIPSE
  5
A2E
330
A02
100
AcDbEntity
  8
Shape2DView015
100
AcDbEllipse
 10
-845.07
 20
-60.0647
 30
0
 11
-9.61412e-07
 21
15
 31
0
 40
1
 41
5.92274
 42
6.17247
  0
LINE
  5
A2F
330
A02
100
AcDbEntity
  8
Shape2DView015
100
AcDbLine
 10
-839.779
 20
-46.0286
 30
0
 11
-837.066
 21
-47.0511
 31
0
  0
ELLIPSE
  5
A30
330
A02
100
AcDbEntity
  8
Shape2DView015
100
AcDbEllipse
 10
-842.357
 20
-61.0872
 30
0
 11
-1.02208e-06
 21
15
 31
0
 40
1
 41
5.69608
 42
5.92274
  0
LINE
  5
A31
330
A02
100
AcDbEntity
  8
Shape2DView015
100
AcDbLine
 10
-834.047
 20
-48.599
 30
0
 11
-832.339
 21
-49.7358
 31
0
  0
ELLIPSE
  5
A32
330
A02
100
AcDbEntity
  8
Shape2DView015
100
AcDbEllipse
 10
-840.648
 20
-62.2241
 30
0
 11
-9.0181e-07
 21
15
 31
0
 40
1
 41
5.51611
 42
5.69608
  0
LINE
  5
A33
330
A02
100
AcDbEntity
  8
Shape2DView015
100
AcDbLine
 10
-830.238
 20
-51.4249
 30
0
 11
-828.74
 21
-52.8687
 31
0
  0
ELLIPSE
  5
A34
330
A02
100
AcDbEntity
  8
Shape2DView015
100
AcDbEllipse
 10
-839.15
 20
-63.6678
 30
0
 11
-8.67503e-07
 21
15
 31
0
 40
1
 41
5.28821
 42
5.51611
  0
LINE
  5
A35
330
A02
100
AcDbEntity
  8
Shape2DView015
100
AcDbLine
 10
-826.569
 20
-55.4999
 30
0
 11
-824.151
 21
-59.2255
 31
0
  0
ELLIPSE
  5
A36
330
A02
100
AcDbEntity
  8
Shape2DView015
100
AcDbEllipse
 10
-836.732
 20
-67.3934
 30
0
 11
-9.86947e-07
 21
15
 31
0
 40
1
 41
5.06728
 42
5.28821
  0
LINE
  5
A37
330
A02
100
AcDbEntity
  8
Shape2DView015
100
AcDbLine
 10
-822.666
 20
-62.1811
 30
0
 11
-820.923
 21
-66.8865
 31
0
  0
ELLIPSE
  5
A38
330
A02
100
AcDbEntity
  8
Shape2DView015
100
AcDbEllipse
 10
-834.988
 20
-72.0987
 30
0
 11
-9.15209e-07
 21
15
 31
0
 40
1
 41
4.92319
 42
5.06728
  0
LINE
  5
A39
330
A02
100
AcDbEntity
  8
Shape2DView015
100
AcDbLine
 10
-820.32
 20
-68.96
 30
0
 11
-819.139
 21
-74.4799
 31
0
  0
ELLIPSE
  5
A3A
330
A02
100
AcDbEntity
  8
Shape2DView015
100
AcDbEllipse
 10
-833.807
 20
-77.6186
 30
0
 11
-9.29932e-07
 21
15
 31
0
 40
1
 41
4.83035
 42
4.92319
  0
LINE
  5
A3B
330
A02
100
AcDbEntity
  8
Shape2DView015
100
AcDbLine
 10
-818.911
 20
-75.8532
 30
0
 11
-818.18
 21
-82.0223
 31
0
  0
ELLIPSE
  5
A3C
330
A02
100
AcDbEntity
  8
Shape2DView015
100
AcDbEllipse
 10
-833.076
 20
-83.7876
 30
0
 11
-9.64892e-07
 21
15
 31
0
 40
1
 41
4.77148
 42
4.83035
  0
LINE
  5
A3D
330
A02
100
AcDbEntity
  8
Shape2DView015
100
AcDbLine
 10
-818.102
 20
-82.9019
 30
0
 11
-817.708
 21
-89.5549
 31
0
  0
ELLIPSE
  5
A3E
330
A02
100
AcDbEntity
  8
Shape2DView015
100
AcDbEllipse
 10
-832.682
 20
-90.4407
 30
0
 11
-9.44088e-07
 21
15
 31
0
 40
1
 41
4.72831
 42
4.77148
  0
LINE
  5
A3F
330
A02
100
AcDbEntity
  8
Shape2DView015
100
AcDbLine
 10
-817.684
 20
-90.2019
 30
0
 11
-817.46
 21
-104.299
 31
0
  0
ELLIPSE
  5
A40
330
A02
100
AcDbEntity
  8
Shape2DView015
100
AcDbEllipse
 10
-832.458
 20
-104.538
 30
0
 11
-9.45769e-07
 21
15
 31
0
 40
1
 41
4.7281
 42
4.72831
  0
LINE
  5
A41
330
A02
100
AcDbEntity
  8
Shape2DView015
100
AcDbLine
 10
-817.46
 20
-104.302
 30
0
 11
-817.246
 21
-117.88
 31
0
  0
LINE
  5
A42
330
A02
100
AcDbEntity
  8
Shape2DView015
100
AcDbLine
 10
-817.246
 20
-117.88
 30
0
 11
-816.909
 21
-123.657
 31
0
  0
LINE
  5
A43
330
A02
100
AcDbEntity
  8
Shape2DView015
100
AcDbLine
 10
-816.909
 20
-123.657
 30
0
 11
-816.333
 21
-128.577
 31
0
  0
LINE
  5
A44
330
A02
100
AcDbEntity
  8
Shape2DView015
100
AcDbLine
 10
-816.333
 20
-128.577
 30
0
 11
-815.559
 21
-132.233
 31
0
  0
LINE
  5
A45
330
A02
100
AcDbEntity
  8
Shape2DView015
100
AcDbLine
 10
-815.559
 20
-132.233
 30
0
 11
-815.149
 21
-133.348
 31
0
  0
LINE
  5
A46
330
A02
100
AcDbEntity
  8
Shape2DView015
100
AcDbLine
 10
-815.149
 20
-133.348
 30
0
 11
-814.156
 21
-133.348
 31
0
  0
SPLINE
  5
A47
330
A02
100
AcDbEntity
  8
Shape2DView015
100
AcDbSpline
210
0
220
0
230
1
 70
8
 71
3
 72
17
 73
13
 74
0
 40
0.0109404
 40
0.0109404
 40
0.0109404
 40
0.0109404
 40
0.0737271
 40
0.0737271
 40
0.0737271
 40
0.136514
 40
0.136514
 40
0.136514
 40
0.1993
 40
0.1993
 40
0.1993
 40
0.262087
 40
0.262087
 40
0.262087
 40
0.262087
 10
-814.156
 20
-133.348
 30
0
 10
-806.162
 20
-125.357
 30
0
 10
-799.365
 20
-117.76
 30
0
 10
-793.645
 20
-110.525
 30
0
 10
-787.925
 20
-103.289
 30
0
 10
-783.282
 20
-96.4179
 30
0
 10
-779.569
 20
-89.8665
 30
0
 10
-775.856
 20
-83.3132
 30
0
 10
-773.071
 20
-77.0833
 30
0
 10
-771.043
 20
-71.0811
 30
0
 10
-769.016
 20
-65.0766
 30
0
 10
-767.741
 20
-59.2976
 30
0
 10
-767.077
 20
-53.5826
 30
0
  0
SPLINE
  5
A48
330
A02
100
AcDbEntity
  8
Shape2DView015
100
AcDbSpline
210
0
220
0
230
1
 70
8
 71
3
 72
17
 73
13
 74
0
 40
0.262087
 40
0.262087
 40
0.262087
 40
0.262087
 40
0.349023
 40
0.349023
 40
0.349023
 40
0.435959
 40
0.435959
 40
0.435959
 40
0.522896
 40
0.522896
 40
0.522896
 40
0.609832
 40
0.609832
 40
0.609832
 40
0.609832
 10
-767.077
 20
-53.5826
 30
0
 10
-766.164
 20
-45.672
 30
0
 10
-766.416
 20
-37.8594
 30
0
 10
-767.671
 20
-29.7615
 30
0
 10
-768.928
 20
-21.6708
 30
0
 10
-771.209
 20
-13.3014
 30
0
 10
-774.367
 20
-4.49341
 30
0
 10
-777.521
 20
4.31215
 30
0
 10
-781.549
 20
13.5445
 30
0
 10
-786.207
 20
23.3031
 30
0
 10
-790.863
 20
33.0623
 30
0
 10
-796.145
 20
43.3461
 30
0
 10
-801.761
 20
54.2747
 30
0
  0
SPLINE
  5
A49
330
A02
100
AcDbEntity
  8
Shape2DView015
100
AcDbSpline
210
0
220
0
230
1
 70
8
 71
3
 72
8
 73
4
 74
0
 40
0.609832
 40
0.609832
 40
0.609832
 40
0.609832
 40
0.682255
 40
0.682255
 40
0.682255
 40
0.682255
 10
-801.761
 20
54.2747
 30
0
 10
-806.44
 20
63.3794
 30
0
 10
-811.35
 20
72.9326
 30
0
 10
-816.315
 20
83.0148
 30
0
  0
SPLINE
  5
A4A
330
A02
100
AcDbEntity
  8
Shape2DView015
100
AcDbSpline
210
0
220
0
230
1
 70
8
 71
3
 72
14
 73
10
 74
0
 40
0
 40
0
 40
0
 40
0
 40
0.223346
 40
0.223346
 40
0.223346
 40
0.554937
 40
0.554937
 40
0.554937
 40
1
 40
1
 40
1
 40
1
 10
-814.745
 20
87.5501
 30
0
 10
-815.101
 20
87.4404
 30
0
 10
-815.453
 20
87.2454
 30
0
 10
-815.751
 20
86.9706
 30
0
 10
-816.198
 20
86.5648
 30
0
 10
-816.51
 20
85.9869
 30
0
 10
-816.635
 20
85.3777
 30
0
 10
-816.808
 20
84.557
 30
0
 10
-816.655
 20
83.6984
 30
0
 10
-816.315
 20
83.0148
 30
0
  0
SPLINE
  5
A4B
330
A02
100
AcDbEntity
  8
Shape2DView015
100
AcDbSpline
210
0
220
0
230
1
 70
8
 71
2
 72
6
 73
3
 74
0
 40
1.89432
 40
1.89432
 40
1.89432
 40
6.34477
 40
6.34477
 40
6.34477
 10
-816.315
 20
83.0148
 30
0
 10
-815.842
 20
82.0545
 30
0
 10
-815.391
 20
81.1441
 30
0
  0
SPLINE
  5
A4C
330
A02
100
AcDbEntity
  8
Shape2DView015
100
AcDbSpline
210
0
220
0
230
1
 70
8
 71
3
 72
17
 73
13
 74
0
 40
0
 40
0
 40
0
 40
0
 40
0.22652
 40
0.22652
 40
0.22652
 40
0.441075
 40
0.441075
 40
0.441075
 40
0.564932
 40
0.564932
 40
0.564932
 40
1
 40
1
 40
1
 40
1
 10
-813.869
 20
85.6296
 30
0
 10
-814.221
 20
85.5109
 30
0
 10
-814.568
 20
85.308
 30
0
 10
-814.861
 20
85.0278
 30
0
 10
-815.139
 20
84.7635
 30
0
 10
-815.366
 20
84.4321
 30
0
 10
-815.52
 20
84.0679
 30
0
 10
-815.61
 20
83.8566
 30
0
 10
-815.676
 20
83.6381
 30
0
 10
-815.718
 20
83.4126
 30
0
 10
-815.87
 20
82.6214
 30
0
 10
-815.719
 20
81.8004
 30
0
 10
-815.391
 20
81.1441
 30
0
  0
SPLINE
  5
A4D
330
A02
100
AcDbEntity
  8
Shape2DView015
100
AcDbSpline
210
0
220
0
230
1
 70
8
 71
1
 72
4
 73
2
 74
0
 40
1.05067
 40
1.05067
 40
1.47737
 40
1.47737
 10
-787.829
 20
93.0898
 30
0
 10
-787.756
 20
92.9431
 30
0
  0
SPLINE
  5
A4E
330
A02
100
AcDbEntity
  8
Shape2DView015
100
AcDbSpline
210
0
220
0
230
1
 70
8
 71
1
 72
4
 73
2
 74
0
 40
0.999931
 40
0.999931
 40
1
 40
1
 10
-787.111
 20
91.6475
 30
0
 10
-787.111
 20
91.6472
 30
0
  0
SPLINE
  5
A4F
330
A02
100
AcDbEntity
  8
Shape2DView015
100
AcDbSpline
210
0
220
0
230
1
 70
8
 71
2
 72
6
 73
3
 74
0
 40
0.609832
 40
0.609832
 40
0.609832
 40
0.624317
 40
0.624317
 40
0.624317
 10
-801.761
 20
54.2747
 30
0
 10
-803.165
 20
57.0059
 30
0
 10
-804.595
 20
59.792
 30
0
  0
SPLINE
  5
A50
330
A02
100
AcDbEntity
  8
Shape2DView015
100
AcDbSpline
210
0
220
0
230
1
 70
8
 71
1
 72
4
 73
2
 74
0
 40
0.677002
 40
0.677002
 40
0.677761
 40
0.677761
 10
-815.235
 20
80.8291
 30
0
 10
-815.391
 20
81.1441
 30
0
  0
SPLINE
  5
A51
330
A02
100
AcDbEntity
  8
Shape2DView015
100
AcDbSpline
210
0
220
0
230
1
 70
8
 71
3
 72
8
 73
4
 74
0
 40
0.609832
 40
0.609832
 40
0.609832
 40
0.609832
 40
0.670785
 40
0.670785
 40
0.670785
 40
0.670785
 10
-775.078
 20
67.9867
 30
0
 10
-779.016
 20
75.6492
 30
0
 10
-783.057
 20
83.5137
 30
0
 10
-787.111
 20
91.6472
 30
0
  0
SPLINE
  5
A52
330
A02
100
AcDbEntity
  8
Shape2DView015
100
AcDbSpline
210
0
220
0
230
1
 70
8
 71
1
 72
4
 73
2
 74
0
 40
0.262087
 40
0.262087
 40
0.262096
 40
0.262096
 10
-767.077
 20
-53.5826
 30
0
 10
-767.077
 20
-53.58
 30
0
  0
SPLINE
  5
A53
330
A02
100
AcDbEntity
  8
Shape2DView015
100
AcDbSpline
210
0
220
0
230
1
 70
8
 71
3
 72
17
 73
13
 74
0
 40
0.262087
 40
0.262087
 40
0.262087
 40
0.262087
 40
0.349023
 40
0.349023
 40
0.349023
 40
0.435959
 40
0.435959
 40
0.435959
 40
0.522896
 40
0.522896
 40
0.522896
 40
0.609832
 40
0.609832
 40
0.609832
 40
0.609832
 10
-737.277
 20
-57.0356
 30
0
 10
-736.02
 20
-46.2134
 30
0
 10
-736.405
 20
-35.5692
 30
0
 10
-738.027
 20
-25.1529
 30
0
 10
-739.649
 20
-14.7294
 30
0
 10
-742.487
 20
-4.52726
 30
0
 10
-746.125
 20
5.62697
 30
0
 10
-749.766
 20
15.7836
 30
0
 10
-754.209
 20
25.9042
 30
0
 10
-759.131
 20
36.2225
 30
0
 10
-764.055
 20
46.5402
 30
0
 10
-769.462
 20
57.0572
 30
0
 10
-775.078
 20
67.9867
 30
0
  0
SPLINE
  5
A54
330
A02
100
AcDbEntity
  8
Shape2DView015
100
AcDbSpline
210
0
220
0
230
1
 70
8
 71
3
 72
17
 73
13
 74
0
 40
0.0109404
 40
0.0109404
 40
0.0109404
 40
0.0109404
 40
0.0737271
 40
0.0737271
 40
0.0737271
 40
0.136514
 40
0.136514
 40
0.136514
 40
0.1993
 40
0.1993
 40
0.1993
 40
0.262087
 40
0.262087
 40
0.262087
 40
0.262087
 10
-814.156
 20
-133.348
 30
0
 10
-806.162
 20
-125.357
 30
0
 10
-799.365
 20
-117.76
 30
0
 10
-793.645
 20
-110.525
 30
0
 10
-787.925
 20
-103.289
 30
0
 10
-783.282
 20
-96.4179
 30
0
 10
-779.569
 20
-89.8665
 30
0
 10
-775.856
 20
-83.3132
 30
0
 10
-773.071
 20
-77.0833
 30
0
 10
-771.043
 20
-71.0811
 30
0
 10
-769.016
 20
-65.0766
 30
0
 10
-767.741
 20
-59.2976
 30
0
 10
-767.077
 20
-53.5826
 30
0
  0
SPLINE
  5
A55
330
A02
100
AcDbEntity
  8
Shape2DView015
100
AcDbSpline
210
0
220
0
230
1
 70
8
 71
3
 72
17
 73
13
 74
0
 40
0
 40
0
 40
0
 40
0
 40
0.0655217
 40
0.0655217
 40
0.0655217
 40
0.131043
 40
0.131043
 40
0.131043
 40
0.196565
 40
0.196565
 40
0.196565
 40
0.262087
 40
0.262087
 40
0.262087
 40
0.262087
 10
-797.597
 20
-159.134
 30
0
 10
-788.106
 20
-149.962
 30
0
 10
-779.855
 20
-141.082
 30
0
 10
-772.734
 20
-132.389
 30
0
 10
-765.615
 20
-123.695
 30
0
 10
-759.624
 20
-115.186
 30
0
 10
-754.684
 20
-106.765
 30
0
 10
-749.745
 20
-98.3457
 30
0
 10
-745.859
 20
-90.0102
 30
0
 10
-742.976
 20
-81.7195
 30
0
 10
-740.093
 20
-73.4313
 30
0
 10
-738.22
 20
-65.1901
 30
0
 10
-737.277
 20
-57.0356
 30
0
  0
ENDSEC
  0
SECTION
  2
OBJECTS
  0
DICTIONARY
  5
F000
330
0
100
AcDbDictionary
  3
ACAD_GROUP
350
F001
  0
DICTIONARY
  5
F001
330
F000
100
AcDbDictionary
  0
ENDSEC
  0
EOF