999
FreeCAD v0.21 33668 +26 (Git)
  0
SECTION
  2
HEADER
  9
$ACADVER
  1
AC1014
  9
$ACADMAINTVER
 70
     9
  9
$DWGCODEPAGE
  3
ANSI_1252
  9
$TEXTSTYLE
  7
STANDARD
  9
$DIMSTYLE
  2
STANDARD
  9
$DIMTXSTY
  7
STANDARD
  9
$CMLSTYLE
  2
STANDARD
  9
$LUNITS
 70
2
  9
$INSUNITS
 70
4
  9
$PEXTMAX
 10
50
 20
50
 30
50
  9
$PEXTMIN
 10
0
 20
0
 30
0
  9
$HANDSEED
  5
FFFF
  0
ENDSEC
  0
SECTION
  2
CLASSES
  0
CLASS
  1
ACDBDICTIONARYWDFLT
  2
AcDbDictionaryWithDefault
  3
ObjectDBX Classes
 90
        0
280
     0
281
     0
  0
CLASS
  1
XRECORD
  2
AcDbXrecord
  3
ObjectDBX Classes
 90
        0
280
     0
281
     0
  0
CLASS
  1
LWPOLYLINE
  2
AcDbPolyline
  3
ObjectDBX Classes
 90
        0
280
     0
281
     1
  0
ENDSEC
  0
SECTION
  2
TABLES
  0
TABLE
  2
VPORT
  5
20
330
0
100
AcDbSymbolTable
 70
     1
  0
VPORT
  5
21
330
20
100
AcDbSymbolTableRecord
100
AcDbViewportTableRecord
  2
*ACTIVE
 70
     0
  0
ENDTAB
  0
TABLE
  2
LTYPE
  5
22
330
0
100
AcDbSymbolTable
 70
     1
  0
LTYPE
  5
23
330
21
100
AcDbSymbolTableRecord
100
AcDbLinetypeTableRecord
  2
BYBLOCK
 70
     0
  3

 72
    65
 73
     0
 40
0.0
  0
LTYPE
  5
24
330
21
100
AcDbSymbolTableRecord
100
AcDbLinetypeTableRecord
  2
BYLAYER
 70
     0
  3

 72
    65
 73
     0
 40
0.0
  0
LTYPE
  5
25
330
21
100
AcDbSymbolTableRecord
100
AcDbLinetypeTableRecord
  2
CONTINUOUS
 70
     0
  3
Solid line
 72
    65
 73
     0
 40
0.0
  0
ENDTAB
  0
TABLE
  2
LAYER
  5
A53
330
0
100
AcDbSymbolTable
 70
3
  0
LAYER
  5
A54
330
A53
100
AcDbSymbolTableRecord
100
AcDbLayerTableRecord
  2
0
 70
   0
 62
   7
  6
CONTINUOUS
  0
LAYER
  5
A55
330
A53
100
AcDbSymbolTableRecord
100
AcDbLayerTableRecord
  2
none
 70
    0
 62
    7
  6
CONTINUOUS
  0
LAYER
  5
A56
330
A53
100
AcDbSymbolTableRecord
100
AcDbLayerTableRecord
  2
Shape2DView012
 70
    0
 62
    7
  6
CONTINUOUS
  0
ENDTAB
  0
TABLE
  2
STYLE
  5
70
330
0
100
AcDbSymbolTable
 70
     2
  0
STYLE
  5
71
330
70
100
AcDbSymbolTableRecord
100
AcDbTextStyleTableRecord
  2
STANDARD
 70
     0
 40
0.0
 41
1.0
 50
0.0
 71
     0
 42
2.5
  3
arial.ttf
  4

  0
STYLE
  5
72
330
70
100
AcDbSymbolTableRecord
100
AcDbTextStyleTableRecord
  2
ANNOTATIVE
 70
     0
 40
0.0
 41
1.0
 50
0.0
 71
     0
 42
2.5
  3
arial.ttf
  4

  0
ENDTAB
  0
TABLE
  2
VIEW
  5
73
330
0
100
AcDbSymbolTable
 70
     0
  0
ENDTAB
  0
TABLE
  2
UCS
  5
74
330
0
100
AcDbSymbolTable
 70
     0
  0
ENDTAB
  0
TABLE
  2
APPID
  5
75
330
0
100
AcDbSymbolTable
 70
     2
  0
APPID
  5
76
330
75
100
AcDbSymbolTableRecord
100
AcDbRegAppTableRecord
  2
ACAD
 70
     0
  0
APPID
  5
77
330
75
100
AcDbSymbolTableRecord
100
AcDbRegAppTableRecord
  2
ACADANNOTATIVE
 70
     0
  0
ENDTAB
  0
TABLE
  2
DIMSTYLE
  5
78
330
0
100
AcDbSymbolTable
 70
     2
  0
DIMSTYLE
105
79
330
78
100
AcDbSymbolTableRecord
100
AcDbDimStyleTableRecord
  2
STANDARD
 70
     0
  3

  4

  5

  6

  7

 40
0.0
 41
2.5
 42
0.625
 43
3.75
 44
1.25
 45
0.0
 46
0.0
 47
0.0
 48
0.0
140
2.5
141
2.5
142
0.0
143
0.03937007874016
144
1.0
145
0.0
146
1.0
147
0.625
 71
     0
 72
     0
 73
     0
 74
     0
 75
     0
 76
     0
 77
     1
 78
     8
170
     0
171
     3
172
     1
173
     0
174
     0
175
     0
176
     0
177
     0
178
     0
270
     2
271
     2
272
     2
273
     2
274
     3
340
71
275
     0
280
     0
281
     0
282
     0
283
     0
284
     8
285
     0
286
     0
287
     3
288
     0
  0
ENDTAB
  0
TABLE
  2
BLOCK_RECORD
  5
A01
330
0
100
AcDbSymbolTable
  70
5
  0
BLOCK_RECORD
  5
A02
330
A01
100
AcDbSymbolTableRecord
100
AcDbBlockTableRecord
  2
*MODEL_SPACE
  0
BLOCK_RECORD
  5
A03
330
A01
100
AcDbSymbolTableRecord
100
AcDbBlockTableRecord
  2
*PAPER_SPACE
  0
ENDTAB
  0
ENDSEC
  0
SECTION
  2
BLOCKS
  0
BLOCK
  5
A04
330
A02
100
AcDbEntity
  8
0
100
AcDbBlockBegin
  2
*MODEL_SPACE
 70
   0
 10
0
 20
0
 30
0
  3
*MODEL_SPACE
  1
 
  0
ENDBLK
  5
A05
330
A02
100
AcDbEntity
  8
0
100
AcDbBlockEnd
  0
BLOCK
  5
A06
330
A03
100
AcDbEntity
 67
1
  8
0
100
AcDbBlockBegin
  2
*PAPER_SPACE
 70
   0
 10
0
 20
0
 30
0
  3
*PAPER_SPACE
  1
 
  0
ENDBLK
  5
A07
330
A03
100
AcDbEntity
 67
    1
  8
0
100
AcDbBlockEnd
  0
ENDSEC
  0
SECTION
  2
ENTITIES
  0
SPLINE
  5
A08
330
A02
100
AcDbEntity
  8
Shape2DView012
100
AcDbSpline
210
0
220
0
230
1
 70
8
 71
3
 72
8
 73
4
 74
0
 40
0.303008
 40
0.303008
 40
0.303008
 40
0.303008
 40
0.475579
 40
0.475579
 40
0.475579
 40
0.475579
 10
-683.511
 20
-31.0238
 30
0
 10
-691.211
 20
-33.3595
 30
0
 10
-698.903
 20
-35.7482
 30
0
 10
-706.591
 20
-38.1561
 30
0
  0
SPLINE
  5
A09
330
A02
100
AcDbEntity
  8
Shape2DView012
100
AcDbSpline
210
0
220
0
230
1
 70
8
 71
3
 72
14
 73
10
 74
0
 40
0
 40
0
 40
0
 40
0
 40
0.181779
 40
0.181779
 40
0.181779
 40
0.56737
 40
0.56737
 40
0.56737
 40
1
 40
1
 40
1
 40
1
 10
-706.591
 20
-38.1561
 30
0
 10
-706.844
 20
-38.2359
 30
0
 10
-707.11
 20
-38.2776
 30
0
 10
-707.39
 20
-38.2812
 30
0
 10
-707.981
 20
-38.2889
 30
0
 10
-708.598
 20
-38.0976
 30
0
 10
-709.111
 20
-37.7547
 30
0
 10
-709.69
 20
-37.3728
 30
0
 10
-710.135
 20
-36.8113
 30
0
 10
-710.396
 20
-36.2191
 30
0
  0
SPLINE
  5
A0A
330
A02
100
AcDbEntity
  8
Shape2DView012
100
AcDbSpline
210
0
220
0
230
1
 70
8
 71
3
 72
8
 73
4
 74
0
 40
0.609832
 40
0.609832
 40
0.609832
 40
0.609832
 40
0.74702
 40
0.74702
 40
0.74702
 40
0.74702
 10
-737.53
 20
19.3475
 30
0
 10
-728.666
 20
2.1024
 30
0
 10
-719.282
 20
-16.1714
 30
0
 10
-710.396
 20
-36.2191
 30
0
  0
SPLINE
  5
A0B
330
A02
100
AcDbEntity
  8
Shape2DView012
100
AcDbSpline
210
0
220
0
230
1
 70
8
 71
3
 72
17
 73
13
 74
0
 40
0.262087
 40
0.262087
 40
0.262087
 40
0.262087
 40
0.349023
 40
0.349023
 40
0.349023
 40
0.435959
 40
0.435959
 40
0.435959
 40
0.522896
 40
0.522896
 40
0.522896
 40
0.609832
 40
0.609832
 40
0.609832
 40
0.609832
 10
-775.331
 20
144.37
 30
0
 10
-776.588
 20
133.548
 30
0
 10
-776.203
 20
122.903
 30
0
 10
-774.58
 20
112.487
 30
0
 10
-772.959
 20
102.064
 30
0
 10
-770.12
 20
91.8615
 30
0
 10
-766.483
 20
81.7073
 30
0
 10
-762.841
 20
71.5506
 30
0
 10
-758.399
 20
61.43
 30
0
 10
-753.477
 20
51.1117
 30
0
 10
-748.553
 20
40.7941
 30
0
 10
-743.145
 20
30.277
 30
0
 10
-737.53
 20
19.3475
 30
0
  0
SPLINE
  5
A0C
330
A02
100
AcDbEntity
  8
Shape2DView012
100
AcDbSpline
210
0
220
0
230
1
 70
8
 71
3
 72
17
 73
13
 74
0
 40
0
 40
0
 40
0
 40
0
 40
0.0655217
 40
0.0655217
 40
0.0655217
 40
0.131043
 40
0.131043
 40
0.131043
 40
0.196565
 40
0.196565
 40
0.196565
 40
0.262087
 40
0.262087
 40
0.262087
 40
0.262087
 10
-715.011
 20
246.469
 30
0
 10
-724.502
 20
237.297
 30
0
 10
-732.753
 20
228.417
 30
0
 10
-739.874
 20
219.723
 30
0
 10
-746.993
 20
211.03
 30
0
 10
-752.984
 20
202.52
 30
0
 10
-757.924
 20
194.099
 30
0
 10
-762.863
 20
185.68
 30
0
 10
-766.749
 20
177.344
 30
0
 10
-769.632
 20
169.054
 30
0
 10
-772.515
 20
160.766
 30
0
 10
-774.388
 20
152.524
 30
0
 10
-775.331
 20
144.37
 30
0
  0
ELLIPSE
  5
A0D
330
A02
100
AcDbEntity
  8
Shape2DView012
100
AcDbEllipse
 10
-704.588
 20
235.682
 30
0
 11
2.86925e-06
 21
15
 31
0
 40
1
 41
1.91283e-07
 42
0.768271
  0
LINE
  5
A0E
330
A02
100
AcDbEntity
  8
Shape2DView012
100
AcDbLine
 10
-695.232
 20
250.682
 30
0
 11
-704.588
 21
250.682
 31
0
  0
ELLIPSE
  5
A0F
330
A02
100
AcDbEntity
  8
Shape2DView012
100
AcDbEllipse
 10
-695.232
 20
235.682
 30
0
 11
2.8675e-06
 21
15
 31
0
 40
1
 41
6.17344
 42
1.90045e-07
  0
LINE
  5
A10
330
A02
100
AcDbEntity
  8
Shape2DView012
100
AcDbLine
 10
-690.624
 20
250.265
 30
0
 11
-693.589
 21
250.592
 31
0
  0
ELLIPSE
  5
A11
330
A02
100
AcDbEntity
  8
Shape2DView012
100
AcDbEllipse
 10
-692.267
 20
235.355
 30
0
 11
2.82535e-06
 21
15
 31
0
 40
1
 41
5.92647
 42
6.17344
  0
LINE
  5
A12
330
A02
100
AcDbEntity
  8
Shape2DView012
100
AcDbLine
 10
-684.483
 20
248.462
 30
0
 11
-687.029
 21
249.411
 31
0
  0
ELLIPSE
  5
A13
330
A02
100
AcDbEntity
  8
Shape2DView012
100
AcDbEllipse
 10
-689.721
 20
234.406
 30
0
 11
2.70938e-06
 21
15
 31
0
 40
1
 41
5.69995
 42
5.92647
  0
LINE
  5
A14
330
A02
100
AcDbEntity
  8
Shape2DView012
100
AcDbLine
 10
-679.808
 20
245.837
 30
0
 11
-681.46
 21
246.927
 31
0
  0
ELLIPSE
  5
A15
330
A02
100
AcDbEntity
  8
Shape2DView012
100
AcDbEllipse
 10
-688.069
 20
233.317
 30
0
 11
2.80116e-06
 21
15
 31
0
 40
1
 41
5.51737
 42
5.69995
  0
LINE
  5
A16
330
A02
100
AcDbEntity
  8
Shape2DView012
100
AcDbLine
 10
-676.225
 20
242.737
 30
0
 11
-677.672
 21
244.129
 31
0
  0
ELLIPSE
  5
A17
330
A02
100
AcDbEntity
  8
Shape2DView012
100
AcDbEllipse
 10
-686.622
 20
231.925
 30
0
 11
2.99292e-06
 21
15
 31
0
 40
1
 41
5.28695
 42
5.51737
  0
LINE
  5
A18
330
A02
100
AcDbEntity
  8
Shape2DView012
100
AcDbLine
 10
-671.692
 20
236.466
 30
0
 11
-674.03
 21
240.077
 31
0
  0
ELLIPSE
  5
A19
330
A02
100
AcDbEntity
  8
Shape2DView012
100
AcDbEllipse
 10
-684.284
 20
228.314
 30
0
 11
2.96027e-06
 21
15
 31
0
 40
1
 41
5.06497
 42
5.28695
  0
LINE
  5
A1A
330
A02
100
AcDbEntity
  8
Shape2DView012
100
AcDbLine
 10
-668.521
 20
228.913
 30
0
 11
-670.207
 21
233.494
 31
0
  0
ELLIPSE
  5
A1B
330
A02
100
AcDbEntity
  8
Shape2DView012
100
AcDbEllipse
 10
-682.598
 20
223.733
 30
0
 11
2.91927e-06
 21
15
 31
0
 40
1
 41
4.92113
 42
5.06497
  0
LINE
  5
A1C
330
A02
100
AcDbEntity
  8
Shape2DView012
100
AcDbLine
 10
-666.782
 20
221.451
 30
0
 11
-667.924
 21
226.841
 31
0
  0
ELLIPSE
  5
A1D
330
A02
100
AcDbEntity
  8
Shape2DView012
100
AcDbEllipse
 10
-681.457
 20
218.342
 30
0
 11
2.84112e-06
 21
15
 31
0
 40
1
 41
4.8289
 42
4.92113
  0
LINE
  5
A1E
330
A02
100
AcDbEntity
  8
Shape2DView012
100
AcDbLine
 10
-665.851
 20
214.045
 30
0
 11
-666.558
 21
220.086
 31
0
  0
ELLIPSE
  5
A1F
330
A02
100
AcDbEntity
  8
Shape2DView012
100
AcDbEllipse
 10
-680.749
 20
212.301
 30
0
 11
2.82847e-06
 21
15
 31
0
 40
1
 41
4.77064
 42
4.8289
  0
LINE
  5
A20
330
A02
100
AcDbEntity
  8
Shape2DView012
100
AcDbLine
 10
-665.394
 20
206.642
 30
0
 11
-665.775
 21
213.174
 31
0
  0
ELLIPSE
  5
A21
330
A02
100
AcDbEntity
  8
Shape2DView012
100
AcDbEllipse
 10
-680.369
 20
205.769
 30
0
 11
2.86322e-06
 21
15
 31
0
 40
1
 41
4.7281
 42
4.77064
  0
LINE
  5
A22
330
A02
100
AcDbEntity
  8
Shape2DView012
100
AcDbLine
 10
-665.152
 20
192.109
 30
0
 11
-665.37
 21
206.005
 31
0
  0
LINE
  5
A23
330
A02
100
AcDbEntity
  8
Shape2DView012
100
AcDbLine
 10
-664.933
 20
178.338
 30
0
 11
-665.152
 21
192.109
 31
0
  0
LINE
  5
A24
330
A02
100
AcDbEntity
  8
Shape2DView012
100
AcDbLine
 10
-664.584
 20
172.449
 30
0
 11
-664.933
 21
178.338
 31
0
  0
LINE
  5
A25
330
A02
100
AcDbEntity
  8
Shape2DView012
100
AcDbLine
 10
-663.987
 20
167.41
 30
0
 11
-664.584
 21
172.449
 31
0
  0
LINE
  5
A26
330
A02
100
AcDbEntity
  8
Shape2DView012
100
AcDbLine
 10
-663.178
 20
163.63
 30
0
 11
-663.987
 21
167.41
 31
0
  0
LINE
  5
A27
330
A02
100
AcDbEntity
  8
Shape2DView012
100
AcDbLine
 10
-662.551
 20
161.936
 30
0
 11
-663.178
 21
163.63
 31
0
  0
ELLIPSE
  5
A28
330
A02
100
AcDbEntity
  8
Shape2DView012
100
AcDbEllipse
 10
-664.366
 20
147.046
 30
0
 11
2.85383e-06
 21
15
 31
0
 40
1
 41
4.84612
 42
6.16189
  0
LINE
  5
A29
330
A02
100
AcDbEntity
  8
Shape2DView012
100
AcDbLine
 10
-649.5
 20
149.046
 30
0
 11
-657.389
 21
149.046
 31
0
  0
LINE
  5
A2A
330
A02
100
AcDbEntity
  8
Shape2DView012
100
AcDbLine
 10
-657.389
 20
149.046
 30
0
 11
-657.389
 21
145.046
 31
0
  0
LINE
  5
A2B
330
A02
100
AcDbEntity
  8
Shape2DView012
100
AcDbLine
 10
-657.389
 20
145.046
 30
0
 11
-649.5
 21
145.046
 31
0
  0
ELLIPSE
  5
A2C
330
A02
100
AcDbEntity
  8
Shape2DView012
100
AcDbEllipse
 10
-664.366
 20
147.046
 30
0
 11
2.85383e-06
 21
15
 31
0
 40
1
 41
3.03088
 42
4.57866
  0
LINE
  5
A2D
330
A02
100
AcDbEntity
  8
Shape2DView012
100
AcDbLine
 10
-666.023
 20
132.138
 30
0
 11
-669.196
 21
132.491
 31
0
  0
ELLIPSE
  5
A2E
330
A02
100
AcDbEntity
  8
Shape2DView012
100
AcDbEllipse
 10
-667.538
 20
147.399
 30
0
 11
2.87336e-06
 21
15
 31
0
 40
1
 41
2.78115
 42
3.03088
  0
LINE
  5
A2F
330
A02
100
AcDbEntity
  8
Shape2DView012
100
AcDbLine
 10
-672.829
 20
133.363
 30
0
 11
-675.542
 21
134.385
 31
0
  0
ELLIPSE
  5
A30
330
A02
100
AcDbEntity
  8
Shape2DView012
100
AcDbEllipse
 10
-670.251
 20
148.421
 30
0
 11
2.89938e-06
 21
15
 31
0
 40
1
 41
2.55449
 42
2.78115
  0
LINE
  5
A31
330
A02
100
AcDbEntity
  8
Shape2DView012
100
AcDbLine
 10
-678.561
 20
135.933
 30
0
 11
-680.269
 21
137.07
 31
0
  0
ELLIPSE
  5
A32
330
A02
100
AcDbEntity
  8
Shape2DView012
100
AcDbEllipse
 10
-671.96
 20
149.558
 30
0
 11
2.69224e-06
 21
15
 31
0
 40
1
 41
2.37452
 42
2.55449
  0
LINE
  5
A33
330
A02
100
AcDbEntity
  8
Shape2DView012
100
AcDbLine
 10
-682.37
 20
138.759
 30
0
 11
-683.868
 21
140.203
 31
0
  0
ELLIPSE
  5
A34
330
A02
100
AcDbEntity
  8
Shape2DView012
100
AcDbEllipse
 10
-673.457
 20
151.002
 30
0
 11
2.66197e-06
 21
15
 31
0
 40
1
 41
2.14662
 42
2.37452
  0
LINE
  5
A35
330
A02
100
AcDbEntity
  8
Shape2DView012
100
AcDbLine
 10
-686.039
 20
142.834
 30
0
 11
-688.457
 21
146.56
 31
0
  0
ELLIPSE
  5
A36
330
A02
100
AcDbEntity
  8
Shape2DView012
100
AcDbEllipse
 10
-675.876
 20
154.728
 30
0
 11
2.84093e-06
 21
15
 31
0
 40
1
 41
1.92568
 42
2.14662
  0
LINE
  5
A37
330
A02
100
AcDbEntity
  8
Shape2DView012
100
AcDbLine
 10
-689.941
 20
149.515
 30
0
 11
-691.685
 21
154.221
 31
0
  0
ELLIPSE
  5
A38
330
A02
100
AcDbEntity
  8
Shape2DView012
100
AcDbEllipse
 10
-677.62
 20
159.433
 30
0
 11
2.82188e-06
 21
15
 31
0
 40
1
 41
1.7816
 42
1.92568
  0
LINE
  5
A39
330
A02
100
AcDbEntity
  8
Shape2DView012
100
AcDbLine
 10
-692.288
 20
156.294
 30
0
 11
-693.469
 21
161.814
 31
0
  0
ELLIPSE
  5
A3A
330
A02
100
AcDbEntity
  8
Shape2DView012
100
AcDbEllipse
 10
-678.801
 20
164.953
 30
0
 11
2.81471e-06
 21
15
 31
0
 40
1
 41
1.68876
 42
1.7816
  0
LINE
  5
A3B
330
A02
100
AcDbEntity
  8
Shape2DView012
100
AcDbLine
 10
-693.697
 20
163.187
 30
0
 11
-694.428
 21
169.357
 31
0
  0
ELLIPSE
  5
A3C
330
A02
100
AcDbEntity
  8
Shape2DView012
100
AcDbEllipse
 10
-679.532
 20
171.122
 30
0
 11
2.85128e-06
 21
15
 31
0
 40
1
 41
1.62988
 42
1.68876
  0
LINE
  5
A3D
330
A02
100
AcDbEntity
  8
Shape2DView012
100
AcDbLine
 10
-694.506
 20
170.236
 30
0
 11
-694.9
 21
176.889
 31
0
  0
ELLIPSE
  5
A3E
330
A02
100
AcDbEntity
  8
Shape2DView012
100
AcDbEllipse
 10
-679.926
 20
177.775
 30
0
 11
2.87106e-06
 21
15
 31
0
 40
1
 41
1.58672
 42
1.62988
  0
LINE
  5
A3F
330
A02
100
AcDbEntity
  8
Shape2DView012
100
AcDbLine
 10
-694.924
 20
177.536
 30
0
 11
-695.148
 21
191.633
 31
0
  0
ELLIPSE
  5
A40
330
A02
100
AcDbEntity
  8
Shape2DView012
100
AcDbEllipse
 10
-680.15
 20
191.872
 30
0
 11
2.86322e-06
 21
15
 31
0
 40
1
 41
1.58651
 42
1.58672
  0
LINE
  5
A41
330
A02
100
AcDbEntity
  8
Shape2DView012
100
AcDbLine
 10
-695.148
 20
191.636
 30
0
 11
-695.362
 21
205.214
 31
0
  0
LINE
  5
A42
330
A02
100
AcDbEntity
  8
Shape2DView012
100
AcDbLine
 10
-695.362
 20
205.214
 30
0
 11
-695.699
 21
210.991
 31
0
  0
LINE
  5
A43
330
A02
100
AcDbEntity
  8
Shape2DView012
100
AcDbLine
 10
-695.699
 20
210.991
 30
0
 11
-696.274
 21
215.911
 31
0
  0
LINE
  5
A44
330
A02
100
AcDbEntity
  8
Shape2DView012
100
AcDbLine
 10
-696.274
 20
215.911
 30
0
 11
-697.049
 21
219.567
 31
0
  0
LINE
  5
A45
330
A02
100
AcDbEntity
  8
Shape2DView012
100
AcDbLine
 10
-697.049
 20
219.567
 30
0
 11
-697.459
 21
220.682
 31
0
  0
LINE
  5
A46
330
A02
100
AcDbEntity
  8
Shape2DView012
100
AcDbLine
 10
-697.459
 20
220.682
 30
0
 11
-698.452
 21
220.682
 31
0
  0
SPLINE
  5
A47
330
A02
100
AcDbEntity
  8
Shape2DView012
100
AcDbSpline
210
0
220
0
230
1
 70
8
 71
3
 72
17
 73
13
 74
0
 40
0.0109404
 40
0.0109404
 40
0.0109404
 40
0.0109404
 40
0.0737271
 40
0.0737271
 40
0.0737271
 40
0.136514
 40
0.136514
 40
0.136514
 40
0.1993
 40
0.1993
 40
0.1993
 40
0.262087
 40
0.262087
 40
0.262087
 40
0.262087
 10
-698.452
 20
220.682
 30
0
 10
-706.446
 20
212.691
 30
0
 10
-713.243
 20
205.094
 30
0
 10
-718.962
 20
197.859
 30
0
 10
-724.683
 20
190.624
 30
0
 10
-729.326
 20
183.752
 30
0
 10
-733.039
 20
177.201
 30
0
 10
-736.752
 20
170.647
 30
0
 10
-739.537
 20
164.418
 30
0
 10
-741.565
 20
158.415
 30
0
 10
-743.592
 20
152.411
 30
0
 10
-744.867
 20
146.632
 30
0
 10
-745.53
 20
140.917
 30
0
  0
SPLINE
  5
A48
330
A02
100
AcDbEntity
  8
Shape2DView012
100
AcDbSpline
210
0
220
0
230
1
 70
8
 71
3
 72
17
 73
13
 74
0
 40
0.262087
 40
0.262087
 40
0.262087
 40
0.262087
 40
0.349023
 40
0.349023
 40
0.349023
 40
0.435959
 40
0.435959
 40
0.435959
 40
0.522896
 40
0.522896
 40
0.522896
 40
0.609832
 40
0.609832
 40
0.609832
 40
0.609832
 10
-745.53
 20
140.917
 30
0
 10
-746.444
 20
133.006
 30
0
 10
-746.192
 20
125.194
 30
0
 10
-744.936
 20
117.096
 30
0
 10
-743.68
 20
109.005
 30
0
 10
-741.398
 20
100.636
 30
0
 10
-738.241
 20
91.8277
 30
0
 10
-735.087
 20
83.0221
 30
0
 10
-731.059
 20
73.7898
 30
0
 10
-726.401
 20
64.0312
 30
0
 10
-721.745
 20
54.272
 30
0
 10
-716.463
 20
43.9882
 30
0
 10
-710.847
 20
33.0595
 30
0
  0
SPLINE
  5
A49
330
A02
100
AcDbEntity
  8
Shape2DView012
100
AcDbSpline
210
0
220
0
230
1
 70
8
 71
3
 72
8
 73
4
 74
0
 40
0.609832
 40
0.609832
 40
0.609832
 40
0.609832
 40
0.752153
 40
0.752153
 40
0.752153
 40
0.752153
 10
-710.847
 20
33.0595
 30
0
 10
-701.653
 20
15.1664
 30
0
 10
-691.563
 20
-4.45265
 30
0
 10
-681.925
 20
-26.4291
 30
0
  0
SPLINE
  5
A4A
330
A02
100
AcDbEntity
  8
Shape2DView012
100
AcDbSpline
210
0
220
0
230
1
 70
8
 71
3
 72
14
 73
10
 74
0
 40
0
 40
0
 40
0
 40
0
 40
0.197367
 40
0.197367
 40
0.197367
 40
0.514468
 40
0.514468
 40
0.514468
 40
1
 40
1
 40
1
 40
1
 10
-683.511
 20
-31.0238
 30
0
 10
-683.2
 20
-30.9298
 30
0
 10
-682.89
 20
-30.7675
 30
0
 10
-682.62
 20
-30.5389
 30
0
 10
-682.181
 20
-30.1735
 30
0
 10
-681.857
 20
-29.6385
 30
0
 10
-681.7
 20
-29.0596
 30
0
 10
-681.453
 20
-28.1686
 30
0
 10
-681.582
 20
-27.2025
 30
0
 10
-681.925
 20
-26.4291
 30
0
  0
SPLINE
  5
A4B
330
A02
100
AcDbEntity
  8
Shape2DView012
100
AcDbSpline
210
0
220
0
230
1
 70
8
 71
2
 72
6
 73
3
 74
0
 40
2.22203
 40
2.22203
 40
2.22203
 40
6.88784
 40
6.88784
 40
6.88784
 10
-681.925
 20
-26.4291
 30
0
 10
-682.448
 20
-25.2365
 30
0
 10
-682.946
 20
-24.1136
 30
0
  0
SPLINE
  5
A4C
330
A02
100
AcDbEntity
  8
Shape2DView012
100
AcDbSpline
210
0
220
0
230
1
 70
8
 71
1
 72
4
 73
2
 74
0
 40
0.999963
 40
0.999963
 40
1
 40
1
 10
-682.946
 20
-24.1138
 30
0
 10
-682.946
 20
-24.1136
 30
0
  0
SPLINE
  5
A4D
330
A02
100
AcDbEntity
  8
Shape2DView012
100
AcDbSpline
210
0
220
0
230
1
 70
8
 71
3
 72
8
 73
4
 74
0
 40
0.609832
 40
0.609832
 40
0.609832
 40
0.609832
 40
0.747136
 40
0.747136
 40
0.747136
 40
0.747136
 10
-710.847
 20
33.0595
 30
0
 10
-701.977
 20
15.7973
 30
0
 10
-692.274
 20
-3.07172
 30
0
 10
-682.946
 20
-24.1136
 30
0
  0
SPLINE
  5
A4E
330
A02
100
AcDbEntity
  8
Shape2DView012
100
AcDbSpline
210
0
220
0
230
1
 70
8
 71
3
 72
8
 73
4
 74
0
 40
0.609832
 40
0.609832
 40
0.609832
 40
0.609832
 40
0.743133
 40
0.743133
 40
0.743133
 40
0.743133
 10
-737.53
 20
19.3475
 30
0
 10
-728.917
 20
2.59095
 30
0
 10
-719.814
 20
-15.1366
 30
0
 10
-711.152
 20
-34.5194
 30
0
  0
SPLINE
  5
A4F
330
A02
100
AcDbEntity
  8
Shape2DView012
100
AcDbSpline
210
0
220
0
230
1
 70
8
 71
3
 72
17
 73
13
 74
0
 40
0.262087
 40
0.262087
 40
0.262087
 40
0.262087
 40
0.349023
 40
0.349023
 40
0.349023
 40
0.435959
 40
0.435959
 40
0.435959
 40
0.522896
 40
0.522896
 40
0.522896
 40
0.609832
 40
0.609832
 40
0.609832
 40
0.609832
 10
-745.53
 20
140.917
 30
0
 10
-746.444
 20
133.006
 30
0
 10
-746.192
 20
125.194
 30
0
 10
-744.936
 20
117.096
 30
0
 10
-743.68
 20
109.005
 30
0
 10
-741.398
 20
100.636
 30
0
 10
-738.241
 20
91.8277
 30
0
 10
-735.087
 20
83.0221
 30
0
 10
-731.059
 20
73.7898
 30
0
 10
-726.401
 20
64.0312
 30
0
 10
-721.745
 20
54.272
 30
0
 10
-716.463
 20
43.9882
 30
0
 10
-710.847
 20
33.0595
 30
0
  0
SPLINE
  5
A50
330
A02
100
AcDbEntity
  8
Shape2DView012
100
AcDbSpline
210
0
220
0
230
1
 70
8
 71
1
 72
4
 73
2
 74
0
 40
0.262087
 40
0.262087
 40
0.262087
 40
0.262087
 10
-775.331
 20
144.37
 30
0
 10
-775.331
 20
144.37
 30
0
  0
SPLINE
  5
A51
330
A02
100
AcDbEntity
  8
Shape2DView012
100
AcDbSpline
210
0
220
0
230
1
 70
8
 71
3
 72
17
 73
13
 74
0
 40
0.0109404
 40
0.0109404
 40
0.0109404
 40
0.0109404
 40
0.0737271
 40
0.0737271
 40
0.0737271
 40
0.136514
 40
0.136514
 40
0.136514
 40
0.1993
 40
0.1993
 40
0.1993
 40
0.262087
 40
0.262087
 40
0.262087
 40
0.262087
 10
-698.452
 20
220.682
 30
0
 10
-706.446
 20
212.691
 30
0
 10
-713.243
 20
205.094
 30
0
 10
-718.962
 20
197.859
 30
0
 10
-724.683
 20
190.624
 30
0
 10
-729.326
 20
183.752
 30
0
 10
-733.039
 20
177.201
 30
0
 10
-736.752
 20
170.647
 30
0
 10
-739.537
 20
164.418
 30
0
 10
-741.565
 20
158.415
 30
0
 10
-743.592
 20
152.411
 30
0
 10
-744.867
 20
146.632
 30
0
 10
-745.53
 20
140.917
 30
0
  0
SPLINE
  5
A52
330
A02
100
AcDbEntity
  8
Shape2DView012
100
AcDbSpline
210
0
220
0
230
1
 70
8
 71
3
 72
17
 73
13
 74
0
 40
0
 40
0
 40
0
 40
0
 40
0.0655217
 40
0.0655217
 40
0.0655217
 40
0.131043
 40
0.131043
 40
0.131043
 40
0.196565
 40
0.196565
 40
0.196565
 40
0.262087
 40
0.262087
 40
0.262087
 40
0.262087
 10
-715.011
 20
246.469
 30
0
 10
-724.502
 20
237.297
 30
0
 10
-732.753
 20
228.417
 30
0
 10
-739.874
 20
219.723
 30
0
 10
-746.993
 20
211.03
 30
0
 10
-752.984
 20
202.52
 30
0
 10
-757.924
 20
194.099
 30
0
 10
-762.863
 20
185.68
 30
0
 10
-766.749
 20
177.344
 30
0
 10
-769.632
 20
169.054
 30
0
 10
-772.515
 20
160.766
 30
0
 10
-774.388
 20
152.524
 30
0
 10
-775.331
 20
144.37
 30
0
  0
ENDSEC
  0
SECTION
  2
OBJECTS
  0
DICTIONARY
  5
F000
330
0
100
AcDbDictionary
  3
ACAD_GROUP
350
F001
  0
DICTIONARY
  5
F001
330
F000
100
AcDbDictionary
  0
ENDSEC
  0
EOF