999
FreeCAD v0.21 33668 +26 (Git)
  0
SECTION
  2
HEADER
  9
$ACADVER
  1
AC1014
  9
$ACADMAINTVER
 70
     9
  9
$DWGCODEPAGE
  3
ANSI_1252
  9
$TEXTSTYLE
  7
STANDARD
  9
$DIMSTYLE
  2
STANDARD
  9
$DIMTXSTY
  7
STANDARD
  9
$CMLSTYLE
  2
STANDARD
  9
$LUNITS
 70
2
  9
$INSUNITS
 70
4
  9
$PEXTMAX
 10
50
 20
50
 30
50
  9
$PEXTMIN
 10
0
 20
0
 30
0
  9
$HANDSEED
  5
FFFF
  0
ENDSEC
  0
SECTION
  2
CLASSES
  0
CLASS
  1
ACDBDICTIONARYWDFLT
  2
AcDbDictionaryWithDefault
  3
ObjectDBX Classes
 90
        0
280
     0
281
     0
  0
CLASS
  1
XRECORD
  2
AcDbXrecord
  3
ObjectDBX Classes
 90
        0
280
     0
281
     0
  0
CLASS
  1
LWPOLYLINE
  2
AcDbPolyline
  3
ObjectDBX Classes
 90
        0
280
     0
281
     1
  0
ENDSEC
  0
SECTION
  2
TABLES
  0
TABLE
  2
VPORT
  5
20
330
0
100
AcDbSymbolTable
 70
     1
  0
VPORT
  5
21
330
20
100
AcDbSymbolTableRecord
100
AcDbViewportTableRecord
  2
*ACTIVE
 70
     0
  0
ENDTAB
  0
TABLE
  2
LTYPE
  5
22
330
0
100
AcDbSymbolTable
 70
     1
  0
LTYPE
  5
23
330
21
100
AcDbSymbolTableRecord
100
AcDbLinetypeTableRecord
  2
BYBLOCK
 70
     0
  3

 72
    65
 73
     0
 40
0.0
  0
LTYPE
  5
24
330
21
100
AcDbSymbolTableRecord
100
AcDbLinetypeTableRecord
  2
BYLAYER
 70
     0
  3

 72
    65
 73
     0
 40
0.0
  0
LTYPE
  5
25
330
21
100
AcDbSymbolTableRecord
100
AcDbLinetypeTableRecord
  2
CONTINUOUS
 70
     0
  3
Solid line
 72
    65
 73
     0
 40
0.0
  0
ENDTAB
  0
TABLE
  2
LAYER
  5
A54
330
0
100
AcDbSymbolTable
 70
3
  0
LAYER
  5
A55
330
A54
100
AcDbSymbolTableRecord
100
AcDbLayerTableRecord
  2
0
 70
   0
 62
   7
  6
CONTINUOUS
  0
LAYER
  5
A56
330
A54
100
AcDbSymbolTableRecord
100
AcDbLayerTableRecord
  2
none
 70
    0
 62
    7
  6
CONTINUOUS
  0
LAYER
  5
A57
330
A54
100
AcDbSymbolTableRecord
100
AcDbLayerTableRecord
  2
Shape2DView009
 70
    0
 62
    7
  6
CONTINUOUS
  0
ENDTAB
  0
TABLE
  2
STYLE
  5
70
330
0
100
AcDbSymbolTable
 70
     2
  0
STYLE
  5
71
330
70
100
AcDbSymbolTableRecord
100
AcDbTextStyleTableRecord
  2
STANDARD
 70
     0
 40
0.0
 41
1.0
 50
0.0
 71
     0
 42
2.5
  3
arial.ttf
  4

  0
STYLE
  5
72
330
70
100
AcDbSymbolTableRecord
100
AcDbTextStyleTableRecord
  2
ANNOTATIVE
 70
     0
 40
0.0
 41
1.0
 50
0.0
 71
     0
 42
2.5
  3
arial.ttf
  4

  0
ENDTAB
  0
TABLE
  2
VIEW
  5
73
330
0
100
AcDbSymbolTable
 70
     0
  0
ENDTAB
  0
TABLE
  2
UCS
  5
74
330
0
100
AcDbSymbolTable
 70
     0
  0
ENDTAB
  0
TABLE
  2
APPID
  5
75
330
0
100
AcDbSymbolTable
 70
     2
  0
APPID
  5
76
330
75
100
AcDbSymbolTableRecord
100
AcDbRegAppTableRecord
  2
ACAD
 70
     0
  0
APPID
  5
77
330
75
100
AcDbSymbolTableRecord
100
AcDbRegAppTableRecord
  2
ACADANNOTATIVE
 70
     0
  0
ENDTAB
  0
TABLE
  2
DIMSTYLE
  5
78
330
0
100
AcDbSymbolTable
 70
     2
  0
DIMSTYLE
105
79
330
78
100
AcDbSymbolTableRecord
100
AcDbDimStyleTableRecord
  2
STANDARD
 70
     0
  3

  4

  5

  6

  7

 40
0.0
 41
2.5
 42
0.625
 43
3.75
 44
1.25
 45
0.0
 46
0.0
 47
0.0
 48
0.0
140
2.5
141
2.5
142
0.0
143
0.03937007874016
144
1.0
145
0.0
146
1.0
147
0.625
 71
     0
 72
     0
 73
     0
 74
     0
 75
     0
 76
     0
 77
     1
 78
     8
170
     0
171
     3
172
     1
173
     0
174
     0
175
     0
176
     0
177
     0
178
     0
270
     2
271
     2
272
     2
273
     2
274
     3
340
71
275
     0
280
     0
281
     0
282
     0
283
     0
284
     8
285
     0
286
     0
287
     3
288
     0
  0
ENDTAB
  0
TABLE
  2
BLOCK_RECORD
  5
A01
330
0
100
AcDbSymbolTable
  70
5
  0
BLOCK_RECORD
  5
A02
330
A01
100
AcDbSymbolTableRecord
100
AcDbBlockTableRecord
  2
*MODEL_SPACE
  0
BLOCK_RECORD
  5
A03
330
A01
100
AcDbSymbolTableRecord
100
AcDbBlockTableRecord
  2
*PAPER_SPACE
  0
ENDTAB
  0
ENDSEC
  0
SECTION
  2
BLOCKS
  0
BLOCK
  5
A04
330
A02
100
AcDbEntity
  8
0
100
AcDbBlockBegin
  2
*MODEL_SPACE
 70
   0
 10
0
 20
0
 30
0
  3
*MODEL_SPACE
  1
 
  0
ENDBLK
  5
A05
330
A02
100
AcDbEntity
  8
0
100
AcDbBlockEnd
  0
BLOCK
  5
A06
330
A03
100
AcDbEntity
 67
1
  8
0
100
AcDbBlockBegin
  2
*PAPER_SPACE
 70
   0
 10
0
 20
0
 30
0
  3
*PAPER_SPACE
  1
 
  0
ENDBLK
  5
A07
330
A03
100
AcDbEntity
 67
    1
  8
0
100
AcDbBlockEnd
  0
ENDSEC
  0
SECTION
  2
ENTITIES
  0
SPLINE
  5
A08
330
A02
100
AcDbEntity
  8
Shape2DView009
100
AcDbSpline
210
0
220
0
230
1
 70
8
 71
3
 72
8
 73
4
 74
0
 40
0.208754
 40
0.208754
 40
0.208754
 40
0.208754
 40
0.380517
 40
0.380517
 40
0.380517
 40
0.380517
 10
-576.747
 20
375.684
 30
0
 10
-584.425
 20
373.447
 30
0
 10
-592.087
 20
371.111
 30
0
 10
-599.744
 20
368.747
 30
0
  0
SPLINE
  5
A09
330
A02
100
AcDbEntity
  8
Shape2DView009
100
AcDbSpline
210
0
220
0
230
1
 70
8
 71
3
 72
14
 73
10
 74
0
 40
0
 40
0
 40
0
 40
0
 40
0.176769
 40
0.176769
 40
0.176769
 40
0.539104
 40
0.539104
 40
0.539104
 40
1
 40
1
 40
1
 40
1
 10
-599.744
 20
368.747
 30
0
 10
-600.001
 20
368.667
 30
0
 10
-600.272
 20
368.628
 30
0
 10
-600.557
 20
368.63
 30
0
 10
-601.138
 20
368.634
 30
0
 10
-601.742
 20
368.837
 30
0
 10
-602.245
 20
369.187
 30
0
 10
-602.889
 20
369.629
 30
0
 10
-603.365
 20
370.293
 30
0
 10
-603.616
 20
370.976
 30
0
  0
SPLINE
  5
A0A
330
A02
100
AcDbEntity
  8
Shape2DView009
100
AcDbSpline
210
0
220
0
230
1
 70
8
 71
3
 72
8
 73
4
 74
0
 40
0.609832
 40
0.609832
 40
0.609832
 40
0.609832
 40
0.814534
 40
0.814534
 40
0.814534
 40
0.814534
 10
-643.392
 20
457.512
 30
0
 10
-630.166
 20
431.782
 30
0
 10
-615.786
 20
403.753
 30
0
 10
-603.616
 20
370.976
 30
0
  0
SPLINE
  5
A0B
330
A02
100
AcDbEntity
  8
Shape2DView009
100
AcDbSpline
210
0
220
0
230
1
 70
8
 71
3
 72
17
 73
13
 74
0
 40
0.262087
 40
0.262087
 40
0.262087
 40
0.262087
 40
0.349023
 40
0.349023
 40
0.349023
 40
0.435959
 40
0.435959
 40
0.435959
 40
0.522896
 40
0.522896
 40
0.522896
 40
0.609832
 40
0.609832
 40
0.609832
 40
0.609832
 10
-681.194
 20
582.535
 30
0
 10
-682.451
 20
571.712
 30
0
 10
-682.065
 20
561.068
 30
0
 10
-680.443
 20
550.652
 30
0
 10
-678.821
 20
540.228
 30
0
 10
-675.983
 20
530.026
 30
0
 10
-672.345
 20
519.872
 30
0
 10
-668.704
 20
509.715
 30
0
 10
-664.261
 20
499.595
 30
0
 10
-659.339
 20
489.277
 30
0
 10
-654.415
 20
478.959
 30
0
 10
-649.008
 20
468.442
 30
0
 10
-643.392
 20
457.512
 30
0
  0
SPLINE
  5
A0C
330
A02
100
AcDbEntity
  8
Shape2DView009
100
AcDbSpline
210
0
220
0
230
1
 70
8
 71
3
 72
17
 73
13
 74
0
 40
0
 40
0
 40
0
 40
0
 40
0.0655217
 40
0.0655217
 40
0.0655217
 40
0.131043
 40
0.131043
 40
0.131043
 40
0.196565
 40
0.196565
 40
0.196565
 40
0.262087
 40
0.262087
 40
0.262087
 40
0.262087
 10
-620.874
 20
684.633
 30
0
 10
-630.365
 20
675.461
 30
0
 10
-638.616
 20
666.581
 30
0
 10
-645.736
 20
657.888
 30
0
 10
-652.856
 20
649.195
 30
0
 10
-658.846
 20
640.685
 30
0
 10
-663.786
 20
632.264
 30
0
 10
-668.725
 20
623.845
 30
0
 10
-672.612
 20
615.509
 30
0
 10
-675.494
 20
607.219
 30
0
 10
-678.378
 20
598.93
 30
0
 10
-680.25
 20
590.689
 30
0
 10
-681.194
 20
582.535
 30
0
  0
ELLIPSE
  5
A0D
330
A02
100
AcDbEntity
  8
Shape2DView009
100
AcDbEllipse
 10
-610.45
 20
673.847
 30
0
 11
4.96964e-07
 21
15
 31
0
 40
1
 41
3.31309e-08
 42
0.768271
  0
LINE
  5
A0E
330
A02
100
AcDbEntity
  8
Shape2DView009
100
AcDbLine
 10
-601.095
 20
688.847
 30
0
 11
-610.45
 21
688.847
 31
0
  0
ELLIPSE
  5
A0F
330
A02
100
AcDbEntity
  8
Shape2DView009
100
AcDbEllipse
 10
-601.095
 20
673.847
 30
0
 11
4.875e-07
 21
15
 31
0
 40
1
 41
6.17343
 42
3.23939e-08
  0
LINE
  5
A10
330
A02
100
AcDbEntity
  8
Shape2DView009
100
AcDbLine
 10
-596.486
 20
688.43
 30
0
 11
-599.452
 21
688.756
 31
0
  0
ELLIPSE
  5
A11
330
A02
100
AcDbEntity
  8
Shape2DView009
100
AcDbEllipse
 10
-598.129
 20
673.52
 30
0
 11
5.32677e-07
 21
15
 31
0
 40
1
 41
5.92647
 42
6.17343
  0
LINE
  5
A12
330
A02
100
AcDbEntity
  8
Shape2DView009
100
AcDbLine
 10
-590.345
 20
686.627
 30
0
 11
-592.891
 21
687.576
 31
0
  0
ELLIPSE
  5
A13
330
A02
100
AcDbEntity
  8
Shape2DView009
100
AcDbEllipse
 10
-595.583
 20
672.571
 30
0
 11
6.73884e-07
 21
15
 31
0
 40
1
 41
5.69995
 42
5.92647
  0
LINE
  5
A14
330
A02
100
AcDbEntity
  8
Shape2DView009
100
AcDbLine
 10
-585.671
 20
684.002
 30
0
 11
-587.322
 21
685.091
 31
0
  0
ELLIPSE
  5
A15
330
A02
100
AcDbEntity
  8
Shape2DView009
100
AcDbEllipse
 10
-593.932
 20
671.482
 30
0
 11
4.41885e-07
 21
15
 31
0
 40
1
 41
5.51737
 42
5.69995
  0
LINE
  5
A16
330
A02
100
AcDbEntity
  8
Shape2DView009
100
AcDbLine
 10
-582.087
 20
680.902
 30
0
 11
-583.535
 21
682.294
 31
0
  0
ELLIPSE
  5
A17
330
A02
100
AcDbEntity
  8
Shape2DView009
100
AcDbEllipse
 10
-592.484
 20
670.09
 30
0
 11
6.2593e-07
 21
15
 31
0
 40
1
 41
5.28695
 42
5.51737
  0
LINE
  5
A18
330
A02
100
AcDbEntity
  8
Shape2DView009
100
AcDbLine
 10
-577.555
 20
674.631
 30
0
 11
-579.893
 21
678.242
 31
0
  0
ELLIPSE
  5
A19
330
A02
100
AcDbEntity
  8
Shape2DView009
100
AcDbEllipse
 10
-590.147
 20
666.479
 30
0
 11
5.1555e-07
 21
15
 31
0
 40
1
 41
5.06496
 42
5.28695
  0
LINE
  5
A1A
330
A02
100
AcDbEntity
  8
Shape2DView009
100
AcDbLine
 10
-574.384
 20
667.078
 30
0
 11
-576.069
 21
671.658
 31
0
  0
ELLIPSE
  5
A1B
330
A02
100
AcDbEntity
  8
Shape2DView009
100
AcDbEllipse
 10
-588.461
 20
661.898
 30
0
 11
4.53766e-07
 21
15
 31
0
 40
1
 41
4.92113
 42
5.06496
  0
LINE
  5
A1C
330
A02
100
AcDbEntity
  8
Shape2DView009
100
AcDbLine
 10
-572.645
 20
659.615
 30
0
 11
-573.787
 21
665.006
 31
0
  0
ELLIPSE
  5
A1D
330
A02
100
AcDbEntity
  8
Shape2DView009
100
AcDbEllipse
 10
-587.319
 20
656.507
 30
0
 11
4.92638e-07
 21
15
 31
0
 40
1
 41
4.8289
 42
4.92113
  0
LINE
  5
A1E
330
A02
100
AcDbEntity
  8
Shape2DView009
100
AcDbLine
 10
-571.714
 20
652.209
 30
0
 11
-572.421
 21
658.251
 31
0
  0
ELLIPSE
  5
A1F
330
A02
100
AcDbEntity
  8
Shape2DView009
100
AcDbEllipse
 10
-586.612
 20
650.466
 30
0
 11
5.01454e-07
 21
15
 31
0
 40
1
 41
4.77064
 42
4.8289
  0
LINE
  5
A20
330
A02
100
AcDbEntity
  8
Shape2DView009
100
AcDbLine
 10
-571.257
 20
644.807
 30
0
 11
-571.637
 21
651.339
 31
0
  0
ELLIPSE
  5
A21
330
A02
100
AcDbEntity
  8
Shape2DView009
100
AcDbEllipse
 10
-586.231
 20
643.934
 30
0
 11
4.97921e-07
 21
15
 31
0
 40
1
 41
4.7281
 42
4.77064
  0
LINE
  5
A22
330
A02
100
AcDbEntity
  8
Shape2DView009
100
AcDbLine
 10
-571.015
 20
630.274
 30
0
 11
-571.233
 21
644.169
 31
0
  0
LINE
  5
A23
330
A02
100
AcDbEntity
  8
Shape2DView009
100
AcDbLine
 10
-570.795
 20
616.502
 30
0
 11
-571.015
 21
630.274
 31
0
  0
LINE
  5
A24
330
A02
100
AcDbEntity
  8
Shape2DView009
100
AcDbLine
 10
-570.447
 20
610.613
 30
0
 11
-570.795
 21
616.502
 31
0
  0
LINE
  5
A25
330
A02
100
AcDbEntity
  8
Shape2DView009
100
AcDbLine
 10
-569.85
 20
605.575
 30
0
 11
-570.447
 21
610.613
 31
0
  0
LINE
  5
A26
330
A02
100
AcDbEntity
  8
Shape2DView009
100
AcDbLine
 10
-569.041
 20
601.795
 30
0
 11
-569.85
 21
605.575
 31
0
  0
LINE
  5
A27
330
A02
100
AcDbEntity
  8
Shape2DView009
100
AcDbLine
 10
-568.413
 20
600.101
 30
0
 11
-569.041
 21
601.795
 31
0
  0
ELLIPSE
  5
A28
330
A02
100
AcDbEntity
  8
Shape2DView009
100
AcDbEllipse
 10
-570.228
 20
585.211
 30
0
 11
4.96367e-07
 21
15
 31
0
 40
1
 41
4.84612
 42
6.16189
  0
LINE
  5
A29
330
A02
100
AcDbEntity
  8
Shape2DView009
100
AcDbLine
 10
-555.362
 20
587.211
 30
0
 11
-563.251
 21
587.211
 31
0
  0
LINE
  5
A2A
330
A02
100
AcDbEntity
  8
Shape2DView009
100
AcDbLine
 10
-563.251
 20
587.211
 30
0
 11
-563.251
 21
583.211
 31
0
  0
LINE
  5
A2B
330
A02
100
AcDbEntity
  8
Shape2DView009
100
AcDbLine
 10
-563.251
 20
583.211
 30
0
 11
-555.362
 21
583.211
 31
0
  0
ELLIPSE
  5
A2C
330
A02
100
AcDbEntity
  8
Shape2DView009
100
AcDbEllipse
 10
-570.228
 20
585.211
 30
0
 11
4.96367e-07
 21
15
 31
0
 40
1
 41
3.03088
 42
4.57866
  0
LINE
  5
A2D
330
A02
100
AcDbEntity
  8
Shape2DView009
100
AcDbLine
 10
-571.885
 20
570.303
 30
0
 11
-575.058
 21
570.656
 31
0
  0
ELLIPSE
  5
A2E
330
A02
100
AcDbEntity
  8
Shape2DView009
100
AcDbEllipse
 10
-573.401
 20
585.564
 30
0
 11
4.01851e-07
 21
15
 31
0
 40
1
 41
2.78115
 42
3.03088
  0
LINE
  5
A2F
330
A02
100
AcDbEntity
  8
Shape2DView009
100
AcDbLine
 10
-578.691
 20
571.528
 30
0
 11
-581.404
 21
572.55
 31
0
  0
ELLIPSE
  5
A30
330
A02
100
AcDbEntity
  8
Shape2DView009
100
AcDbEllipse
 10
-576.114
 20
586.586
 30
0
 11
5.12279e-07
 21
15
 31
0
 40
1
 41
2.55449
 42
2.78115
  0
LINE
  5
A31
330
A02
100
AcDbEntity
  8
Shape2DView009
100
AcDbLine
 10
-584.423
 20
574.098
 30
0
 11
-586.132
 21
575.235
 31
0
  0
ELLIPSE
  5
A32
330
A02
100
AcDbEntity
  8
Shape2DView009
100
AcDbEllipse
 10
-577.822
 20
587.723
 30
0
 11
4.71309e-07
 21
15
 31
0
 40
1
 41
2.37452
 42
2.55449
  0
LINE
  5
A33
330
A02
100
AcDbEntity
  8
Shape2DView009
100
AcDbLine
 10
-588.233
 20
576.924
 30
0
 11
-589.731
 21
578.368
 31
0
  0
ELLIPSE
  5
A34
330
A02
100
AcDbEntity
  8
Shape2DView009
100
AcDbEllipse
 10
-579.32
 20
589.167
 30
0
 11
5.61422e-07
 21
15
 31
0
 40
1
 41
2.14662
 42
2.37452
  0
LINE
  5
A35
330
A02
100
AcDbEntity
  8
Shape2DView009
100
AcDbLine
 10
-591.901
 20
580.999
 30
0
 11
-594.32
 21
584.725
 31
0
  0
ELLIPSE
  5
A36
330
A02
100
AcDbEntity
  8
Shape2DView009
100
AcDbEllipse
 10
-581.739
 20
592.892
 30
0
 11
5.19636e-07
 21
15
 31
0
 40
1
 41
1.92568
 42
2.14662
  0
LINE
  5
A37
330
A02
100
AcDbEntity
  8
Shape2DView009
100
AcDbLine
 10
-595.804
 20
587.68
 30
0
 11
-597.548
 21
592.386
 31
0
  0
ELLIPSE
  5
A38
330
A02
100
AcDbEntity
  8
Shape2DView009
100
AcDbEllipse
 10
-583.482
 20
597.598
 30
0
 11
4.82239e-07
 21
15
 31
0
 40
1
 41
1.7816
 42
1.92568
  0
LINE
  5
A39
330
A02
100
AcDbEntity
  8
Shape2DView009
100
AcDbLine
 10
-598.15
 20
594.459
 30
0
 11
-599.331
 21
599.979
 31
0
  0
ELLIPSE
  5
A3A
330
A02
100
AcDbEntity
  8
Shape2DView009
100
AcDbEllipse
 10
-584.664
 20
603.118
 30
0
 11
4.74999e-07
 21
15
 31
0
 40
1
 41
1.68876
 42
1.7816
  0
LINE
  5
A3B
330
A02
100
AcDbEntity
  8
Shape2DView009
100
AcDbLine
 10
-599.559
 20
601.352
 30
0
 11
-600.29
 21
607.521
 31
0
  0
ELLIPSE
  5
A3C
330
A02
100
AcDbEntity
  8
Shape2DView009
100
AcDbEllipse
 10
-585.395
 20
609.287
 30
0
 11
5.15786e-07
 21
15
 31
0
 40
1
 41
1.62988
 42
1.68876
  0
LINE
  5
A3D
330
A02
100
AcDbEntity
  8
Shape2DView009
100
AcDbLine
 10
-600.368
 20
608.401
 30
0
 11
-600.762
 21
615.054
 31
0
  0
ELLIPSE
  5
A3E
330
A02
100
AcDbEntity
  8
Shape2DView009
100
AcDbEllipse
 10
-585.788
 20
615.94
 30
0
 11
4.9745e-07
 21
15
 31
0
 40
1
 41
1.58672
 42
1.62988
  0
LINE
  5
A3F
330
A02
100
AcDbEntity
  8
Shape2DView009
100
AcDbLine
 10
-600.786
 20
615.701
 30
0
 11
-601.011
 21
629.798
 31
0
  0
ELLIPSE
  5
A40
330
A02
100
AcDbEntity
  8
Shape2DView009
100
AcDbEllipse
 10
-586.013
 20
630.037
 30
0
 11
4.97921e-07
 21
15
 31
0
 40
1
 41
1.58651
 42
1.58672
  0
LINE
  5
A41
330
A02
100
AcDbEntity
  8
Shape2DView009
100
AcDbLine
 10
-601.011
 20
629.801
 30
0
 11
-601.224
 21
643.379
 31
0
  0
LINE
  5
A42
330
A02
100
AcDbEntity
  8
Shape2DView009
100
AcDbLine
 10
-601.224
 20
643.379
 30
0
 11
-601.561
 21
649.156
 31
0
  0
LINE
  5
A43
330
A02
100
AcDbEntity
  8
Shape2DView009
100
AcDbLine
 10
-601.561
 20
649.156
 30
0
 11
-602.137
 21
654.076
 31
0
  0
LINE
  5
A44
330
A02
100
AcDbEntity
  8
Shape2DView009
100
AcDbLine
 10
-602.137
 20
654.076
 30
0
 11
-602.911
 21
657.732
 31
0
  0
LINE
  5
A45
330
A02
100
AcDbEntity
  8
Shape2DView009
100
AcDbLine
 10
-602.911
 20
657.732
 30
0
 11
-603.322
 21
658.847
 31
0
  0
LINE
  5
A46
330
A02
100
AcDbEntity
  8
Shape2DView009
100
AcDbLine
 10
-603.322
 20
658.847
 30
0
 11
-604.315
 21
658.847
 31
0
  0
SPLINE
  5
A47
330
A02
100
AcDbEntity
  8
Shape2DView009
100
AcDbSpline
210
0
220
0
230
1
 70
8
 71
3
 72
17
 73
13
 74
0
 40
0.0109404
 40
0.0109404
 40
0.0109404
 40
0.0109404
 40
0.0737271
 40
0.0737271
 40
0.0737271
 40
0.136514
 40
0.136514
 40
0.136514
 40
0.1993
 40
0.1993
 40
0.1993
 40
0.262087
 40
0.262087
 40
0.262087
 40
0.262087
 10
-604.315
 20
658.847
 30
0
 10
-612.308
 20
650.856
 30
0
 10
-619.105
 20
643.259
 30
0
 10
-624.825
 20
636.024
 30
0
 10
-630.546
 20
628.788
 30
0
 10
-635.189
 20
621.917
 30
0
 10
-638.901
 20
615.366
 30
0
 10
-642.615
 20
608.812
 30
0
 10
-645.4
 20
602.582
 30
0
 10
-647.428
 20
596.58
 30
0
 10
-649.454
 20
590.576
 30
0
 10
-650.729
 20
584.797
 30
0
 10
-651.393
 20
579.082
 30
0
  0
SPLINE
  5
A48
330
A02
100
AcDbEntity
  8
Shape2DView009
100
AcDbSpline
210
0
220
0
230
1
 70
8
 71
3
 72
17
 73
13
 74
0
 40
0.262087
 40
0.262087
 40
0.262087
 40
0.262087
 40
0.349023
 40
0.349023
 40
0.349023
 40
0.435959
 40
0.435959
 40
0.435959
 40
0.522896
 40
0.522896
 40
0.522896
 40
0.609832
 40
0.609832
 40
0.609832
 40
0.609832
 10
-651.393
 20
579.082
 30
0
 10
-652.307
 20
571.171
 30
0
 10
-652.055
 20
563.358
 30
0
 10
-650.799
 20
555.261
 30
0
 10
-649.542
 20
547.17
 30
0
 10
-647.261
 20
538.8
 30
0
 10
-644.104
 20
529.992
 30
0
 10
-640.95
 20
521.187
 30
0
 10
-636.921
 20
511.955
 30
0
 10
-632.264
 20
502.196
 30
0
 10
-627.608
 20
492.437
 30
0
 10
-622.326
 20
482.153
 30
0
 10
-616.709
 20
471.224
 30
0
  0
SPLINE
  5
A49
330
A02
100
AcDbEntity
  8
Shape2DView009
100
AcDbSpline
210
0
220
0
230
1
 70
8
 71
3
 72
8
 73
4
 74
0
 40
0.609832
 40
0.609832
 40
0.609832
 40
0.609832
 40
0.816522
 40
0.816522
 40
0.816522
 40
0.816522
 10
-616.709
 20
471.224
 30
0
 10
-603.359
 20
445.237
 30
0
 10
-588.112
 20
415.617
 30
0
 10
-575.117
 20
380.406
 30
0
  0
SPLINE
  5
A4A
330
A02
100
AcDbEntity
  8
Shape2DView009
100
AcDbSpline
210
0
220
0
230
1
 70
8
 71
3
 72
17
 73
13
 74
0
 40
0
 40
0
 40
0
 40
0
 40
0.169883
 40
0.169883
 40
0.169883
 40
0.474016
 40
0.474016
 40
0.474016
 40
0.94138
 40
0.94138
 40
0.94138
 40
1
 40
1
 40
1
 40
1
 10
-576.747
 20
375.684
 30
0
 10
-576.481
 20
375.761
 30
0
 10
-576.216
 20
375.891
 30
0
 10
-575.977
 20
376.075
 30
0
 10
-575.546
 20
376.402
 30
0
 10
-575.21
 20
376.901
 30
0
 10
-575.023
 20
377.457
 30
0
 10
-574.729
 20
378.315
 30
0
 10
-574.769
 20
379.279
 30
0
 10
-575.015
 20
380.101
 30
0
 10
-575.046
 20
380.205
 30
0
 10
-575.08
 20
380.307
 30
0
 10
-575.117
 20
380.406
 30
0
  0
SPLINE
  5
A4B
330
A02
100
AcDbEntity
  8
Shape2DView009
100
AcDbSpline
210
0
220
0
230
1
 70
8
 71
2
 72
6
 73
3
 74
0
 40
2.91135
 40
2.91135
 40
2.91135
 40
7.6417
 40
7.6417
 40
7.6417
 10
-575.177
 20
380.57
 30
0
 10
-575.703
 20
381.993
 30
0
 10
-576.205
 20
383.329
 30
0
  0
SPLINE
  5
A4C
330
A02
100
AcDbEntity
  8
Shape2DView009
100
AcDbSpline
210
0
220
0
230
1
 70
8
 71
1
 72
4
 73
2
 74
0
 40
0.999907
 40
0.999907
 40
1
 40
1
 10
-576.205
 20
383.328
 30
0
 10
-576.205
 20
383.329
 30
0
  0
SPLINE
  5
A4D
330
A02
100
AcDbEntity
  8
Shape2DView009
100
AcDbSpline
210
0
220
0
230
1
 70
8
 71
1
 72
4
 73
2
 74
0
 40
1.54845
 40
1.54845
 40
1.90005
 40
1.90005
 10
-603.616
 20
370.976
 30
0
 10
-603.676
 20
371.138
 30
0
  0
SPLINE
  5
A4E
330
A02
100
AcDbEntity
  8
Shape2DView009
100
AcDbSpline
210
0
220
0
230
1
 70
8
 71
3
 72
8
 73
4
 74
0
 40
0.609832
 40
0.609832
 40
0.609832
 40
0.609832
 40
0.810778
 40
0.810778
 40
0.810778
 40
0.810778
 10
-616.709
 20
471.224
 30
0
 10
-603.73
 20
445.959
 30
0
 10
-588.958
 20
417.26
 30
0
 10
-576.205
 20
383.329
 30
0
  0
SPLINE
  5
A4F
330
A02
100
AcDbEntity
  8
Shape2DView009
100
AcDbSpline
210
0
220
0
230
1
 70
8
 71
3
 72
8
 73
4
 74
0
 40
0.609832
 40
0.609832
 40
0.609832
 40
0.609832
 40
0.650772
 40
0.650772
 40
0.650772
 40
0.650772
 10
-643.392
 20
457.512
 30
0
 10
-640.747
 20
452.366
 30
0
 10
-638.056
 20
447.128
 30
0
 10
-635.345
 20
441.779
 30
0
  0
SPLINE
  5
A50
330
A02
100
AcDbEntity
  8
Shape2DView009
100
AcDbSpline
210
0
220
0
230
1
 70
8
 71
1
 72
4
 73
2
 74
0
 40
0.809224
 40
0.809224
 40
0.810306
 40
0.810306
 10
-604.567
 20
373.517
 30
0
 10
-604.373
 20
373.001
 30
0
  0
SPLINE
  5
A51
330
A02
100
AcDbEntity
  8
Shape2DView009
100
AcDbSpline
210
0
220
0
230
1
 70
8
 71
3
 72
17
 73
13
 74
0
 40
0.262087
 40
0.262087
 40
0.262087
 40
0.262087
 40
0.349023
 40
0.349023
 40
0.349023
 40
0.435959
 40
0.435959
 40
0.435959
 40
0.522896
 40
0.522896
 40
0.522896
 40
0.609832
 40
0.609832
 40
0.609832
 40
0.609832
 10
-651.393
 20
579.082
 30
0
 10
-652.307
 20
571.171
 30
0
 10
-652.055
 20
563.358
 30
0
 10
-650.799
 20
555.261
 30
0
 10
-649.542
 20
547.17
 30
0
 10
-647.261
 20
538.8
 30
0
 10
-644.104
 20
529.992
 30
0
 10
-640.95
 20
521.187
 30
0
 10
-636.921
 20
511.955
 30
0
 10
-632.264
 20
502.196
 30
0
 10
-627.608
 20
492.437
 30
0
 10
-622.326
 20
482.153
 30
0
 10
-616.709
 20
471.224
 30
0
  0
SPLINE
  5
A52
330
A02
100
AcDbEntity
  8
Shape2DView009
100
AcDbSpline
210
0
220
0
230
1
 70
8
 71
3
 72
17
 73
13
 74
0
 40
0.0109404
 40
0.0109404
 40
0.0109404
 40
0.0109404
 40
0.0737271
 40
0.0737271
 40
0.0737271
 40
0.136514
 40
0.136514
 40
0.136514
 40
0.1993
 40
0.1993
 40
0.1993
 40
0.262087
 40
0.262087
 40
0.262087
 40
0.262087
 10
-604.315
 20
658.847
 30
0
 10
-612.308
 20
650.856
 30
0
 10
-619.105
 20
643.259
 30
0
 10
-624.825
 20
636.024
 30
0
 10
-630.546
 20
628.788
 30
0
 10
-635.189
 20
621.917
 30
0
 10
-638.901
 20
615.366
 30
0
 10
-642.615
 20
608.812
 30
0
 10
-645.4
 20
602.582
 30
0
 10
-647.428
 20
596.58
 30
0
 10
-649.454
 20
590.576
 30
0
 10
-650.729
 20
584.797
 30
0
 10
-651.393
 20
579.082
 30
0
  0
SPLINE
  5
A53
330
A02
100
AcDbEntity
  8
Shape2DView009
100
AcDbSpline
210
0
220
0
230
1
 70
8
 71
3
 72
17
 73
13
 74
0
 40
0
 40
0
 40
0
 40
0
 40
0.0655217
 40
0.0655217
 40
0.0655217
 40
0.131043
 40
0.131043
 40
0.131043
 40
0.196565
 40
0.196565
 40
0.196565
 40
0.262087
 40
0.262087
 40
0.262087
 40
0.262087
 10
-620.874
 20
684.633
 30
0
 10
-630.365
 20
675.461
 30
0
 10
-638.616
 20
666.581
 30
0
 10
-645.736
 20
657.888
 30
0
 10
-652.856
 20
649.195
 30
0
 10
-658.846
 20
640.685
 30
0
 10
-663.786
 20
632.264
 30
0
 10
-668.725
 20
623.845
 30
0
 10
-672.612
 20
615.509
 30
0
 10
-675.494
 20
607.219
 30
0
 10
-678.378
 20
598.93
 30
0
 10
-680.25
 20
590.689
 30
0
 10
-681.194
 20
582.535
 30
0
  0
ENDSEC
  0
SECTION
  2
OBJECTS
  0
DICTIONARY
  5
F000
330
0
100
AcDbDictionary
  3
ACAD_GROUP
350
F001
  0
DICTIONARY
  5
F001
330
F000
100
AcDbDictionary
  0
ENDSEC
  0
EOF