999
FreeCAD v0.21 33668 +26 (Git)
  0
SECTION
  2
HEADER
  9
$ACADVER
  1
AC1014
  9
$ACADMAINTVER
 70
     9
  9
$DWGCODEPAGE
  3
ANSI_1252
  9
$TEXTSTYLE
  7
STANDARD
  9
$DIMSTYLE
  2
STANDARD
  9
$DIMTXSTY
  7
STANDARD
  9
$CMLSTYLE
  2
STANDARD
  9
$LUNITS
 70
2
  9
$INSUNITS
 70
4
  9
$PEXTMAX
 10
50
 20
50
 30
50
  9
$PEXTMIN
 10
0
 20
0
 30
0
  9
$HANDSEED
  5
FFFF
  0
ENDSEC
  0
SECTION
  2
CLASSES
  0
CLASS
  1
ACDBDICTIONARYWDFLT
  2
AcDbDictionaryWithDefault
  3
ObjectDBX Classes
 90
        0
280
     0
281
     0
  0
CLASS
  1
XRECORD
  2
AcDbXrecord
  3
ObjectDBX Classes
 90
        0
280
     0
281
     0
  0
CLASS
  1
LWPOLYLINE
  2
AcDbPolyline
  3
ObjectDBX Classes
 90
        0
280
     0
281
     1
  0
ENDSEC
  0
SECTION
  2
TABLES
  0
TABLE
  2
VPORT
  5
20
330
0
100
AcDbSymbolTable
 70
     1
  0
VPORT
  5
21
330
20
100
AcDbSymbolTableRecord
100
AcDbViewportTableRecord
  2
*ACTIVE
 70
     0
  0
ENDTAB
  0
TABLE
  2
LTYPE
  5
22
330
0
100
AcDbSymbolTable
 70
     1
  0
LTYPE
  5
23
330
21
100
AcDbSymbolTableRecord
100
AcDbLinetypeTableRecord
  2
BYBLOCK
 70
     0
  3

 72
    65
 73
     0
 40
0.0
  0
LTYPE
  5
24
330
21
100
AcDbSymbolTableRecord
100
AcDbLinetypeTableRecord
  2
BYLAYER
 70
     0
  3

 72
    65
 73
     0
 40
0.0
  0
LTYPE
  5
25
330
21
100
AcDbSymbolTableRecord
100
AcDbLinetypeTableRecord
  2
CONTINUOUS
 70
     0
  3
Solid line
 72
    65
 73
     0
 40
0.0
  0
ENDTAB
  0
TABLE
  2
LAYER
  5
A56
330
0
100
AcDbSymbolTable
 70
3
  0
LAYER
  5
A57
330
A56
100
AcDbSymbolTableRecord
100
AcDbLayerTableRecord
  2
0
 70
   0
 62
   7
  6
CONTINUOUS
  0
LAYER
  5
A58
330
A56
100
AcDbSymbolTableRecord
100
AcDbLayerTableRecord
  2
none
 70
    0
 62
    7
  6
CONTINUOUS
  0
LAYER
  5
A59
330
A56
100
AcDbSymbolTableRecord
100
AcDbLayerTableRecord
  2
Shape2DView010
 70
    0
 62
    7
  6
CONTINUOUS
  0
ENDTAB
  0
TABLE
  2
STYLE
  5
70
330
0
100
AcDbSymbolTable
 70
     2
  0
STYLE
  5
71
330
70
100
AcDbSymbolTableRecord
100
AcDbTextStyleTableRecord
  2
STANDARD
 70
     0
 40
0.0
 41
1.0
 50
0.0
 71
     0
 42
2.5
  3
arial.ttf
  4

  0
STYLE
  5
72
330
70
100
AcDbSymbolTableRecord
100
AcDbTextStyleTableRecord
  2
ANNOTATIVE
 70
     0
 40
0.0
 41
1.0
 50
0.0
 71
     0
 42
2.5
  3
arial.ttf
  4

  0
ENDTAB
  0
TABLE
  2
VIEW
  5
73
330
0
100
AcDbSymbolTable
 70
     0
  0
ENDTAB
  0
TABLE
  2
UCS
  5
74
330
0
100
AcDbSymbolTable
 70
     0
  0
ENDTAB
  0
TABLE
  2
APPID
  5
75
330
0
100
AcDbSymbolTable
 70
     2
  0
APPID
  5
76
330
75
100
AcDbSymbolTableRecord
100
AcDbRegAppTableRecord
  2
ACAD
 70
     0
  0
APPID
  5
77
330
75
100
AcDbSymbolTableRecord
100
AcDbRegAppTableRecord
  2
ACADANNOTATIVE
 70
     0
  0
ENDTAB
  0
TABLE
  2
DIMSTYLE
  5
78
330
0
100
AcDbSymbolTable
 70
     2
  0
DIMSTYLE
105
79
330
78
100
AcDbSymbolTableRecord
100
AcDbDimStyleTableRecord
  2
STANDARD
 70
     0
  3

  4

  5

  6

  7

 40
0.0
 41
2.5
 42
0.625
 43
3.75
 44
1.25
 45
0.0
 46
0.0
 47
0.0
 48
0.0
140
2.5
141
2.5
142
0.0
143
0.03937007874016
144
1.0
145
0.0
146
1.0
147
0.625
 71
     0
 72
     0
 73
     0
 74
     0
 75
     0
 76
     0
 77
     1
 78
     8
170
     0
171
     3
172
     1
173
     0
174
     0
175
     0
176
     0
177
     0
178
     0
270
     2
271
     2
272
     2
273
     2
274
     3
340
71
275
     0
280
     0
281
     0
282
     0
283
     0
284
     8
285
     0
286
     0
287
     3
288
     0
  0
ENDTAB
  0
TABLE
  2
BLOCK_RECORD
  5
A01
330
0
100
AcDbSymbolTable
  70
5
  0
BLOCK_RECORD
  5
A02
330
A01
100
AcDbSymbolTableRecord
100
AcDbBlockTableRecord
  2
*MODEL_SPACE
  0
BLOCK_RECORD
  5
A03
330
A01
100
AcDbSymbolTableRecord
100
AcDbBlockTableRecord
  2
*PAPER_SPACE
  0
ENDTAB
  0
ENDSEC
  0
SECTION
  2
BLOCKS
  0
BLOCK
  5
A04
330
A02
100
AcDbEntity
  8
0
100
AcDbBlockBegin
  2
*MODEL_SPACE
 70
   0
 10
0
 20
0
 30
0
  3
*MODEL_SPACE
  1
 
  0
ENDBLK
  5
A05
330
A02
100
AcDbEntity
  8
0
100
AcDbBlockEnd
  0
BLOCK
  5
A06
330
A03
100
AcDbEntity
 67
1
  8
0
100
AcDbBlockBegin
  2
*PAPER_SPACE
 70
   0
 10
0
 20
0
 30
0
  3
*PAPER_SPACE
  1
 
  0
ENDBLK
  5
A07
330
A03
100
AcDbEntity
 67
    1
  8
0
100
AcDbBlockEnd
  0
ENDSEC
  0
SECTION
  2
ENTITIES
  0
SPLINE
  5
A08
330
A02
100
AcDbEntity
  8
Shape2DView010
100
AcDbSpline
210
0
220
0
230
1
 70
8
 71
3
 72
8
 73
4
 74
0
 40
0.238513
 40
0.238513
 40
0.238513
 40
0.238513
 40
0.410509
 40
0.410509
 40
0.410509
 40
0.410509
 10
-420.015
 20
-97.4398
 30
0
 10
-427.698
 20
-99.7141
 30
0
 10
-435.368
 20
-102.069
 30
0
 10
-443.034
 20
-104.448
 30
0
  0
SPLINE
  5
A09
330
A02
100
AcDbEntity
  8
Shape2DView010
100
AcDbSpline
210
0
220
0
230
1
 70
8
 71
3
 72
14
 73
10
 74
0
 40
0
 40
0
 40
0
 40
0
 40
0.177518
 40
0.177518
 40
0.177518
 40
0.548645
 40
0.548645
 40
0.548645
 40
1
 40
1
 40
1
 40
1
 10
-443.034
 20
-104.448
 30
0
 10
-443.287
 20
-104.527
 30
0
 10
-443.555
 20
-104.567
 30
0
 10
-443.837
 20
-104.568
 30
0
 10
-444.423
 20
-104.57
 30
0
 10
-445.034
 20
-104.371
 30
0
 10
-445.541
 20
-104.023
 30
0
 10
-446.163
 20
-103.603
 30
0
 10
-446.63
 20
-102.976
 30
0
 10
-446.885
 20
-102.325
 30
0
  0
SPLINE
  5
A0A
330
A02
100
AcDbEntity
  8
Shape2DView010
100
AcDbSpline
210
0
220
0
230
1
 70
8
 71
3
 72
8
 73
4
 74
0
 40
0.609832
 40
0.609832
 40
0.609832
 40
0.609832
 40
0.792567
 40
0.792567
 40
0.792567
 40
0.792567
 10
-482.671
 20
-26.1796
 30
0
 10
-470.864
 20
-49.1489
 30
0
 10
-458.137
 20
-73.949
 30
0
 10
-446.885
 20
-102.325
 30
0
  0
SPLINE
  5
A0B
330
A02
100
AcDbEntity
  8
Shape2DView010
100
AcDbSpline
210
0
220
0
230
1
 70
8
 71
3
 72
17
 73
13
 74
0
 40
0.262087
 40
0.262087
 40
0.262087
 40
0.262087
 40
0.349023
 40
0.349023
 40
0.349023
 40
0.435959
 40
0.435959
 40
0.435959
 40
0.522896
 40
0.522896
 40
0.522896
 40
0.609832
 40
0.609832
 40
0.609832
 40
0.609832
 10
-520.472
 20
98.8427
 30
0
 10
-521.729
 20
88.0205
 30
0
 10
-521.344
 20
77.3763
 30
0
 10
-519.722
 20
66.96
 30
0
 10
-518.1
 20
56.5365
 30
0
 10
-515.262
 20
46.3344
 30
0
 10
-511.624
 20
36.1801
 30
0
 10
-507.983
 20
26.0235
 30
0
 10
-503.54
 20
15.9029
 30
0
 10
-498.618
 20
5.58462
 30
0
 10
-493.694
 20
-4.73306
 30
0
 10
-488.287
 20
-15.2501
 30
0
 10
-482.671
 20
-26.1796
 30
0
  0
SPLINE
  5
A0C
330
A02
100
AcDbEntity
  8
Shape2DView010
100
AcDbSpline
210
0
220
0
230
1
 70
8
 71
3
 72
17
 73
13
 74
0
 40
0
 40
0
 40
0
 40
0
 40
0.0655217
 40
0.0655217
 40
0.0655217
 40
0.131043
 40
0.131043
 40
0.131043
 40
0.196565
 40
0.196565
 40
0.196565
 40
0.262087
 40
0.262087
 40
0.262087
 40
0.262087
 10
-460.153
 20
200.941
 30
0
 10
-469.644
 20
191.769
 30
0
 10
-477.895
 20
182.889
 30
0
 10
-485.015
 20
174.196
 30
0
 10
-492.135
 20
165.503
 30
0
 10
-498.125
 20
156.993
 30
0
 10
-503.065
 20
148.572
 30
0
 10
-508.004
 20
140.153
 30
0
 10
-511.891
 20
131.817
 30
0
 10
-514.773
 20
123.527
 30
0
 10
-517.657
 20
115.238
 30
0
 10
-519.529
 20
106.997
 30
0
 10
-520.472
 20
98.8427
 30
0
  0
ELLIPSE
  5
A0D
330
A02
100
AcDbEntity
  8
Shape2DView010
100
AcDbEllipse
 10
-449.729
 20
190.155
 30
0
 11
7.05493e-07
 21
-15
 31
0
 40
1
 41
3.14159
 42
3.90986
  0
LINE
  5
A0E
330
A02
100
AcDbEntity
  8
Shape2DView010
100
AcDbLine
 10
-440.374
 20
205.155
 30
0
 11
-449.729
 21
205.155
 31
0
  0
ELLIPSE
  5
A0F
330
A02
100
AcDbEntity
  8
Shape2DView010
100
AcDbEllipse
 10
-440.374
 20
190.155
 30
0
 11
6.75531e-07
 21
-15
 31
0
 40
1
 41
3.03184
 42
3.14159
  0
LINE
  5
A10
330
A02
100
AcDbEntity
  8
Shape2DView010
100
AcDbLine
 10
-435.765
 20
204.738
 30
0
 11
-438.731
 21
205.065
 31
0
  0
ELLIPSE
  5
A11
330
A02
100
AcDbEntity
  8
Shape2DView010
100
AcDbEllipse
 10
-437.408
 20
189.828
 30
0
 11
5.76998e-07
 21
-15
 31
0
 40
1
 41
2.78487
 42
3.03184
  0
LINE
  5
A12
330
A02
100
AcDbEntity
  8
Shape2DView010
100
AcDbLine
 10
-429.624
 20
202.935
 30
0
 11
-432.17
 21
203.884
 31
0
  0
ELLIPSE
  5
A13
330
A02
100
AcDbEntity
  8
Shape2DView010
100
AcDbEllipse
 10
-434.862
 20
188.879
 30
0
 11
7.1909e-07
 21
-15
 31
0
 40
1
 41
2.55836
 42
2.78487
  0
LINE
  5
A14
330
A02
100
AcDbEntity
  8
Shape2DView010
100
AcDbLine
 10
-424.95
 20
200.31
 30
0
 11
-426.601
 21
201.4
 31
0
  0
ELLIPSE
  5
A15
330
A02
100
AcDbEntity
  8
Shape2DView010
100
AcDbEllipse
 10
-433.211
 20
187.79
 30
0
 11
9.93342e-07
 21
-15
 31
0
 40
1
 41
2.37577
 42
2.55836
  0
LINE
  5
A16
330
A02
100
AcDbEntity
  8
Shape2DView010
100
AcDbLine
 10
-421.366
 20
197.21
 30
0
 11
-422.814
 21
198.602
 31
0
  0
ELLIPSE
  5
A17
330
A02
100
AcDbEntity
  8
Shape2DView010
100
AcDbEllipse
 10
-431.763
 20
186.398
 30
0
 11
5.62683e-07
 21
-15
 31
0
 40
1
 41
2.14535
 42
2.37577
  0
LINE
  5
A18
330
A02
100
AcDbEntity
  8
Shape2DView010
100
AcDbLine
 10
-416.834
 20
190.939
 30
0
 11
-419.172
 21
194.55
 31
0
  0
ELLIPSE
  5
A19
330
A02
100
AcDbEntity
  8
Shape2DView010
100
AcDbEllipse
 10
-429.425
 20
182.787
 30
0
 11
8.06143e-07
 21
-15
 31
0
 40
1
 41
1.92337
 42
2.14535
  0
LINE
  5
A1A
330
A02
100
AcDbEntity
  8
Shape2DView010
100
AcDbLine
 10
-413.663
 20
183.386
 30
0
 11
-415.348
 21
187.966
 31
0
  0
ELLIPSE
  5
A1B
330
A02
100
AcDbEntity
  8
Shape2DView010
100
AcDbEllipse
 10
-427.74
 20
178.206
 30
0
 11
6.98343e-07
 21
-15
 31
0
 40
1
 41
1.77953
 42
1.92337
  0
LINE
  5
A1C
330
A02
100
AcDbEntity
  8
Shape2DView010
100
AcDbLine
 10
-411.924
 20
175.923
 30
0
 11
-413.066
 21
181.314
 31
0
  0
ELLIPSE
  5
A1D
330
A02
100
AcDbEntity
  8
Shape2DView010
100
AcDbEllipse
 10
-426.598
 20
172.815
 30
0
 11
6.736e-07
 21
-15
 31
0
 40
1
 41
1.6873
 42
1.77953
  0
LINE
  5
A1E
330
A02
100
AcDbEntity
  8
Shape2DView010
100
AcDbLine
 10
-410.993
 20
168.517
 30
0
 11
-411.7
 21
174.559
 31
0
  0
ELLIPSE
  5
A1F
330
A02
100
AcDbEntity
  8
Shape2DView010
100
AcDbEllipse
 10
-425.891
 20
166.774
 30
0
 11
7.08601e-07
 21
-15
 31
0
 40
1
 41
1.62905
 42
1.6873
  0
LINE
  5
A20
330
A02
100
AcDbEntity
  8
Shape2DView010
100
AcDbLine
 10
-410.535
 20
161.115
 30
0
 11
-410.916
 21
167.647
 31
0
  0
ELLIPSE
  5
A21
330
A02
100
AcDbEntity
  8
Shape2DView010
100
AcDbEllipse
 10
-425.51
 20
160.242
 30
0
 11
7.04171e-07
 21
-15
 31
0
 40
1
 41
1.58651
 42
1.62905
  0
LINE
  5
A22
330
A02
100
AcDbEntity
  8
Shape2DView010
100
AcDbLine
 10
-410.294
 20
146.582
 30
0
 11
-410.512
 21
160.478
 31
0
  0
LINE
  5
A23
330
A02
100
AcDbEntity
  8
Shape2DView010
100
AcDbLine
 10
-410.074
 20
132.81
 30
0
 11
-410.294
 21
146.582
 31
0
  0
LINE
  5
A24
330
A02
100
AcDbEntity
  8
Shape2DView010
100
AcDbLine
 10
-409.726
 20
126.921
 30
0
 11
-410.074
 21
132.81
 31
0
  0
LINE
  5
A25
330
A02
100
AcDbEntity
  8
Shape2DView010
100
AcDbLine
 10
-409.129
 20
121.883
 30
0
 11
-409.726
 21
126.921
 31
0
  0
LINE
  5
A26
330
A02
100
AcDbEntity
  8
Shape2DView010
100
AcDbLine
 10
-408.32
 20
118.103
 30
0
 11
-409.129
 21
121.883
 31
0
  0
LINE
  5
A27
330
A02
100
AcDbEntity
  8
Shape2DView010
100
AcDbLine
 10
-407.692
 20
116.409
 30
0
 11
-408.32
 21
118.103
 31
0
  0
ELLIPSE
  5
A28
330
A02
100
AcDbEntity
  8
Shape2DView010
100
AcDbEllipse
 10
-409.507
 20
101.519
 30
0
 11
6.5975e-07
 21
-15
 31
0
 40
1
 41
1.70453
 42
3.02029
  0
LINE
  5
A29
330
A02
100
AcDbEntity
  8
Shape2DView010
100
AcDbLine
 10
-394.641
 20
103.519
 30
0
 11
-402.53
 21
103.519
 31
0
  0
LINE
  5
A2A
330
A02
100
AcDbEntity
  8
Shape2DView010
100
AcDbLine
 10
-402.53
 20
103.519
 30
0
 11
-402.53
 21
99.5191
 31
0
  0
LINE
  5
A2B
330
A02
100
AcDbEntity
  8
Shape2DView010
100
AcDbLine
 10
-402.53
 20
99.5191
 30
0
 11
-394.641
 21
99.5191
 31
0
  0
ELLIPSE
  5
A2C
330
A02
100
AcDbEntity
  8
Shape2DView010
100
AcDbEllipse
 10
-409.507
 20
101.519
 30
0
 11
6.5975e-07
 21
-15
 31
0
 40
1
 41
6.17247
 42
1.43706
  0
LINE
  5
A2D
330
A02
100
AcDbEntity
  8
Shape2DView010
100
AcDbLine
 10
-411.164
 20
86.6109
 30
0
 11
-414.337
 21
86.9636
 31
0
  0
ELLIPSE
  5
A2E
330
A02
100
AcDbEntity
  8
Shape2DView010
100
AcDbEllipse
 10
-412.68
 20
101.872
 30
0
 11
6.01436e-07
 21
-15
 31
0
 40
1
 41
5.92274
 42
6.17247
  0
LINE
  5
A2F
330
A02
100
AcDbEntity
  8
Shape2DView010
100
AcDbLine
 10
-417.97
 20
87.8357
 30
0
 11
-420.683
 21
88.8582
 31
0
  0
ELLIPSE
  5
A30
330
A02
100
AcDbEntity
  8
Shape2DView010
100
AcDbEllipse
 10
-415.393
 20
102.894
 30
0
 11
5.98746e-07
 21
-15
 31
0
 40
1
 41
5.69608
 42
5.92274
  0
LINE
  5
A31
330
A02
100
AcDbEntity
  8
Shape2DView010
100
AcDbLine
 10
-423.702
 20
90.4061
 30
0
 11
-425.411
 21
91.543
 31
0
  0
ELLIPSE
  5
A32
330
A02
100
AcDbEntity
  8
Shape2DView010
100
AcDbEllipse
 10
-417.101
 20
104.031
 30
0
 11
9.04172e-07
 21
-15
 31
0
 40
1
 41
5.51611
 42
5.69608
  0
LINE
  5
A33
330
A02
100
AcDbEntity
  8
Shape2DView010
100
AcDbLine
 10
-427.512
 20
93.232
 30
0
 11
-429.009
 21
94.6758
 31
0
  0
ELLIPSE
  5
A34
330
A02
100
AcDbEntity
  8
Shape2DView010
100
AcDbEllipse
 10
-418.599
 20
105.475
 30
0
 11
6.9255e-07
 21
-15
 31
0
 40
1
 41
5.28821
 42
5.51611
  0
LINE
  5
A35
330
A02
100
AcDbEntity
  8
Shape2DView010
100
AcDbLine
 10
-431.18
 20
97.307
 30
0
 11
-433.599
 21
101.033
 31
0
  0
ELLIPSE
  5
A36
330
A02
100
AcDbEntity
  8
Shape2DView010
100
AcDbEllipse
 10
-421.018
 20
109.201
 30
0
 11
6.98618e-07
 21
-15
 31
0
 40
1
 41
5.06728
 42
5.28821
  0
LINE
  5
A37
330
A02
100
AcDbEntity
  8
Shape2DView010
100
AcDbLine
 10
-435.083
 20
103.988
 30
0
 11
-436.827
 21
108.694
 31
0
  0
ELLIPSE
  5
A38
330
A02
100
AcDbEntity
  8
Shape2DView010
100
AcDbEllipse
 10
-422.761
 20
113.906
 30
0
 11
7.08693e-07
 21
-15
 31
0
 40
1
 41
4.92319
 42
5.06728
  0
LINE
  5
A39
330
A02
100
AcDbEntity
  8
Shape2DView010
100
AcDbLine
 10
-437.429
 20
110.767
 30
0
 11
-438.61
 21
116.287
 31
0
  0
ELLIPSE
  5
A3A
330
A02
100
AcDbEntity
  8
Shape2DView010
100
AcDbEllipse
 10
-423.942
 20
119.426
 30
0
 11
7.12225e-07
 21
-15
 31
0
 40
1
 41
4.83035
 42
4.92319
  0
LINE
  5
A3B
330
A02
100
AcDbEntity
  8
Shape2DView010
100
AcDbLine
 10
-438.838
 20
117.66
 30
0
 11
-439.569
 21
123.829
 31
0
  0
ELLIPSE
  5
A3C
330
A02
100
AcDbEntity
  8
Shape2DView010
100
AcDbEllipse
 10
-424.674
 20
125.595
 30
0
 11
7.07277e-07
 21
-15
 31
0
 40
1
 41
4.77148
 42
4.83035
  0
LINE
  5
A3D
330
A02
100
AcDbEntity
  8
Shape2DView010
100
AcDbLine
 10
-439.647
 20
124.709
 30
0
 11
-440.041
 21
131.362
 31
0
  0
ELLIPSE
  5
A3E
330
A02
100
AcDbEntity
  8
Shape2DView010
100
AcDbEllipse
 10
-425.067
 20
132.248
 30
0
 11
7.09451e-07
 21
-15
 31
0
 40
1
 41
4.72831
 42
4.77148
  0
LINE
  5
A3F
330
A02
100
AcDbEntity
  8
Shape2DView010
100
AcDbLine
 10
-440.065
 20
132.009
 30
0
 11
-440.29
 21
146.106
 31
0
  0
ELLIPSE
  5
A40
330
A02
100
AcDbEntity
  8
Shape2DView010
100
AcDbEllipse
 10
-425.292
 20
146.345
 30
0
 11
7.04171e-07
 21
-15
 31
0
 40
1
 41
4.7281
 42
4.72831
  0
LINE
  5
A41
330
A02
100
AcDbEntity
  8
Shape2DView010
100
AcDbLine
 10
-440.29
 20
146.109
 30
0
 11
-440.503
 21
159.687
 31
0
  0
LINE
  5
A42
330
A02
100
AcDbEntity
  8
Shape2DView010
100
AcDbLine
 10
-440.503
 20
159.687
 30
0
 11
-440.84
 21
165.464
 31
0
  0
LINE
  5
A43
330
A02
100
AcDbEntity
  8
Shape2DView010
100
AcDbLine
 10
-440.84
 20
165.464
 30
0
 11
-441.416
 21
170.384
 31
0
  0
LINE
  5
A44
330
A02
100
AcDbEntity
  8
Shape2DView010
100
AcDbLine
 10
-441.416
 20
170.384
 30
0
 11
-442.19
 21
174.04
 31
0
  0
LINE
  5
A45
330
A02
100
AcDbEntity
  8
Shape2DView010
100
AcDbLine
 10
-442.19
 20
174.04
 30
0
 11
-442.6
 21
175.155
 31
0
  0
LINE
  5
A46
330
A02
100
AcDbEntity
  8
Shape2DView010
100
AcDbLine
 10
-442.6
 20
175.155
 30
0
 11
-443.593
 21
175.155
 31
0
  0
SPLINE
  5
A47
330
A02
100
AcDbEntity
  8
Shape2DView010
100
AcDbSpline
210
0
220
0
230
1
 70
8
 71
3
 72
17
 73
13
 74
0
 40
0.0109404
 40
0.0109404
 40
0.0109404
 40
0.0109404
 40
0.0737271
 40
0.0737271
 40
0.0737271
 40
0.136514
 40
0.136514
 40
0.136514
 40
0.1993
 40
0.1993
 40
0.1993
 40
0.262087
 40
0.262087
 40
0.262087
 40
0.262087
 10
-443.593
 20
175.155
 30
0
 10
-451.587
 20
167.164
 30
0
 10
-458.384
 20
159.567
 30
0
 10
-464.104
 20
152.332
 30
0
 10
-469.825
 20
145.097
 30
0
 10
-474.468
 20
138.225
 30
0
 10
-478.18
 20
131.674
 30
0
 10
-481.893
 20
125.12
 30
0
 10
-484.679
 20
118.89
 30
0
 10
-486.706
 20
112.888
 30
0
 10
-488.733
 20
106.884
 30
0
 10
-490.008
 20
101.105
 30
0
 10
-490.672
 20
95.3897
 30
0
  0
SPLINE
  5
A48
330
A02
100
AcDbEntity
  8
Shape2DView010
100
AcDbSpline
210
0
220
0
230
1
 70
8
 71
3
 72
17
 73
13
 74
0
 40
0.262087
 40
0.262087
 40
0.262087
 40
0.262087
 40
0.349023
 40
0.349023
 40
0.349023
 40
0.435959
 40
0.435959
 40
0.435959
 40
0.522896
 40
0.522896
 40
0.522896
 40
0.609832
 40
0.609832
 40
0.609832
 40
0.609832
 10
-490.672
 20
95.3897
 30
0
 10
-491.585
 20
87.4792
 30
0
 10
-491.334
 20
79.6665
 30
0
 10
-490.078
 20
71.5686
 30
0
 10
-488.821
 20
63.4779
 30
0
 10
-486.54
 20
55.1085
 30
0
 10
-483.383
 20
46.3005
 30
0
 10
-480.228
 20
37.495
 30
0
 10
-476.2
 20
28.2626
 30
0
 10
-471.543
 20
18.5041
 30
0
 10
-466.887
 20
8.74486
 30
0
 10
-461.605
 20
-1.53898
 30
0
 10
-455.988
 20
-12.4676
 30
0
  0
SPLINE
  5
A49
330
A02
100
AcDbEntity
  8
Shape2DView010
100
AcDbSpline
210
0
220
0
230
1
 70
8
 71
3
 72
8
 73
4
 74
0
 40
0.609832
 40
0.609832
 40
0.609832
 40
0.609832
 40
0.795619
 40
0.795619
 40
0.795619
 40
0.795619
 10
-455.988
 20
-12.4676
 30
0
 10
-443.988
 20
-35.8266
 30
0
 10
-430.456
 20
-62.1216
 30
0
 10
-418.403
 20
-92.772
 30
0
  0
SPLINE
  5
A4A
330
A02
100
AcDbEntity
  8
Shape2DView010
100
AcDbSpline
210
0
220
0
230
1
 70
8
 71
3
 72
17
 73
13
 74
0
 40
0
 40
0
 40
0
 40
0
 40
0.179008
 40
0.179008
 40
0.179008
 40
0.487867
 40
0.487867
 40
0.487867
 40
0.727054
 40
0.727054
 40
0.727054
 40
1
 40
1
 40
1
 40
1
 10
-420.015
 20
-97.4398
 30
0
 10
-419.734
 20
-97.357
 30
0
 10
-419.455
 20
-97.2164
 30
0
 10
-419.205
 20
-97.0184
 30
0
 10
-418.771
 20
-96.6786
 30
0
 10
-418.439
 20
-96.1678
 30
0
 10
-418.261
 20
-95.6045
 30
0
 10
-418.122
 20
-95.168
 30
0
 10
-418.069
 20
-94.7023
 30
0
 10
-418.088
 20
-94.2482
 30
0
 10
-418.109
 20
-93.7293
 30
0
 10
-418.225
 20
-93.2248
 30
0
 10
-418.403
 20
-92.772
 30
0
  0
SPLINE
  5
A4B
330
A02
100
AcDbEntity
  8
Shape2DView010
100
AcDbSpline
210
0
220
0
230
1
 70
8
 71
2
 72
6
 73
3
 74
0
 40
2.77185
 40
2.77185
 40
2.77185
 40
7.36076
 40
7.36076
 40
7.36076
 10
-418.467
 20
-92.6095
 30
0
 10
-418.982
 20
-91.302
 30
0
 10
-419.473
 20
-90.072
 30
0
  0
SPLINE
  5
A4C
330
A02
100
AcDbEntity
  8
Shape2DView010
100
AcDbSpline
210
0
220
0
230
1
 70
8
 71
3
 72
14
 73
10
 74
0
 40
0
 40
0
 40
0
 40
0
 40
0.176275
 40
0.176275
 40
0.176275
 40
0.495308
 40
0.495308
 40
0.495308
 40
1
 40
1
 40
1
 40
1
 10
-420.991
 20
-94.6323
 30
0
 10
-420.726
 20
-94.5393
 30
0
 10
-420.466
 20
-94.3945
 30
0
 10
-420.232
 20
-94.1998
 30
0
 10
-419.807
 20
-93.8491
 30
0
 10
-419.483
 20
-93.3334
 30
0
 10
-419.315
 20
-92.7676
 30
0
 10
-419.043
 20
-91.8682
 30
0
 10
-419.149
 20
-90.8746
 30
0
 10
-419.473
 20
-90.072
 30
0
  0
SPLINE
  5
A4D
330
A02
100
AcDbEntity
  8
Shape2DView010
100
AcDbSpline
210
0
220
0
230
1
 70
8
 71
2
 72
6
 73
3
 74
0
 40
1.44562
 40
1.44562
 40
1.44562
 40
5.89801
 40
5.89801
 40
5.89801
 10
-446.885
 20
-102.325
 30
0
 10
-447.273
 20
-101.347
 30
0
 10
-447.647
 20
-100.416
 30
0
  0
SPLINE
  5
A4E
330
A02
100
AcDbEntity
  8
Shape2DView010
100
AcDbSpline
210
0
220
0
230
1
 70
8
 71
1
 72
4
 73
2
 74
0
 40
0.999935
 40
0.999935
 40
1
 40
1
 10
-447.646
 20
-100.416
 30
0
 10
-447.647
 20
-100.416
 30
0
  0
SPLINE
  5
A4F
330
A02
100
AcDbEntity
  8
Shape2DView010
100
AcDbSpline
210
0
220
0
230
1
 70
8
 71
3
 72
8
 73
4
 74
0
 40
0.609832
 40
0.609832
 40
0.609832
 40
0.609832
 40
0.646989
 40
0.646989
 40
0.646989
 40
0.646989
 10
-455.988
 20
-12.4676
 30
0
 10
-453.588
 20
-17.1388
 30
0
 10
-451.126
 20
-21.9282
 30
0
 10
-448.628
 20
-26.8464
 30
0
  0
SPLINE
  5
A50
330
A02
100
AcDbEntity
  8
Shape2DView010
100
AcDbSpline
210
0
220
0
230
1
 70
8
 71
1
 72
4
 73
2
 74
0
 40
0.788322
 40
0.788322
 40
0.790141
 40
0.790141
 10
-419.83
 20
-89.1808
 30
0
 10
-419.473
 20
-90.072
 30
0
  0
SPLINE
  5
A51
330
A02
100
AcDbEntity
  8
Shape2DView010
100
AcDbSpline
210
0
220
0
230
1
 70
8
 71
3
 72
8
 73
4
 74
0
 40
0.609832
 40
0.609832
 40
0.609832
 40
0.609832
 40
0.788457
 40
0.788457
 40
0.788457
 40
0.788457
 10
-482.671
 20
-26.1796
 30
0
 10
-471.13
 20
-48.6324
 30
0
 10
-458.709
 20
-72.8342
 30
0
 10
-447.647
 20
-100.416
 30
0
  0
SPLINE
  5
A52
330
A02
100
AcDbEntity
  8
Shape2DView010
100
AcDbSpline
210
0
220
0
230
1
 70
8
 71
1
 72
4
 73
2
 74
0
 40
0.262087
 40
0.262087
 40
0.262683
 40
0.262683
 10
-490.672
 20
95.3897
 30
0
 10
-490.691
 20
95.227
 30
0
  0
SPLINE
  5
A53
330
A02
100
AcDbEntity
  8
Shape2DView010
100
AcDbSpline
210
0
220
0
230
1
 70
8
 71
3
 72
17
 73
13
 74
0
 40
0.262087
 40
0.262087
 40
0.262087
 40
0.262087
 40
0.349023
 40
0.349023
 40
0.349023
 40
0.435959
 40
0.435959
 40
0.435959
 40
0.522896
 40
0.522896
 40
0.522896
 40
0.609832
 40
0.609832
 40
0.609832
 40
0.609832
 10
-520.472
 20
98.8427
 30
0
 10
-521.729
 20
88.0205
 30
0
 10
-521.344
 20
77.3763
 30
0
 10
-519.722
 20
66.96
 30
0
 10
-518.1
 20
56.5365
 30
0
 10
-515.262
 20
46.3344
 30
0
 10
-511.624
 20
36.1801
 30
0
 10
-507.983
 20
26.0235
 30
0
 10
-503.54
 20
15.9029
 30
0
 10
-498.618
 20
5.58462
 30
0
 10
-493.694
 20
-4.73306
 30
0
 10
-488.287
 20
-15.2501
 30
0
 10
-482.671
 20
-26.1796
 30
0
  0
SPLINE
  5
A54
330
A02
100
AcDbEntity
  8
Shape2DView010
100
AcDbSpline
210
0
220
0
230
1
 70
8
 71
3
 72
17
 73
13
 74
0
 40
0.0109404
 40
0.0109404
 40
0.0109404
 40
0.0109404
 40
0.0737271
 40
0.0737271
 40
0.0737271
 40
0.136514
 40
0.136514
 40
0.136514
 40
0.1993
 40
0.1993
 40
0.1993
 40
0.262087
 40
0.262087
 40
0.262087
 40
0.262087
 10
-443.593
 20
175.155
 30
0
 10
-451.587
 20
167.164
 30
0
 10
-458.384
 20
159.567
 30
0
 10
-464.104
 20
152.332
 30
0
 10
-469.825
 20
145.097
 30
0
 10
-474.468
 20
138.225
 30
0
 10
-478.18
 20
131.674
 30
0
 10
-481.893
 20
125.12
 30
0
 10
-484.679
 20
118.89
 30
0
 10
-486.706
 20
112.888
 30
0
 10
-488.733
 20
106.884
 30
0
 10
-490.008
 20
101.105
 30
0
 10
-490.672
 20
95.3897
 30
0
  0
SPLINE
  5
A55
330
A02
100
AcDbEntity
  8
Shape2DView010
100
AcDbSpline
210
0
220
0
230
1
 70
8
 71
3
 72
17
 73
13
 74
0
 40
0
 40
0
 40
0
 40
0
 40
0.0655217
 40
0.0655217
 40
0.0655217
 40
0.131043
 40
0.131043
 40
0.131043
 40
0.196565
 40
0.196565
 40
0.196565
 40
0.262087
 40
0.262087
 40
0.262087
 40
0.262087
 10
-460.153
 20
200.941
 30
0
 10
-469.644
 20
191.769
 30
0
 10
-477.895
 20
182.889
 30
0
 10
-485.015
 20
174.196
 30
0
 10
-492.135
 20
165.503
 30
0
 10
-498.125
 20
156.993
 30
0
 10
-503.065
 20
148.572
 30
0
 10
-508.004
 20
140.153
 30
0
 10
-511.891
 20
131.817
 30
0
 10
-514.773
 20
123.527
 30
0
 10
-517.657
 20
115.238
 30
0
 10
-519.529
 20
106.997
 30
0
 10
-520.472
 20
98.8427
 30
0
  0
ENDSEC
  0
SECTION
  2
OBJECTS
  0
DICTIONARY
  5
F000
330
0
100
AcDbDictionary
  3
ACAD_GROUP
350
F001
  0
DICTIONARY
  5
F001
330
F000
100
AcDbDictionary
  0
ENDSEC
  0
EOF