999
FreeCAD v0.21 33668 +26 (Git)
  0
SECTION
  2
HEADER
  9
$ACADVER
  1
AC1014
  9
$ACADMAINTVER
 70
     9
  9
$DWGCODEPAGE
  3
ANSI_1252
  9
$TEXTSTYLE
  7
STANDARD
  9
$DIMSTYLE
  2
STANDARD
  9
$DIMTXSTY
  7
STANDARD
  9
$CMLSTYLE
  2
STANDARD
  9
$LUNITS
 70
2
  9
$INSUNITS
 70
4
  9
$PEXTMAX
 10
50
 20
50
 30
50
  9
$PEXTMIN
 10
0
 20
0
 30
0
  9
$HANDSEED
  5
FFFF
  0
ENDSEC
  0
SECTION
  2
CLASSES
  0
CLASS
  1
ACDBDICTIONARYWDFLT
  2
AcDbDictionaryWithDefault
  3
ObjectDBX Classes
 90
        0
280
     0
281
     0
  0
CLASS
  1
XRECORD
  2
AcDbXrecord
  3
ObjectDBX Classes
 90
        0
280
     0
281
     0
  0
CLASS
  1
LWPOLYLINE
  2
AcDbPolyline
  3
ObjectDBX Classes
 90
        0
280
     0
281
     1
  0
ENDSEC
  0
SECTION
  2
TABLES
  0
TABLE
  2
VPORT
  5
20
330
0
100
AcDbSymbolTable
 70
     1
  0
VPORT
  5
21
330
20
100
AcDbSymbolTableRecord
100
AcDbViewportTableRecord
  2
*ACTIVE
 70
     0
  0
ENDTAB
  0
TABLE
  2
LTYPE
  5
22
330
0
100
AcDbSymbolTable
 70
     1
  0
LTYPE
  5
23
330
21
100
AcDbSymbolTableRecord
100
AcDbLinetypeTableRecord
  2
BYBLOCK
 70
     0
  3

 72
    65
 73
     0
 40
0.0
  0
LTYPE
  5
24
330
21
100
AcDbSymbolTableRecord
100
AcDbLinetypeTableRecord
  2
BYLAYER
 70
     0
  3

 72
    65
 73
     0
 40
0.0
  0
LTYPE
  5
25
330
21
100
AcDbSymbolTableRecord
100
AcDbLinetypeTableRecord
  2
CONTINUOUS
 70
     0
  3
Solid line
 72
    65
 73
     0
 40
0.0
  0
ENDTAB
  0
TABLE
  2
LAYER
  5
A53
330
0
100
AcDbSymbolTable
 70
3
  0
LAYER
  5
A54
330
A53
100
AcDbSymbolTableRecord
100
AcDbLayerTableRecord
  2
0
 70
   0
 62
   7
  6
CONTINUOUS
  0
LAYER
  5
A55
330
A53
100
AcDbSymbolTableRecord
100
AcDbLayerTableRecord
  2
none
 70
    0
 62
    7
  6
CONTINUOUS
  0
LAYER
  5
A56
330
A53
100
AcDbSymbolTableRecord
100
AcDbLayerTableRecord
  2
Shape2DView006
 70
    0
 62
    7
  6
CONTINUOUS
  0
ENDTAB
  0
TABLE
  2
STYLE
  5
70
330
0
100
AcDbSymbolTable
 70
     2
  0
STYLE
  5
71
330
70
100
AcDbSymbolTableRecord
100
AcDbTextStyleTableRecord
  2
STANDARD
 70
     0
 40
0.0
 41
1.0
 50
0.0
 71
     0
 42
2.5
  3
arial.ttf
  4

  0
STYLE
  5
72
330
70
100
AcDbSymbolTableRecord
100
AcDbTextStyleTableRecord
  2
ANNOTATIVE
 70
     0
 40
0.0
 41
1.0
 50
0.0
 71
     0
 42
2.5
  3
arial.ttf
  4

  0
ENDTAB
  0
TABLE
  2
VIEW
  5
73
330
0
100
AcDbSymbolTable
 70
     0
  0
ENDTAB
  0
TABLE
  2
UCS
  5
74
330
0
100
AcDbSymbolTable
 70
     0
  0
ENDTAB
  0
TABLE
  2
APPID
  5
75
330
0
100
AcDbSymbolTable
 70
     2
  0
APPID
  5
76
330
75
100
AcDbSymbolTableRecord
100
AcDbRegAppTableRecord
  2
ACAD
 70
     0
  0
APPID
  5
77
330
75
100
AcDbSymbolTableRecord
100
AcDbRegAppTableRecord
  2
ACADANNOTATIVE
 70
     0
  0
ENDTAB
  0
TABLE
  2
DIMSTYLE
  5
78
330
0
100
AcDbSymbolTable
 70
     2
  0
DIMSTYLE
105
79
330
78
100
AcDbSymbolTableRecord
100
AcDbDimStyleTableRecord
  2
STANDARD
 70
     0
  3

  4

  5

  6

  7

 40
0.0
 41
2.5
 42
0.625
 43
3.75
 44
1.25
 45
0.0
 46
0.0
 47
0.0
 48
0.0
140
2.5
141
2.5
142
0.0
143
0.03937007874016
144
1.0
145
0.0
146
1.0
147
0.625
 71
     0
 72
     0
 73
     0
 74
     0
 75
     0
 76
     0
 77
     1
 78
     8
170
     0
171
     3
172
     1
173
     0
174
     0
175
     0
176
     0
177
     0
178
     0
270
     2
271
     2
272
     2
273
     2
274
     3
340
71
275
     0
280
     0
281
     0
282
     0
283
     0
284
     8
285
     0
286
     0
287
     3
288
     0
  0
ENDTAB
  0
TABLE
  2
BLOCK_RECORD
  5
A01
330
0
100
AcDbSymbolTable
  70
5
  0
BLOCK_RECORD
  5
A02
330
A01
100
AcDbSymbolTableRecord
100
AcDbBlockTableRecord
  2
*MODEL_SPACE
  0
BLOCK_RECORD
  5
A03
330
A01
100
AcDbSymbolTableRecord
100
AcDbBlockTableRecord
  2
*PAPER_SPACE
  0
ENDTAB
  0
ENDSEC
  0
SECTION
  2
BLOCKS
  0
BLOCK
  5
A04
330
A02
100
AcDbEntity
  8
0
100
AcDbBlockBegin
  2
*MODEL_SPACE
 70
   0
 10
0
 20
0
 30
0
  3
*MODEL_SPACE
  1
 
  0
ENDBLK
  5
A05
330
A02
100
AcDbEntity
  8
0
100
AcDbBlockEnd
  0
BLOCK
  5
A06
330
A03
100
AcDbEntity
 67
1
  8
0
100
AcDbBlockBegin
  2
*PAPER_SPACE
 70
   0
 10
0
 20
0
 30
0
  3
*PAPER_SPACE
  1
 
  0
ENDBLK
  5
A07
330
A03
100
AcDbEntity
 67
    1
  8
0
100
AcDbBlockEnd
  0
ENDSEC
  0
SECTION
  2
ENTITIES
  0
SPLINE
  5
A08
330
A02
100
AcDbEntity
  8
Shape2DView006
100
AcDbSpline
210
0
220
0
230
1
 70
8
 71
3
 72
8
 73
4
 74
0
 40
0.130397
 40
0.130397
 40
0.130397
 40
0.130397
 40
0.301778
 40
0.301778
 40
0.301778
 40
0.301778
 10
-338.648
 20
56.4682
 30
0
 10
-330.967
 20
58.5556
 30
0
 10
-323.313
 20
60.8334
 30
0
 10
-315.666
 20
63.147
 30
0
  0
SPLINE
  5
A09
330
A02
100
AcDbEntity
  8
Shape2DView006
100
AcDbSpline
210
0
220
0
230
1
 70
8
 71
3
 72
14
 73
10
 74
0
 40
0
 40
0
 40
0
 40
0
 40
0.176295
 40
0.176295
 40
0.176295
 40
0.517258
 40
0.517258
 40
0.517258
 40
1
 40
1
 40
1
 40
1
 10
-315.666
 20
63.147
 30
0
 10
-315.401
 20
63.2275
 30
0
 10
-315.112
 20
63.266
 30
0
 10
-314.816
 20
63.2527
 30
0
 10
-314.242
 20
63.2298
 30
0
 10
-313.651
 20
63.0028
 30
0
 10
-313.163
 20
62.6339
 30
0
 10
-312.467
 20
62.1131
 30
0
 10
-311.982
 20
61.3317
 30
0
 10
-311.757
 20
60.5531
 30
0
  0
SPLINE
  5
A0A
330
A02
100
AcDbEntity
  8
Shape2DView006
100
AcDbSpline
210
0
220
0
230
1
 70
8
 71
3
 72
8
 73
4
 74
0
 40
0.609832
 40
0.609832
 40
0.609832
 40
0.609832
 40
0.877432
 40
0.877432
 40
0.877432
 40
0.877432
 10
-261.483
 20
-57.6092
 30
0
 10
-278.774
 20
-23.9746
 30
0
 10
-298.032
 20
13.5957
 30
0
 10
-311.757
 20
60.5531
 30
0
  0
SPLINE
  5
A0B
330
A02
100
AcDbEntity
  8
Shape2DView006
100
AcDbSpline
210
0
220
0
230
1
 70
8
 71
3
 72
17
 73
13
 74
0
 40
0.262087
 40
0.262087
 40
0.262087
 40
0.262087
 40
0.349023
 40
0.349023
 40
0.349023
 40
0.435959
 40
0.435959
 40
0.435959
 40
0.522896
 40
0.522896
 40
0.522896
 40
0.609832
 40
0.609832
 40
0.609832
 40
0.609832
 10
-223.681
 20
-182.632
 30
0
 10
-222.424
 20
-171.809
 30
0
 10
-222.809
 20
-161.165
 30
0
 10
-224.432
 20
-150.749
 30
0
 10
-226.054
 20
-140.325
 30
0
 10
-228.892
 20
-130.123
 30
0
 10
-232.53
 20
-119.969
 30
0
 10
-236.171
 20
-109.812
 30
0
 10
-240.613
 20
-99.6917
 30
0
 10
-245.536
 20
-89.3734
 30
0
 10
-250.459
 20
-79.0557
 30
0
 10
-255.867
 20
-68.5387
 30
0
 10
-261.483
 20
-57.6092
 30
0
  0
SPLINE
  5
A0C
330
A02
100
AcDbEntity
  8
Shape2DView006
100
AcDbSpline
210
0
220
0
230
1
 70
8
 71
3
 72
17
 73
13
 74
0
 40
0
 40
0
 40
0
 40
0
 40
0.0655217
 40
0.0655217
 40
0.0655217
 40
0.131043
 40
0.131043
 40
0.131043
 40
0.196565
 40
0.196565
 40
0.196565
 40
0.262087
 40
0.262087
 40
0.262087
 40
0.262087
 10
-284.001
 20
-284.73
 30
0
 10
-274.51
 20
-275.558
 30
0
 10
-266.259
 20
-266.678
 30
0
 10
-259.139
 20
-257.985
 30
0
 10
-252.019
 20
-249.291
 30
0
 10
-246.029
 20
-240.782
 30
0
 10
-241.089
 20
-232.361
 30
0
 10
-236.149
 20
-223.942
 30
0
 10
-232.263
 20
-215.606
 30
0
 10
-229.381
 20
-207.315
 30
0
 10
-226.497
 20
-199.027
 30
0
 10
-224.625
 20
-190.786
 30
0
 10
-223.681
 20
-182.632
 30
0
  0
ELLIPSE
  5
A0D
330
A02
100
AcDbEntity
  8
Shape2DView006
100
AcDbEllipse
 10
-294.425
 20
-273.944
 30
0
 11
-1.2456e-07
 21
15
 31
0
 40
1
 41
3.14159
 42
3.90986
  0
LINE
  5
A0E
330
A02
100
AcDbEntity
  8
Shape2DView006
100
AcDbLine
 10
-303.78
 20
-288.944
 30
0
 11
-294.425
 21
-288.944
 31
0
  0
ELLIPSE
  5
A0F
330
A02
100
AcDbEntity
  8
Shape2DView006
100
AcDbEllipse
 10
-303.78
 20
-273.944
 30
0
 11
-1.24607e-07
 21
15
 31
0
 40
1
 41
3.03184
 42
3.14159
  0
LINE
  5
A10
330
A02
100
AcDbEntity
  8
Shape2DView006
100
AcDbLine
 10
-308.389
 20
-288.527
 30
0
 11
-305.423
 21
-288.853
 31
0
  0
ELLIPSE
  5
A11
330
A02
100
AcDbEntity
  8
Shape2DView006
100
AcDbEllipse
 10
-306.746
 20
-273.617
 30
0
 11
-1.2531e-07
 21
15
 31
0
 40
1
 41
2.78487
 42
3.03184
  0
LINE
  5
A12
330
A02
100
AcDbEntity
  8
Shape2DView006
100
AcDbLine
 10
-314.53
 20
-286.724
 30
0
 11
-311.984
 21
-287.672
 31
0
  0
ELLIPSE
  5
A13
330
A02
100
AcDbEntity
  8
Shape2DView006
100
AcDbEllipse
 10
-309.292
 20
-272.668
 30
0
 11
-1.20664e-07
 21
15
 31
0
 40
1
 41
2.55836
 42
2.78487
  0
LINE
  5
A14
330
A02
100
AcDbEntity
  8
Shape2DView006
100
AcDbLine
 10
-319.204
 20
-284.099
 30
0
 11
-317.553
 21
-285.188
 31
0
  0
ELLIPSE
  5
A15
330
A02
100
AcDbEntity
  8
Shape2DView006
100
AcDbEllipse
 10
-310.943
 20
-271.578
 30
0
 11
-1.27395e-07
 21
15
 31
0
 40
1
 41
2.37577
 42
2.55836
  0
LINE
  5
A16
330
A02
100
AcDbEntity
  8
Shape2DView006
100
AcDbLine
 10
-322.787
 20
-280.999
 30
0
 11
-321.34
 21
-282.391
 31
0
  0
ELLIPSE
  5
A17
330
A02
100
AcDbEntity
  8
Shape2DView006
100
AcDbEllipse
 10
-312.391
 20
-270.187
 30
0
 11
-1.24274e-07
 21
15
 31
0
 40
1
 41
2.14535
 42
2.37577
  0
LINE
  5
A18
330
A02
100
AcDbEntity
  8
Shape2DView006
100
AcDbLine
 10
-327.32
 20
-274.727
 30
0
 11
-324.982
 21
-278.338
 31
0
  0
ELLIPSE
  5
A19
330
A02
100
AcDbEntity
  8
Shape2DView006
100
AcDbEllipse
 10
-314.728
 20
-266.576
 30
0
 11
-1.21128e-07
 21
15
 31
0
 40
1
 41
1.92337
 42
2.14535
  0
LINE
  5
A1A
330
A02
100
AcDbEntity
  8
Shape2DView006
100
AcDbLine
 10
-330.491
 20
-267.174
 30
0
 11
-328.806
 21
-271.755
 31
0
  0
ELLIPSE
  5
A1B
330
A02
100
AcDbEntity
  8
Shape2DView006
100
AcDbEllipse
 10
-316.414
 20
-261.995
 30
0
 11
-1.25291e-07
 21
15
 31
0
 40
1
 41
1.77953
 42
1.92337
  0
LINE
  5
A1C
330
A02
100
AcDbEntity
  8
Shape2DView006
100
AcDbLine
 10
-332.23
 20
-259.712
 30
0
 11
-331.088
 21
-265.103
 31
0
  0
ELLIPSE
  5
A1D
330
A02
100
AcDbEntity
  8
Shape2DView006
100
AcDbEllipse
 10
-317.556
 20
-256.604
 30
0
 11
-1.25228e-07
 21
15
 31
0
 40
1
 41
1.6873
 42
1.77953
  0
LINE
  5
A1E
330
A02
100
AcDbEntity
  8
Shape2DView006
100
AcDbLine
 10
-333.161
 20
-252.306
 30
0
 11
-332.454
 21
-258.347
 31
0
  0
ELLIPSE
  5
A1F
330
A02
100
AcDbEntity
  8
Shape2DView006
100
AcDbEllipse
 10
-318.263
 20
-250.563
 30
0
 11
-1.24514e-07
 21
15
 31
0
 40
1
 41
1.62905
 42
1.6873
  0
LINE
  5
A20
330
A02
100
AcDbEntity
  8
Shape2DView006
100
AcDbLine
 10
-333.618
 20
-244.904
 30
0
 11
-333.237
 21
-251.436
 31
0
  0
ELLIPSE
  5
A21
330
A02
100
AcDbEntity
  8
Shape2DView006
100
AcDbEllipse
 10
-318.644
 20
-244.031
 30
0
 11
-1.24532e-07
 21
15
 31
0
 40
1
 41
1.58651
 42
1.62905
  0
LINE
  5
A22
330
A02
100
AcDbEntity
  8
Shape2DView006
100
AcDbLine
 10
-333.86
 20
-230.371
 30
0
 11
-333.642
 21
-244.266
 31
0
  0
LINE
  5
A23
330
A02
100
AcDbEntity
  8
Shape2DView006
100
AcDbLine
 10
-334.08
 20
-216.599
 30
0
 11
-333.86
 21
-230.371
 31
0
  0
LINE
  5
A24
330
A02
100
AcDbEntity
  8
Shape2DView006
100
AcDbLine
 10
-334.428
 20
-210.71
 30
0
 11
-334.08
 21
-216.599
 31
0
  0
LINE
  5
A25
330
A02
100
AcDbEntity
  8
Shape2DView006
100
AcDbLine
 10
-335.025
 20
-205.672
 30
0
 11
-334.428
 21
-210.71
 31
0
  0
LINE
  5
A26
330
A02
100
AcDbEntity
  8
Shape2DView006
100
AcDbLine
 10
-335.834
 20
-201.892
 30
0
 11
-335.025
 21
-205.672
 31
0
  0
LINE
  5
A27
330
A02
100
AcDbEntity
  8
Shape2DView006
100
AcDbLine
 10
-336.462
 20
-200.198
 30
0
 11
-335.834
 21
-201.892
 31
0
  0
ELLIPSE
  5
A28
330
A02
100
AcDbEntity
  8
Shape2DView006
100
AcDbEllipse
 10
-334.647
 20
-185.308
 30
0
 11
-1.24942e-07
 21
15
 31
0
 40
1
 41
1.70453
 42
3.02029
  0
LINE
  5
A29
330
A02
100
AcDbEntity
  8
Shape2DView006
100
AcDbLine
 10
-349.513
 20
-187.308
 30
0
 11
-341.624
 21
-187.308
 31
0
  0
LINE
  5
A2A
330
A02
100
AcDbEntity
  8
Shape2DView006
100
AcDbLine
 10
-341.624
 20
-187.308
 30
0
 11
-341.624
 21
-183.308
 31
0
  0
LINE
  5
A2B
330
A02
100
AcDbEntity
  8
Shape2DView006
100
AcDbLine
 10
-341.624
 20
-183.308
 30
0
 11
-349.513
 21
-183.308
 31
0
  0
ELLIPSE
  5
A2C
330
A02
100
AcDbEntity
  8
Shape2DView006
100
AcDbEllipse
 10
-334.647
 20
-185.308
 30
0
 11
-1.24942e-07
 21
15
 31
0
 40
1
 41
6.17247
 42
1.43706
  0
LINE
  5
A2D
330
A02
100
AcDbEntity
  8
Shape2DView006
100
AcDbLine
 10
-332.989
 20
-170.4
 30
0
 11
-329.817
 21
-170.752
 31
0
  0
ELLIPSE
  5
A2E
330
A02
100
AcDbEntity
  8
Shape2DView006
100
AcDbEllipse
 10
-331.474
 20
-185.661
 30
0
 11
-1.24793e-07
 21
15
 31
0
 40
1
 41
5.92274
 42
6.17247
  0
LINE
  5
A2F
330
A02
100
AcDbEntity
  8
Shape2DView006
100
AcDbLine
 10
-326.184
 20
-171.625
 30
0
 11
-323.471
 21
-172.647
 31
0
  0
ELLIPSE
  5
A30
330
A02
100
AcDbEntity
  8
Shape2DView006
100
AcDbEllipse
 10
-328.761
 20
-186.683
 30
0
 11
-1.24715e-07
 21
15
 31
0
 40
1
 41
5.69608
 42
5.92274
  0
LINE
  5
A31
330
A02
100
AcDbEntity
  8
Shape2DView006
100
AcDbLine
 10
-320.452
 20
-174.195
 30
0
 11
-318.743
 21
-175.332
 31
0
  0
ELLIPSE
  5
A32
330
A02
100
AcDbEntity
  8
Shape2DView006
100
AcDbEllipse
 10
-327.053
 20
-187.82
 30
0
 11
-1.2493e-07
 21
15
 31
0
 40
1
 41
5.51611
 42
5.69608
  0
LINE
  5
A33
330
A02
100
AcDbEntity
  8
Shape2DView006
100
AcDbLine
 10
-316.642
 20
-177.021
 30
0
 11
-315.144
 21
-178.465
 31
0
  0
ELLIPSE
  5
A34
330
A02
100
AcDbEntity
  8
Shape2DView006
100
AcDbEllipse
 10
-325.555
 20
-189.264
 30
0
 11
-1.24424e-07
 21
15
 31
0
 40
1
 41
5.28821
 42
5.51611
  0
LINE
  5
A35
330
A02
100
AcDbEntity
  8
Shape2DView006
100
AcDbLine
 10
-312.974
 20
-181.096
 30
0
 11
-310.555
 21
-184.821
 31
0
  0
ELLIPSE
  5
A36
330
A02
100
AcDbEntity
  8
Shape2DView006
100
AcDbEllipse
 10
-323.136
 20
-192.989
 30
0
 11
-1.20113e-07
 21
15
 31
0
 40
1
 41
5.06728
 42
5.28821
  0
LINE
  5
A37
330
A02
100
AcDbEntity
  8
Shape2DView006
100
AcDbLine
 10
-309.071
 20
-187.777
 30
0
 11
-307.327
 21
-192.482
 31
0
  0
ELLIPSE
  5
A38
330
A02
100
AcDbEntity
  8
Shape2DView006
100
AcDbEllipse
 10
-321.392
 20
-197.695
 30
0
 11
-1.25586e-07
 21
15
 31
0
 40
1
 41
4.92319
 42
5.06728
  0
LINE
  5
A39
330
A02
100
AcDbEntity
  8
Shape2DView006
100
AcDbLine
 10
-306.725
 20
-194.556
 30
0
 11
-305.543
 21
-200.076
 31
0
  0
ELLIPSE
  5
A3A
330
A02
100
AcDbEntity
  8
Shape2DView006
100
AcDbEllipse
 10
-320.211
 20
-203.214
 30
0
 11
-1.2555e-07
 21
15
 31
0
 40
1
 41
4.83035
 42
4.92319
  0
LINE
  5
A3B
330
A02
100
AcDbEntity
  8
Shape2DView006
100
AcDbLine
 10
-305.316
 20
-201.449
 30
0
 11
-304.584
 21
-207.618
 31
0
  0
ELLIPSE
  5
A3C
330
A02
100
AcDbEntity
  8
Shape2DView006
100
AcDbEllipse
 10
-319.48
 20
-209.384
 30
0
 11
-1.24054e-07
 21
15
 31
0
 40
1
 41
4.77148
 42
4.83035
  0
LINE
  5
A3D
330
A02
100
AcDbEntity
  8
Shape2DView006
100
AcDbLine
 10
-304.506
 20
-208.498
 30
0
 11
-304.113
 21
-215.151
 31
0
  0
ELLIPSE
  5
A3E
330
A02
100
AcDbEntity
  8
Shape2DView006
100
AcDbEllipse
 10
-319.087
 20
-216.037
 30
0
 11
-1.24577e-07
 21
15
 31
0
 40
1
 41
4.72831
 42
4.77148
  0
LINE
  5
A3F
330
A02
100
AcDbEntity
  8
Shape2DView006
100
AcDbLine
 10
-304.089
 20
-215.798
 30
0
 11
-303.864
 21
-229.895
 31
0
  0
ELLIPSE
  5
A40
330
A02
100
AcDbEntity
  8
Shape2DView006
100
AcDbEllipse
 10
-318.862
 20
-230.134
 30
0
 11
-1.24532e-07
 21
15
 31
0
 40
1
 41
4.7281
 42
4.72831
  0
LINE
  5
A41
330
A02
100
AcDbEntity
  8
Shape2DView006
100
AcDbLine
 10
-303.864
 20
-229.898
 30
0
 11
-303.651
 21
-243.476
 31
0
  0
LINE
  5
A42
330
A02
100
AcDbEntity
  8
Shape2DView006
100
AcDbLine
 10
-303.651
 20
-243.476
 30
0
 11
-303.314
 21
-249.253
 31
0
  0
LINE
  5
A43
330
A02
100
AcDbEntity
  8
Shape2DView006
100
AcDbLine
 10
-303.314
 20
-249.253
 30
0
 11
-302.738
 21
-254.173
 31
0
  0
LINE
  5
A44
330
A02
100
AcDbEntity
  8
Shape2DView006
100
AcDbLine
 10
-302.738
 20
-254.173
 30
0
 11
-301.963
 21
-257.829
 31
0
  0
LINE
  5
A45
330
A02
100
AcDbEntity
  8
Shape2DView006
100
AcDbLine
 10
-301.963
 20
-257.829
 30
0
 11
-301.553
 21
-258.944
 31
0
  0
LINE
  5
A46
330
A02
100
AcDbEntity
  8
Shape2DView006
100
AcDbLine
 10
-301.553
 20
-258.944
 30
0
 11
-300.56
 21
-258.944
 31
0
  0
SPLINE
  5
A47
330
A02
100
AcDbEntity
  8
Shape2DView006
100
AcDbSpline
210
0
220
0
230
1
 70
8
 71
3
 72
17
 73
13
 74
0
 40
0.0109404
 40
0.0109404
 40
0.0109404
 40
0.0109404
 40
0.0737271
 40
0.0737271
 40
0.0737271
 40
0.136514
 40
0.136514
 40
0.136514
 40
0.1993
 40
0.1993
 40
0.1993
 40
0.262087
 40
0.262087
 40
0.262087
 40
0.262087
 10
-300.56
 20
-258.944
 30
0
 10
-292.567
 20
-250.953
 30
0
 10
-285.77
 20
-243.356
 30
0
 10
-280.05
 20
-236.121
 30
0
 10
-274.329
 20
-228.885
 30
0
 10
-269.686
 20
-222.014
 30
0
 10
-265.974
 20
-215.462
 30
0
 10
-262.26
 20
-208.909
 30
0
 10
-259.475
 20
-202.679
 30
0
 10
-257.447
 20
-196.677
 30
0
 10
-255.42
 20
-190.673
 30
0
 10
-254.145
 20
-184.894
 30
0
 10
-253.482
 20
-179.179
 30
0
  0
SPLINE
  5
A48
330
A02
100
AcDbEntity
  8
Shape2DView006
100
AcDbSpline
210
0
220
0
230
1
 70
8
 71
3
 72
17
 73
13
 74
0
 40
0.262087
 40
0.262087
 40
0.262087
 40
0.262087
 40
0.349023
 40
0.349023
 40
0.349023
 40
0.435959
 40
0.435959
 40
0.435959
 40
0.522896
 40
0.522896
 40
0.522896
 40
0.609832
 40
0.609832
 40
0.609832
 40
0.609832
 10
-253.482
 20
-179.179
 30
0
 10
-252.568
 20
-171.268
 30
0
 10
-252.82
 20
-163.455
 30
0
 10
-254.076
 20
-155.357
 30
0
 10
-255.333
 20
-147.267
 30
0
 10
-257.614
 20
-138.897
 30
0
 10
-260.771
 20
-130.089
 30
0
 10
-263.925
 20
-121.284
 30
0
 10
-267.953
 20
-112.051
 30
0
 10
-272.611
 20
-102.293
 30
0
 10
-277.267
 20
-92.5337
 30
0
 10
-282.549
 20
-82.2498
 30
0
 10
-288.166
 20
-71.3212
 30
0
  0
SPLINE
  5
A49
330
A02
100
AcDbEntity
  8
Shape2DView006
100
AcDbSpline
210
0
220
0
230
1
 70
8
 71
3
 72
8
 73
4
 74
0
 40
0.609832
 40
0.609832
 40
0.609832
 40
0.609832
 40
0.876266
 40
0.876266
 40
0.876266
 40
0.876266
 10
-288.166
 20
-71.3212
 30
0
 10
-305.374
 20
-37.8205
 30
0
 10
-325.737
 20
1.70939
 30
0
 10
-340.361
 20
51.4822
 30
0
  0
SPLINE
  5
A4A
330
A02
100
AcDbEntity
  8
Shape2DView006
100
AcDbSpline
210
0
220
0
230
1
 70
8
 71
3
 72
17
 73
13
 74
0
 40
0
 40
0
 40
0
 40
0
 40
0.145804
 40
0.145804
 40
0.145804
 40
0.439366
 40
0.439366
 40
0.439366
 40
0.885987
 40
0.885987
 40
0.885987
 40
1
 40
1
 40
1
 40
1
 10
-338.648
 20
56.4682
 30
0
 10
-338.879
 20
56.4068
 30
0
 10
-339.101
 20
56.3018
 30
0
 10
-339.315
 20
56.1532
 30
0
 10
-339.743
 20
55.8556
 30
0
 10
-340.091
 20
55.3753
 30
0
 10
-340.304
 20
54.8244
 30
0
 10
-340.632
 20
53.9832
 30
0
 10
-340.669
 20
53.0092
 30
0
 10
-340.514
 20
52.1357
 30
0
 10
-340.474
 20
51.9113
 30
0
 10
-340.423
 20
51.6935
 30
0
 10
-340.361
 20
51.4822
 30
0
  0
SPLINE
  5
A4B
330
A02
100
AcDbEntity
  8
Shape2DView006
100
AcDbSpline
210
0
220
0
230
1
 70
8
 71
2
 72
6
 73
3
 74
0
 40
3.19477
 40
3.19477
 40
3.19477
 40
8.70924
 40
8.70924
 40
8.70924
 10
-340.361
 20
51.4822
 30
0
 10
-339.794
 20
49.5531
 30
0
 10
-339.25
 20
47.7567
 30
0
  0
SPLINE
  5
A4C
330
A02
100
AcDbEntity
  8
Shape2DView006
100
AcDbSpline
210
0
220
0
230
1
 70
8
 71
2
 72
6
 73
3
 74
0
 40
1.90228
 40
1.90228
 40
1.90228
 40
6.57124
 40
6.57124
 40
6.57124
 10
-311.757
 20
60.5531
 30
0
 10
-311.397
 20
59.319
 30
0
 10
-311.046
 20
58.1441
 30
0
  0
SPLINE
  5
A4D
330
A02
100
AcDbEntity
  8
Shape2DView006
100
AcDbSpline
210
0
220
0
230
1
 70
8
 71
1
 72
4
 73
2
 74
0
 40
0.99982
 40
0.99982
 40
1
 40
1
 10
-311.046
 20
58.1449
 30
0
 10
-311.046
 20
58.1441
 30
0
  0
SPLINE
  5
A4E
330
A02
100
AcDbEntity
  8
Shape2DView006
100
AcDbSpline
210
0
220
0
230
1
 70
8
 71
3
 72
8
 73
4
 74
0
 40
0.609832
 40
0.609832
 40
0.609832
 40
0.609832
 40
0.745556
 40
0.745556
 40
0.745556
 40
0.745556
 10
-288.166
 20
-71.3212
 30
0
 10
-296.933
 20
-54.2577
 30
0
 10
-306.516
 20
-35.6239
 30
0
 10
-315.744
 20
-14.8736
 30
0
  0
SPLINE
  5
A4F
330
A02
100
AcDbEntity
  8
Shape2DView006
100
AcDbSpline
210
0
220
0
230
1
 70
8
 71
3
 72
8
 73
4
 74
0
 40
0.609832
 40
0.609832
 40
0.609832
 40
0.609832
 40
0.872841
 40
0.872841
 40
0.872841
 40
0.872841
 10
-261.483
 20
-57.6092
 30
0
 10
-278.478
 20
-24.5517
 30
0
 10
-297.371
 20
12.3076
 30
0
 10
-311.046
 20
58.1441
 30
0
  0
SPLINE
  5
A50
330
A02
100
AcDbEntity
  8
Shape2DView006
100
AcDbSpline
210
0
220
0
230
1
 70
8
 71
3
 72
17
 73
13
 74
0
 40
0.262087
 40
0.262087
 40
0.262087
 40
0.262087
 40
0.349023
 40
0.349023
 40
0.349023
 40
0.435959
 40
0.435959
 40
0.435959
 40
0.522896
 40
0.522896
 40
0.522896
 40
0.609832
 40
0.609832
 40
0.609832
 40
0.609832
 10
-223.681
 20
-182.632
 30
0
 10
-222.424
 20
-171.809
 30
0
 10
-222.809
 20
-161.165
 30
0
 10
-224.432
 20
-150.749
 30
0
 10
-226.054
 20
-140.325
 30
0
 10
-228.892
 20
-130.123
 30
0
 10
-232.53
 20
-119.969
 30
0
 10
-236.171
 20
-109.812
 30
0
 10
-240.613
 20
-99.6917
 30
0
 10
-245.536
 20
-89.3734
 30
0
 10
-250.459
 20
-79.0557
 30
0
 10
-255.867
 20
-68.5387
 30
0
 10
-261.483
 20
-57.6092
 30
0
  0
LINE
  5
A51
330
A02
100
AcDbEntity
  8
Shape2DView006
100
AcDbLine
 10
-284.001
 20
-284.73
 30
0
 11
-284.001
 21
-284.73
 31
0
  0
SPLINE
  5
A52
330
A02
100
AcDbEntity
  8
Shape2DView006
100
AcDbSpline
210
0
220
0
230
1
 70
8
 71
3
 72
17
 73
13
 74
0
 40
0
 40
0
 40
0
 40
0
 40
0.0655217
 40
0.0655217
 40
0.0655217
 40
0.131043
 40
0.131043
 40
0.131043
 40
0.196565
 40
0.196565
 40
0.196565
 40
0.262087
 40
0.262087
 40
0.262087
 40
0.262087
 10
-284.001
 20
-284.73
 30
0
 10
-274.51
 20
-275.558
 30
0
 10
-266.259
 20
-266.678
 30
0
 10
-259.139
 20
-257.985
 30
0
 10
-252.019
 20
-249.291
 30
0
 10
-246.029
 20
-240.782
 30
0
 10
-241.089
 20
-232.361
 30
0
 10
-236.149
 20
-223.942
 30
0
 10
-232.263
 20
-215.606
 30
0
 10
-229.381
 20
-207.315
 30
0
 10
-226.497
 20
-199.027
 30
0
 10
-224.625
 20
-190.786
 30
0
 10
-223.681
 20
-182.632
 30
0
  0
ENDSEC
  0
SECTION
  2
OBJECTS
  0
DICTIONARY
  5
F000
330
0
100
AcDbDictionary
  3
ACAD_GROUP
350
F001
  0
DICTIONARY
  5
F001
330
F000
100
AcDbDictionary
  0
ENDSEC
  0
EOF