999
FreeCAD v0.21 33668 +26 (Git)
  0
SECTION
  2
HEADER
  9
$ACADVER
  1
AC1014
  9
$ACADMAINTVER
 70
     9
  9
$DWGCODEPAGE
  3
ANSI_1252
  9
$TEXTSTYLE
  7
STANDARD
  9
$DIMSTYLE
  2
STANDARD
  9
$DIMTXSTY
  7
STANDARD
  9
$CMLSTYLE
  2
STANDARD
  9
$LUNITS
 70
2
  9
$INSUNITS
 70
4
  9
$PEXTMAX
 10
50
 20
50
 30
50
  9
$PEXTMIN
 10
0
 20
0
 30
0
  9
$HANDSEED
  5
FFFF
  0
ENDSEC
  0
SECTION
  2
CLASSES
  0
CLASS
  1
ACDBDICTIONARYWDFLT
  2
AcDbDictionaryWithDefault
  3
ObjectDBX Classes
 90
        0
280
     0
281
     0
  0
CLASS
  1
XRECORD
  2
AcDbXrecord
  3
ObjectDBX Classes
 90
        0
280
     0
281
     0
  0
CLASS
  1
LWPOLYLINE
  2
AcDbPolyline
  3
ObjectDBX Classes
 90
        0
280
     0
281
     1
  0
ENDSEC
  0
SECTION
  2
TABLES
  0
TABLE
  2
VPORT
  5
20
330
0
100
AcDbSymbolTable
 70
     1
  0
VPORT
  5
21
330
20
100
AcDbSymbolTableRecord
100
AcDbViewportTableRecord
  2
*ACTIVE
 70
     0
  0
ENDTAB
  0
TABLE
  2
LTYPE
  5
22
330
0
100
AcDbSymbolTable
 70
     1
  0
LTYPE
  5
23
330
21
100
AcDbSymbolTableRecord
100
AcDbLinetypeTableRecord
  2
BYBLOCK
 70
     0
  3

 72
    65
 73
     0
 40
0.0
  0
LTYPE
  5
24
330
21
100
AcDbSymbolTableRecord
100
AcDbLinetypeTableRecord
  2
BYLAYER
 70
     0
  3

 72
    65
 73
     0
 40
0.0
  0
LTYPE
  5
25
330
21
100
AcDbSymbolTableRecord
100
AcDbLinetypeTableRecord
  2
CONTINUOUS
 70
     0
  3
Solid line
 72
    65
 73
     0
 40
0.0
  0
ENDTAB
  0
TABLE
  2
LAYER
  5
A51
330
0
100
AcDbSymbolTable
 70
3
  0
LAYER
  5
A52
330
A51
100
AcDbSymbolTableRecord
100
AcDbLayerTableRecord
  2
0
 70
   0
 62
   7
  6
CONTINUOUS
  0
LAYER
  5
A53
330
A51
100
AcDbSymbolTableRecord
100
AcDbLayerTableRecord
  2
none
 70
    0
 62
    7
  6
CONTINUOUS
  0
LAYER
  5
A54
330
A51
100
AcDbSymbolTableRecord
100
AcDbLayerTableRecord
  2
Shape2DView007
 70
    0
 62
    7
  6
CONTINUOUS
  0
ENDTAB
  0
TABLE
  2
STYLE
  5
70
330
0
100
AcDbSymbolTable
 70
     2
  0
STYLE
  5
71
330
70
100
AcDbSymbolTableRecord
100
AcDbTextStyleTableRecord
  2
STANDARD
 70
     0
 40
0.0
 41
1.0
 50
0.0
 71
     0
 42
2.5
  3
arial.ttf
  4

  0
STYLE
  5
72
330
70
100
AcDbSymbolTableRecord
100
AcDbTextStyleTableRecord
  2
ANNOTATIVE
 70
     0
 40
0.0
 41
1.0
 50
0.0
 71
     0
 42
2.5
  3
arial.ttf
  4

  0
ENDTAB
  0
TABLE
  2
VIEW
  5
73
330
0
100
AcDbSymbolTable
 70
     0
  0
ENDTAB
  0
TABLE
  2
UCS
  5
74
330
0
100
AcDbSymbolTable
 70
     0
  0
ENDTAB
  0
TABLE
  2
APPID
  5
75
330
0
100
AcDbSymbolTable
 70
     2
  0
APPID
  5
76
330
75
100
AcDbSymbolTableRecord
100
AcDbRegAppTableRecord
  2
ACAD
 70
     0
  0
APPID
  5
77
330
75
100
AcDbSymbolTableRecord
100
AcDbRegAppTableRecord
  2
ACADANNOTATIVE
 70
     0
  0
ENDTAB
  0
TABLE
  2
DIMSTYLE
  5
78
330
0
100
AcDbSymbolTable
 70
     2
  0
DIMSTYLE
105
79
330
78
100
AcDbSymbolTableRecord
100
AcDbDimStyleTableRecord
  2
STANDARD
 70
     0
  3

  4

  5

  6

  7

 40
0.0
 41
2.5
 42
0.625
 43
3.75
 44
1.25
 45
0.0
 46
0.0
 47
0.0
 48
0.0
140
2.5
141
2.5
142
0.0
143
0.03937007874016
144
1.0
145
0.0
146
1.0
147
0.625
 71
     0
 72
     0
 73
     0
 74
     0
 75
     0
 76
     0
 77
     1
 78
     8
170
     0
171
     3
172
     1
173
     0
174
     0
175
     0
176
     0
177
     0
178
     0
270
     2
271
     2
272
     2
273
     2
274
     3
340
71
275
     0
280
     0
281
     0
282
     0
283
     0
284
     8
285
     0
286
     0
287
     3
288
     0
  0
ENDTAB
  0
TABLE
  2
BLOCK_RECORD
  5
A01
330
0
100
AcDbSymbolTable
  70
5
  0
BLOCK_RECORD
  5
A02
330
A01
100
AcDbSymbolTableRecord
100
AcDbBlockTableRecord
  2
*MODEL_SPACE
  0
BLOCK_RECORD
  5
A03
330
A01
100
AcDbSymbolTableRecord
100
AcDbBlockTableRecord
  2
*PAPER_SPACE
  0
ENDTAB
  0
ENDSEC
  0
SECTION
  2
BLOCKS
  0
BLOCK
  5
A04
330
A02
100
AcDbEntity
  8
0
100
AcDbBlockBegin
  2
*MODEL_SPACE
 70
   0
 10
0
 20
0
 30
0
  3
*MODEL_SPACE
  1
 
  0
ENDBLK
  5
A05
330
A02
100
AcDbEntity
  8
0
100
AcDbBlockEnd
  0
BLOCK
  5
A06
330
A03
100
AcDbEntity
 67
1
  8
0
100
AcDbBlockBegin
  2
*PAPER_SPACE
 70
   0
 10
0
 20
0
 30
0
  3
*PAPER_SPACE
  1
 
  0
ENDBLK
  5
A07
330
A03
100
AcDbEntity
 67
    1
  8
0
100
AcDbBlockEnd
  0
ENDSEC
  0
SECTION
  2
ENTITIES
  0
SPLINE
  5
A08
330
A02
100
AcDbEntity
  8
Shape2DView007
100
AcDbSpline
210
0
220
0
230
1
 70
8
 71
3
 72
8
 73
4
 74
0
 40
0.154634
 40
0.154634
 40
0.154634
 40
0.154634
 40
0.326087
 40
0.326087
 40
0.326087
 40
0.326087
 10
-578.581
 20
105.679
 30
0
 10
-570.904
 20
107.824
 30
0
 10
-563.25
 20
110.121
 30
0
 10
-555.602
 20
112.452
 30
0
  0
SPLINE
  5
A09
330
A02
100
AcDbEntity
  8
Shape2DView007
100
AcDbSpline
210
0
220
0
230
1
 70
8
 71
3
 72
14
 73
10
 74
0
 40
0
 40
0
 40
0
 40
0
 40
0.17617
 40
0.17617
 40
0.17617
 40
0.523969
 40
0.523969
 40
0.523969
 40
1
 40
1
 40
1
 40
1
 10
-555.602
 20
112.452
 30
0
 10
-555.339
 20
112.533
 30
0
 10
-555.06
 20
112.57
 30
0
 10
-554.766
 20
112.562
 30
0
 10
-554.19
 20
112.546
 30
0
 10
-553.594
 20
112.328
 30
0
 10
-553.102
 20
111.967
 30
0
 10
-552.421
 20
111.474
 30
0
 10
-551.936
 20
110.733
 30
0
 10
-551.702
 20
109.987
 30
0
  0
SPLINE
  5
A0A
330
A02
100
AcDbEntity
  8
Shape2DView007
100
AcDbSpline
210
0
220
0
230
1
 70
8
 71
3
 72
8
 73
4
 74
0
 40
0.609832
 40
0.609832
 40
0.609832
 40
0.609832
 40
0.856948
 40
0.856948
 40
0.856948
 40
0.856948
 10
-504.673
 20
2.4453
 30
0
 10
-520.641
 20
33.5054
 30
0
 10
-538.285
 20
67.9213
 30
0
 10
-551.702
 20
109.987
 30
0
  0
SPLINE
  5
A0B
330
A02
100
AcDbEntity
  8
Shape2DView007
100
AcDbSpline
210
0
220
0
230
1
 70
8
 71
3
 72
17
 73
13
 74
0
 40
0.262087
 40
0.262087
 40
0.262087
 40
0.262087
 40
0.349023
 40
0.349023
 40
0.349023
 40
0.435959
 40
0.435959
 40
0.435959
 40
0.522896
 40
0.522896
 40
0.522896
 40
0.609832
 40
0.609832
 40
0.609832
 40
0.609832
 10
-466.871
 20
-122.577
 30
0
 10
-465.614
 20
-111.755
 30
0
 10
-465.999
 20
-101.111
 30
0
 10
-467.622
 20
-90.6943
 30
0
 10
-469.244
 20
-80.2708
 30
0
 10
-472.082
 20
-70.0687
 30
0
 10
-475.72
 20
-59.9145
 30
0
 10
-479.361
 20
-49.7578
 30
0
 10
-483.803
 20
-39.6372
 30
0
 10
-488.726
 20
-29.3189
 30
0
 10
-493.649
 20
-19.0012
 30
0
 10
-499.057
 20
-8.48423
 30
0
 10
-504.673
 20
2.4453
 30
0
  0
SPLINE
  5
A0C
330
A02
100
AcDbEntity
  8
Shape2DView007
100
AcDbSpline
210
0
220
0
230
1
 70
8
 71
3
 72
17
 73
13
 74
0
 40
0
 40
0
 40
0
 40
0
 40
0.0655217
 40
0.0655217
 40
0.0655217
 40
0.131043
 40
0.131043
 40
0.131043
 40
0.196565
 40
0.196565
 40
0.196565
 40
0.262087
 40
0.262087
 40
0.262087
 40
0.262087
 10
-527.191
 20
-224.676
 30
0
 10
-517.7
 20
-215.504
 30
0
 10
-509.449
 20
-206.624
 30
0
 10
-502.329
 20
-197.93
 30
0
 10
-495.209
 20
-189.237
 30
0
 10
-489.219
 20
-180.728
 30
0
 10
-484.279
 20
-172.306
 30
0
 10
-479.339
 20
-163.887
 30
0
 10
-475.453
 20
-155.552
 30
0
 10
-472.571
 20
-147.261
 30
0
 10
-469.687
 20
-138.973
 30
0
 10
-467.815
 20
-130.732
 30
0
 10
-466.871
 20
-122.577
 30
0
  0
ELLIPSE
  5
A0D
330
A02
100
AcDbEntity
  8
Shape2DView007
100
AcDbEllipse
 10
-537.615
 20
-213.889
 30
0
 11
-1.01179e-07
 21
-15
 31
0
 40
1
 41
6.74528e-09
 42
0.768271
  0
LINE
  5
A0E
330
A02
100
AcDbEntity
  8
Shape2DView007
100
AcDbLine
 10
-546.97
 20
-228.889
 30
0
 11
-537.615
 21
-228.889
 31
0
  0
ELLIPSE
  5
A0F
330
A02
100
AcDbEntity
  8
Shape2DView007
100
AcDbEllipse
 10
-546.97
 20
-213.889
 30
0
 11
-1.00403e-07
 21
-15
 31
0
 40
1
 41
6.17343
 42
6.80797e-09
  0
LINE
  5
A10
330
A02
100
AcDbEntity
  8
Shape2DView007
100
AcDbLine
 10
-551.579
 20
-228.472
 30
0
 11
-548.613
 21
-228.799
 31
0
  0
ELLIPSE
  5
A11
330
A02
100
AcDbEntity
  8
Shape2DView007
100
AcDbEllipse
 10
-549.936
 20
-213.562
 30
0
 11
-1.07876e-07
 21
-15
 31
0
 40
1
 41
5.92647
 42
6.17343
  0
LINE
  5
A12
330
A02
100
AcDbEntity
  8
Shape2DView007
100
AcDbLine
 10
-557.72
 20
-226.669
 30
0
 11
-555.174
 21
-227.618
 31
0
  0
ELLIPSE
  5
A13
330
A02
100
AcDbEntity
  8
Shape2DView007
100
AcDbEllipse
 10
-552.482
 20
-212.614
 30
0
 11
-8.89921e-08
 21
-15
 31
0
 40
1
 41
5.69995
 42
5.92647
  0
LINE
  5
A14
330
A02
100
AcDbEntity
  8
Shape2DView007
100
AcDbLine
 10
-562.394
 20
-224.044
 30
0
 11
-560.742
 21
-225.134
 31
0
  0
ELLIPSE
  5
A15
330
A02
100
AcDbEntity
  8
Shape2DView007
100
AcDbEllipse
 10
-554.133
 20
-211.524
 30
0
 11
-9.01869e-08
 21
-15
 31
0
 40
1
 41
5.51737
 42
5.69995
  0
LINE
  5
A16
330
A02
100
AcDbEntity
  8
Shape2DView007
100
AcDbLine
 10
-565.977
 20
-220.944
 30
0
 11
-564.53
 21
-222.336
 31
0
  0
ELLIPSE
  5
A17
330
A02
100
AcDbEntity
  8
Shape2DView007
100
AcDbEllipse
 10
-555.58
 20
-210.132
 30
0
 11
-1.03264e-07
 21
-15
 31
0
 40
1
 41
5.28695
 42
5.51737
  0
LINE
  5
A18
330
A02
100
AcDbEntity
  8
Shape2DView007
100
AcDbLine
 10
-570.51
 20
-214.673
 30
0
 11
-568.172
 21
-218.284
 31
0
  0
ELLIPSE
  5
A19
330
A02
100
AcDbEntity
  8
Shape2DView007
100
AcDbEllipse
 10
-557.918
 20
-206.521
 30
0
 11
-9.46713e-08
 21
-15
 31
0
 40
1
 41
5.06496
 42
5.28695
  0
LINE
  5
A1A
330
A02
100
AcDbEntity
  8
Shape2DView007
100
AcDbLine
 10
-573.681
 20
-207.12
 30
0
 11
-571.996
 21
-211.701
 31
0
  0
ELLIPSE
  5
A1B
330
A02
100
AcDbEntity
  8
Shape2DView007
100
AcDbEllipse
 10
-559.604
 20
-201.94
 30
0
 11
-1.00642e-07
 21
-15
 31
0
 40
1
 41
4.92113
 42
5.06496
  0
LINE
  5
A1C
330
A02
100
AcDbEntity
  8
Shape2DView007
100
AcDbLine
 10
-575.42
 20
-199.658
 30
0
 11
-574.278
 21
-205.049
 31
0
  0
ELLIPSE
  5
A1D
330
A02
100
AcDbEntity
  8
Shape2DView007
100
AcDbEllipse
 10
-560.746
 20
-196.549
 30
0
 11
-9.49898e-08
 21
-15
 31
0
 40
1
 41
4.8289
 42
4.92113
  0
LINE
  5
A1E
330
A02
100
AcDbEntity
  8
Shape2DView007
100
AcDbLine
 10
-576.351
 20
-192.252
 30
0
 11
-575.644
 21
-198.293
 31
0
  0
ELLIPSE
  5
A1F
330
A02
100
AcDbEntity
  8
Shape2DView007
100
AcDbEllipse
 10
-561.453
 20
-190.508
 30
0
 11
-1.01429e-07
 21
-15
 31
0
 40
1
 41
4.77064
 42
4.8289
  0
LINE
  5
A20
330
A02
100
AcDbEntity
  8
Shape2DView007
100
AcDbLine
 10
-576.808
 20
-184.849
 30
0
 11
-576.427
 21
-191.381
 31
0
  0
ELLIPSE
  5
A21
330
A02
100
AcDbEntity
  8
Shape2DView007
100
AcDbEllipse
 10
-561.834
 20
-183.976
 30
0
 11
-1.01125e-07
 21
-15
 31
0
 40
1
 41
4.7281
 42
4.77064
  0
LINE
  5
A22
330
A02
100
AcDbEntity
  8
Shape2DView007
100
AcDbLine
 10
-577.05
 20
-170.317
 30
0
 11
-576.832
 21
-184.212
 31
0
  0
LINE
  5
A23
330
A02
100
AcDbEntity
  8
Shape2DView007
100
AcDbLine
 10
-577.27
 20
-156.545
 30
0
 11
-577.05
 21
-170.317
 31
0
  0
LINE
  5
A24
330
A02
100
AcDbEntity
  8
Shape2DView007
100
AcDbLine
 10
-577.618
 20
-150.656
 30
0
 11
-577.27
 21
-156.545
 31
0
  0
LINE
  5
A25
330
A02
100
AcDbEntity
  8
Shape2DView007
100
AcDbLine
 10
-578.215
 20
-145.617
 30
0
 11
-577.618
 21
-150.656
 31
0
  0
LINE
  5
A26
330
A02
100
AcDbEntity
  8
Shape2DView007
100
AcDbLine
 10
-579.024
 20
-141.837
 30
0
 11
-578.215
 21
-145.617
 31
0
  0
LINE
  5
A27
330
A02
100
AcDbEntity
  8
Shape2DView007
100
AcDbLine
 10
-579.652
 20
-140.143
 30
0
 11
-579.024
 21
-141.837
 31
0
  0
ELLIPSE
  5
A28
330
A02
100
AcDbEntity
  8
Shape2DView007
100
AcDbEllipse
 10
-577.837
 20
-125.253
 30
0
 11
-9.62401e-08
 21
-15
 31
0
 40
1
 41
4.84612
 42
6.16189
  0
LINE
  5
A29
330
A02
100
AcDbEntity
  8
Shape2DView007
100
AcDbLine
 10
-592.703
 20
-127.253
 30
0
 11
-584.814
 21
-127.253
 31
0
  0
LINE
  5
A2A
330
A02
100
AcDbEntity
  8
Shape2DView007
100
AcDbLine
 10
-584.814
 20
-127.253
 30
0
 11
-584.814
 21
-123.253
 31
0
  0
LINE
  5
A2B
330
A02
100
AcDbEntity
  8
Shape2DView007
100
AcDbLine
 10
-584.814
 20
-123.253
 30
0
 11
-592.703
 21
-123.253
 31
0
  0
ELLIPSE
  5
A2C
330
A02
100
AcDbEntity
  8
Shape2DView007
100
AcDbEllipse
 10
-577.837
 20
-125.253
 30
0
 11
-9.62401e-08
 21
-15
 31
0
 40
1
 41
3.03088
 42
4.57866
  0
LINE
  5
A2D
330
A02
100
AcDbEntity
  8
Shape2DView007
100
AcDbLine
 10
-576.179
 20
-110.345
 30
0
 11
-573.007
 21
-110.698
 31
0
  0
ELLIPSE
  5
A2E
330
A02
100
AcDbEntity
  8
Shape2DView007
100
AcDbEllipse
 10
-574.664
 20
-125.606
 30
0
 11
-1.01003e-07
 21
-15
 31
0
 40
1
 41
2.78115
 42
3.03088
  0
LINE
  5
A2F
330
A02
100
AcDbEntity
  8
Shape2DView007
100
AcDbLine
 10
-569.374
 20
-111.57
 30
0
 11
-566.661
 21
-112.593
 31
0
  0
ELLIPSE
  5
A30
330
A02
100
AcDbEntity
  8
Shape2DView007
100
AcDbEllipse
 10
-571.951
 20
-126.629
 30
0
 11
-9.57361e-08
 21
-15
 31
0
 40
1
 41
2.55449
 42
2.78115
  0
LINE
  5
A31
330
A02
100
AcDbEntity
  8
Shape2DView007
100
AcDbLine
 10
-563.642
 20
-114.14
 30
0
 11
-561.933
 21
-115.277
 31
0
  0
ELLIPSE
  5
A32
330
A02
100
AcDbEntity
  8
Shape2DView007
100
AcDbEllipse
 10
-570.242
 20
-127.765
 30
0
 11
-8.31102e-08
 21
-15
 31
0
 40
1
 41
2.37452
 42
2.55449
  0
LINE
  5
A33
330
A02
100
AcDbEntity
  8
Shape2DView007
100
AcDbLine
 10
-559.832
 20
-116.966
 30
0
 11
-558.334
 21
-118.41
 31
0
  0
ELLIPSE
  5
A34
330
A02
100
AcDbEntity
  8
Shape2DView007
100
AcDbEllipse
 10
-568.745
 20
-129.209
 30
0
 11
-9.0004e-08
 21
-15
 31
0
 40
1
 41
2.14662
 42
2.37452
  0
LINE
  5
A35
330
A02
100
AcDbEntity
  8
Shape2DView007
100
AcDbLine
 10
-556.164
 20
-121.041
 30
0
 11
-553.745
 21
-124.767
 31
0
  0
ELLIPSE
  5
A36
330
A02
100
AcDbEntity
  8
Shape2DView007
100
AcDbEllipse
 10
-566.326
 20
-132.935
 30
0
 11
-8.03193e-08
 21
-15
 31
0
 40
1
 41
1.92568
 42
2.14662
  0
LINE
  5
A37
330
A02
100
AcDbEntity
  8
Shape2DView007
100
AcDbLine
 10
-552.261
 20
-127.723
 30
0
 11
-550.517
 21
-132.428
 31
0
  0
ELLIPSE
  5
A38
330
A02
100
AcDbEntity
  8
Shape2DView007
100
AcDbEllipse
 10
-564.582
 20
-137.64
 30
0
 11
-1.08372e-07
 21
-15
 31
0
 40
1
 41
1.7816
 42
1.92568
  0
LINE
  5
A39
330
A02
100
AcDbEntity
  8
Shape2DView007
100
AcDbLine
 10
-549.914
 20
-134.501
 30
0
 11
-548.733
 21
-140.021
 31
0
  0
ELLIPSE
  5
A3A
330
A02
100
AcDbEntity
  8
Shape2DView007
100
AcDbEllipse
 10
-563.401
 20
-143.16
 30
0
 11
-1.00745e-07
 21
-15
 31
0
 40
1
 41
1.68876
 42
1.7816
  0
LINE
  5
A3B
330
A02
100
AcDbEntity
  8
Shape2DView007
100
AcDbLine
 10
-548.506
 20
-141.395
 30
0
 11
-547.774
 21
-147.564
 31
0
  0
ELLIPSE
  5
A3C
330
A02
100
AcDbEntity
  8
Shape2DView007
100
AcDbEllipse
 10
-562.67
 20
-149.329
 30
0
 11
-1.01044e-07
 21
-15
 31
0
 40
1
 41
1.62988
 42
1.68876
  0
LINE
  5
A3D
330
A02
100
AcDbEntity
  8
Shape2DView007
100
AcDbLine
 10
-547.696
 20
-148.443
 30
0
 11
-547.303
 21
-155.096
 31
0
  0
ELLIPSE
  5
A3E
330
A02
100
AcDbEntity
  8
Shape2DView007
100
AcDbEllipse
 10
-562.277
 20
-155.982
 30
0
 11
-1.0076e-07
 21
-15
 31
0
 40
1
 41
1.58672
 42
1.62988
  0
LINE
  5
A3F
330
A02
100
AcDbEntity
  8
Shape2DView007
100
AcDbLine
 10
-547.279
 20
-155.743
 30
0
 11
-547.054
 21
-169.84
 31
0
  0
ELLIPSE
  5
A40
330
A02
100
AcDbEntity
  8
Shape2DView007
100
AcDbEllipse
 10
-562.052
 20
-170.079
 30
0
 11
-1.01125e-07
 21
-15
 31
0
 40
1
 41
1.58651
 42
1.58672
  0
LINE
  5
A41
330
A02
100
AcDbEntity
  8
Shape2DView007
100
AcDbLine
 10
-547.054
 20
-169.844
 30
0
 11
-546.841
 21
-183.421
 31
0
  0
LINE
  5
A42
330
A02
100
AcDbEntity
  8
Shape2DView007
100
AcDbLine
 10
-546.841
 20
-183.421
 30
0
 11
-546.504
 21
-189.198
 31
0
  0
LINE
  5
A43
330
A02
100
AcDbEntity
  8
Shape2DView007
100
AcDbLine
 10
-546.504
 20
-189.198
 30
0
 11
-545.928
 21
-194.118
 31
0
  0
LINE
  5
A44
330
A02
100
AcDbEntity
  8
Shape2DView007
100
AcDbLine
 10
-545.928
 20
-194.118
 30
0
 11
-545.153
 21
-197.775
 31
0
  0
LINE
  5
A45
330
A02
100
AcDbEntity
  8
Shape2DView007
100
AcDbLine
 10
-545.153
 20
-197.775
 30
0
 11
-544.743
 21
-198.889
 31
0
  0
LINE
  5
A46
330
A02
100
AcDbEntity
  8
Shape2DView007
100
AcDbLine
 10
-544.743
 20
-198.889
 30
0
 11
-543.75
 21
-198.889
 31
0
  0
SPLINE
  5
A47
330
A02
100
AcDbEntity
  8
Shape2DView007
100
AcDbSpline
210
0
220
0
230
1
 70
8
 71
3
 72
17
 73
13
 74
0
 40
0.0109404
 40
0.0109404
 40
0.0109404
 40
0.0109404
 40
0.0737271
 40
0.0737271
 40
0.0737271
 40
0.136514
 40
0.136514
 40
0.136514
 40
0.1993
 40
0.1993
 40
0.1993
 40
0.262087
 40
0.262087
 40
0.262087
 40
0.262087
 10
-543.75
 20
-198.889
 30
0
 10
-535.757
 20
-190.898
 30
0
 10
-528.96
 20
-183.301
 30
0
 10
-523.24
 20
-176.066
 30
0
 10
-517.519
 20
-168.831
 30
0
 10
-512.876
 20
-161.959
 30
0
 10
-509.164
 20
-155.408
 30
0
 10
-505.45
 20
-148.855
 30
0
 10
-502.665
 20
-142.625
 30
0
 10
-500.637
 20
-136.622
 30
0
 10
-498.61
 20
-130.618
 30
0
 10
-497.335
 20
-124.839
 30
0
 10
-496.672
 20
-119.124
 30
0
  0
SPLINE
  5
A48
330
A02
100
AcDbEntity
  8
Shape2DView007
100
AcDbSpline
210
0
220
0
230
1
 70
8
 71
3
 72
17
 73
13
 74
0
 40
0.262087
 40
0.262087
 40
0.262087
 40
0.262087
 40
0.349023
 40
0.349023
 40
0.349023
 40
0.435959
 40
0.435959
 40
0.435959
 40
0.522896
 40
0.522896
 40
0.522896
 40
0.609832
 40
0.609832
 40
0.609832
 40
0.609832
 10
-496.672
 20
-119.124
 30
0
 10
-495.758
 20
-111.213
 30
0
 10
-496.01
 20
-103.401
 30
0
 10
-497.266
 20
-95.3029
 30
0
 10
-498.523
 20
-87.2122
 30
0
 10
-500.804
 20
-78.8428
 30
0
 10
-503.961
 20
-70.0348
 30
0
 10
-507.115
 20
-61.2293
 30
0
 10
-511.143
 20
-51.9969
 30
0
 10
-515.801
 20
-42.2384
 30
0
 10
-520.457
 20
-32.4792
 30
0
 10
-525.739
 20
-22.1953
 30
0
 10
-531.356
 20
-11.2667
 30
0
  0
SPLINE
  5
A49
330
A02
100
AcDbEntity
  8
Shape2DView007
100
AcDbSpline
210
0
220
0
230
1
 70
8
 71
3
 72
8
 73
4
 74
0
 40
0.609832
 40
0.609832
 40
0.609832
 40
0.609832
 40
0.856819
 40
0.856819
 40
0.856819
 40
0.856819
 10
-531.356
 20
-11.2667
 30
0
 10
-547.308
 20
19.7888
 30
0
 10
-565.971
 20
56.0257
 30
0
 10
-580.26
 20
100.8
 30
0
  0
SPLINE
  5
A4A
330
A02
100
AcDbEntity
  8
Shape2DView007
100
AcDbSpline
210
0
220
0
230
1
 70
8
 71
3
 72
17
 73
13
 74
0
 40
0
 40
0
 40
0
 40
0
 40
0.15283
 40
0.15283
 40
0.15283
 40
0.4508
 40
0.4508
 40
0.4508
 40
0.903197
 40
0.903197
 40
0.903197
 40
1
 40
1
 40
1
 40
1
 10
-578.581
 20
105.679
 30
0
 10
-578.823
 20
105.613
 30
0
 10
-579.055
 20
105.501
 30
0
 10
-579.277
 20
105.343
 30
0
 10
-579.707
 20
105.036
 30
0
 10
-580.052
 20
104.549
 30
0
 10
-580.257
 20
103.997
 30
0
 10
-580.573
 20
103.155
 30
0
 10
-580.586
 20
102.19
 30
0
 10
-580.403
 20
101.336
 30
0
 10
-580.363
 20
101.153
 30
0
 10
-580.316
 20
100.974
 30
0
 10
-580.26
 20
100.8
 30
0
  0
SPLINE
  5
A4B
330
A02
100
AcDbEntity
  8
Shape2DView007
100
AcDbSpline
210
0
220
0
230
1
 70
8
 71
2
 72
6
 73
3
 74
0
 40
2.99116
 40
2.99116
 40
2.99116
 40
8.31237
 40
8.31237
 40
8.31237
 10
-580.26
 20
100.8
 30
0
 10
-579.693
 20
99.0228
 30
0
 10
-579.151
 20
97.3657
 30
0
  0
SPLINE
  5
A4C
330
A02
100
AcDbEntity
  8
Shape2DView007
100
AcDbSpline
210
0
220
0
230
1
 70
8
 71
1
 72
4
 73
2
 74
0
 40
0.999786
 40
0.999786
 40
1
 40
1
 10
-579.151
 20
97.3668
 30
0
 10
-579.151
 20
97.3657
 30
0
  0
SPLINE
  5
A4D
330
A02
100
AcDbEntity
  8
Shape2DView007
100
AcDbSpline
210
0
220
0
230
1
 70
8
 71
1
 72
4
 73
2
 74
0
 40
1.77726
 40
1.77726
 40
2.08797
 40
2.08797
 10
-551.702
 20
109.987
 30
0
 10
-551.651
 20
109.83
 30
0
  0
SPLINE
  5
A4E
330
A02
100
AcDbEntity
  8
Shape2DView007
100
AcDbSpline
210
0
220
0
230
1
 70
8
 71
3
 72
8
 73
4
 74
0
 40
0.609832
 40
0.609832
 40
0.609832
 40
0.609832
 40
0.850473
 40
0.850473
 40
0.850473
 40
0.850473
 10
-531.356
 20
-11.2667
 30
0
 10
-546.898
 20
18.9907
 30
0
 10
-565.014
 20
54.1671
 30
0
 10
-579.151
 20
97.3657
 30
0
  0
SPLINE
  5
A4F
330
A02
100
AcDbEntity
  8
Shape2DView007
100
AcDbSpline
210
0
220
0
230
1
 70
8
 71
3
 72
17
 73
13
 74
0
 40
0.262087
 40
0.262087
 40
0.262087
 40
0.262087
 40
0.349023
 40
0.349023
 40
0.349023
 40
0.435959
 40
0.435959
 40
0.435959
 40
0.522896
 40
0.522896
 40
0.522896
 40
0.609832
 40
0.609832
 40
0.609832
 40
0.609832
 10
-496.672
 20
-119.124
 30
0
 10
-495.758
 20
-111.213
 30
0
 10
-496.01
 20
-103.401
 30
0
 10
-497.266
 20
-95.3029
 30
0
 10
-498.523
 20
-87.2122
 30
0
 10
-500.804
 20
-78.8428
 30
0
 10
-503.961
 20
-70.0348
 30
0
 10
-507.115
 20
-61.2293
 30
0
 10
-511.143
 20
-51.9969
 30
0
 10
-515.801
 20
-42.2384
 30
0
 10
-520.457
 20
-32.4792
 30
0
 10
-525.739
 20
-22.1953
 30
0
 10
-531.356
 20
-11.2667
 30
0
  0
SPLINE
  5
A50
330
A02
100
AcDbEntity
  8
Shape2DView007
100
AcDbSpline
210
0
220
0
230
1
 70
8
 71
3
 72
17
 73
13
 74
0
 40
0.0109404
 40
0.0109404
 40
0.0109404
 40
0.0109404
 40
0.0737271
 40
0.0737271
 40
0.0737271
 40
0.136514
 40
0.136514
 40
0.136514
 40
0.1993
 40
0.1993
 40
0.1993
 40
0.262087
 40
0.262087
 40
0.262087
 40
0.262087
 10
-543.75
 20
-198.889
 30
0
 10
-535.757
 20
-190.898
 30
0
 10
-528.96
 20
-183.301
 30
0
 10
-523.24
 20
-176.066
 30
0
 10
-517.519
 20
-168.831
 30
0
 10
-512.876
 20
-161.959
 30
0
 10
-509.164
 20
-155.408
 30
0
 10
-505.45
 20
-148.855
 30
0
 10
-502.665
 20
-142.625
 30
0
 10
-500.637
 20
-136.622
 30
0
 10
-498.61
 20
-130.618
 30
0
 10
-497.335
 20
-124.839
 30
0
 10
-496.672
 20
-119.124
 30
0
  0
ENDSEC
  0
SECTION
  2
OBJECTS
  0
DICTIONARY
  5
F000
330
0
100
AcDbDictionary
  3
ACAD_GROUP
350
F001
  0
DICTIONARY
  5
F001
330
F000
100
AcDbDictionary
  0
ENDSEC
  0
EOF