999
FreeCAD v0.21 33668 +26 (Git)
  0
SECTION
  2
HEADER
  9
$ACADVER
  1
AC1014
  9
$ACADMAINTVER
 70
     9
  9
$DWGCODEPAGE
  3
ANSI_1252
  9
$TEXTSTYLE
  7
STANDARD
  9
$DIMSTYLE
  2
STANDARD
  9
$DIMTXSTY
  7
STANDARD
  9
$CMLSTYLE
  2
STANDARD
  9
$LUNITS
 70
2
  9
$INSUNITS
 70
4
  9
$PEXTMAX
 10
50
 20
50
 30
50
  9
$PEXTMIN
 10
0
 20
0
 30
0
  9
$HANDSEED
  5
FFFF
  0
ENDSEC
  0
SECTION
  2
CLASSES
  0
CLASS
  1
ACDBDICTIONARYWDFLT
  2
AcDbDictionaryWithDefault
  3
ObjectDBX Classes
 90
        0
280
     0
281
     0
  0
CLASS
  1
XRECORD
  2
AcDbXrecord
  3
ObjectDBX Classes
 90
        0
280
     0
281
     0
  0
CLASS
  1
LWPOLYLINE
  2
AcDbPolyline
  3
ObjectDBX Classes
 90
        0
280
     0
281
     1
  0
ENDSEC
  0
SECTION
  2
TABLES
  0
TABLE
  2
VPORT
  5
20
330
0
100
AcDbSymbolTable
 70
     1
  0
VPORT
  5
21
330
20
100
AcDbSymbolTableRecord
100
AcDbViewportTableRecord
  2
*ACTIVE
 70
     0
  0
ENDTAB
  0
TABLE
  2
LTYPE
  5
22
330
0
100
AcDbSymbolTable
 70
     1
  0
LTYPE
  5
23
330
21
100
AcDbSymbolTableRecord
100
AcDbLinetypeTableRecord
  2
BYBLOCK
 70
     0
  3

 72
    65
 73
     0
 40
0.0
  0
LTYPE
  5
24
330
21
100
AcDbSymbolTableRecord
100
AcDbLinetypeTableRecord
  2
BYLAYER
 70
     0
  3

 72
    65
 73
     0
 40
0.0
  0
LTYPE
  5
25
330
21
100
AcDbSymbolTableRecord
100
AcDbLinetypeTableRecord
  2
CONTINUOUS
 70
     0
  3
Solid line
 72
    65
 73
     0
 40
0.0
  0
ENDTAB
  0
TABLE
  2
LAYER
  5
A56
330
0
100
AcDbSymbolTable
 70
3
  0
LAYER
  5
A57
330
A56
100
AcDbSymbolTableRecord
100
AcDbLayerTableRecord
  2
0
 70
   0
 62
   7
  6
CONTINUOUS
  0
LAYER
  5
A58
330
A56
100
AcDbSymbolTableRecord
100
AcDbLayerTableRecord
  2
none
 70
    0
 62
    7
  6
CONTINUOUS
  0
LAYER
  5
A59
330
A56
100
AcDbSymbolTableRecord
100
AcDbLayerTableRecord
  2
Shape2DView004
 70
    0
 62
    7
  6
CONTINUOUS
  0
ENDTAB
  0
TABLE
  2
STYLE
  5
70
330
0
100
AcDbSymbolTable
 70
     2
  0
STYLE
  5
71
330
70
100
AcDbSymbolTableRecord
100
AcDbTextStyleTableRecord
  2
STANDARD
 70
     0
 40
0.0
 41
1.0
 50
0.0
 71
     0
 42
2.5
  3
arial.ttf
  4

  0
STYLE
  5
72
330
70
100
AcDbSymbolTableRecord
100
AcDbTextStyleTableRecord
  2
ANNOTATIVE
 70
     0
 40
0.0
 41
1.0
 50
0.0
 71
     0
 42
2.5
  3
arial.ttf
  4

  0
ENDTAB
  0
TABLE
  2
VIEW
  5
73
330
0
100
AcDbSymbolTable
 70
     0
  0
ENDTAB
  0
TABLE
  2
UCS
  5
74
330
0
100
AcDbSymbolTable
 70
     0
  0
ENDTAB
  0
TABLE
  2
APPID
  5
75
330
0
100
AcDbSymbolTable
 70
     2
  0
APPID
  5
76
330
75
100
AcDbSymbolTableRecord
100
AcDbRegAppTableRecord
  2
ACAD
 70
     0
  0
APPID
  5
77
330
75
100
AcDbSymbolTableRecord
100
AcDbRegAppTableRecord
  2
ACADANNOTATIVE
 70
     0
  0
ENDTAB
  0
TABLE
  2
DIMSTYLE
  5
78
330
0
100
AcDbSymbolTable
 70
     2
  0
DIMSTYLE
105
79
330
78
100
AcDbSymbolTableRecord
100
AcDbDimStyleTableRecord
  2
STANDARD
 70
     0
  3

  4

  5

  6

  7

 40
0.0
 41
2.5
 42
0.625
 43
3.75
 44
1.25
 45
0.0
 46
0.0
 47
0.0
 48
0.0
140
2.5
141
2.5
142
0.0
143
0.03937007874016
144
1.0
145
0.0
146
1.0
147
0.625
 71
     0
 72
     0
 73
     0
 74
     0
 75
     0
 76
     0
 77
     1
 78
     8
170
     0
171
     3
172
     1
173
     0
174
     0
175
     0
176
     0
177
     0
178
     0
270
     2
271
     2
272
     2
273
     2
274
     3
340
71
275
     0
280
     0
281
     0
282
     0
283
     0
284
     8
285
     0
286
     0
287
     3
288
     0
  0
ENDTAB
  0
TABLE
  2
BLOCK_RECORD
  5
A01
330
0
100
AcDbSymbolTable
  70
5
  0
BLOCK_RECORD
  5
A02
330
A01
100
AcDbSymbolTableRecord
100
AcDbBlockTableRecord
  2
*MODEL_SPACE
  0
BLOCK_RECORD
  5
A03
330
A01
100
AcDbSymbolTableRecord
100
AcDbBlockTableRecord
  2
*PAPER_SPACE
  0
ENDTAB
  0
ENDSEC
  0
SECTION
  2
BLOCKS
  0
BLOCK
  5
A04
330
A02
100
AcDbEntity
  8
0
100
AcDbBlockBegin
  2
*MODEL_SPACE
 70
   0
 10
0
 20
0
 30
0
  3
*MODEL_SPACE
  1
 
  0
ENDBLK
  5
A05
330
A02
100
AcDbEntity
  8
0
100
AcDbBlockEnd
  0
BLOCK
  5
A06
330
A03
100
AcDbEntity
 67
1
  8
0
100
AcDbBlockBegin
  2
*PAPER_SPACE
 70
   0
 10
0
 20
0
 30
0
  3
*PAPER_SPACE
  1
 
  0
ENDBLK
  5
A07
330
A03
100
AcDbEntity
 67
    1
  8
0
100
AcDbBlockEnd
  0
ENDSEC
  0
SECTION
  2
ENTITIES
  0
SPLINE
  5
A08
330
A02
100
AcDbEntity
  8
Shape2DView004
100
AcDbSpline
210
0
220
0
230
1
 70
8
 71
3
 72
11
 73
7
 74
0
 40
0.0877795
 40
0.0877795
 40
0.0877795
 40
0.0877795
 40
0.178521
 40
0.178521
 40
0.178521
 40
0.259182
 40
0.259182
 40
0.259182
 40
0.259182
 10
-102.031
 20
-2.69507
 30
0
 10
-97.9532
 20
-1.66837
 30
0
 10
-93.8881
 20
-0.547594
 30
0
 10
-89.8284
 20
0.607745
 30
0
 10
-86.2201
 20
1.6385
 30
0
 10
-82.6154
 20
2.69263
 30
0
 10
-79.0142
 20
3.77014
 30
0
  0
SPLINE
  5
A09
330
A02
100
AcDbEntity
  8
Shape2DView004
100
AcDbSpline
210
0
220
0
230
1
 70
8
 71
3
 72
14
 73
10
 74
0
 40
0
 40
0
 40
0
 40
0
 40
0.494393
 40
0.494393
 40
0.494393
 40
0.821685
 40
0.821685
 40
0.821685
 40
1
 40
1
 40
1
 40
1
 10
-75.1084
 20
0.9036
 30
0
 10
-75.3063
 20
1.7461
 30
0
 10
-75.7843
 20
2.61081
 30
0
 10
-76.507
 20
3.19208
 30
0
 10
-76.9803
 20
3.57734
 30
0
 10
-77.5595
 20
3.82487
 30
0
 10
-78.1277
 20
3.86473
 30
0
 10
-78.4366
 20
3.88812
 30
0
 10
-78.7389
 20
3.85268
 30
0
 10
-79.0142
 20
3.77014
 30
0
  0
SPLINE
  5
A0A
330
A02
100
AcDbEntity
  8
Shape2DView004
100
AcDbSpline
210
0
220
0
230
1
 70
8
 71
3
 72
8
 73
4
 74
0
 40
0.609832
 40
0.609832
 40
0.609832
 40
0.609832
 40
0.917044
 40
0.917044
 40
0.917044
 40
0.917044
 10
-19.1277
 20
-138.748
 30
0
 10
-38.9782
 20
-100.133
 30
0
 10
-61.4226
 20
-56.3359
 30
0
 10
-75.1084
 20
0.903599
 30
0
  0
SPLINE
  5
A0B
330
A02
100
AcDbEntity
  8
Shape2DView004
100
AcDbSpline
210
0
220
0
230
1
 70
8
 71
3
 72
17
 73
13
 74
0
 40
0.262087
 40
0.262087
 40
0.262087
 40
0.262087
 40
0.349023
 40
0.349023
 40
0.349023
 40
0.435959
 40
0.435959
 40
0.435959
 40
0.522896
 40
0.522896
 40
0.522896
 40
0.609832
 40
0.609832
 40
0.609832
 40
0.609832
 10
18.6738
 20
-263.77
 30
0
 10
19.9308
 20
-252.948
 30
0
 10
19.5456
 20
-242.304
 30
0
 10
17.9231
 20
-231.887
 30
0
 10
16.3015
 20
-221.464
 30
0
 10
13.4631
 20
-211.262
 30
0
 10
9.82524
 20
-201.108
 30
0
 10
6.18418
 20
-190.951
 30
0
 10
1.74171
 20
-180.83
 30
0
 10
-3.18049
 20
-170.512
 30
0
 10
-8.10441
 20
-160.194
 30
0
 10
-13.5118
 20
-149.677
 30
0
 10
-19.1277
 20
-138.748
 30
0
  0
SPLINE
  5
A0C
330
A02
100
AcDbEntity
  8
Shape2DView004
100
AcDbSpline
210
0
220
0
230
1
 70
8
 71
3
 72
17
 73
13
 74
0
 40
0
 40
0
 40
0
 40
0
 40
0.0655217
 40
0.0655217
 40
0.0655217
 40
0.131043
 40
0.131043
 40
0.131043
 40
0.196565
 40
0.196565
 40
0.196565
 40
0.262087
 40
0.262087
 40
0.262087
 40
0.262087
 10
-41.6462
 20
-365.869
 30
0
 10
-32.1549
 20
-356.697
 30
0
 10
-23.9041
 20
-347.817
 30
0
 10
-16.7835
 20
-339.123
 30
0
 10
-9.66405
 20
-330.43
 30
0
 10
-3.67353
 20
-321.921
 30
0
 10
1.26652
 20
-313.5
 30
0
 10
6.20562
 20
-305.08
 30
0
 10
10.0921
 20
-296.745
 30
0
 10
12.9743
 20
-288.454
 30
0
 10
15.8578
 20
-280.166
 30
0
 10
17.7304
 20
-271.925
 30
0
 10
18.6738
 20
-263.77
 30
0
  0
ELLIPSE
  5
A0D
330
A02
100
AcDbEntity
  8
Shape2DView004
100
AcDbEllipse
 10
-52.0696
 20
-355.082
 30
0
 11
-1.34325e-07
 21
15
 31
0
 40
1
 41
3.14159
 42
3.90986
  0
LINE
  5
A0E
330
A02
100
AcDbEntity
  8
Shape2DView004
100
AcDbLine
 10
-61.4249
 20
-370.082
 30
0
 11
-52.0696
 21
-370.082
 31
0
  0
ELLIPSE
  5
A0F
330
A02
100
AcDbEntity
  8
Shape2DView004
100
AcDbEllipse
 10
-61.4249
 20
-355.082
 30
0
 11
-1.2932e-07
 21
15
 31
0
 40
1
 41
3.03184
 42
3.14159
  0
LINE
  5
A10
330
A02
100
AcDbEntity
  8
Shape2DView004
100
AcDbLine
 10
-66.0336
 20
-369.665
 30
0
 11
-63.0678
 21
-369.992
 31
0
  0
ELLIPSE
  5
A11
330
A02
100
AcDbEntity
  8
Shape2DView004
100
AcDbEllipse
 10
-64.3907
 20
-354.755
 30
0
 11
-1.36462e-07
 21
15
 31
0
 40
1
 41
2.78487
 42
3.03184
  0
LINE
  5
A12
330
A02
100
AcDbEntity
  8
Shape2DView004
100
AcDbLine
 10
-72.1746
 20
-367.862
 30
0
 11
-69.6287
 21
-368.811
 31
0
  0
ELLIPSE
  5
A13
330
A02
100
AcDbEntity
  8
Shape2DView004
100
AcDbEllipse
 10
-66.9366
 20
-353.807
 30
0
 11
-1.56026e-07
 21
15
 31
0
 40
1
 41
2.55836
 42
2.78487
  0
LINE
  5
A14
330
A02
100
AcDbEntity
  8
Shape2DView004
100
AcDbLine
 10
-76.8488
 20
-365.237
 30
0
 11
-75.1975
 21
-366.327
 31
0
  0
ELLIPSE
  5
A15
330
A02
100
AcDbEntity
  8
Shape2DView004
100
AcDbEllipse
 10
-68.5879
 20
-352.717
 30
0
 11
-1.40195e-07
 21
15
 31
0
 40
1
 41
2.37577
 42
2.55836
  0
LINE
  5
A16
330
A02
100
AcDbEntity
  8
Shape2DView004
100
AcDbLine
 10
-80.4324
 20
-362.137
 30
0
 11
-78.9849
 21
-363.529
 31
0
  0
ELLIPSE
  5
A17
330
A02
100
AcDbEntity
  8
Shape2DView004
100
AcDbEllipse
 10
-70.0355
 20
-351.325
 30
0
 11
-1.32393e-07
 21
15
 31
0
 40
1
 41
2.14535
 42
2.37577
  0
LINE
  5
A18
330
A02
100
AcDbEntity
  8
Shape2DView004
100
AcDbLine
 10
-84.9648
 20
-355.866
 30
0
 11
-82.6269
 21
-359.477
 31
0
  0
ELLIPSE
  5
A19
330
A02
100
AcDbEntity
  8
Shape2DView004
100
AcDbEllipse
 10
-72.3733
 20
-347.714
 30
0
 11
-1.52281e-07
 21
15
 31
0
 40
1
 41
1.92337
 42
2.14535
  0
LINE
  5
A1A
330
A02
100
AcDbEntity
  8
Shape2DView004
100
AcDbLine
 10
-88.1361
 20
-348.313
 30
0
 11
-86.4506
 21
-352.894
 31
0
  0
ELLIPSE
  5
A1B
330
A02
100
AcDbEntity
  8
Shape2DView004
100
AcDbEllipse
 10
-74.0588
 20
-343.133
 30
0
 11
-1.49875e-07
 21
15
 31
0
 40
1
 41
1.77953
 42
1.92337
  0
LINE
  5
A1C
330
A02
100
AcDbEntity
  8
Shape2DView004
100
AcDbLine
 10
-89.8751
 20
-340.851
 30
0
 11
-88.7332
 21
-346.242
 31
0
  0
ELLIPSE
  5
A1D
330
A02
100
AcDbEntity
  8
Shape2DView004
100
AcDbEllipse
 10
-75.2007
 20
-337.742
 30
0
 11
-1.30981e-07
 21
15
 31
0
 40
1
 41
1.6873
 42
1.77953
  0
LINE
  5
A1E
330
A02
100
AcDbEntity
  8
Shape2DView004
100
AcDbLine
 10
-90.8061
 20
-333.445
 30
0
 11
-90.099
 21
-339.486
 31
0
  0
ELLIPSE
  5
A1F
330
A02
100
AcDbEntity
  8
Shape2DView004
100
AcDbEllipse
 10
-75.9078
 20
-331.701
 30
0
 11
-1.33853e-07
 21
15
 31
0
 40
1
 41
1.62905
 42
1.6873
  0
LINE
  5
A20
330
A02
100
AcDbEntity
  8
Shape2DView004
100
AcDbLine
 10
-91.2633
 20
-326.043
 30
0
 11
-90.8823
 21
-332.575
 31
0
  0
ELLIPSE
  5
A21
330
A02
100
AcDbEntity
  8
Shape2DView004
100
AcDbEllipse
 10
-76.2887
 20
-325.169
 30
0
 11
-1.34307e-07
 21
15
 31
0
 40
1
 41
1.58651
 42
1.62905
  0
LINE
  5
A22
330
A02
100
AcDbEntity
  8
Shape2DView004
100
AcDbLine
 10
-91.5052
 20
-311.51
 30
0
 11
-91.2869
 21
-325.405
 31
0
  0
LINE
  5
A23
330
A02
100
AcDbEntity
  8
Shape2DView004
100
AcDbLine
 10
-91.7245
 20
-297.738
 30
0
 11
-91.5052
 21
-311.51
 31
0
  0
LINE
  5
A24
330
A02
100
AcDbEntity
  8
Shape2DView004
100
AcDbLine
 10
-92.0729
 20
-291.849
 30
0
 11
-91.7245
 21
-297.738
 31
0
  0
LINE
  5
A25
330
A02
100
AcDbEntity
  8
Shape2DView004
100
AcDbLine
 10
-92.67
 20
-286.81
 30
0
 11
-92.0729
 21
-291.849
 31
0
  0
LINE
  5
A26
330
A02
100
AcDbEntity
  8
Shape2DView004
100
AcDbLine
 10
-93.4788
 20
-283.031
 30
0
 11
-92.67
 21
-286.81
 31
0
  0
LINE
  5
A27
330
A02
100
AcDbEntity
  8
Shape2DView004
100
AcDbLine
 10
-94.1067
 20
-281.336
 30
0
 11
-93.4788
 21
-283.031
 31
0
  0
ELLIPSE
  5
A28
330
A02
100
AcDbEntity
  8
Shape2DView004
100
AcDbEllipse
 10
-92.2916
 20
-266.447
 30
0
 11
-1.29053e-07
 21
15
 31
0
 40
1
 41
1.70453
 42
3.02029
  0
LINE
  5
A29
330
A02
100
AcDbEntity
  8
Shape2DView004
100
AcDbLine
 10
-107.158
 20
-268.447
 30
0
 11
-99.2685
 21
-268.447
 31
0
  0
LINE
  5
A2A
330
A02
100
AcDbEntity
  8
Shape2DView004
100
AcDbLine
 10
-99.2685
 20
-268.447
 30
0
 11
-99.2685
 21
-264.447
 31
0
  0
LINE
  5
A2B
330
A02
100
AcDbEntity
  8
Shape2DView004
100
AcDbLine
 10
-99.2685
 20
-264.447
 30
0
 11
-107.158
 21
-264.447
 31
0
  0
ELLIPSE
  5
A2C
330
A02
100
AcDbEntity
  8
Shape2DView004
100
AcDbEllipse
 10
-92.2916
 20
-266.447
 30
0
 11
-1.29053e-07
 21
15
 31
0
 40
1
 41
6.17247
 42
1.43706
  0
LINE
  5
A2D
330
A02
100
AcDbEntity
  8
Shape2DView004
100
AcDbLine
 10
-90.6344
 20
-251.538
 30
0
 11
-87.4617
 21
-251.891
 31
0
  0
ELLIPSE
  5
A2E
330
A02
100
AcDbEntity
  8
Shape2DView004
100
AcDbEllipse
 10
-89.1189
 20
-266.799
 30
0
 11
-1.38483e-07
 21
15
 31
0
 40
1
 41
5.92274
 42
6.17247
  0
LINE
  5
A2F
330
A02
100
AcDbEntity
  8
Shape2DView004
100
AcDbLine
 10
-83.8286
 20
-252.763
 30
0
 11
-81.1157
 21
-253.786
 31
0
  0
ELLIPSE
  5
A30
330
A02
100
AcDbEntity
  8
Shape2DView004
100
AcDbEllipse
 10
-86.406
 20
-267.822
 30
0
 11
-1.72062e-07
 21
15
 31
0
 40
1
 41
5.69608
 42
5.92274
  0
LINE
  5
A31
330
A02
100
AcDbEntity
  8
Shape2DView004
100
AcDbLine
 10
-78.0967
 20
-255.334
 30
0
 11
-76.3881
 21
-256.47
 31
0
  0
ELLIPSE
  5
A32
330
A02
100
AcDbEntity
  8
Shape2DView004
100
AcDbEllipse
 10
-84.6974
 20
-268.959
 30
0
 11
-1.79316e-07
 21
15
 31
0
 40
1
 41
5.51611
 42
5.69608
  0
LINE
  5
A33
330
A02
100
AcDbEntity
  8
Shape2DView004
100
AcDbLine
 10
-74.2869
 20
-258.16
 30
0
 11
-72.7893
 21
-259.603
 31
0
  0
ELLIPSE
  5
A34
330
A02
100
AcDbEntity
  8
Shape2DView004
100
AcDbEllipse
 10
-83.1998
 20
-270.402
 30
0
 11
-1.37749e-07
 21
15
 31
0
 40
1
 41
5.28821
 42
5.51611
  0
LINE
  5
A35
330
A02
100
AcDbEntity
  8
Shape2DView004
100
AcDbLine
 10
-70.6186
 20
-262.235
 30
0
 11
-68.1999
 21
-265.96
 31
0
  0
ELLIPSE
  5
A36
330
A02
100
AcDbEntity
  8
Shape2DView004
100
AcDbEllipse
 10
-80.7811
 20
-274.128
 30
0
 11
-1.45878e-07
 21
15
 31
0
 40
1
 41
5.06728
 42
5.28821
  0
LINE
  5
A37
330
A02
100
AcDbEntity
  8
Shape2DView004
100
AcDbLine
 10
-66.7158
 20
-268.916
 30
0
 11
-64.9721
 21
-273.621
 31
0
  0
ELLIPSE
  5
A38
330
A02
100
AcDbEntity
  8
Shape2DView004
100
AcDbEllipse
 10
-79.0374
 20
-278.833
 30
0
 11
-1.47797e-07
 21
15
 31
0
 40
1
 41
4.92319
 42
5.06728
  0
LINE
  5
A39
330
A02
100
AcDbEntity
  8
Shape2DView004
100
AcDbLine
 10
-64.3695
 20
-275.695
 30
0
 11
-63.1883
 21
-281.214
 31
0
  0
ELLIPSE
  5
A3A
330
A02
100
AcDbEntity
  8
Shape2DView004
100
AcDbEllipse
 10
-77.8562
 20
-284.353
 30
0
 11
-1.30059e-07
 21
15
 31
0
 40
1
 41
4.83035
 42
4.92319
  0
LINE
  5
A3B
330
A02
100
AcDbEntity
  8
Shape2DView004
100
AcDbLine
 10
-62.9605
 20
-282.588
 30
0
 11
-62.2294
 21
-288.757
 31
0
  0
ELLIPSE
  5
A3C
330
A02
100
AcDbEntity
  8
Shape2DView004
100
AcDbEllipse
 10
-77.1251
 20
-290.522
 30
0
 11
-1.35971e-07
 21
15
 31
0
 40
1
 41
4.77148
 42
4.83035
  0
LINE
  5
A3D
330
A02
100
AcDbEntity
  8
Shape2DView004
100
AcDbLine
 10
-62.1513
 20
-289.636
 30
0
 11
-61.7577
 21
-296.29
 31
0
  0
ELLIPSE
  5
A3E
330
A02
100
AcDbEntity
  8
Shape2DView004
100
AcDbEllipse
 10
-76.7316
 20
-297.175
 30
0
 11
-1.34433e-07
 21
15
 31
0
 40
1
 41
4.72831
 42
4.77148
  0
LINE
  5
A3F
330
A02
100
AcDbEntity
  8
Shape2DView004
100
AcDbLine
 10
-61.7335
 20
-296.936
 30
0
 11
-61.509
 21
-311.034
 31
0
  0
ELLIPSE
  5
A40
330
A02
100
AcDbEntity
  8
Shape2DView004
100
AcDbEllipse
 10
-76.5071
 20
-311.272
 30
0
 11
-1.34307e-07
 21
15
 31
0
 40
1
 41
4.7281
 42
4.72831
  0
LINE
  5
A41
330
A02
100
AcDbEntity
  8
Shape2DView004
100
AcDbLine
 10
-61.5089
 20
-311.037
 30
0
 11
-61.2956
 21
-324.615
 31
0
  0
LINE
  5
A42
330
A02
100
AcDbEntity
  8
Shape2DView004
100
AcDbLine
 10
-61.2956
 20
-324.615
 30
0
 11
-60.9587
 21
-330.392
 31
0
  0
LINE
  5
A43
330
A02
100
AcDbEntity
  8
Shape2DView004
100
AcDbLine
 10
-60.9587
 20
-330.392
 30
0
 11
-60.3829
 21
-335.311
 31
0
  0
LINE
  5
A44
330
A02
100
AcDbEntity
  8
Shape2DView004
100
AcDbLine
 10
-60.3829
 20
-335.311
 30
0
 11
-59.6083
 21
-338.968
 31
0
  0
LINE
  5
A45
330
A02
100
AcDbEntity
  8
Shape2DView004
100
AcDbLine
 10
-59.6083
 20
-338.968
 30
0
 11
-59.1983
 21
-340.082
 31
0
  0
LINE
  5
A46
330
A02
100
AcDbEntity
  8
Shape2DView004
100
AcDbLine
 10
-59.1983
 20
-340.082
 30
0
 11
-58.2052
 21
-340.082
 31
0
  0
SPLINE
  5
A47
330
A02
100
AcDbEntity
  8
Shape2DView004
100
AcDbSpline
210
0
220
0
230
1
 70
8
 71
3
 72
17
 73
13
 74
0
 40
0.0109404
 40
0.0109404
 40
0.0109404
 40
0.0109404
 40
0.0737271
 40
0.0737271
 40
0.0737271
 40
0.136514
 40
0.136514
 40
0.136514
 40
0.1993
 40
0.1993
 40
0.1993
 40
0.262087
 40
0.262087
 40
0.262087
 40
0.262087
 10
-58.2052
 20
-340.082
 30
0
 10
-50.2117
 20
-332.091
 30
0
 10
-43.4147
 20
-324.495
 30
0
 10
-37.6948
 20
-317.26
 30
0
 10
-31.9739
 20
-310.024
 30
0
 10
-27.3311
 20
-303.153
 30
0
 10
-23.6185
 20
-296.601
 30
0
 10
-19.9053
 20
-290.048
 30
0
 10
-17.1202
 20
-283.818
 30
0
 10
-15.0923
 20
-277.816
 30
0
 10
-13.0654
 20
-271.811
 30
0
 10
-11.7903
 20
-266.032
 30
0
 10
-11.1268
 20
-260.317
 30
0
  0
SPLINE
  5
A48
330
A02
100
AcDbEntity
  8
Shape2DView004
100
AcDbSpline
210
0
220
0
230
1
 70
8
 71
3
 72
17
 73
13
 74
0
 40
0.262087
 40
0.262087
 40
0.262087
 40
0.262087
 40
0.349023
 40
0.349023
 40
0.349023
 40
0.435959
 40
0.435959
 40
0.435959
 40
0.522896
 40
0.522896
 40
0.522896
 40
0.609832
 40
0.609832
 40
0.609832
 40
0.609832
 10
-11.1268
 20
-260.317
 30
0
 10
-10.2133
 20
-252.407
 30
0
 10
-10.465
 20
-244.594
 30
0
 10
-11.7208
 20
-236.496
 30
0
 10
-12.9776
 20
-228.405
 30
0
 10
-15.2589
 20
-220.036
 30
0
 10
-18.4162
 20
-211.228
 30
0
 10
-21.5703
 20
-202.422
 30
0
 10
-25.5984
 20
-193.19
 30
0
 10
-30.2561
 20
-183.432
 30
0
 10
-34.9121
 20
-173.672
 30
0
 10
-40.194
 20
-163.388
 30
0
 10
-45.8107
 20
-152.46
 30
0
  0
SPLINE
  5
A49
330
A02
100
AcDbEntity
  8
Shape2DView004
100
AcDbSpline
210
0
220
0
230
1
 70
8
 71
3
 72
8
 73
4
 74
0
 40
0.609832
 40
0.609832
 40
0.609832
 40
0.609832
 40
0.913872
 40
0.913872
 40
0.913872
 40
0.913872
 10
-45.8107
 20
-152.46
 30
0
 10
-65.4486
 20
-114.231
 30
0
 10
-89.1917
 20
-68.1485
 30
0
 10
-103.831
 20
-7.95808
 30
0
  0
SPLINE
  5
A4A
330
A02
100
AcDbEntity
  8
Shape2DView004
100
AcDbSpline
210
0
220
0
230
1
 70
8
 71
3
 72
17
 73
13
 74
0
 40
0
 40
0
 40
0
 40
0
 40
0.133776
 40
0.133776
 40
0.133776
 40
0.419837
 40
0.419837
 40
0.419837
 40
0.855571
 40
0.855571
 40
0.855571
 40
1
 40
1
 40
1
 40
1
 10
-102.031
 20
-2.69507
 30
0
 10
-102.243
 20
-2.74747
 30
0
 10
-102.45
 20
-2.84018
 30
0
 10
-102.65
 20
-2.9732
 30
0
 10
-103.076
 20
-3.25617
 30
0
 10
-103.431
 20
-3.73265
 30
0
 10
-103.659
 20
-4.28922
 30
0
 10
-104.012
 20
-5.14014
 30
0
 10
-104.092
 20
-6.14353
 30
0
 10
-103.989
 20
-7.06436
 30
0
 10
-103.954
 20
-7.37178
 30
0
 10
-103.902
 20
-7.66969
 30
0
 10
-103.831
 20
-7.95808
 30
0
  0
SPLINE
  5
A4B
330
A02
100
AcDbEntity
  8
Shape2DView004
100
AcDbSpline
210
0
220
0
230
1
 70
8
 71
1
 72
4
 73
2
 74
0
 40
3.66249
 40
3.66249
 40
3.88325
 40
3.88325
 10
-103.831
 20
-7.95808
 30
0
 10
-103.791
 20
-8.12522
 30
0
  0
SPLINE
  5
A4C
330
A02
100
AcDbEntity
  8
Shape2DView004
100
AcDbSpline
210
0
220
0
230
1
 70
8
 71
3
 72
17
 73
13
 74
0
 40
0
 40
0
 40
0
 40
0
 40
0.115195
 40
0.115195
 40
0.115195
 40
0.422279
 40
0.422279
 40
0.422279
 40
0.858585
 40
0.858585
 40
0.858585
 40
1
 40
1
 40
1
 40
1
 10
-101.165
 20
-7.36369
 30
0
 10
-101.33
 20
-7.42824
 30
0
 10
-101.49
 20
-7.51713
 30
0
 10
-101.644
 20
-7.63036
 30
0
 10
-102.056
 20
-7.93047
 30
0
 10
-102.399
 20
-8.41056
 30
0
 10
-102.615
 20
-8.96764
 30
0
 10
-102.926
 20
-9.76093
 30
0
 10
-102.997
 20
-10.6847
 30
0
 10
-102.894
 20
-11.5326
 30
0
 10
-102.86
 20
-11.8092
 30
0
 10
-102.81
 20
-12.077
 30
0
 10
-102.744
 20
-12.3362
 30
0
  0
SPLINE
  5
A4D
330
A02
100
AcDbEntity
  8
Shape2DView004
100
AcDbSpline
210
0
220
0
230
1
 70
8
 71
1
 72
4
 73
2
 74
0
 40
0
 40
0
 40
0.000172174
 40
0.000172174
 10
-74.4573
 20
-1.78372
 30
0
 10
-74.4575
 20
-1.78284
 30
0
  0
SPLINE
  5
A4E
330
A02
100
AcDbEntity
  8
Shape2DView004
100
AcDbSpline
210
0
220
0
230
1
 70
8
 71
2
 72
6
 73
3
 74
0
 40
2.16927
 40
2.16927
 40
2.16927
 40
6.97368
 40
6.97368
 40
6.97368
 10
-75.1084
 20
0.9036
 30
0
 10
-74.7795
 20
-0.47208
 30
0
 10
-74.4573
 20
-1.78372
 30
0
  0
SPLINE
  5
A4F
330
A02
100
AcDbEntity
  8
Shape2DView004
100
AcDbSpline
210
0
220
0
230
1
 70
8
 71
3
 72
8
 73
4
 74
0
 40
0.609832
 40
0.609832
 40
0.609832
 40
0.609832
 40
0.67064
 40
0.67064
 40
0.67064
 40
0.67064
 10
-45.8107
 20
-152.46
 30
0
 10
-49.739
 20
-144.815
 30
0
 10
-53.8303
 20
-136.855
 30
0
 10
-57.9804
 20
-128.53
 30
0
  0
SPLINE
  5
A50
330
A02
100
AcDbEntity
  8
Shape2DView004
100
AcDbSpline
210
0
220
0
230
1
 70
8
 71
1
 72
4
 73
2
 74
0
 40
0.905264
 40
0.905264
 40
0.906457
 40
0.906457
 10
-102.566
 20
-13.0363
 30
0
 10
-102.744
 20
-12.3362
 30
0
  0
SPLINE
  5
A51
330
A02
100
AcDbEntity
  8
Shape2DView004
100
AcDbSpline
210
0
220
0
230
1
 70
8
 71
3
 72
8
 73
4
 74
0
 40
0.609832
 40
0.609832
 40
0.609832
 40
0.609832
 40
0.912219
 40
0.912219
 40
0.912219
 40
0.912219
 10
-19.1277
 20
-138.748
 30
0
 10
-38.6666
 20
-100.74
 30
0
 10
-60.7179
 20
-57.71
 30
0
 10
-74.4573
 20
-1.78372
 30
0
  0
SPLINE
  5
A52
330
A02
100
AcDbEntity
  8
Shape2DView004
100
AcDbSpline
210
0
220
0
230
1
 70
8
 71
1
 72
4
 73
2
 74
0
 40
0.262087
 40
0.262087
 40
0.264471
 40
0.264471
 10
-11.1268
 20
-260.317
 30
0
 10
-11.0541
 20
-259.666
 30
0
  0
SPLINE
  5
A53
330
A02
100
AcDbEntity
  8
Shape2DView004
100
AcDbSpline
210
0
220
0
230
1
 70
8
 71
3
 72
17
 73
13
 74
0
 40
0.262087
 40
0.262087
 40
0.262087
 40
0.262087
 40
0.349023
 40
0.349023
 40
0.349023
 40
0.435959
 40
0.435959
 40
0.435959
 40
0.522896
 40
0.522896
 40
0.522896
 40
0.609832
 40
0.609832
 40
0.609832
 40
0.609832
 10
18.6738
 20
-263.77
 30
0
 10
19.9308
 20
-252.948
 30
0
 10
19.5456
 20
-242.304
 30
0
 10
17.9231
 20
-231.887
 30
0
 10
16.3015
 20
-221.464
 30
0
 10
13.4631
 20
-211.262
 30
0
 10
9.82524
 20
-201.108
 30
0
 10
6.18418
 20
-190.951
 30
0
 10
1.74171
 20
-180.83
 30
0
 10
-3.18049
 20
-170.512
 30
0
 10
-8.10441
 20
-160.194
 30
0
 10
-13.5118
 20
-149.677
 30
0
 10
-19.1277
 20
-138.748
 30
0
  0
SPLINE
  5
A54
330
A02
100
AcDbEntity
  8
Shape2DView004
100
AcDbSpline
210
0
220
0
230
1
 70
8
 71
3
 72
17
 73
13
 74
0
 40
0.0109404
 40
0.0109404
 40
0.0109404
 40
0.0109404
 40
0.0737271
 40
0.0737271
 40
0.0737271
 40
0.136514
 40
0.136514
 40
0.136514
 40
0.1993
 40
0.1993
 40
0.1993
 40
0.262087
 40
0.262087
 40
0.262087
 40
0.262087
 10
-58.2052
 20
-340.082
 30
0
 10
-50.2117
 20
-332.091
 30
0
 10
-43.4147
 20
-324.495
 30
0
 10
-37.6948
 20
-317.26
 30
0
 10
-31.9739
 20
-310.024
 30
0
 10
-27.3311
 20
-303.153
 30
0
 10
-23.6185
 20
-296.601
 30
0
 10
-19.9053
 20
-290.048
 30
0
 10
-17.1202
 20
-283.818
 30
0
 10
-15.0923
 20
-277.816
 30
0
 10
-13.0654
 20
-271.811
 30
0
 10
-11.7903
 20
-266.032
 30
0
 10
-11.1268
 20
-260.317
 30
0
  0
SPLINE
  5
A55
330
A02
100
AcDbEntity
  8
Shape2DView004
100
AcDbSpline
210
0
220
0
230
1
 70
8
 71
3
 72
17
 73
13
 74
0
 40
0
 40
0
 40
0
 40
0
 40
0.0655217
 40
0.0655217
 40
0.0655217
 40
0.131043
 40
0.131043
 40
0.131043
 40
0.196565
 40
0.196565
 40
0.196565
 40
0.262087
 40
0.262087
 40
0.262087
 40
0.262087
 10
-41.6462
 20
-365.869
 30
0
 10
-32.1549
 20
-356.697
 30
0
 10
-23.9041
 20
-347.817
 30
0
 10
-16.7835
 20
-339.123
 30
0
 10
-9.66405
 20
-330.43
 30
0
 10
-3.67353
 20
-321.921
 30
0
 10
1.26652
 20
-313.5
 30
0
 10
6.20563
 20
-305.08
 30
0
 10
10.0921
 20
-296.745
 30
0
 10
12.9743
 20
-288.454
 30
0
 10
15.8578
 20
-280.166
 30
0
 10
17.7304
 20
-271.925
 30
0
 10
18.6738
 20
-263.77
 30
0
  0
ENDSEC
  0
SECTION
  2
OBJECTS
  0
DICTIONARY
  5
F000
330
0
100
AcDbDictionary
  3
ACAD_GROUP
350
F001
  0
DICTIONARY
  5
F001
330
F000
100
AcDbDictionary
  0
ENDSEC
  0
EOF