999
FreeCAD v0.21 33668 +26 (Git)
  0
SECTION
  2
HEADER
  9
$ACADVER
  1
AC1014
  9
$ACADMAINTVER
 70
     9
  9
$DWGCODEPAGE
  3
ANSI_1252
  9
$TEXTSTYLE
  7
STANDARD
  9
$DIMSTYLE
  2
STANDARD
  9
$DIMTXSTY
  7
STANDARD
  9
$CMLSTYLE
  2
STANDARD
  9
$LUNITS
 70
2
  9
$INSUNITS
 70
4
  9
$PEXTMAX
 10
50
 20
50
 30
50
  9
$PEXTMIN
 10
0
 20
0
 30
0
  9
$HANDSEED
  5
FFFF
  0
ENDSEC
  0
SECTION
  2
CLASSES
  0
CLASS
  1
ACDBDICTIONARYWDFLT
  2
AcDbDictionaryWithDefault
  3
ObjectDBX Classes
 90
        0
280
     0
281
     0
  0
CLASS
  1
XRECORD
  2
AcDbXrecord
  3
ObjectDBX Classes
 90
        0
280
     0
281
     0
  0
CLASS
  1
LWPOLYLINE
  2
AcDbPolyline
  3
ObjectDBX Classes
 90
        0
280
     0
281
     1
  0
ENDSEC
  0
SECTION
  2
TABLES
  0
TABLE
  2
VPORT
  5
20
330
0
100
AcDbSymbolTable
 70
     1
  0
VPORT
  5
21
330
20
100
AcDbSymbolTableRecord
100
AcDbViewportTableRecord
  2
*ACTIVE
 70
     0
  0
ENDTAB
  0
TABLE
  2
LTYPE
  5
22
330
0
100
AcDbSymbolTable
 70
     1
  0
LTYPE
  5
23
330
21
100
AcDbSymbolTableRecord
100
AcDbLinetypeTableRecord
  2
BYBLOCK
 70
     0
  3

 72
    65
 73
     0
 40
0.0
  0
LTYPE
  5
24
330
21
100
AcDbSymbolTableRecord
100
AcDbLinetypeTableRecord
  2
BYLAYER
 70
     0
  3

 72
    65
 73
     0
 40
0.0
  0
LTYPE
  5
25
330
21
100
AcDbSymbolTableRecord
100
AcDbLinetypeTableRecord
  2
CONTINUOUS
 70
     0
  3
Solid line
 72
    65
 73
     0
 40
0.0
  0
ENDTAB
  0
TABLE
  2
LAYER
  5
A56
330
0
100
AcDbSymbolTable
 70
3
  0
LAYER
  5
A57
330
A56
100
AcDbSymbolTableRecord
100
AcDbLayerTableRecord
  2
0
 70
   0
 62
   7
  6
CONTINUOUS
  0
LAYER
  5
A58
330
A56
100
AcDbSymbolTableRecord
100
AcDbLayerTableRecord
  2
none
 70
    0
 62
    7
  6
CONTINUOUS
  0
LAYER
  5
A59
330
A56
100
AcDbSymbolTableRecord
100
AcDbLayerTableRecord
  2
Shape2DView003
 70
    0
 62
    7
  6
CONTINUOUS
  0
ENDTAB
  0
TABLE
  2
STYLE
  5
70
330
0
100
AcDbSymbolTable
 70
     2
  0
STYLE
  5
71
330
70
100
AcDbSymbolTableRecord
100
AcDbTextStyleTableRecord
  2
STANDARD
 70
     0
 40
0.0
 41
1.0
 50
0.0
 71
     0
 42
2.5
  3
arial.ttf
  4

  0
STYLE
  5
72
330
70
100
AcDbSymbolTableRecord
100
AcDbTextStyleTableRecord
  2
ANNOTATIVE
 70
     0
 40
0.0
 41
1.0
 50
0.0
 71
     0
 42
2.5
  3
arial.ttf
  4

  0
ENDTAB
  0
TABLE
  2
VIEW
  5
73
330
0
100
AcDbSymbolTable
 70
     0
  0
ENDTAB
  0
TABLE
  2
UCS
  5
74
330
0
100
AcDbSymbolTable
 70
     0
  0
ENDTAB
  0
TABLE
  2
APPID
  5
75
330
0
100
AcDbSymbolTable
 70
     2
  0
APPID
  5
76
330
75
100
AcDbSymbolTableRecord
100
AcDbRegAppTableRecord
  2
ACAD
 70
     0
  0
APPID
  5
77
330
75
100
AcDbSymbolTableRecord
100
AcDbRegAppTableRecord
  2
ACADANNOTATIVE
 70
     0
  0
ENDTAB
  0
TABLE
  2
DIMSTYLE
  5
78
330
0
100
AcDbSymbolTable
 70
     2
  0
DIMSTYLE
105
79
330
78
100
AcDbSymbolTableRecord
100
AcDbDimStyleTableRecord
  2
STANDARD
 70
     0
  3

  4

  5

  6

  7

 40
0.0
 41
2.5
 42
0.625
 43
3.75
 44
1.25
 45
0.0
 46
0.0
 47
0.0
 48
0.0
140
2.5
141
2.5
142
0.0
143
0.03937007874016
144
1.0
145
0.0
146
1.0
147
0.625
 71
     0
 72
     0
 73
     0
 74
     0
 75
     0
 76
     0
 77
     1
 78
     8
170
     0
171
     3
172
     1
173
     0
174
     0
175
     0
176
     0
177
     0
178
     0
270
     2
271
     2
272
     2
273
     2
274
     3
340
71
275
     0
280
     0
281
     0
282
     0
283
     0
284
     8
285
     0
286
     0
287
     3
288
     0
  0
ENDTAB
  0
TABLE
  2
BLOCK_RECORD
  5
A01
330
0
100
AcDbSymbolTable
  70
5
  0
BLOCK_RECORD
  5
A02
330
A01
100
AcDbSymbolTableRecord
100
AcDbBlockTableRecord
  2
*MODEL_SPACE
  0
BLOCK_RECORD
  5
A03
330
A01
100
AcDbSymbolTableRecord
100
AcDbBlockTableRecord
  2
*PAPER_SPACE
  0
ENDTAB
  0
ENDSEC
  0
SECTION
  2
BLOCKS
  0
BLOCK
  5
A04
330
A02
100
AcDbEntity
  8
0
100
AcDbBlockBegin
  2
*MODEL_SPACE
 70
   0
 10
0
 20
0
 30
0
  3
*MODEL_SPACE
  1
 
  0
ENDBLK
  5
A05
330
A02
100
AcDbEntity
  8
0
100
AcDbBlockEnd
  0
BLOCK
  5
A06
330
A03
100
AcDbEntity
 67
1
  8
0
100
AcDbBlockBegin
  2
*PAPER_SPACE
 70
   0
 10
0
 20
0
 30
0
  3
*PAPER_SPACE
  1
 
  0
ENDBLK
  5
A07
330
A03
100
AcDbEntity
 67
    1
  8
0
100
AcDbBlockEnd
  0
ENDSEC
  0
SECTION
  2
ENTITIES
  0
SPLINE
  5
A08
330
A02
100
AcDbEntity
  8
Shape2DView003
100
AcDbSpline
210
0
220
0
230
1
 70
8
 71
2
 72
6
 73
3
 74
0
 40
0.920362
 40
0.920362
 40
0.920362
 40
0.936206
 40
0.936206
 40
0.936206
 10
-199.643
 20
41.4759
 30
0
 10
-200.687
 20
45.9268
 30
0
 10
-201.657
 20
50.4878
 30
0
  0
SPLINE
  5
A09
330
A02
100
AcDbEntity
  8
Shape2DView003
100
AcDbSpline
210
0
220
0
230
1
 70
8
 71
2
 72
6
 73
3
 74
0
 40
0.920362
 40
0.920362
 40
0.920362
 40
0.931274
 40
0.931274
 40
0.931274
 10
-199.643
 20
41.4759
 30
0
 10
-200.362
 20
44.5415
 30
0
 10
-201.046
 20
47.659
 30
0
  0
SPLINE
  5
A0A
330
A02
100
AcDbEntity
  8
Shape2DView003
100
AcDbSpline
210
0
220
0
230
1
 70
8
 71
2
 72
6
 73
3
 74
0
 40
2.30868
 40
2.30868
 40
2.30868
 40
7.18596
 40
7.18596
 40
7.18596
 10
-201.657
 20
50.4878
 30
0
 10
-201.349
 20
49.0406
 30
0
 10
-201.046
 20
47.659
 30
0
  0
SPLINE
  5
A0B
330
A02
100
AcDbEntity
  8
Shape2DView003
100
AcDbSpline
210
0
220
0
230
1
 70
8
 71
3
 72
11
 73
7
 74
0
 40
0.0694514
 40
0.0694514
 40
0.0694514
 40
0.0694514
 40
0.178114
 40
0.178114
 40
0.178114
 40
0.240941
 40
0.240941
 40
0.240941
 40
0.240941
 10
-228.598
 20
47.1496
 30
0
 10
-223.708
 20
48.3251
 30
0
 10
-218.839
 20
49.6628
 30
0
 10
-213.977
 20
51.0444
 30
0
 10
-211.167
 20
51.8463
 30
0
 10
-208.358
 20
52.6634
 30
0
 10
-205.552
 20
53.4956
 30
0
  0
SPLINE
  5
A0C
330
A02
100
AcDbEntity
  8
Shape2DView003
100
AcDbSpline
210
0
220
0
230
1
 70
8
 71
3
 72
14
 73
10
 74
0
 40
0
 40
0
 40
0
 40
0
 40
0.499248
 40
0.499248
 40
0.499248
 40
0.819742
 40
0.819742
 40
0.819742
 40
1
 40
1
 40
1
 40
1
 10
-201.657
 20
50.4878
 30
0
 10
-201.839
 20
51.3612
 30
0
 10
-202.31
 20
52.2674
 30
0
 10
-203.041
 20
52.8808
 30
0
 10
-203.506
 20
53.2748
 30
0
 10
-204.078
 20
53.5336
 30
0
 10
-204.643
 20
53.5834
 30
0
 10
-204.959
 20
53.6132
 30
0
 10
-205.27
 20
53.5796
 30
0
 10
-205.552
 20
53.4956
 30
0
  0
SPLINE
  5
A0D
330
A02
100
AcDbEntity
  8
Shape2DView003
100
AcDbSpline
210
0
220
0
230
1
 70
8
 71
3
 72
11
 73
7
 74
0
 40
0.609832
 40
0.609832
 40
0.609832
 40
0.609832
 40
0.765097
 40
0.765097
 40
0.765097
 40
0.920362
 40
0.920362
 40
0.920362
 40
0.920362
 10
-143.222
 20
-100.035
 30
0
 10
-153.254
 20
-80.5177
 30
0
 10
-163.951
 20
-59.6812
 30
0
 10
-173.841
 20
-36.4496
 30
0
 10
-183.732
 20
-13.2182
 30
0
 10
-192.824
 20
12.3976
 30
0
 10
-199.643
 20
41.4759
 30
0
  0
SPLINE
  5
A0E
330
A02
100
AcDbEntity
  8
Shape2DView003
100
AcDbSpline
210
0
220
0
230
1
 70
8
 71
3
 72
17
 73
13
 74
0
 40
0.262087
 40
0.262087
 40
0.262087
 40
0.262087
 40
0.349023
 40
0.349023
 40
0.349023
 40
0.435959
 40
0.435959
 40
0.435959
 40
0.522896
 40
0.522896
 40
0.522896
 40
0.609832
 40
0.609832
 40
0.609832
 40
0.609832
 10
-105.421
 20
-225.057
 30
0
 10
-104.164
 20
-214.235
 30
0
 10
-104.549
 20
-203.591
 30
0
 10
-106.171
 20
-193.174
 30
0
 10
-107.793
 20
-182.751
 30
0
 10
-110.631
 20
-172.549
 30
0
 10
-114.269
 20
-162.394
 30
0
 10
-117.91
 20
-152.238
 30
0
 10
-122.353
 20
-142.117
 30
0
 10
-127.275
 20
-131.799
 30
0
 10
-132.199
 20
-121.481
 30
0
 10
-137.606
 20
-110.964
 30
0
 10
-143.222
 20
-100.035
 30
0
  0
SPLINE
  5
A0F
330
A02
100
AcDbEntity
  8
Shape2DView003
100
AcDbSpline
210
0
220
0
230
1
 70
8
 71
3
 72
17
 73
13
 74
0
 40
0
 40
0
 40
0
 40
0
 40
0.0655217
 40
0.0655217
 40
0.0655217
 40
0.131043
 40
0.131043
 40
0.131043
 40
0.196565
 40
0.196565
 40
0.196565
 40
0.262087
 40
0.262087
 40
0.262087
 40
0.262087
 10
-165.74
 20
-327.156
 30
0
 10
-156.249
 20
-317.984
 30
0
 10
-147.998
 20
-309.104
 30
0
 10
-140.878
 20
-300.41
 30
0
 10
-133.758
 20
-291.717
 30
0
 10
-127.768
 20
-283.208
 30
0
 10
-122.828
 20
-274.786
 30
0
 10
-117.889
 20
-266.367
 30
0
 10
-114.002
 20
-258.032
 30
0
 10
-111.12
 20
-249.741
 30
0
 10
-108.237
 20
-241.453
 30
0
 10
-106.364
 20
-233.212
 30
0
 10
-105.421
 20
-225.057
 30
0
  0
ELLIPSE
  5
A10
330
A02
100
AcDbEntity
  8
Shape2DView003
100
AcDbEllipse
 10
-176.164
 20
-316.369
 30
0
 11
-1.12903e-07
 21
15
 31
0
 40
1
 41
3.14159
 42
3.90986
  0
LINE
  5
A11
330
A02
100
AcDbEntity
  8
Shape2DView003
100
AcDbLine
 10
-185.519
 20
-331.369
 30
0
 11
-176.164
 21
-331.369
 31
0
  0
ELLIPSE
  5
A12
330
A02
100
AcDbEntity
  8
Shape2DView003
100
AcDbEllipse
 10
-185.519
 20
-316.369
 30
0
 11
-1.14115e-07
 21
15
 31
0
 40
1
 41
3.03184
 42
3.14159
  0
LINE
  5
A13
330
A02
100
AcDbEntity
  8
Shape2DView003
100
AcDbLine
 10
-190.128
 20
-330.952
 30
0
 11
-187.162
 21
-331.279
 31
0
  0
ELLIPSE
  5
A14
330
A02
100
AcDbEntity
  8
Shape2DView003
100
AcDbEllipse
 10
-188.485
 20
-316.042
 30
0
 11
-9.55117e-08
 21
15
 31
0
 40
1
 41
2.78487
 42
3.03184
  0
LINE
  5
A15
330
A02
100
AcDbEntity
  8
Shape2DView003
100
AcDbLine
 10
-196.269
 20
-329.149
 30
0
 11
-193.723
 21
-330.098
 31
0
  0
ELLIPSE
  5
A16
330
A02
100
AcDbEntity
  8
Shape2DView003
100
AcDbEllipse
 10
-191.031
 20
-315.094
 30
0
 11
-1.34239e-07
 21
15
 31
0
 40
1
 41
2.55836
 42
2.78487
  0
LINE
  5
A17
330
A02
100
AcDbEntity
  8
Shape2DView003
100
AcDbLine
 10
-200.943
 20
-326.524
 30
0
 11
-199.292
 21
-327.614
 31
0
  0
ELLIPSE
  5
A18
330
A02
100
AcDbEntity
  8
Shape2DView003
100
AcDbEllipse
 10
-192.682
 20
-314.004
 30
0
 11
-9.32157e-08
 21
15
 31
0
 40
1
 41
2.37577
 42
2.55836
  0
LINE
  5
A19
330
A02
100
AcDbEntity
  8
Shape2DView003
100
AcDbLine
 10
-204.527
 20
-323.424
 30
0
 11
-203.079
 21
-324.816
 31
0
  0
ELLIPSE
  5
A1A
330
A02
100
AcDbEntity
  8
Shape2DView003
100
AcDbEllipse
 10
-194.13
 20
-312.612
 30
0
 11
-9.24824e-08
 21
15
 31
0
 40
1
 41
2.14535
 42
2.37577
  0
LINE
  5
A1B
330
A02
100
AcDbEntity
  8
Shape2DView003
100
AcDbLine
 10
-209.059
 20
-317.153
 30
0
 11
-206.721
 21
-320.764
 31
0
  0
ELLIPSE
  5
A1C
330
A02
100
AcDbEntity
  8
Shape2DView003
100
AcDbEllipse
 10
-196.468
 20
-309.001
 30
0
 11
-1.11519e-07
 21
15
 31
0
 40
1
 41
1.92337
 42
2.14535
  0
LINE
  5
A1D
330
A02
100
AcDbEntity
  8
Shape2DView003
100
AcDbLine
 10
-212.23
 20
-309.6
 30
0
 11
-210.545
 21
-314.181
 31
0
  0
ELLIPSE
  5
A1E
330
A02
100
AcDbEntity
  8
Shape2DView003
100
AcDbEllipse
 10
-198.153
 20
-304.42
 30
0
 11
-1.0729e-07
 21
15
 31
0
 40
1
 41
1.77953
 42
1.92337
  0
LINE
  5
A1F
330
A02
100
AcDbEntity
  8
Shape2DView003
100
AcDbLine
 10
-213.969
 20
-302.138
 30
0
 11
-212.827
 21
-307.529
 31
0
  0
ELLIPSE
  5
A20
330
A02
100
AcDbEntity
  8
Shape2DView003
100
AcDbEllipse
 10
-199.295
 20
-299.029
 30
0
 11
-1.18119e-07
 21
15
 31
0
 40
1
 41
1.6873
 42
1.77953
  0
LINE
  5
A21
330
A02
100
AcDbEntity
  8
Shape2DView003
100
AcDbLine
 10
-214.9
 20
-294.732
 30
0
 11
-214.193
 21
-300.773
 31
0
  0
ELLIPSE
  5
A22
330
A02
100
AcDbEntity
  8
Shape2DView003
100
AcDbEllipse
 10
-200.002
 20
-292.988
 30
0
 11
-1.12782e-07
 21
15
 31
0
 40
1
 41
1.62905
 42
1.6873
  0
LINE
  5
A23
330
A02
100
AcDbEntity
  8
Shape2DView003
100
AcDbLine
 10
-215.358
 20
-287.329
 30
0
 11
-214.977
 21
-293.861
 31
0
  0
ELLIPSE
  5
A24
330
A02
100
AcDbEntity
  8
Shape2DView003
100
AcDbEllipse
 10
-200.383
 20
-286.456
 30
0
 11
-1.13156e-07
 21
15
 31
0
 40
1
 41
1.58651
 42
1.62905
  0
LINE
  5
A25
330
A02
100
AcDbEntity
  8
Shape2DView003
100
AcDbLine
 10
-215.6
 20
-272.797
 30
0
 11
-215.381
 21
-286.692
 31
0
  0
LINE
  5
A26
330
A02
100
AcDbEntity
  8
Shape2DView003
100
AcDbLine
 10
-215.819
 20
-259.025
 30
0
 11
-215.6
 21
-272.797
 31
0
  0
LINE
  5
A27
330
A02
100
AcDbEntity
  8
Shape2DView003
100
AcDbLine
 10
-216.167
 20
-253.136
 30
0
 11
-215.819
 21
-259.025
 31
0
  0
LINE
  5
A28
330
A02
100
AcDbEntity
  8
Shape2DView003
100
AcDbLine
 10
-216.764
 20
-248.097
 30
0
 11
-216.167
 21
-253.136
 31
0
  0
LINE
  5
A29
330
A02
100
AcDbEntity
  8
Shape2DView003
100
AcDbLine
 10
-217.573
 20
-244.317
 30
0
 11
-216.764
 21
-248.097
 31
0
  0
LINE
  5
A2A
330
A02
100
AcDbEntity
  8
Shape2DView003
100
AcDbLine
 10
-218.201
 20
-242.623
 30
0
 11
-217.573
 21
-244.317
 31
0
  0
ELLIPSE
  5
A2B
330
A02
100
AcDbEntity
  8
Shape2DView003
100
AcDbEllipse
 10
-216.386
 20
-227.733
 30
0
 11
-1.14575e-07
 21
15
 31
0
 40
1
 41
1.70453
 42
3.02029
  0
LINE
  5
A2C
330
A02
100
AcDbEntity
  8
Shape2DView003
100
AcDbLine
 10
-231.252
 20
-229.733
 30
0
 11
-223.363
 21
-229.733
 31
0
  0
LINE
  5
A2D
330
A02
100
AcDbEntity
  8
Shape2DView003
100
AcDbLine
 10
-223.363
 20
-229.733
 30
0
 11
-223.363
 21
-225.733
 31
0
  0
LINE
  5
A2E
330
A02
100
AcDbEntity
  8
Shape2DView003
100
AcDbLine
 10
-223.363
 20
-225.733
 30
0
 11
-231.252
 21
-225.733
 31
0
  0
ELLIPSE
  5
A2F
330
A02
100
AcDbEntity
  8
Shape2DView003
100
AcDbEllipse
 10
-216.386
 20
-227.733
 30
0
 11
-1.14575e-07
 21
15
 31
0
 40
1
 41
6.17247
 42
1.43706
  0
LINE
  5
A30
330
A02
100
AcDbEntity
  8
Shape2DView003
100
AcDbLine
 10
-214.729
 20
-212.825
 30
0
 11
-211.556
 21
-213.178
 31
0
  0
ELLIPSE
  5
A31
330
A02
100
AcDbEntity
  8
Shape2DView003
100
AcDbEllipse
 10
-213.213
 20
-228.086
 30
0
 11
-1.26403e-07
 21
15
 31
0
 40
1
 41
5.92274
 42
6.17247
  0
LINE
  5
A32
330
A02
100
AcDbEntity
  8
Shape2DView003
100
AcDbLine
 10
-207.923
 20
-214.05
 30
0
 11
-205.21
 21
-215.073
 31
0
  0
ELLIPSE
  5
A33
330
A02
100
AcDbEntity
  8
Shape2DView003
100
AcDbEllipse
 10
-210.5
 20
-229.109
 30
0
 11
-1.24904e-07
 21
15
 31
0
 40
1
 41
5.69608
 42
5.92274
  0
LINE
  5
A34
330
A02
100
AcDbEntity
  8
Shape2DView003
100
AcDbLine
 10
-202.191
 20
-216.62
 30
0
 11
-200.482
 21
-217.757
 31
0
  0
ELLIPSE
  5
A35
330
A02
100
AcDbEntity
  8
Shape2DView003
100
AcDbEllipse
 10
-208.792
 20
-230.246
 30
0
 11
-1.12875e-07
 21
15
 31
0
 40
1
 41
5.51611
 42
5.69608
  0
LINE
  5
A36
330
A02
100
AcDbEntity
  8
Shape2DView003
100
AcDbLine
 10
-198.381
 20
-219.446
 30
0
 11
-196.884
 21
-220.89
 31
0
  0
ELLIPSE
  5
A37
330
A02
100
AcDbEntity
  8
Shape2DView003
100
AcDbEllipse
 10
-207.294
 20
-231.689
 30
0
 11
-8.82942e-08
 21
15
 31
0
 40
1
 41
5.28821
 42
5.51611
  0
LINE
  5
A38
330
A02
100
AcDbEntity
  8
Shape2DView003
100
AcDbLine
 10
-194.713
 20
-223.521
 30
0
 11
-192.294
 21
-227.247
 31
0
  0
ELLIPSE
  5
A39
330
A02
100
AcDbEntity
  8
Shape2DView003
100
AcDbEllipse
 10
-204.875
 20
-235.415
 30
0
 11
-1.14801e-07
 21
15
 31
0
 40
1
 41
5.06728
 42
5.28821
  0
LINE
  5
A3A
330
A02
100
AcDbEntity
  8
Shape2DView003
100
AcDbLine
 10
-190.81
 20
-230.203
 30
0
 11
-189.066
 21
-234.908
 31
0
  0
ELLIPSE
  5
A3B
330
A02
100
AcDbEntity
  8
Shape2DView003
100
AcDbEllipse
 10
-203.132
 20
-240.12
 30
0
 11
-1.10713e-07
 21
15
 31
0
 40
1
 41
4.92319
 42
5.06728
  0
LINE
  5
A3C
330
A02
100
AcDbEntity
  8
Shape2DView003
100
AcDbLine
 10
-188.464
 20
-236.981
 30
0
 11
-187.283
 21
-242.501
 31
0
  0
ELLIPSE
  5
A3D
330
A02
100
AcDbEntity
  8
Shape2DView003
100
AcDbEllipse
 10
-201.951
 20
-245.64
 30
0
 11
-1.18717e-07
 21
15
 31
0
 40
1
 41
4.83035
 42
4.92319
  0
LINE
  5
A3E
330
A02
100
AcDbEntity
  8
Shape2DView003
100
AcDbLine
 10
-187.055
 20
-243.875
 30
0
 11
-186.324
 21
-250.044
 31
0
  0
ELLIPSE
  5
A3F
330
A02
100
AcDbEntity
  8
Shape2DView003
100
AcDbEllipse
 10
-201.219
 20
-251.809
 30
0
 11
-1.10649e-07
 21
15
 31
0
 40
1
 41
4.77148
 42
4.83035
  0
LINE
  5
A40
330
A02
100
AcDbEntity
  8
Shape2DView003
100
AcDbLine
 10
-186.246
 20
-250.923
 30
0
 11
-185.852
 21
-257.576
 31
0
  0
ELLIPSE
  5
A41
330
A02
100
AcDbEntity
  8
Shape2DView003
100
AcDbEllipse
 10
-200.826
 20
-258.462
 30
0
 11
-1.13271e-07
 21
15
 31
0
 40
1
 41
4.72831
 42
4.77148
  0
LINE
  5
A42
330
A02
100
AcDbEntity
  8
Shape2DView003
100
AcDbLine
 10
-185.828
 20
-258.223
 30
0
 11
-185.603
 21
-272.321
 31
0
  0
ELLIPSE
  5
A43
330
A02
100
AcDbEntity
  8
Shape2DView003
100
AcDbEllipse
 10
-200.601
 20
-272.559
 30
0
 11
-1.13156e-07
 21
15
 31
0
 40
1
 41
4.7281
 42
4.72831
  0
LINE
  5
A44
330
A02
100
AcDbEntity
  8
Shape2DView003
100
AcDbLine
 10
-185.603
 20
-272.324
 30
0
 11
-185.39
 21
-285.901
 31
0
  0
LINE
  5
A45
330
A02
100
AcDbEntity
  8
Shape2DView003
100
AcDbLine
 10
-185.39
 20
-285.901
 30
0
 11
-185.053
 21
-291.678
 31
0
  0
LINE
  5
A46
330
A02
100
AcDbEntity
  8
Shape2DView003
100
AcDbLine
 10
-185.053
 20
-291.678
 30
0
 11
-184.477
 21
-296.598
 31
0
  0
LINE
  5
A47
330
A02
100
AcDbEntity
  8
Shape2DView003
100
AcDbLine
 10
-184.477
 20
-296.598
 30
0
 11
-183.703
 21
-300.255
 31
0
  0
LINE
  5
A48
330
A02
100
AcDbEntity
  8
Shape2DView003
100
AcDbLine
 10
-183.703
 20
-300.255
 30
0
 11
-183.293
 21
-301.369
 31
0
  0
LINE
  5
A49
330
A02
100
AcDbEntity
  8
Shape2DView003
100
AcDbLine
 10
-183.293
 20
-301.369
 30
0
 11
-182.3
 21
-301.369
 31
0
  0
SPLINE
  5
A4A
330
A02
100
AcDbEntity
  8
Shape2DView003
100
AcDbSpline
210
0
220
0
230
1
 70
8
 71
3
 72
17
 73
13
 74
0
 40
0.0109404
 40
0.0109404
 40
0.0109404
 40
0.0109404
 40
0.0737271
 40
0.0737271
 40
0.0737271
 40
0.136514
 40
0.136514
 40
0.136514
 40
0.1993
 40
0.1993
 40
0.1993
 40
0.262087
 40
0.262087
 40
0.262087
 40
0.262087
 10
-182.3
 20
-301.369
 30
0
 10
-174.306
 20
-293.378
 30
0
 10
-167.509
 20
-285.781
 30
0
 10
-161.789
 20
-278.546
 30
0
 10
-156.068
 20
-271.311
 30
0
 10
-151.425
 20
-264.439
 30
0
 10
-147.713
 20
-257.888
 30
0
 10
-144
 20
-251.335
 30
0
 10
-141.215
 20
-245.105
 30
0
 10
-139.187
 20
-239.103
 30
0
 10
-137.16
 20
-233.098
 30
0
 10
-135.885
 20
-227.319
 30
0
 10
-135.221
 20
-221.604
 30
0
  0
SPLINE
  5
A4B
330
A02
100
AcDbEntity
  8
Shape2DView003
100
AcDbSpline
210
0
220
0
230
1
 70
8
 71
3
 72
17
 73
13
 74
0
 40
0.262087
 40
0.262087
 40
0.262087
 40
0.262087
 40
0.349023
 40
0.349023
 40
0.349023
 40
0.435959
 40
0.435959
 40
0.435959
 40
0.522896
 40
0.522896
 40
0.522896
 40
0.609832
 40
0.609832
 40
0.609832
 40
0.609832
 10
-135.221
 20
-221.604
 30
0
 10
-134.308
 20
-213.694
 30
0
 10
-134.559
 20
-205.881
 30
0
 10
-135.815
 20
-197.783
 30
0
 10
-137.072
 20
-189.692
 30
0
 10
-139.353
 20
-181.323
 30
0
 10
-142.51
 20
-172.515
 30
0
 10
-145.665
 20
-163.709
 30
0
 10
-149.693
 20
-154.477
 30
0
 10
-154.35
 20
-144.718
 30
0
 10
-159.006
 20
-134.959
 30
0
 10
-164.288
 20
-124.675
 30
0
 10
-169.905
 20
-113.747
 30
0
  0
SPLINE
  5
A4C
330
A02
100
AcDbEntity
  8
Shape2DView003
100
AcDbSpline
210
0
220
0
230
1
 70
8
 71
3
 72
11
 73
7
 74
0
 40
0.609832
 40
0.609832
 40
0.609832
 40
0.609832
 40
0.765097
 40
0.765097
 40
0.765097
 40
0.920362
 40
0.920362
 40
0.920362
 40
0.920362
 10
-169.905
 20
-113.747
 30
0
 10
-179.934
 20
-94.226
 30
0
 10
-191.031
 20
-72.6522
 30
0
 10
-201.443
 20
-48.2024
 30
0
 10
-211.855
 20
-23.7524
 30
0
 10
-221.574
 20
3.58424
 30
0
 10
-228.851
 20
34.6283
 30
0
  0
SPLINE
  5
A4D
330
A02
100
AcDbEntity
  8
Shape2DView003
100
AcDbSpline
210
0
220
0
230
1
 70
8
 71
2
 72
6
 73
3
 74
0
 40
0.920362
 40
0.920362
 40
0.920362
 40
0.932074
 40
0.932074
 40
0.932074
 10
-228.851
 20
34.6283
 30
0
 10
-229.674
 20
38.1408
 30
0
 10
-230.456
 20
41.717
 30
0
  0
SPLINE
  5
A4E
330
A02
100
AcDbEntity
  8
Shape2DView003
100
AcDbSpline
210
0
220
0
230
1
 70
8
 71
3
 72
17
 73
13
 74
0
 40
0
 40
0
 40
0
 40
0
 40
0.129658
 40
0.129658
 40
0.129658
 40
0.411738
 40
0.411738
 40
0.411738
 40
0.841365
 40
0.841365
 40
0.841365
 40
1
 40
1
 40
1
 40
1
 10
-228.598
 20
47.1496
 30
0
 10
-228.805
 20
47.1011
 30
0
 10
-229.006
 20
47.0127
 30
0
 10
-229.202
 20
46.8843
 30
0
 10
-229.627
 20
46.6066
 30
0
 10
-229.985
 20
46.1293
 30
0
 10
-230.221
 20
45.5672
 30
0
 10
-230.585
 20
44.7079
 30
0
 10
-230.686
 20
43.6867
 30
0
 10
-230.608
 20
42.7404
 30
0
 10
-230.579
 20
42.3883
 30
0
 10
-230.528
 20
42.0471
 30
0
 10
-230.456
 20
41.717
 30
0
  0
SPLINE
  5
A4F
330
A02
100
AcDbEntity
  8
Shape2DView003
100
AcDbSpline
210
0
220
0
230
1
 70
8
 71
1
 72
4
 73
2
 74
0
 40
0
 40
0
 40
0.000187067
 40
0.000187067
 10
-201.046
 20
47.659
 30
0
 10
-201.046
 20
47.66
 30
0
  0
SPLINE
  5
A50
330
A02
100
AcDbEntity
  8
Shape2DView003
100
AcDbSpline
210
0
220
0
230
1
 70
8
 71
3
 72
11
 73
7
 74
0
 40
0.609832
 40
0.609832
 40
0.609832
 40
0.609832
 40
0.765097
 40
0.765097
 40
0.765097
 40
0.920362
 40
0.920362
 40
0.920362
 40
0.920362
 10
-143.222
 20
-100.035
 30
0
 10
-153.254
 20
-80.5177
 30
0
 10
-163.951
 20
-59.6812
 30
0
 10
-173.841
 20
-36.4496
 30
0
 10
-183.732
 20
-13.2182
 30
0
 10
-192.824
 20
12.3976
 30
0
 10
-199.643
 20
41.4759
 30
0
  0
SPLINE
  5
A51
330
A02
100
AcDbEntity
  8
Shape2DView003
100
AcDbSpline
210
0
220
0
230
1
 70
8
 71
3
 72
17
 73
13
 74
0
 40
0.262087
 40
0.262087
 40
0.262087
 40
0.262087
 40
0.349023
 40
0.349023
 40
0.349023
 40
0.435959
 40
0.435959
 40
0.435959
 40
0.522896
 40
0.522896
 40
0.522896
 40
0.609832
 40
0.609832
 40
0.609832
 40
0.609832
 10
-105.421
 20
-225.057
 30
0
 10
-104.164
 20
-214.235
 30
0
 10
-104.549
 20
-203.591
 30
0
 10
-106.171
 20
-193.174
 30
0
 10
-107.793
 20
-182.751
 30
0
 10
-110.631
 20
-172.549
 30
0
 10
-114.269
 20
-162.394
 30
0
 10
-117.91
 20
-152.238
 30
0
 10
-122.353
 20
-142.117
 30
0
 10
-127.275
 20
-131.799
 30
0
 10
-132.199
 20
-121.481
 30
0
 10
-137.606
 20
-110.964
 30
0
 10
-143.222
 20
-100.035
 30
0
  0
SPLINE
  5
A52
330
A02
100
AcDbEntity
  8
Shape2DView003
100
AcDbSpline
210
0
220
0
230
1
 70
8
 71
3
 72
17
 73
13
 74
0
 40
0
 40
0
 40
0
 40
0
 40
0.0655217
 40
0.0655217
 40
0.0655217
 40
0.131043
 40
0.131043
 40
0.131043
 40
0.196565
 40
0.196565
 40
0.196565
 40
0.262087
 40
0.262087
 40
0.262087
 40
0.262087
 10
-165.74
 20
-327.156
 30
0
 10
-156.249
 20
-317.984
 30
0
 10
-147.998
 20
-309.104
 30
0
 10
-140.878
 20
-300.41
 30
0
 10
-133.758
 20
-291.717
 30
0
 10
-127.768
 20
-283.208
 30
0
 10
-122.828
 20
-274.786
 30
0
 10
-117.889
 20
-266.367
 30
0
 10
-114.002
 20
-258.032
 30
0
 10
-111.12
 20
-249.741
 30
0
 10
-108.237
 20
-241.453
 30
0
 10
-106.364
 20
-233.212
 30
0
 10
-105.421
 20
-225.057
 30
0
  0
SPLINE
  5
A53
330
A02
100
AcDbEntity
  8
Shape2DView003
100
AcDbSpline
210
0
220
0
230
1
 70
8
 71
1
 72
4
 73
2
 74
0
 40
0.921663
 40
0.921663
 40
0.92427
 40
0.92427
 10
-229.033
 20
35.4097
 30
0
 10
-229.396
 20
36.9795
 30
0
  0
SPLINE
  5
A54
330
A02
100
AcDbEntity
  8
Shape2DView003
100
AcDbSpline
210
0
220
0
230
1
 70
8
 71
2
 72
6
 73
3
 74
0
 40
3.92602
 40
3.92602
 40
3.92602
 40
7.173
 40
7.173
 40
7.173
 10
-230.456
 20
41.717
 30
0
 10
-230.177
 20
40.4426
 30
0
 10
-229.901
 20
39.2105
 30
0
  0
LINE
  5
A55
330
A02
100
AcDbEntity
  8
Shape2DView003
100
AcDbLine
 10
-165.74
 20
-327.156
 30
0
 11
-165.74
 21
-327.156
 31
0
  0
ENDSEC
  0
SECTION
  2
OBJECTS
  0
DICTIONARY
  5
F000
330
0
100
AcDbDictionary
  3
ACAD_GROUP
350
F001
  0
DICTIONARY
  5
F001
330
F000
100
AcDbDictionary
  0
ENDSEC
  0
EOF