999
FreeCAD v0.20 29410 (Git)
  0
SECTION
  2
HEADER
  9
$ACADVER
  1
AC1014
  9
$ACADMAINTVER
 70
     9
  9
$DWGCODEPAGE
  3
ANSI_1252
  9
$TEXTSTYLE
  7
STANDARD
  9
$DIMSTYLE
  2
STANDARD
  9
$DIMTXSTY
  7
STANDARD
  9
$CMLSTYLE
  2
STANDARD
  9
$LUNITS
 70
2
  9
$INSUNITS
 70
4
  9
$PEXTMAX
 10
50
 20
50
 30
50
  9
$PEXTMIN
 10
0
 20
0
 30
0
  9
$HANDSEED
  5
FFFF
  0
ENDSEC
  0
SECTION
  2
CLASSES
  0
CLASS
  1
ACDBDICTIONARYWDFLT
  2
AcDbDictionaryWithDefault
  3
ObjectDBX Classes
 90
        0
280
     0
281
     0
  0
CLASS
  1
XRECORD
  2
AcDbXrecord
  3
ObjectDBX Classes
 90
        0
280
     0
281
     0
  0
CLASS
  1
LWPOLYLINE
  2
AcDbPolyline
  3
ObjectDBX Classes
 90
        0
280
     0
281
     1
  0
ENDSEC
  0
SECTION
  2
TABLES
  0
TABLE
  2
VPORT
  5
20
330
0
100
AcDbSymbolTable
 70
     1
  0
VPORT
  5
21
330
20
100
AcDbSymbolTableRecord
100
AcDbViewportTableRecord
  2
*ACTIVE
 70
     0
  0
ENDTAB
  0
TABLE
  2
LTYPE
  5
22
330
0
100
AcDbSymbolTable
 70
     1
  0
LTYPE
  5
23
330
21
100
AcDbSymbolTableRecord
100
AcDbLinetypeTableRecord
  2
BYBLOCK
 70
     0
  3

 72
    65
 73
     0
 40
0.0
  0
LTYPE
  5
24
330
21
100
AcDbSymbolTableRecord
100
AcDbLinetypeTableRecord
  2
BYLAYER
 70
     0
  3

 72
    65
 73
     0
 40
0.0
  0
LTYPE
  5
25
330
21
100
AcDbSymbolTableRecord
100
AcDbLinetypeTableRecord
  2
CONTINUOUS
 70
     0
  3
Solid line
 72
    65
 73
     0
 40
0.0
  0
ENDTAB
  0
TABLE
  2
LAYER
  5
A4F
330
0
100
AcDbSymbolTable
 70
3
  0
LAYER
  5
A50
330
A4F
100
AcDbSymbolTableRecord
100
AcDbLayerTableRecord
  2
0
 70
   0
 62
   7
  6
CONTINUOUS
  0
LAYER
  5
A51
330
A4F
100
AcDbSymbolTableRecord
100
AcDbLayerTableRecord
  2
none
 70
    0
 62
    7
  6
CONTINUOUS
  0
LAYER
  5
A52
330
A4F
100
AcDbSymbolTableRecord
100
AcDbLayerTableRecord
  2
Shape2DView042
 70
    0
 62
    7
  6
CONTINUOUS
  0
ENDTAB
  0
TABLE
  2
STYLE
  5
70
330
0
100
AcDbSymbolTable
 70
     2
  0
STYLE
  5
71
330
70
100
AcDbSymbolTableRecord
100
AcDbTextStyleTableRecord
  2
STANDARD
 70
     0
 40
0.0
 41
1.0
 50
0.0
 71
     0
 42
2.5
  3
arial.ttf
  4

  0
STYLE
  5
72
330
70
100
AcDbSymbolTableRecord
100
AcDbTextStyleTableRecord
  2
ANNOTATIVE
 70
     0
 40
0.0
 41
1.0
 50
0.0
 71
     0
 42
2.5
  3
arial.ttf
  4

  0
ENDTAB
  0
TABLE
  2
VIEW
  5
73
330
0
100
AcDbSymbolTable
 70
     0
  0
ENDTAB
  0
TABLE
  2
UCS
  5
74
330
0
100
AcDbSymbolTable
 70
     0
  0
ENDTAB
  0
TABLE
  2
APPID
  5
75
330
0
100
AcDbSymbolTable
 70
     2
  0
APPID
  5
76
330
75
100
AcDbSymbolTableRecord
100
AcDbRegAppTableRecord
  2
ACAD
 70
     0
  0
APPID
  5
77
330
75
100
AcDbSymbolTableRecord
100
AcDbRegAppTableRecord
  2
ACADANNOTATIVE
 70
     0
  0
ENDTAB
  0
TABLE
  2
DIMSTYLE
  5
78
330
0
100
AcDbSymbolTable
 70
     2
  0
DIMSTYLE
105
79
330
78
100
AcDbSymbolTableRecord
100
AcDbDimStyleTableRecord
  2
STANDARD
 70
     0
  3

  4

  5

  6

  7

 40
0.0
 41
2.5
 42
0.625
 43
3.75
 44
1.25
 45
0.0
 46
0.0
 47
0.0
 48
0.0
140
2.5
141
2.5
142
0.0
143
0.03937007874016
144
1.0
145
0.0
146
1.0
147
0.625
 71
     0
 72
     0
 73
     0
 74
     0
 75
     0
 76
     0
 77
     1
 78
     8
170
     0
171
     3
172
     1
173
     0
174
     0
175
     0
176
     0
177
     0
178
     0
270
     2
271
     2
272
     2
273
     2
274
     3
340
71
275
     0
280
     0
281
     0
282
     0
283
     0
284
     8
285
     0
286
     0
287
     3
288
     0
  0
ENDTAB
  0
TABLE
  2
BLOCK_RECORD
  5
A01
330
0
100
AcDbSymbolTable
  70
5
  0
BLOCK_RECORD
  5
A02
330
A01
100
AcDbSymbolTableRecord
100
AcDbBlockTableRecord
  2
*MODEL_SPACE
  0
BLOCK_RECORD
  5
A03
330
A01
100
AcDbSymbolTableRecord
100
AcDbBlockTableRecord
  2
*PAPER_SPACE
  0
ENDTAB
  0
ENDSEC
  0
SECTION
  2
BLOCKS
  0
BLOCK
  5
A04
330
A02
100
AcDbEntity
  8
0
100
AcDbBlockBegin
  2
*MODEL_SPACE
 70
   0
 10
0
 20
0
 30
0
  3
*MODEL_SPACE
  1
 
  0
ENDBLK
  5
A05
330
A02
100
AcDbEntity
  8
0
100
AcDbBlockEnd
  0
BLOCK
  5
A06
330
A03
100
AcDbEntity
 67
1
  8
0
100
AcDbBlockBegin
  2
*PAPER_SPACE
 70
   0
 10
0
 20
0
 30
0
  3
*PAPER_SPACE
  1
 
  0
ENDBLK
  5
A07
330
A03
100
AcDbEntity
 67
    1
  8
0
100
AcDbBlockEnd
  0
ENDSEC
  0
SECTION
  2
ENTITIES
  0
LINE
  5
A08
330
A02
100
AcDbEntity
  8
Shape2DView042
100
AcDbLine
 10
97.377
 20
98.062
 30
0
 11
124.315
 21
106.848
 31
0
  0
SPLINE
  5
A09
330
A02
100
AcDbEntity
  8
Shape2DView042
100
AcDbSpline
210
0
220
0
230
1
 70
8
 71
3
 72
11
 73
7
 74
0
 40
0
 40
0
 40
0
 40
0
 40
0.5
 40
0.5
 40
0.5
 40
1
 40
1
 40
1
 40
1
 10
124.315
 20
106.848
 30
0
 10
124.523
 20
106.918
 30
0
 10
124.782
 20
106.917
 30
0
 10
125.009
 20
106.821
 30
0
 10
125.237
 20
106.728
 30
0
 10
125.42
 20
106.545
 30
0
 10
125.518
 20
106.348
 30
0
  0
SPLINE
  5
A0A
330
A02
100
AcDbEntity
  8
Shape2DView042
100
AcDbSpline
210
0
220
0
230
1
 70
8
 71
3
 72
17
 73
13
 74
0
 40
0.262087
 40
0.262087
 40
0.262087
 40
0.262087
 40
0.337992
 40
0.337992
 40
0.337992
 40
0.413898
 40
0.413898
 40
0.413898
 40
0.489803
 40
0.489803
 40
0.489803
 40
0.565708
 40
0.565708
 40
0.565708
 40
0.565708
 10
154.965
 20
-2.32361
 30
0
 10
156.062
 20
7.12426
 30
0
 10
155.91
 20
16.4406
 30
0
 10
154.771
 20
25.5825
 30
0
 10
153.634
 20
34.7289
 30
0
 10
151.522
 20
43.702
 30
0
 10
148.725
 20
52.5961
 30
0
 10
145.926
 20
61.4925
 30
0
 10
142.443
 20
70.3174
 30
0
 10
138.506
 20
79.2244
 30
0
 10
134.568
 20
88.1313
 30
0
 10
130.174
 20
97.1227
 30
0
 10
125.518
 20
106.348
 30
0
  0
SPLINE
  5
A0B
330
A02
100
AcDbEntity
  8
Shape2DView042
100
AcDbSpline
210
0
220
0
230
1
 70
8
 71
3
 72
17
 73
13
 74
0
 40
0
 40
0
 40
0
 40
0
 40
0.0655217
 40
0.0655217
 40
0.0655217
 40
0.131043
 40
0.131043
 40
0.131043
 40
0.196565
 40
0.196565
 40
0.196565
 40
0.262087
 40
0.262087
 40
0.262087
 40
0.262087
 10
94.6454
 20
-104.422
 30
0
 10
104.137
 20
-95.2503
 30
0
 10
112.388
 20
-86.3703
 30
0
 10
119.508
 20
-77.6767
 30
0
 10
126.628
 20
-68.9835
 30
0
 10
132.618
 20
-60.4742
 30
0
 10
137.558
 20
-52.0529
 30
0
 10
142.497
 20
-43.6337
 30
0
 10
146.384
 20
-35.2982
 30
0
 10
149.266
 20
-27.0075
 30
0
 10
152.149
 20
-18.7193
 30
0
 10
154.022
 20
-10.4781
 30
0
 10
154.965
 20
-2.32361
 30
0
  0
ELLIPSE
  5
A0C
330
A02
100
AcDbEntity
  8
Shape2DView042
100
AcDbEllipse
 10
84.222
 20
-93.6357
 30
0
 11
-1.34325e-07
 21
-15
 31
0
 40
1
 41
8.95502e-09
 42
0.768271
  0
LINE
  5
A0D
330
A02
100
AcDbEntity
  8
Shape2DView042
100
AcDbLine
 10
74.8668
 20
-108.636
 30
0
 11
84.222
 21
-108.636
 31
0
  0
ELLIPSE
  5
A0E
330
A02
100
AcDbEntity
  8
Shape2DView042
100
AcDbEllipse
 10
74.8668
 20
-93.6357
 30
0
 11
-1.35984e-07
 21
-15
 31
0
 40
1
 41
6.17343
 42
8.7558e-09
  0
LINE
  5
A0F
330
A02
100
AcDbEntity
  8
Shape2DView042
100
AcDbLine
 10
70.258
 20
-108.219
 30
0
 11
73.2238
 21
-108.545
 31
0
  0
ELLIPSE
  5
A10
330
A02
100
AcDbEntity
  8
Shape2DView042
100
AcDbEllipse
 10
71.901
 20
-93.3089
 30
0
 11
-1.41287e-07
 21
-15
 31
0
 40
1
 41
5.92647
 42
6.17343
  0
LINE
  5
A11
330
A02
100
AcDbEntity
  8
Shape2DView042
100
AcDbLine
 10
64.117
 20
-106.416
 30
0
 11
66.6629
 21
-107.365
 31
0
  0
ELLIPSE
  5
A12
330
A02
100
AcDbEntity
  8
Shape2DView042
100
AcDbEllipse
 10
69.3551
 20
-92.3601
 30
0
 11
-1.49481e-07
 21
-15
 31
0
 40
1
 41
5.69995
 42
5.92647
  0
LINE
  5
A13
330
A02
100
AcDbEntity
  8
Shape2DView042
100
AcDbLine
 10
59.4428
 20
-103.791
 30
0
 11
61.0942
 21
-104.88
 31
0
  0
ELLIPSE
  5
A14
330
A02
100
AcDbEntity
  8
Shape2DView042
100
AcDbEllipse
 10
67.7037
 20
-91.2705
 30
0
 11
-1.47345e-07
 21
-15
 31
0
 40
1
 41
5.51737
 42
5.69995
  0
LINE
  5
A15
330
A02
100
AcDbEntity
  8
Shape2DView042
100
AcDbLine
 10
55.8593
 20
-100.691
 30
0
 11
57.3068
 21
-102.083
 31
0
  0
ELLIPSE
  5
A16
330
A02
100
AcDbEntity
  8
Shape2DView042
100
AcDbEllipse
 10
66.2562
 20
-89.8786
 30
0
 11
-1.26219e-07
 21
-15
 31
0
 40
1
 41
5.28695
 42
5.51737
  0
LINE
  5
A17
330
A02
100
AcDbEntity
  8
Shape2DView042
100
AcDbLine
 10
51.3269
 20
-94.4196
 30
0
 11
53.6647
 21
-98.0306
 31
0
  0
ELLIPSE
  5
A18
330
A02
100
AcDbEntity
  8
Shape2DView042
100
AcDbEllipse
 10
63.9184
 20
-86.2676
 30
0
 11
-1.41499e-07
 21
-15
 31
0
 40
1
 41
5.06496
 42
5.28695
  0
LINE
  5
A19
330
A02
100
AcDbEntity
  8
Shape2DView042
100
AcDbLine
 10
48.1555
 20
-86.8665
 30
0
 11
49.8411
 21
-91.4474
 31
0
  0
ELLIPSE
  5
A1A
330
A02
100
AcDbEntity
  8
Shape2DView042
100
AcDbEllipse
 10
62.2328
 20
-81.6868
 30
0
 11
-1.37724e-07
 21
-15
 31
0
 40
1
 41
4.92113
 42
5.06496
  0
LINE
  5
A1B
330
A02
100
AcDbEntity
  8
Shape2DView042
100
AcDbLine
 10
46.4165
 20
-79.4043
 30
0
 11
47.5584
 21
-84.7952
 31
0
  0
ELLIPSE
  5
A1C
330
A02
100
AcDbEntity
  8
Shape2DView042
100
AcDbEllipse
 10
61.0909
 20
-76.2959
 30
0
 11
-1.3806e-07
 21
-15
 31
0
 40
1
 41
4.8289
 42
4.92113
  0
LINE
  5
A1D
330
A02
100
AcDbEntity
  8
Shape2DView042
100
AcDbLine
 10
45.4856
 20
-71.9983
 30
0
 11
46.1926
 21
-78.0396
 31
0
  0
ELLIPSE
  5
A1E
330
A02
100
AcDbEntity
  8
Shape2DView042
100
AcDbEllipse
 10
60.3839
 20
-70.2546
 30
0
 11
-1.32605e-07
 21
-15
 31
0
 40
1
 41
4.77064
 42
4.8289
  0
LINE
  5
A1F
330
A02
100
AcDbEntity
  8
Shape2DView042
100
AcDbLine
 10
45.0284
 20
-64.596
 30
0
 11
45.4093
 21
-71.1279
 31
0
  0
ELLIPSE
  5
A20
330
A02
100
AcDbEntity
  8
Shape2DView042
100
AcDbEllipse
 10
60.0029
 20
-63.7227
 30
0
 11
-1.34692e-07
 21
-15
 31
0
 40
1
 41
4.7281
 42
4.77064
  0
LINE
  5
A21
330
A02
100
AcDbEntity
  8
Shape2DView042
100
AcDbLine
 10
44.7864
 20
-50.0632
 30
0
 11
45.0048
 21
-63.9584
 31
0
  0
LINE
  5
A22
330
A02
100
AcDbEntity
  8
Shape2DView042
100
AcDbLine
 10
44.5671
 20
-36.2913
 30
0
 11
44.7864
 21
-50.0632
 31
0
  0
LINE
  5
A23
330
A02
100
AcDbEntity
  8
Shape2DView042
100
AcDbLine
 10
44.2188
 20
-30.4024
 30
0
 11
44.5671
 21
-36.2913
 31
0
  0
LINE
  5
A24
330
A02
100
AcDbEntity
  8
Shape2DView042
100
AcDbLine
 10
43.6216
 20
-25.3639
 30
0
 11
44.2188
 21
-30.4024
 31
0
  0
LINE
  5
A25
330
A02
100
AcDbEntity
  8
Shape2DView042
100
AcDbLine
 10
42.8128
 20
-21.584
 30
0
 11
43.6216
 21
-25.3639
 31
0
  0
LINE
  5
A26
330
A02
100
AcDbEntity
  8
Shape2DView042
100
AcDbLine
 10
42.185
 20
-19.8898
 30
0
 11
42.8128
 21
-21.584
 31
0
  0
ELLIPSE
  5
A27
330
A02
100
AcDbEntity
  8
Shape2DView042
100
AcDbEllipse
 10
44
 20
-5
 30
0
 11
-1.32013e-07
 21
-15
 31
0
 40
1
 41
4.81256
 42
6.16189
  0
LINE
  5
A28
330
A02
100
AcDbEntity
  8
Shape2DView042
100
AcDbLine
 10
37.0231
 20
-6.5
 30
0
 11
29.0752
 21
-6.5
 31
0
  0
LINE
  5
A29
330
A02
100
AcDbEntity
  8
Shape2DView042
100
AcDbLine
 10
37.0231
 20
-3.5
 30
0
 11
37.0231
 21
-6.5
 31
0
  0
LINE
  5
A2A
330
A02
100
AcDbEntity
  8
Shape2DView042
100
AcDbLine
 10
29.0752
 20
-3.5
 30
0
 11
37.0231
 21
-3.5
 31
0
  0
ELLIPSE
  5
A2B
330
A02
100
AcDbEntity
  8
Shape2DView042
100
AcDbEllipse
 10
44
 20
-5
 30
0
 11
-1.32013e-07
 21
-15
 31
0
 40
1
 41
3.03088
 42
4.61222
  0
LINE
  5
A2C
330
A02
100
AcDbEntity
  8
Shape2DView042
100
AcDbLine
 10
45.6573
 20
9.90817
 30
0
 11
48.83
 21
9.55547
 31
0
  0
ELLIPSE
  5
A2D
330
A02
100
AcDbEntity
  8
Shape2DView042
100
AcDbEllipse
 10
47.1727
 20
-5.35269
 30
0
 11
-1.55006e-07
 21
-15
 31
0
 40
1
 41
2.78115
 42
3.03088
  0
LINE
  5
A2E
330
A02
100
AcDbEntity
  8
Shape2DView042
100
AcDbLine
 10
52.4631
 20
8.68341
 30
0
 11
55.176
 21
7.66088
 31
0
  0
ELLIPSE
  5
A2F
330
A02
100
AcDbEntity
  8
Shape2DView042
100
AcDbEllipse
 10
49.8856
 20
-6.37522
 30
0
 11
-1.00565e-07
 21
-15
 31
0
 40
1
 41
2.55449
 42
2.78115
  0
LINE
  5
A30
330
A02
100
AcDbEntity
  8
Shape2DView042
100
AcDbLine
 10
58.1949
 20
6.11299
 30
0
 11
59.9035
 21
4.97614
 31
0
  0
ELLIPSE
  5
A31
330
A02
100
AcDbEntity
  8
Shape2DView042
100
AcDbEllipse
 10
51.5942
 20
-7.51207
 30
0
 11
-1.57034e-07
 21
-15
 31
0
 40
1
 41
2.37452
 42
2.55449
  0
LINE
  5
A32
330
A02
100
AcDbEntity
  8
Shape2DView042
100
AcDbLine
 10
62.0047
 20
3.28706
 30
0
 11
63.5024
 21
1.84331
 31
0
  0
ELLIPSE
  5
A33
330
A02
100
AcDbEntity
  8
Shape2DView042
100
AcDbEllipse
 10
53.0918
 20
-8.95582
 30
0
 11
-1.35069e-07
 21
-15
 31
0
 40
1
 41
2.14662
 42
2.37452
  0
LINE
  5
A34
330
A02
100
AcDbEntity
  8
Shape2DView042
100
AcDbLine
 10
65.673
 20
-0.787934
 30
0
 11
68.0917
 21
-4.51353
 31
0
  0
ELLIPSE
  5
A35
330
A02
100
AcDbEntity
  8
Shape2DView042
100
AcDbEllipse
 10
55.5106
 20
-12.6814
 30
0
 11
-1.47819e-07
 21
-15
 31
0
 40
1
 41
1.92568
 42
2.14662
  0
LINE
  5
A36
330
A02
100
AcDbEntity
  8
Shape2DView042
100
AcDbLine
 10
69.5758
 20
-7.46915
 30
0
 11
71.3195
 21
-12.1745
 31
0
  0
ELLIPSE
  5
A37
330
A02
100
AcDbEntity
  8
Shape2DView042
100
AcDbEllipse
 10
57.2542
 20
-17.3867
 30
0
 11
-1.39818e-07
 21
-15
 31
0
 40
1
 41
1.7816
 42
1.92568
  0
LINE
  5
A38
330
A02
100
AcDbEntity
  8
Shape2DView042
100
AcDbLine
 10
71.9222
 20
-14.2481
 30
0
 11
73.1033
 21
-19.7679
 31
0
  0
ELLIPSE
  5
A39
330
A02
100
AcDbEntity
  8
Shape2DView042
100
AcDbEllipse
 10
58.4354
 20
-22.9066
 30
0
 11
-1.34997e-07
 21
-15
 31
0
 40
1
 41
1.68876
 42
1.7816
  0
LINE
  5
A3A
330
A02
100
AcDbEntity
  8
Shape2DView042
100
AcDbLine
 10
73.3311
 20
-21.1412
 30
0
 11
74.0623
 21
-27.3103
 31
0
  0
ELLIPSE
  5
A3B
330
A02
100
AcDbEntity
  8
Shape2DView042
100
AcDbEllipse
 10
59.1665
 20
-29.0757
 30
0
 11
-1.32588e-07
 21
-15
 31
0
 40
1
 41
1.62988
 42
1.68876
  0
LINE
  5
A3C
330
A02
100
AcDbEntity
  8
Shape2DView042
100
AcDbLine
 10
74.1403
 20
-28.1899
 30
0
 11
74.5339
 21
-34.843
 31
0
  0
ELLIPSE
  5
A3D
330
A02
100
AcDbEntity
  8
Shape2DView042
100
AcDbEllipse
 10
59.5601
 20
-35.7287
 30
0
 11
-1.34033e-07
 21
-15
 31
0
 40
1
 41
1.58672
 42
1.62988
  0
LINE
  5
A3E
330
A02
100
AcDbEntity
  8
Shape2DView042
100
AcDbLine
 10
74.5582
 20
-35.4899
 30
0
 11
74.7826
 21
-49.5871
 31
0
  0
ELLIPSE
  5
A3F
330
A02
100
AcDbEntity
  8
Shape2DView042
100
AcDbEllipse
 10
59.7845
 20
-49.8259
 30
0
 11
-1.34692e-07
 21
-15
 31
0
 40
1
 41
1.58651
 42
1.58672
  0
LINE
  5
A40
330
A02
100
AcDbEntity
  8
Shape2DView042
100
AcDbLine
 10
74.7827
 20
-49.5902
 30
0
 11
74.9961
 21
-63.168
 31
0
  0
LINE
  5
A41
330
A02
100
AcDbEntity
  8
Shape2DView042
100
AcDbLine
 10
74.9961
 20
-63.168
 30
0
 11
75.333
 21
-68.9451
 31
0
  0
LINE
  5
A42
330
A02
100
AcDbEntity
  8
Shape2DView042
100
AcDbLine
 10
75.333
 20
-68.9451
 30
0
 11
75.9088
 21
-73.8647
 31
0
  0
LINE
  5
A43
330
A02
100
AcDbEntity
  8
Shape2DView042
100
AcDbLine
 10
75.9088
 20
-73.8647
 30
0
 11
76.6833
 21
-77.5212
 31
0
  0
LINE
  5
A44
330
A02
100
AcDbEntity
  8
Shape2DView042
100
AcDbLine
 10
76.6833
 20
-77.5212
 30
0
 11
77.0934
 21
-78.6357
 31
0
  0
LINE
  5
A45
330
A02
100
AcDbEntity
  8
Shape2DView042
100
AcDbLine
 10
77.0934
 20
-78.6357
 30
0
 11
78.0864
 21
-78.6357
 31
0
  0
SPLINE
  5
A46
330
A02
100
AcDbEntity
  8
Shape2DView042
100
AcDbSpline
210
0
220
0
230
1
 70
8
 71
3
 72
17
 73
13
 74
0
 40
0.0109404
 40
0.0109404
 40
0.0109404
 40
0.0109404
 40
0.0737271
 40
0.0737271
 40
0.0737271
 40
0.136514
 40
0.136514
 40
0.136514
 40
0.1993
 40
0.1993
 40
0.1993
 40
0.262087
 40
0.262087
 40
0.262087
 40
0.262087
 10
78.0864
 20
-78.6357
 30
0
 10
86.0799
 20
-70.6448
 30
0
 10
92.8769
 20
-63.048
 30
0
 10
98.5968
 20
-55.8129
 30
0
 10
104.318
 20
-48.5774
 30
0
 10
108.961
 20
-41.706
 30
0
 10
112.673
 20
-35.1545
 30
0
 10
116.386
 20
-28.6013
 30
0
 10
119.171
 20
-22.3713
 30
0
 10
121.199
 20
-16.3691
 30
0
 10
123.226
 20
-10.3646
 30
0
 10
124.501
 20
-4.58564
 30
0
 10
125.165
 20
1.12941
 30
0
  0
SPLINE
  5
A47
330
A02
100
AcDbEntity
  8
Shape2DView042
100
AcDbSpline
210
0
220
0
230
1
 70
8
 71
3
 72
17
 73
13
 74
0
 40
0.262087
 40
0.262087
 40
0.262087
 40
0.262087
 40
0.340665
 40
0.340665
 40
0.340665
 40
0.419243
 40
0.419243
 40
0.419243
 40
0.497822
 40
0.497822
 40
0.497822
 40
0.5764
 40
0.5764
 40
0.5764
 40
0.5764
 10
125.165
 20
1.12941
 30
0
 10
125.991
 20
8.2804
 30
0
 10
125.863
 20
15.3479
 30
0
 10
124.905
 20
22.6231
 30
0
 10
123.947
 20
29.8932
 30
0
 10
122.144
 20
37.369
 30
0
 10
119.598
 20
45.1856
 30
0
 10
117.055
 20
53
 30
0
 10
113.767
 20
61.1467
 30
0
 10
109.903
 20
69.7003
 30
0
 10
106.039
 20
78.2541
 30
0
 10
101.601
 20
87.2125
 30
0
 10
96.7958
 20
96.6579
 30
0
  0
SPLINE
  5
A48
330
A02
100
AcDbEntity
  8
Shape2DView042
100
AcDbSpline
210
0
220
0
230
1
 70
8
 71
3
 72
11
 73
7
 74
0
 40
0
 40
0
 40
0
 40
0
 40
0.5
 40
0.5
 40
0.5
 40
1
 40
1
 40
1
 40
1
 10
97.377
 20
98.062
 30
0
 10
97.1287
 20
97.9854
 30
0
 10
96.8768
 20
97.7768
 30
0
 10
96.7631
 20
97.4938
 30
0
 10
96.6435
 20
97.2131
 30
0
 10
96.6743
 20
96.8876
 30
0
 10
96.7958
 20
96.6579
 30
0
  0
SPLINE
  5
A49
330
A02
100
AcDbEntity
  8
Shape2DView042
100
AcDbSpline
210
0
220
0
230
1
 70
8
 71
3
 72
11
 73
7
 74
0
 40
0
 40
0
 40
0
 40
0
 40
0.5
 40
0.5
 40
0.5
 40
1
 40
1
 40
1
 40
1
 10
97.377
 20
98.062
 30
0
 10
97.1287
 20
97.9854
 30
0
 10
96.8768
 20
97.7768
 30
0
 10
96.7631
 20
97.4938
 30
0
 10
96.6435
 20
97.2131
 30
0
 10
96.6743
 20
96.8876
 30
0
 10
96.7958
 20
96.6579
 30
0
  0
SPLINE
  5
A4A
330
A02
100
AcDbEntity
  8
Shape2DView042
100
AcDbSpline
210
0
220
0
230
1
 70
8
 71
3
 72
8
 73
4
 74
0
 40
0
 40
0
 40
0
 40
0
 40
0.523951
 40
0.523951
 40
0.523951
 40
0.523951
 10
124.315
 20
106.848
 30
0
 10
124.533
 20
106.922
 30
0
 10
124.807
 20
106.916
 30
0
 10
125.041
 20
106.807
 30
0
  0
SPLINE
  5
A4B
330
A02
100
AcDbEntity
  8
Shape2DView042
100
AcDbSpline
210
0
220
0
230
1
 70
8
 71
3
 72
17
 73
13
 74
0
 40
0.262087
 40
0.262087
 40
0.262087
 40
0.262087
 40
0.340665
 40
0.340665
 40
0.340665
 40
0.419243
 40
0.419243
 40
0.419243
 40
0.497822
 40
0.497822
 40
0.497822
 40
0.5764
 40
0.5764
 40
0.5764
 40
0.5764
 10
125.165
 20
1.12941
 30
0
 10
125.991
 20
8.2804
 30
0
 10
125.863
 20
15.3479
 30
0
 10
124.905
 20
22.6231
 30
0
 10
123.947
 20
29.8932
 30
0
 10
122.144
 20
37.369
 30
0
 10
119.598
 20
45.1856
 30
0
 10
117.055
 20
53
 30
0
 10
113.767
 20
61.1467
 30
0
 10
109.903
 20
69.7003
 30
0
 10
106.039
 20
78.2541
 30
0
 10
101.601
 20
87.2125
 30
0
 10
96.7958
 20
96.6579
 30
0
  0
SPLINE
  5
A4C
330
A02
100
AcDbEntity
  8
Shape2DView042
100
AcDbSpline
210
0
220
0
230
1
 70
8
 71
1
 72
4
 73
2
 74
0
 40
0.262087
 40
0.262087
 40
0.262196
 40
0.262196
 10
154.965
 20
-2.32361
 30
0
 10
154.97
 20
-2.28292
 30
0
  0
SPLINE
  5
A4D
330
A02
100
AcDbEntity
  8
Shape2DView042
100
AcDbSpline
210
0
220
0
230
1
 70
8
 71
3
 72
17
 73
13
 74
0
 40
0.0109404
 40
0.0109404
 40
0.0109404
 40
0.0109404
 40
0.0737271
 40
0.0737271
 40
0.0737271
 40
0.136514
 40
0.136514
 40
0.136514
 40
0.1993
 40
0.1993
 40
0.1993
 40
0.262087
 40
0.262087
 40
0.262087
 40
0.262087
 10
78.0864
 20
-78.6357
 30
0
 10
86.0799
 20
-70.6448
 30
0
 10
92.8769
 20
-63.048
 30
0
 10
98.5968
 20
-55.8129
 30
0
 10
104.318
 20
-48.5774
 30
0
 10
108.961
 20
-41.706
 30
0
 10
112.673
 20
-35.1545
 30
0
 10
116.386
 20
-28.6013
 30
0
 10
119.171
 20
-22.3713
 30
0
 10
121.199
 20
-16.3691
 30
0
 10
123.226
 20
-10.3646
 30
0
 10
124.501
 20
-4.58564
 30
0
 10
125.165
 20
1.12941
 30
0
  0
SPLINE
  5
A4E
330
A02
100
AcDbEntity
  8
Shape2DView042
100
AcDbSpline
210
0
220
0
230
1
 70
8
 71
3
 72
17
 73
13
 74
0
 40
0
 40
0
 40
0
 40
0
 40
0.0655217
 40
0.0655217
 40
0.0655217
 40
0.131043
 40
0.131043
 40
0.131043
 40
0.196565
 40
0.196565
 40
0.196565
 40
0.262087
 40
0.262087
 40
0.262087
 40
0.262087
 10
94.6454
 20
-104.422
 30
0
 10
104.137
 20
-95.2503
 30
0
 10
112.388
 20
-86.3703
 30
0
 10
119.508
 20
-77.6767
 30
0
 10
126.628
 20
-68.9835
 30
0
 10
132.618
 20
-60.4742
 30
0
 10
137.558
 20
-52.0529
 30
0
 10
142.497
 20
-43.6337
 30
0
 10
146.384
 20
-35.2982
 30
0
 10
149.266
 20
-27.0075
 30
0
 10
152.149
 20
-18.7193
 30
0
 10
154.022
 20
-10.4781
 30
0
 10
154.965
 20
-2.32361
 30
0
  0
ENDSEC
  0
SECTION
  2
OBJECTS
  0
DICTIONARY
  5
F000
330
0
100
AcDbDictionary
  3
ACAD_GROUP
350
F001
  0
DICTIONARY
  5
F001
330
F000
100
AcDbDictionary
  0
ENDSEC
  0
EOF