999
FreeCAD v0.21 33668 +26 (Git)
  0
SECTION
  2
HEADER
  9
$ACADVER
  1
AC1014
  9
$ACADMAINTVER
 70
     9
  9
$DWGCODEPAGE
  3
ANSI_1252
  9
$TEXTSTYLE
  7
STANDARD
  9
$DIMSTYLE
  2
STANDARD
  9
$DIMTXSTY
  7
STANDARD
  9
$CMLSTYLE
  2
STANDARD
  9
$LUNITS
 70
2
  9
$INSUNITS
 70
4
  9
$PEXTMAX
 10
50
 20
50
 30
50
  9
$PEXTMIN
 10
0
 20
0
 30
0
  9
$HANDSEED
  5
FFFF
  0
ENDSEC
  0
SECTION
  2
CLASSES
  0
CLASS
  1
ACDBDICTIONARYWDFLT
  2
AcDbDictionaryWithDefault
  3
ObjectDBX Classes
 90
        0
280
     0
281
     0
  0
CLASS
  1
XRECORD
  2
AcDbXrecord
  3
ObjectDBX Classes
 90
        0
280
     0
281
     0
  0
CLASS
  1
LWPOLYLINE
  2
AcDbPolyline
  3
ObjectDBX Classes
 90
        0
280
     0
281
     1
  0
ENDSEC
  0
SECTION
  2
TABLES
  0
TABLE
  2
VPORT
  5
20
330
0
100
AcDbSymbolTable
 70
     1
  0
VPORT
  5
21
330
20
100
AcDbSymbolTableRecord
100
AcDbViewportTableRecord
  2
*ACTIVE
 70
     0
  0
ENDTAB
  0
TABLE
  2
LTYPE
  5
22
330
0
100
AcDbSymbolTable
 70
     1
  0
LTYPE
  5
23
330
21
100
AcDbSymbolTableRecord
100
AcDbLinetypeTableRecord
  2
BYBLOCK
 70
     0
  3

 72
    65
 73
     0
 40
0.0
  0
LTYPE
  5
24
330
21
100
AcDbSymbolTableRecord
100
AcDbLinetypeTableRecord
  2
BYLAYER
 70
     0
  3

 72
    65
 73
     0
 40
0.0
  0
LTYPE
  5
25
330
21
100
AcDbSymbolTableRecord
100
AcDbLinetypeTableRecord
  2
CONTINUOUS
 70
     0
  3
Solid line
 72
    65
 73
     0
 40
0.0
  0
ENDTAB
  0
TABLE
  2
LAYER
  5
A54
330
0
100
AcDbSymbolTable
 70
3
  0
LAYER
  5
A55
330
A54
100
AcDbSymbolTableRecord
100
AcDbLayerTableRecord
  2
0
 70
   0
 62
   7
  6
CONTINUOUS
  0
LAYER
  5
A56
330
A54
100
AcDbSymbolTableRecord
100
AcDbLayerTableRecord
  2
none
 70
    0
 62
    7
  6
CONTINUOUS
  0
LAYER
  5
A57
330
A54
100
AcDbSymbolTableRecord
100
AcDbLayerTableRecord
  2
Shape2DView013
 70
    0
 62
    7
  6
CONTINUOUS
  0
ENDTAB
  0
TABLE
  2
STYLE
  5
70
330
0
100
AcDbSymbolTable
 70
     2
  0
STYLE
  5
71
330
70
100
AcDbSymbolTableRecord
100
AcDbTextStyleTableRecord
  2
STANDARD
 70
     0
 40
0.0
 41
1.0
 50
0.0
 71
     0
 42
2.5
  3
arial.ttf
  4

  0
STYLE
  5
72
330
70
100
AcDbSymbolTableRecord
100
AcDbTextStyleTableRecord
  2
ANNOTATIVE
 70
     0
 40
0.0
 41
1.0
 50
0.0
 71
     0
 42
2.5
  3
arial.ttf
  4

  0
ENDTAB
  0
TABLE
  2
VIEW
  5
73
330
0
100
AcDbSymbolTable
 70
     0
  0
ENDTAB
  0
TABLE
  2
UCS
  5
74
330
0
100
AcDbSymbolTable
 70
     0
  0
ENDTAB
  0
TABLE
  2
APPID
  5
75
330
0
100
AcDbSymbolTable
 70
     2
  0
APPID
  5
76
330
75
100
AcDbSymbolTableRecord
100
AcDbRegAppTableRecord
  2
ACAD
 70
     0
  0
APPID
  5
77
330
75
100
AcDbSymbolTableRecord
100
AcDbRegAppTableRecord
  2
ACADANNOTATIVE
 70
     0
  0
ENDTAB
  0
TABLE
  2
DIMSTYLE
  5
78
330
0
100
AcDbSymbolTable
 70
     2
  0
DIMSTYLE
105
79
330
78
100
AcDbSymbolTableRecord
100
AcDbDimStyleTableRecord
  2
STANDARD
 70
     0
  3

  4

  5

  6

  7

 40
0.0
 41
2.5
 42
0.625
 43
3.75
 44
1.25
 45
0.0
 46
0.0
 47
0.0
 48
0.0
140
2.5
141
2.5
142
0.0
143
0.03937007874016
144
1.0
145
0.0
146
1.0
147
0.625
 71
     0
 72
     0
 73
     0
 74
     0
 75
     0
 76
     0
 77
     1
 78
     8
170
     0
171
     3
172
     1
173
     0
174
     0
175
     0
176
     0
177
     0
178
     0
270
     2
271
     2
272
     2
273
     2
274
     3
340
71
275
     0
280
     0
281
     0
282
     0
283
     0
284
     8
285
     0
286
     0
287
     3
288
     0
  0
ENDTAB
  0
TABLE
  2
BLOCK_RECORD
  5
A01
330
0
100
AcDbSymbolTable
  70
5
  0
BLOCK_RECORD
  5
A02
330
A01
100
AcDbSymbolTableRecord
100
AcDbBlockTableRecord
  2
*MODEL_SPACE
  0
BLOCK_RECORD
  5
A03
330
A01
100
AcDbSymbolTableRecord
100
AcDbBlockTableRecord
  2
*PAPER_SPACE
  0
ENDTAB
  0
ENDSEC
  0
SECTION
  2
BLOCKS
  0
BLOCK
  5
A04
330
A02
100
AcDbEntity
  8
0
100
AcDbBlockBegin
  2
*MODEL_SPACE
 70
   0
 10
0
 20
0
 30
0
  3
*MODEL_SPACE
  1
 
  0
ENDBLK
  5
A05
330
A02
100
AcDbEntity
  8
0
100
AcDbBlockEnd
  0
BLOCK
  5
A06
330
A03
100
AcDbEntity
 67
1
  8
0
100
AcDbBlockBegin
  2
*PAPER_SPACE
 70
   0
 10
0
 20
0
 30
0
  3
*PAPER_SPACE
  1
 
  0
ENDBLK
  5
A07
330
A03
100
AcDbEntity
 67
    1
  8
0
100
AcDbBlockEnd
  0
ENDSEC
  0
SECTION
  2
ENTITIES
  0
SPLINE
  5
A08
330
A02
100
AcDbEntity
  8
Shape2DView013
100
AcDbSpline
210
0
220
0
230
1
 70
8
 71
3
 72
8
 73
4
 74
0
 40
0.337515
 40
0.337515
 40
0.337515
 40
0.337515
 40
0.5104
 40
0.5104
 40
0.5104
 40
0.5104
 10
-817.766
 20
4.45569
 30
0
 10
-825.476
 20
2.09501
 30
0
 10
-833.18
 20
-0.309091
 30
0
 10
-840.881
 20
-2.73003
 30
0
  0
SPLINE
  5
A09
330
A02
100
AcDbEntity
  8
Shape2DView013
100
AcDbSpline
210
0
220
0
230
1
 70
8
 71
3
 72
14
 73
10
 74
0
 40
0
 40
0
 40
0
 40
0
 40
0.186266
 40
0.186266
 40
0.186266
 40
0.578608
 40
0.578608
 40
0.578608
 40
1
 40
1
 40
1
 40
1
 10
-840.881
 20
-2.73003
 30
0
 10
-841.136
 20
-2.81111
 30
0
 10
-841.406
 20
-2.85353
 30
0
 10
-841.69
 20
-2.85727
 30
0
 10
-842.283
 20
-2.8653
 30
0
 10
-842.902
 20
-2.67432
 30
0
 10
-843.415
 20
-2.33133
 30
0
 10
-843.97
 20
-1.96562
 30
0
 10
-844.402
 20
-1.43462
 30
0
 10
-844.661
 20
-0.87129
 30
0
  0
SPLINE
  5
A0A
330
A02
100
AcDbEntity
  8
Shape2DView013
100
AcDbSpline
210
0
220
0
230
1
 70
8
 71
3
 72
8
 73
4
 74
0
 40
0.609832
 40
0.609832
 40
0.609832
 40
0.609832
 40
0.723401
 40
0.723401
 40
0.723401
 40
0.723401
 10
-867.166
 20
44.495
 30
0
 10
-859.829
 20
30.2185
 30
0
 10
-852.134
 20
15.2383
 30
0
 10
-844.661
 20
-0.87129
 30
0
  0
SPLINE
  5
A0B
330
A02
100
AcDbEntity
  8
Shape2DView013
100
AcDbSpline
210
0
220
0
230
1
 70
8
 71
3
 72
17
 73
13
 74
0
 40
0.262087
 40
0.262087
 40
0.262087
 40
0.262087
 40
0.349023
 40
0.349023
 40
0.349023
 40
0.435959
 40
0.435959
 40
0.435959
 40
0.522896
 40
0.522896
 40
0.522896
 40
0.609832
 40
0.609832
 40
0.609832
 40
0.609832
 10
-904.967
 20
169.517
 30
0
 10
-906.224
 20
158.695
 30
0
 10
-905.839
 20
148.051
 30
0
 10
-904.217
 20
137.635
 30
0
 10
-902.595
 20
127.211
 30
0
 10
-899.757
 20
117.009
 30
0
 10
-896.119
 20
106.855
 30
0
 10
-892.478
 20
96.6981
 30
0
 10
-888.035
 20
86.5776
 30
0
 10
-883.113
 20
76.2593
 30
0
 10
-878.189
 20
65.9416
 30
0
 10
-872.782
 20
55.4246
 30
0
 10
-867.166
 20
44.495
 30
0
  0
SPLINE
  5
A0C
330
A02
100
AcDbEntity
  8
Shape2DView013
100
AcDbSpline
210
0
220
0
230
1
 70
8
 71
3
 72
17
 73
13
 74
0
 40
0
 40
0
 40
0
 40
0
 40
0.0655217
 40
0.0655217
 40
0.0655217
 40
0.131043
 40
0.131043
 40
0.131043
 40
0.196565
 40
0.196565
 40
0.196565
 40
0.262087
 40
0.262087
 40
0.262087
 40
0.262087
 10
-844.647
 20
271.616
 30
0
 10
-854.139
 20
262.444
 30
0
 10
-862.389
 20
253.564
 30
0
 10
-869.51
 20
244.87
 30
0
 10
-876.629
 20
236.177
 30
0
 10
-882.62
 20
227.668
 30
0
 10
-887.56
 20
219.247
 30
0
 10
-892.499
 20
210.827
 30
0
 10
-896.386
 20
202.492
 30
0
 10
-899.268
 20
194.201
 30
0
 10
-902.151
 20
185.913
 30
0
 10
-904.024
 20
177.672
 30
0
 10
-904.967
 20
169.517
 30
0
  0
ELLIPSE
  5
A0D
330
A02
100
AcDbEntity
  8
Shape2DView013
100
AcDbEllipse
 10
-834.224
 20
260.829
 30
0
 11
7.05493e-07
 21
15
 31
0
 40
1
 41
4.70329e-08
 42
0.768271
  0
LINE
  5
A0E
330
A02
100
AcDbEntity
  8
Shape2DView013
100
AcDbLine
 10
-824.869
 20
275.829
 30
0
 11
-834.224
 21
275.829
 31
0
  0
ELLIPSE
  5
A0F
330
A02
100
AcDbEntity
  8
Shape2DView013
100
AcDbEllipse
 10
-824.869
 20
260.829
 30
0
 11
6.98081e-07
 21
15
 31
0
 40
1
 41
6.17343
 42
4.59865e-08
  0
LINE
  5
A10
330
A02
100
AcDbEntity
  8
Shape2DView013
100
AcDbLine
 10
-820.26
 20
275.412
 30
0
 11
-823.226
 21
275.739
 31
0
  0
ELLIPSE
  5
A11
330
A02
100
AcDbEntity
  8
Shape2DView013
100
AcDbEllipse
 10
-821.903
 20
260.503
 30
0
 11
6.89048e-07
 21
15
 31
0
 40
1
 41
5.92647
 42
6.17343
  0
LINE
  5
A12
330
A02
100
AcDbEntity
  8
Shape2DView013
100
AcDbLine
 10
-814.119
 20
273.61
 30
0
 11
-816.665
 21
274.558
 31
0
  0
ELLIPSE
  5
A13
330
A02
100
AcDbEntity
  8
Shape2DView013
100
AcDbEllipse
 10
-819.357
 20
259.554
 30
0
 11
7.24646e-07
 21
15
 31
0
 40
1
 41
5.69995
 42
5.92647
  0
LINE
  5
A14
330
A02
100
AcDbEntity
  8
Shape2DView013
100
AcDbLine
 10
-809.445
 20
270.985
 30
0
 11
-811.096
 21
272.074
 31
0
  0
ELLIPSE
  5
A15
330
A02
100
AcDbEntity
  8
Shape2DView013
100
AcDbEllipse
 10
-817.706
 20
258.464
 30
0
 11
7.14341e-07
 21
15
 31
0
 40
1
 41
5.51737
 42
5.69995
  0
LINE
  5
A16
330
A02
100
AcDbEntity
  8
Shape2DView013
100
AcDbLine
 10
-805.861
 20
267.885
 30
0
 11
-807.309
 21
269.277
 31
0
  0
ELLIPSE
  5
A17
330
A02
100
AcDbEntity
  8
Shape2DView013
100
AcDbEllipse
 10
-816.258
 20
257.072
 30
0
 11
6.36611e-07
 21
15
 31
0
 40
1
 41
5.28695
 42
5.51737
  0
LINE
  5
A18
330
A02
100
AcDbEntity
  8
Shape2DView013
100
AcDbLine
 10
-801.329
 20
261.613
 30
0
 11
-803.667
 21
265.224
 31
0
  0
ELLIPSE
  5
A19
330
A02
100
AcDbEntity
  8
Shape2DView013
100
AcDbEllipse
 10
-813.92
 20
253.461
 30
0
 11
6.28018e-07
 21
15
 31
0
 40
1
 41
5.06496
 42
5.28695
  0
LINE
  5
A1A
330
A02
100
AcDbEntity
  8
Shape2DView013
100
AcDbLine
 10
-798.157
 20
254.06
 30
0
 11
-799.843
 21
258.641
 31
0
  0
ELLIPSE
  5
A1B
330
A02
100
AcDbEntity
  8
Shape2DView013
100
AcDbEllipse
 10
-812.235
 20
248.881
 30
0
 11
7.00846e-07
 21
15
 31
0
 40
1
 41
4.92113
 42
5.06496
  0
LINE
  5
A1C
330
A02
100
AcDbEntity
  8
Shape2DView013
100
AcDbLine
 10
-796.418
 20
246.598
 30
0
 11
-797.56
 21
251.989
 31
0
  0
ELLIPSE
  5
A1D
330
A02
100
AcDbEntity
  8
Shape2DView013
100
AcDbEllipse
 10
-811.093
 20
243.49
 30
0
 11
6.97065e-07
 21
15
 31
0
 40
1
 41
4.8289
 42
4.92113
  0
LINE
  5
A1E
330
A02
100
AcDbEntity
  8
Shape2DView013
100
AcDbLine
 10
-795.487
 20
239.192
 30
0
 11
-796.195
 21
245.233
 31
0
  0
ELLIPSE
  5
A1F
330
A02
100
AcDbEntity
  8
Shape2DView013
100
AcDbEllipse
 10
-810.386
 20
237.448
 30
0
 11
7.03503e-07
 21
15
 31
0
 40
1
 41
4.77064
 42
4.8289
  0
LINE
  5
A20
330
A02
100
AcDbEntity
  8
Shape2DView013
100
AcDbLine
 10
-795.03
 20
231.79
 30
0
 11
-795.411
 21
238.322
 31
0
  0
ELLIPSE
  5
A21
330
A02
100
AcDbEntity
  8
Shape2DView013
100
AcDbEllipse
 10
-810.005
 20
230.917
 30
0
 11
7.11154e-07
 21
15
 31
0
 40
1
 41
4.7281
 42
4.77064
  0
LINE
  5
A22
330
A02
100
AcDbEntity
  8
Shape2DView013
100
AcDbLine
 10
-794.788
 20
217.257
 30
0
 11
-795.007
 21
231.152
 31
0
  0
LINE
  5
A23
330
A02
100
AcDbEntity
  8
Shape2DView013
100
AcDbLine
 10
-794.569
 20
203.485
 30
0
 11
-794.788
 21
217.257
 31
0
  0
LINE
  5
A24
330
A02
100
AcDbEntity
  8
Shape2DView013
100
AcDbLine
 10
-794.221
 20
197.596
 30
0
 11
-794.569
 21
203.485
 31
0
  0
LINE
  5
A25
330
A02
100
AcDbEntity
  8
Shape2DView013
100
AcDbLine
 10
-793.624
 20
192.558
 30
0
 11
-794.221
 21
197.596
 31
0
  0
LINE
  5
A26
330
A02
100
AcDbEntity
  8
Shape2DView013
100
AcDbLine
 10
-792.815
 20
188.778
 30
0
 11
-793.624
 21
192.558
 31
0
  0
LINE
  5
A27
330
A02
100
AcDbEntity
  8
Shape2DView013
100
AcDbLine
 10
-792.187
 20
187.084
 30
0
 11
-792.815
 21
188.778
 31
0
  0
ELLIPSE
  5
A28
330
A02
100
AcDbEntity
  8
Shape2DView013
100
AcDbEllipse
 10
-794.002
 20
172.194
 30
0
 11
6.96801e-07
 21
15
 31
0
 40
1
 41
4.84612
 42
6.16189
  0
LINE
  5
A29
330
A02
100
AcDbEntity
  8
Shape2DView013
100
AcDbLine
 10
-779.136
 20
174.194
 30
0
 11
-787.025
 21
174.194
 31
0
  0
LINE
  5
A2A
330
A02
100
AcDbEntity
  8
Shape2DView013
100
AcDbLine
 10
-787.025
 20
174.194
 30
0
 11
-787.025
 21
170.194
 31
0
  0
LINE
  5
A2B
330
A02
100
AcDbEntity
  8
Shape2DView013
100
AcDbLine
 10
-787.025
 20
170.194
 30
0
 11
-779.136
 21
170.194
 31
0
  0
ELLIPSE
  5
A2C
330
A02
100
AcDbEntity
  8
Shape2DView013
100
AcDbEllipse
 10
-794.002
 20
172.194
 30
0
 11
6.96801e-07
 21
15
 31
0
 40
1
 41
3.03088
 42
4.57866
  0
LINE
  5
A2D
330
A02
100
AcDbEntity
  8
Shape2DView013
100
AcDbLine
 10
-795.659
 20
157.286
 30
0
 11
-798.832
 21
157.638
 31
0
  0
ELLIPSE
  5
A2E
330
A02
100
AcDbEntity
  8
Shape2DView013
100
AcDbEllipse
 10
-797.175
 20
172.546
 30
0
 11
7.1574e-07
 21
15
 31
0
 40
1
 41
2.78115
 42
3.03088
  0
LINE
  5
A2F
330
A02
100
AcDbEntity
  8
Shape2DView013
100
AcDbLine
 10
-802.465
 20
158.51
 30
0
 11
-805.178
 21
159.533
 31
0
  0
ELLIPSE
  5
A30
330
A02
100
AcDbEntity
  8
Shape2DView013
100
AcDbEllipse
 10
-799.888
 20
173.569
 30
0
 11
7.81227e-07
 21
15
 31
0
 40
1
 41
2.55449
 42
2.78115
  0
LINE
  5
A31
330
A02
100
AcDbEntity
  8
Shape2DView013
100
AcDbLine
 10
-808.197
 20
161.081
 30
0
 11
-809.905
 21
162.218
 31
0
  0
ELLIPSE
  5
A32
330
A02
100
AcDbEntity
  8
Shape2DView013
100
AcDbEllipse
 10
-801.596
 20
174.706
 30
0
 11
1.05413e-06
 21
15
 31
0
 40
1
 41
2.37452
 42
2.55449
  0
LINE
  5
A33
330
A02
100
AcDbEntity
  8
Shape2DView013
100
AcDbLine
 10
-812.007
 20
163.907
 30
0
 11
-813.504
 21
165.35
 31
0
  0
ELLIPSE
  5
A34
330
A02
100
AcDbEntity
  8
Shape2DView013
100
AcDbEllipse
 10
-803.094
 20
176.15
 30
0
 11
6.52384e-07
 21
15
 31
0
 40
1
 41
2.14662
 42
2.37452
  0
LINE
  5
A35
330
A02
100
AcDbEntity
  8
Shape2DView013
100
AcDbLine
 10
-815.675
 20
167.982
 30
0
 11
-818.094
 21
171.707
 31
0
  0
ELLIPSE
  5
A36
330
A02
100
AcDbEntity
  8
Shape2DView013
100
AcDbEllipse
 10
-805.512
 20
179.875
 30
0
 11
6.67205e-07
 21
15
 31
0
 40
1
 41
1.92568
 42
2.14662
  0
LINE
  5
A37
330
A02
100
AcDbEntity
  8
Shape2DView013
100
AcDbLine
 10
-819.578
 20
174.663
 30
0
 11
-821.321
 21
179.368
 31
0
  0
ELLIPSE
  5
A38
330
A02
100
AcDbEntity
  8
Shape2DView013
100
AcDbEllipse
 10
-807.256
 20
184.58
 30
0
 11
7.21867e-07
 21
15
 31
0
 40
1
 41
1.7816
 42
1.92568
  0
LINE
  5
A39
330
A02
100
AcDbEntity
  8
Shape2DView013
100
AcDbLine
 10
-821.924
 20
181.442
 30
0
 11
-823.105
 21
186.962
 31
0
  0
ELLIPSE
  5
A3A
330
A02
100
AcDbEntity
  8
Shape2DView013
100
AcDbEllipse
 10
-808.437
 20
190.1
 30
0
 11
6.9823e-07
 21
15
 31
0
 40
1
 41
1.68876
 42
1.7816
  0
LINE
  5
A3B
330
A02
100
AcDbEntity
  8
Shape2DView013
100
AcDbLine
 10
-823.333
 20
188.335
 30
0
 11
-824.064
 21
194.504
 31
0
  0
ELLIPSE
  5
A3C
330
A02
100
AcDbEntity
  8
Shape2DView013
100
AcDbEllipse
 10
-809.168
 20
196.269
 30
0
 11
7.01632e-07
 21
15
 31
0
 40
1
 41
1.62988
 42
1.68876
  0
LINE
  5
A3D
330
A02
100
AcDbEntity
  8
Shape2DView013
100
AcDbLine
 10
-824.142
 20
195.384
 30
0
 11
-824.536
 21
202.037
 31
0
  0
ELLIPSE
  5
A3E
330
A02
100
AcDbEntity
  8
Shape2DView013
100
AcDbEllipse
 10
-809.562
 20
202.922
 30
0
 11
7.08054e-07
 21
15
 31
0
 40
1
 41
1.58672
 42
1.62988
  0
LINE
  5
A3F
330
A02
100
AcDbEntity
  8
Shape2DView013
100
AcDbLine
 10
-824.56
 20
202.684
 30
0
 11
-824.785
 21
216.781
 31
0
  0
ELLIPSE
  5
A40
330
A02
100
AcDbEntity
  8
Shape2DView013
100
AcDbEllipse
 10
-809.786
 20
217.02
 30
0
 11
7.11154e-07
 21
15
 31
0
 40
1
 41
1.58651
 42
1.58672
  0
LINE
  5
A41
330
A02
100
AcDbEntity
  8
Shape2DView013
100
AcDbLine
 10
-824.785
 20
216.784
 30
0
 11
-824.998
 21
230.362
 31
0
  0
LINE
  5
A42
330
A02
100
AcDbEntity
  8
Shape2DView013
100
AcDbLine
 10
-824.998
 20
230.362
 30
0
 11
-825.335
 21
236.139
 31
0
  0
LINE
  5
A43
330
A02
100
AcDbEntity
  8
Shape2DView013
100
AcDbLine
 10
-825.335
 20
236.139
 30
0
 11
-825.911
 21
241.058
 31
0
  0
LINE
  5
A44
330
A02
100
AcDbEntity
  8
Shape2DView013
100
AcDbLine
 10
-825.911
 20
241.058
 30
0
 11
-826.685
 21
244.715
 31
0
  0
LINE
  5
A45
330
A02
100
AcDbEntity
  8
Shape2DView013
100
AcDbLine
 10
-826.685
 20
244.715
 30
0
 11
-827.095
 21
245.829
 31
0
  0
LINE
  5
A46
330
A02
100
AcDbEntity
  8
Shape2DView013
100
AcDbLine
 10
-827.095
 20
245.829
 30
0
 11
-828.088
 21
245.829
 31
0
  0
SPLINE
  5
A47
330
A02
100
AcDbEntity
  8
Shape2DView013
100
AcDbSpline
210
0
220
0
230
1
 70
8
 71
3
 72
17
 73
13
 74
0
 40
0.0109404
 40
0.0109404
 40
0.0109404
 40
0.0109404
 40
0.0737271
 40
0.0737271
 40
0.0737271
 40
0.136514
 40
0.136514
 40
0.136514
 40
0.1993
 40
0.1993
 40
0.1993
 40
0.262087
 40
0.262087
 40
0.262087
 40
0.262087
 10
-828.088
 20
245.829
 30
0
 10
-836.082
 20
237.839
 30
0
 10
-842.879
 20
230.242
 30
0
 10
-848.599
 20
223.007
 30
0
 10
-854.32
 20
215.771
 30
0
 10
-858.962
 20
208.9
 30
0
 10
-862.675
 20
202.348
 30
0
 10
-866.388
 20
195.795
 30
0
 10
-869.173
 20
189.565
 30
0
 10
-871.201
 20
183.563
 30
0
 10
-873.228
 20
177.558
 30
0
 10
-874.503
 20
171.779
 30
0
 10
-875.167
 20
166.064
 30
0
  0
SPLINE
  5
A48
330
A02
100
AcDbEntity
  8
Shape2DView013
100
AcDbSpline
210
0
220
0
230
1
 70
8
 71
3
 72
17
 73
13
 74
0
 40
0.262087
 40
0.262087
 40
0.262087
 40
0.262087
 40
0.349023
 40
0.349023
 40
0.349023
 40
0.435959
 40
0.435959
 40
0.435959
 40
0.522896
 40
0.522896
 40
0.522896
 40
0.609832
 40
0.609832
 40
0.609832
 40
0.609832
 10
-875.167
 20
166.064
 30
0
 10
-876.08
 20
158.154
 30
0
 10
-875.829
 20
150.341
 30
0
 10
-874.573
 20
142.243
 30
0
 10
-873.316
 20
134.153
 30
0
 10
-871.035
 20
125.783
 30
0
 10
-867.877
 20
116.975
 30
0
 10
-864.723
 20
108.17
 30
0
 10
-860.695
 20
98.9373
 30
0
 10
-856.037
 20
89.1787
 30
0
 10
-851.381
 20
79.4195
 30
0
 10
-846.1
 20
69.1357
 30
0
 10
-840.483
 20
58.2071
 30
0
  0
SPLINE
  5
A49
330
A02
100
AcDbEntity
  8
Shape2DView013
100
AcDbSpline
210
0
220
0
230
1
 70
8
 71
3
 72
8
 73
4
 74
0
 40
0.609832
 40
0.609832
 40
0.609832
 40
0.609832
 40
0.729521
 40
0.729521
 40
0.729521
 40
0.729521
 10
-840.483
 20
58.2071
 30
0
 10
-832.751
 20
43.1597
 30
0
 10
-824.386
 20
26.8904
 30
0
 10
-816.188
 20
9.02647
 30
0
  0
SPLINE
  5
A4A
330
A02
100
AcDbEntity
  8
Shape2DView013
100
AcDbSpline
210
0
220
0
230
1
 70
8
 71
3
 72
14
 73
10
 74
0
 40
0
 40
0
 40
0
 40
0
 40
0.206593
 40
0.206593
 40
0.206593
 40
0.528241
 40
0.528241
 40
0.528241
 40
1
 40
1
 40
1
 40
1
 10
-817.766
 20
4.45569
 30
0
 10
-817.438
 20
4.5553
 30
0
 10
-817.114
 20
4.72908
 30
0
 10
-816.833
 20
4.97388
 30
0
 10
-816.392
 20
5.35302
 30
0
 10
-816.072
 20
5.90201
 30
0
 10
-815.926
 20
6.4907
 30
0
 10
-815.706
 20
7.35778
 30
0
 10
-815.845
 20
8.28569
 30
0
 10
-816.188
 20
9.02647
 30
0
  0
SPLINE
  5
A4B
330
A02
100
AcDbEntity
  8
Shape2DView013
100
AcDbSpline
210
0
220
0
230
1
 70
8
 71
2
 72
6
 73
3
 74
0
 40
2.10518
 40
2.10518
 40
2.10518
 40
6.68815
 40
6.68815
 40
6.68815
 10
-816.188
 20
9.02647
 30
0
 10
-816.696
 20
10.1331
 30
0
 10
-817.18
 20
11.1774
 30
0
  0
SPLINE
  5
A4C
330
A02
100
AcDbEntity
  8
Shape2DView013
100
AcDbSpline
210
0
220
0
230
1
 70
8
 71
1
 72
4
 73
2
 74
0
 40
0.999928
 40
0.999928
 40
1
 40
1
 10
-817.18
 20
11.1771
 30
0
 10
-817.18
 20
11.1774
 30
0
  0
SPLINE
  5
A4D
330
A02
100
AcDbEntity
  8
Shape2DView013
100
AcDbSpline
210
0
220
0
230
1
 70
8
 71
1
 72
4
 73
2
 74
0
 40
1.18514
 40
1.18514
 40
1.81591
 40
1.81591
 10
-844.661
 20
-0.87129
 30
0
 10
-844.771
 20
-0.633077
 30
0
  0
SPLINE
  5
A4E
330
A02
100
AcDbEntity
  8
Shape2DView013
100
AcDbSpline
210
0
220
0
230
1
 70
8
 71
3
 72
8
 73
4
 74
0
 40
0.609832
 40
0.609832
 40
0.609832
 40
0.609832
 40
0.7247
 40
0.7247
 40
0.7247
 40
0.7247
 10
-840.483
 20
58.2071
 30
0
 10
-833.063
 20
43.7659
 30
0
 10
-825.059
 20
28.1989
 30
0
 10
-817.18
 20
11.1774
 30
0
  0
SPLINE
  5
A4F
330
A02
100
AcDbEntity
  8
Shape2DView013
100
AcDbSpline
210
0
220
0
230
1
 70
8
 71
2
 72
6
 73
3
 74
0
 40
0.609832
 40
0.609832
 40
0.609832
 40
0.632546
 40
0.632546
 40
0.632546
 10
-867.166
 20
44.495
 30
0
 10
-864.964
 20
40.2128
 30
0
 10
-862.725
 20
35.8412
 30
0
  0
SPLINE
  5
A50
330
A02
100
AcDbEntity
  8
Shape2DView013
100
AcDbSpline
210
0
220
0
230
1
 70
8
 71
1
 72
4
 73
2
 74
0
 40
0.718854
 40
0.718854
 40
0.719617
 40
0.719617
 10
-845.56
 20
1.05824
 30
0
 10
-845.409
 20
0.735128
 30
0
  0
SPLINE
  5
A51
330
A02
100
AcDbEntity
  8
Shape2DView013
100
AcDbSpline
210
0
220
0
230
1
 70
8
 71
3
 72
17
 73
13
 74
0
 40
0.262087
 40
0.262087
 40
0.262087
 40
0.262087
 40
0.349023
 40
0.349023
 40
0.349023
 40
0.435959
 40
0.435959
 40
0.435959
 40
0.522896
 40
0.522896
 40
0.522896
 40
0.609832
 40
0.609832
 40
0.609832
 40
0.609832
 10
-875.167
 20
166.064
 30
0
 10
-876.08
 20
158.154
 30
0
 10
-875.829
 20
150.341
 30
0
 10
-874.573
 20
142.243
 30
0
 10
-873.316
 20
134.153
 30
0
 10
-871.035
 20
125.783
 30
0
 10
-867.877
 20
116.975
 30
0
 10
-864.723
 20
108.17
 30
0
 10
-860.695
 20
98.9373
 30
0
 10
-856.037
 20
89.1787
 30
0
 10
-851.381
 20
79.4195
 30
0
 10
-846.1
 20
69.1357
 30
0
 10
-840.483
 20
58.2071
 30
0
  0
SPLINE
  5
A52
330
A02
100
AcDbEntity
  8
Shape2DView013
100
AcDbSpline
210
0
220
0
230
1
 70
8
 71
3
 72
17
 73
13
 74
0
 40
0.0109404
 40
0.0109404
 40
0.0109404
 40
0.0109404
 40
0.0737271
 40
0.0737271
 40
0.0737271
 40
0.136514
 40
0.136514
 40
0.136514
 40
0.1993
 40
0.1993
 40
0.1993
 40
0.262087
 40
0.262087
 40
0.262087
 40
0.262087
 10
-828.088
 20
245.829
 30
0
 10
-836.082
 20
237.839
 30
0
 10
-842.879
 20
230.242
 30
0
 10
-848.599
 20
223.007
 30
0
 10
-854.32
 20
215.771
 30
0
 10
-858.962
 20
208.9
 30
0
 10
-862.675
 20
202.348
 30
0
 10
-866.388
 20
195.795
 30
0
 10
-869.173
 20
189.565
 30
0
 10
-871.201
 20
183.563
 30
0
 10
-873.228
 20
177.558
 30
0
 10
-874.503
 20
171.779
 30
0
 10
-875.167
 20
166.064
 30
0
  0
SPLINE
  5
A53
330
A02
100
AcDbEntity
  8
Shape2DView013
100
AcDbSpline
210
0
220
0
230
1
 70
8
 71
3
 72
17
 73
13
 74
0
 40
0
 40
0
 40
0
 40
0
 40
0.0655217
 40
0.0655217
 40
0.0655217
 40
0.131043
 40
0.131043
 40
0.131043
 40
0.196565
 40
0.196565
 40
0.196565
 40
0.262087
 40
0.262087
 40
0.262087
 40
0.262087
 10
-844.647
 20
271.616
 30
0
 10
-854.139
 20
262.444
 30
0
 10
-862.389
 20
253.564
 30
0
 10
-869.51
 20
244.87
 30
0
 10
-876.629
 20
236.177
 30
0
 10
-882.62
 20
227.668
 30
0
 10
-887.56
 20
219.247
 30
0
 10
-892.499
 20
210.827
 30
0
 10
-896.386
 20
202.492
 30
0
 10
-899.268
 20
194.201
 30
0
 10
-902.151
 20
185.913
 30
0
 10
-904.024
 20
177.672
 30
0
 10
-904.967
 20
169.517
 30
0
  0
ENDSEC
  0
SECTION
  2
OBJECTS
  0
DICTIONARY
  5
F000
330
0
100
AcDbDictionary
  3
ACAD_GROUP
350
F001
  0
DICTIONARY
  5
F001
330
F000
100
AcDbDictionary
  0
ENDSEC
  0
EOF