999
FreeCAD v0.20 29410 (Git)
  0
SECTION
  2
HEADER
  9
$ACADVER
  1
AC1014
  9
$ACADMAINTVER
 70
     9
  9
$DWGCODEPAGE
  3
ANSI_1252
  9
$TEXTSTYLE
  7
STANDARD
  9
$DIMSTYLE
  2
STANDARD
  9
$DIMTXSTY
  7
STANDARD
  9
$CMLSTYLE
  2
STANDARD
  9
$LUNITS
 70
2
  9
$INSUNITS
 70
4
  9
$PEXTMAX
 10
50
 20
50
 30
50
  9
$PEXTMIN
 10
0
 20
0
 30
0
  9
$HANDSEED
  5
FFFF
  0
ENDSEC
  0
SECTION
  2
CLASSES
  0
CLASS
  1
ACDBDICTIONARYWDFLT
  2
AcDbDictionaryWithDefault
  3
ObjectDBX Classes
 90
        0
280
     0
281
     0
  0
CLASS
  1
XRECORD
  2
AcDbXrecord
  3
ObjectDBX Classes
 90
        0
280
     0
281
     0
  0
CLASS
  1
LWPOLYLINE
  2
AcDbPolyline
  3
ObjectDBX Classes
 90
        0
280
     0
281
     1
  0
ENDSEC
  0
SECTION
  2
TABLES
  0
TABLE
  2
VPORT
  5
20
330
0
100
AcDbSymbolTable
 70
     1
  0
VPORT
  5
21
330
20
100
AcDbSymbolTableRecord
100
AcDbViewportTableRecord
  2
*ACTIVE
 70
     0
  0
ENDTAB
  0
TABLE
  2
LTYPE
  5
22
330
0
100
AcDbSymbolTable
 70
     1
  0
LTYPE
  5
23
330
21
100
AcDbSymbolTableRecord
100
AcDbLinetypeTableRecord
  2
BYBLOCK
 70
     0
  3

 72
    65
 73
     0
 40
0.0
  0
LTYPE
  5
24
330
21
100
AcDbSymbolTableRecord
100
AcDbLinetypeTableRecord
  2
BYLAYER
 70
     0
  3

 72
    65
 73
     0
 40
0.0
  0
LTYPE
  5
25
330
21
100
AcDbSymbolTableRecord
100
AcDbLinetypeTableRecord
  2
CONTINUOUS
 70
     0
  3
Solid line
 72
    65
 73
     0
 40
0.0
  0
ENDTAB
  0
TABLE
  2
LAYER
  5
A49
330
0
100
AcDbSymbolTable
 70
3
  0
LAYER
  5
A4A
330
A49
100
AcDbSymbolTableRecord
100
AcDbLayerTableRecord
  2
0
 70
   0
 62
   7
  6
CONTINUOUS
  0
LAYER
  5
A4B
330
A49
100
AcDbSymbolTableRecord
100
AcDbLayerTableRecord
  2
none
 70
    0
 62
    7
  6
CONTINUOUS
  0
LAYER
  5
A4C
330
A49
100
AcDbSymbolTableRecord
100
AcDbLayerTableRecord
  2
Shape2DView
 70
    0
 62
    7
  6
CONTINUOUS
  0
ENDTAB
  0
TABLE
  2
STYLE
  5
70
330
0
100
AcDbSymbolTable
 70
     2
  0
STYLE
  5
71
330
70
100
AcDbSymbolTableRecord
100
AcDbTextStyleTableRecord
  2
STANDARD
 70
     0
 40
0.0
 41
1.0
 50
0.0
 71
     0
 42
2.5
  3
arial.ttf
  4

  0
STYLE
  5
72
330
70
100
AcDbSymbolTableRecord
100
AcDbTextStyleTableRecord
  2
ANNOTATIVE
 70
     0
 40
0.0
 41
1.0
 50
0.0
 71
     0
 42
2.5
  3
arial.ttf
  4

  0
ENDTAB
  0
TABLE
  2
VIEW
  5
73
330
0
100
AcDbSymbolTable
 70
     0
  0
ENDTAB
  0
TABLE
  2
UCS
  5
74
330
0
100
AcDbSymbolTable
 70
     0
  0
ENDTAB
  0
TABLE
  2
APPID
  5
75
330
0
100
AcDbSymbolTable
 70
     2
  0
APPID
  5
76
330
75
100
AcDbSymbolTableRecord
100
AcDbRegAppTableRecord
  2
ACAD
 70
     0
  0
APPID
  5
77
330
75
100
AcDbSymbolTableRecord
100
AcDbRegAppTableRecord
  2
ACADANNOTATIVE
 70
     0
  0
ENDTAB
  0
TABLE
  2
DIMSTYLE
  5
78
330
0
100
AcDbSymbolTable
 70
     2
  0
DIMSTYLE
105
79
330
78
100
AcDbSymbolTableRecord
100
AcDbDimStyleTableRecord
  2
STANDARD
 70
     0
  3

  4

  5

  6

  7

 40
0.0
 41
2.5
 42
0.625
 43
3.75
 44
1.25
 45
0.0
 46
0.0
 47
0.0
 48
0.0
140
2.5
141
2.5
142
0.0
143
0.03937007874016
144
1.0
145
0.0
146
1.0
147
0.625
 71
     0
 72
     0
 73
     0
 74
     0
 75
     0
 76
     0
 77
     1
 78
     8
170
     0
171
     3
172
     1
173
     0
174
     0
175
     0
176
     0
177
     0
178
     0
270
     2
271
     2
272
     2
273
     2
274
     3
340
71
275
     0
280
     0
281
     0
282
     0
283
     0
284
     8
285
     0
286
     0
287
     3
288
     0
  0
ENDTAB
  0
TABLE
  2
BLOCK_RECORD
  5
A01
330
0
100
AcDbSymbolTable
  70
5
  0
BLOCK_RECORD
  5
A02
330
A01
100
AcDbSymbolTableRecord
100
AcDbBlockTableRecord
  2
*MODEL_SPACE
  0
BLOCK_RECORD
  5
A03
330
A01
100
AcDbSymbolTableRecord
100
AcDbBlockTableRecord
  2
*PAPER_SPACE
  0
ENDTAB
  0
ENDSEC
  0
SECTION
  2
BLOCKS
  0
BLOCK
  5
A04
330
A02
100
AcDbEntity
  8
0
100
AcDbBlockBegin
  2
*MODEL_SPACE
 70
   0
 10
0
 20
0
 30
0
  3
*MODEL_SPACE
  1
 
  0
ENDBLK
  5
A05
330
A02
100
AcDbEntity
  8
0
100
AcDbBlockEnd
  0
BLOCK
  5
A06
330
A03
100
AcDbEntity
 67
1
  8
0
100
AcDbBlockBegin
  2
*PAPER_SPACE
 70
   0
 10
0
 20
0
 30
0
  3
*PAPER_SPACE
  1
 
  0
ENDBLK
  5
A07
330
A03
100
AcDbEntity
 67
    1
  8
0
100
AcDbBlockEnd
  0
ENDSEC
  0
SECTION
  2
ENTITIES
  0
LINE
  5
A08
330
A02
100
AcDbEntity
  8
Shape2DView
100
AcDbLine
 10
-56.3635
 20
116.697
 30
0
 11
-65.0568
 21
143.351
 31
0
  0
SPLINE
  5
A09
330
A02
100
AcDbEntity
  8
Shape2DView
100
AcDbSpline
210
0
220
0
230
1
 70
8
 71
3
 72
11
 73
7
 74
0
 40
0
 40
0
 40
0
 40
0
 40
0.500002
 40
0.500002
 40
0.500002
 40
1
 40
1
 40
1
 40
1
 10
-65.0568
 20
143.351
 30
0
 10
-65.1318
 20
143.572
 30
0
 10
-65.1248
 20
143.854
 30
0
 10
-65.0081
 20
144.092
 30
0
 10
-64.8952
 20
144.333
 30
0
 10
-64.6805
 20
144.515
 30
0
 10
-64.4609
 20
144.596
 30
0
  0
SPLINE
  5
A0A
330
A02
100
AcDbEntity
  8
Shape2DView
100
AcDbSpline
210
0
220
0
230
1
 70
8
 71
3
 72
14
 73
10
 74
0
 40
0.262087
 40
0.262087
 40
0.262087
 40
0.262087
 40
0.308496
 40
0.308496
 40
0.308496
 40
0.354905
 40
0.354905
 40
0.354905
 40
0.447724
 40
0.447724
 40
0.447724
 40
0.447724
 10
2.32361
 20
154.965
 30
0
 10
-3.45193
 20
155.635
 30
0
 10
-9.18104
 20
155.84
 30
0
 10
-14.8488
 20
155.636
 30
0
 10
-20.5172
 20
155.433
 30
0
 10
-26.1236
 20
154.821
 30
0
 10
-31.6716
 20
153.869
 30
0
 10
-42.7715
 20
151.963
 30
0
 10
-53.6254
 20
148.706
 30
0
 10
-64.4609
 20
144.596
 30
0
  0
SPLINE
  5
A0B
330
A02
100
AcDbEntity
  8
Shape2DView
100
AcDbSpline
210
0
220
0
230
1
 70
8
 71
3
 72
17
 73
13
 74
0
 40
0
 40
0
 40
0
 40
0
 40
0.0655217
 40
0.0655217
 40
0.0655217
 40
0.131043
 40
0.131043
 40
0.131043
 40
0.196565
 40
0.196565
 40
0.196565
 40
0.262087
 40
0.262087
 40
0.262087
 40
0.262087
 10
104.422
 20
94.6454
 30
0
 10
95.2503
 20
104.137
 30
0
 10
86.3703
 20
112.388
 30
0
 10
77.6767
 20
119.508
 30
0
 10
68.9835
 20
126.628
 30
0
 10
60.4742
 20
132.618
 30
0
 10
52.0529
 20
137.558
 30
0
 10
43.6337
 20
142.497
 30
0
 10
35.2982
 20
146.384
 30
0
 10
27.0075
 20
149.266
 30
0
 10
18.7193
 20
152.149
 30
0
 10
10.4781
 20
154.022
 30
0
 10
2.32361
 20
154.965
 30
0
  0
ARC
  5
A0C
330
A02
100
AcDbEntity
  8
Shape2DView
100
AcDbCircle
 10
93.6357
 20
84.222
 30
0
 40
15
100
AcDbArc
 50
0
 51
44.0187
  0
LINE
  5
A0D
330
A02
100
AcDbEntity
  8
Shape2DView
100
AcDbLine
 10
108.636
 20
74.8668
 30
0
 11
108.636
 21
84.222
 31
0
  0
ARC
  5
A0E
330
A02
100
AcDbEntity
  8
Shape2DView
100
AcDbCircle
 10
93.6357
 20
74.8668
 30
0
 40
15
100
AcDbArc
 50
-6.28824
 51
0
  0
LINE
  5
A0F
330
A02
100
AcDbEntity
  8
Shape2DView
100
AcDbLine
 10
108.219
 20
70.258
 30
0
 11
108.545
 21
73.2238
 31
0
  0
ARC
  5
A10
330
A02
100
AcDbEntity
  8
Shape2DView
100
AcDbCircle
 10
93.3089
 20
71.901
 30
0
 40
15
100
AcDbArc
 50
-20.4385
 51
-6.28824
  0
LINE
  5
A11
330
A02
100
AcDbEntity
  8
Shape2DView
100
AcDbLine
 10
106.416
 20
64.117
 30
0
 11
107.365
 21
66.6629
 31
0
  0
ARC
  5
A12
330
A02
100
AcDbEntity
  8
Shape2DView
100
AcDbCircle
 10
92.3601
 20
69.3551
 30
0
 40
15
100
AcDbArc
 50
-33.4168
 51
-20.4385
  0
LINE
  5
A13
330
A02
100
AcDbEntity
  8
Shape2DView
100
AcDbLine
 10
103.791
 20
59.4428
 30
0
 11
104.88
 21
61.0942
 31
0
  0
ARC
  5
A14
330
A02
100
AcDbEntity
  8
Shape2DView
100
AcDbCircle
 10
91.2705
 20
67.7037
 30
0
 40
15
100
AcDbArc
 50
-43.8783
 51
-33.4168
  0
LINE
  5
A15
330
A02
100
AcDbEntity
  8
Shape2DView
100
AcDbLine
 10
100.691
 20
55.8593
 30
0
 11
102.083
 21
57.3068
 31
0
  0
ARC
  5
A16
330
A02
100
AcDbEntity
  8
Shape2DView
100
AcDbCircle
 10
89.8786
 20
66.2562
 30
0
 40
15
100
AcDbArc
 50
-57.0803
 51
-43.8783
  0
LINE
  5
A17
330
A02
100
AcDbEntity
  8
Shape2DView
100
AcDbLine
 10
94.4196
 20
51.3269
 30
0
 11
98.0306
 21
53.6647
 31
0
  0
ARC
  5
A18
330
A02
100
AcDbEntity
  8
Shape2DView
100
AcDbCircle
 10
86.2676
 20
63.9184
 30
0
 40
15
100
AcDbArc
 50
-69.7989
 51
-57.0803
  0
LINE
  5
A19
330
A02
100
AcDbEntity
  8
Shape2DView
100
AcDbLine
 10
86.8665
 20
48.1555
 30
0
 11
91.4474
 21
49.8411
 31
0
  0
ARC
  5
A1A
330
A02
100
AcDbEntity
  8
Shape2DView
100
AcDbCircle
 10
81.6868
 20
62.2328
 30
0
 40
15
100
AcDbArc
 50
-78.0402
 51
-69.7989
  0
LINE
  5
A1B
330
A02
100
AcDbEntity
  8
Shape2DView
100
AcDbLine
 10
79.4043
 20
46.4165
 30
0
 11
84.7952
 21
47.5584
 31
0
  0
ARC
  5
A1C
330
A02
100
AcDbEntity
  8
Shape2DView
100
AcDbCircle
 10
76.2959
 20
61.0909
 30
0
 40
15
100
AcDbArc
 50
-83.3246
 51
-78.0402
  0
LINE
  5
A1D
330
A02
100
AcDbEntity
  8
Shape2DView
100
AcDbLine
 10
71.9983
 20
45.4856
 30
0
 11
78.0396
 21
46.1926
 31
0
  0
ARC
  5
A1E
330
A02
100
AcDbEntity
  8
Shape2DView
100
AcDbCircle
 10
70.2546
 20
60.3839
 30
0
 40
15
100
AcDbArc
 50
-86.6624
 51
-83.3246
  0
LINE
  5
A1F
330
A02
100
AcDbEntity
  8
Shape2DView
100
AcDbLine
 10
64.596
 20
45.0284
 30
0
 11
71.1279
 21
45.4093
 31
0
  0
ARC
  5
A20
330
A02
100
AcDbEntity
  8
Shape2DView
100
AcDbCircle
 10
63.7227
 20
60.0029
 30
0
 40
15
100
AcDbArc
 50
-89.0997
 51
-86.6624
  0
LINE
  5
A21
330
A02
100
AcDbEntity
  8
Shape2DView
100
AcDbLine
 10
50.0632
 20
44.7864
 30
0
 11
63.9584
 21
45.0048
 31
0
  0
LINE
  5
A22
330
A02
100
AcDbEntity
  8
Shape2DView
100
AcDbLine
 10
36.2913
 20
44.5671
 30
0
 11
50.0632
 21
44.7864
 31
0
  0
LINE
  5
A23
330
A02
100
AcDbEntity
  8
Shape2DView
100
AcDbLine
 10
30.4024
 20
44.2188
 30
0
 11
36.2913
 21
44.5671
 31
0
  0
LINE
  5
A24
330
A02
100
AcDbEntity
  8
Shape2DView
100
AcDbLine
 10
25.3639
 20
43.6216
 30
0
 11
30.4024
 21
44.2188
 31
0
  0
LINE
  5
A25
330
A02
100
AcDbEntity
  8
Shape2DView
100
AcDbLine
 10
21.584
 20
42.8128
 30
0
 11
25.3639
 21
43.6216
 31
0
  0
LINE
  5
A26
330
A02
100
AcDbEntity
  8
Shape2DView
100
AcDbLine
 10
19.8898
 20
42.185
 30
0
 11
21.584
 21
42.8128
 31
0
  0
ARC
  5
A27
330
A02
100
AcDbEntity
  8
Shape2DView
100
AcDbCircle
 10
5
 20
44
 30
0
 40
15
100
AcDbArc
 50
-84.2608
 51
-6.94991
  0
LINE
  5
A28
330
A02
100
AcDbEntity
  8
Shape2DView
100
AcDbLine
 10
6.5
 20
37.0231
 30
0
 11
6.5
 21
29.0752
 31
0
  0
LINE
  5
A29
330
A02
100
AcDbEntity
  8
Shape2DView
100
AcDbLine
 10
3.5
 20
37.0231
 30
0
 11
6.5
 21
37.0231
 31
0
  0
LINE
  5
A2A
330
A02
100
AcDbEntity
  8
Shape2DView
100
AcDbLine
 10
3.5
 20
29.0752
 30
0
 11
3.5
 21
37.0231
 31
0
  0
ARC
  5
A2B
330
A02
100
AcDbEntity
  8
Shape2DView
100
AcDbCircle
 10
5
 20
44
 30
0
 40
15
100
AcDbArc
 50
173.657
 51
-95.7392
  0
LINE
  5
A2C
330
A02
100
AcDbEntity
  8
Shape2DView
100
AcDbLine
 10
-9.90817
 20
45.6573
 30
0
 11
-9.55547
 21
48.83
 31
0
  0
ARC
  5
A2D
330
A02
100
AcDbEntity
  8
Shape2DView
100
AcDbCircle
 10
5.35269
 20
47.1727
 30
0
 40
15
100
AcDbArc
 50
159.348
 51
173.657
  0
LINE
  5
A2E
330
A02
100
AcDbEntity
  8
Shape2DView
100
AcDbLine
 10
-8.68341
 20
52.4631
 30
0
 11
-7.66088
 21
55.176
 31
0
  0
ARC
  5
A2F
330
A02
100
AcDbEntity
  8
Shape2DView
100
AcDbCircle
 10
6.37522
 20
49.8856
 30
0
 40
15
100
AcDbArc
 50
146.361
 51
159.348
  0
LINE
  5
A30
330
A02
100
AcDbEntity
  8
Shape2DView
100
AcDbLine
 10
-6.11299
 20
58.1949
 30
0
 11
-4.97614
 21
59.9035
 31
0
  0
ARC
  5
A31
330
A02
100
AcDbEntity
  8
Shape2DView
100
AcDbCircle
 10
7.51207
 20
51.5942
 30
0
 40
15
100
AcDbArc
 50
136.05
 51
146.361
  0
LINE
  5
A32
330
A02
100
AcDbEntity
  8
Shape2DView
100
AcDbLine
 10
-3.28706
 20
62.0047
 30
0
 11
-1.84331
 21
63.5024
 31
0
  0
ARC
  5
A33
330
A02
100
AcDbEntity
  8
Shape2DView
100
AcDbCircle
 10
8.95582
 20
53.0918
 30
0
 40
15
100
AcDbArc
 50
122.992
 51
136.05
  0
LINE
  5
A34
330
A02
100
AcDbEntity
  8
Shape2DView
100
AcDbLine
 10
0.787934
 20
65.673
 30
0
 11
4.51353
 21
68.0917
 31
0
  0
ARC
  5
A35
330
A02
100
AcDbEntity
  8
Shape2DView
100
AcDbCircle
 10
12.6814
 20
55.5106
 30
0
 40
15
100
AcDbArc
 50
110.333
 51
122.992
  0
LINE
  5
A36
330
A02
100
AcDbEntity
  8
Shape2DView
100
AcDbLine
 10
7.46915
 20
69.5758
 30
0
 11
12.1745
 21
71.3195
 31
0
  0
ARC
  5
A37
330
A02
100
AcDbEntity
  8
Shape2DView
100
AcDbCircle
 10
17.3867
 20
57.2542
 30
0
 40
15
100
AcDbArc
 50
102.078
 51
110.333
  0
LINE
  5
A38
330
A02
100
AcDbEntity
  8
Shape2DView
100
AcDbLine
 10
14.2481
 20
71.9222
 30
0
 11
19.7679
 21
73.1033
 31
0
  0
ARC
  5
A39
330
A02
100
AcDbEntity
  8
Shape2DView
100
AcDbCircle
 10
22.9066
 20
58.4354
 30
0
 40
15
100
AcDbArc
 50
96.7587
 51
102.078
  0
LINE
  5
A3A
330
A02
100
AcDbEntity
  8
Shape2DView
100
AcDbLine
 10
21.1412
 20
73.3311
 30
0
 11
27.3103
 21
74.0623
 31
0
  0
ARC
  5
A3B
330
A02
100
AcDbEntity
  8
Shape2DView
100
AcDbCircle
 10
29.0757
 20
59.1665
 30
0
 40
15
100
AcDbArc
 50
93.3854
 51
96.7587
  0
LINE
  5
A3C
330
A02
100
AcDbEntity
  8
Shape2DView
100
AcDbLine
 10
28.1899
 20
74.1403
 30
0
 11
34.843
 21
74.5339
 31
0
  0
ARC
  5
A3D
330
A02
100
AcDbEntity
  8
Shape2DView
100
AcDbCircle
 10
35.7287
 20
59.5601
 30
0
 40
15
100
AcDbArc
 50
90.9123
 51
93.3854
  0
LINE
  5
A3E
330
A02
100
AcDbEntity
  8
Shape2DView
100
AcDbLine
 10
35.4899
 20
74.5582
 30
0
 11
49.5871
 21
74.7826
 31
0
  0
ARC
  5
A3F
330
A02
100
AcDbEntity
  8
Shape2DView
100
AcDbCircle
 10
49.8259
 20
59.7845
 30
0
 40
15
100
AcDbArc
 50
90.9003
 51
90.9123
  0
LINE
  5
A40
330
A02
100
AcDbEntity
  8
Shape2DView
100
AcDbLine
 10
49.5902
 20
74.7827
 30
0
 11
63.168
 21
74.9961
 31
0
  0
LINE
  5
A41
330
A02
100
AcDbEntity
  8
Shape2DView
100
AcDbLine
 10
63.168
 20
74.9961
 30
0
 11
68.9451
 21
75.333
 31
0
  0
LINE
  5
A42
330
A02
100
AcDbEntity
  8
Shape2DView
100
AcDbLine
 10
68.9451
 20
75.333
 30
0
 11
73.8647
 21
75.9088
 31
0
  0
LINE
  5
A43
330
A02
100
AcDbEntity
  8
Shape2DView
100
AcDbLine
 10
73.8647
 20
75.9088
 30
0
 11
77.5212
 21
76.6833
 31
0
  0
LINE
  5
A44
330
A02
100
AcDbEntity
  8
Shape2DView
100
AcDbLine
 10
77.5212
 20
76.6833
 30
0
 11
78.6357
 21
77.0934
 31
0
  0
LINE
  5
A45
330
A02
100
AcDbEntity
  8
Shape2DView
100
AcDbLine
 10
78.6357
 20
77.0934
 30
0
 11
78.6357
 21
78.0864
 31
0
  0
SPLINE
  5
A46
330
A02
100
AcDbEntity
  8
Shape2DView
100
AcDbSpline
210
0
220
0
230
1
 70
8
 71
3
 72
17
 73
13
 74
0
 40
0.0109404
 40
0.0109404
 40
0.0109404
 40
0.0109404
 40
0.0737271
 40
0.0737271
 40
0.0737271
 40
0.136514
 40
0.136514
 40
0.136514
 40
0.1993
 40
0.1993
 40
0.1993
 40
0.262087
 40
0.262087
 40
0.262087
 40
0.262087
 10
78.6357
 20
78.0864
 30
0
 10
70.6448
 20
86.0799
 30
0
 10
63.048
 20
92.8769
 30
0
 10
55.8129
 20
98.5968
 30
0
 10
48.5774
 20
104.318
 30
0
 10
41.706
 20
108.961
 30
0
 10
35.1545
 20
112.673
 30
0
 10
28.6013
 20
116.386
 30
0
 10
22.3713
 20
119.171
 30
0
 10
16.3691
 20
121.199
 30
0
 10
10.3646
 20
123.226
 30
0
 10
4.58564
 20
124.501
 30
0
 10
-1.12941
 20
125.165
 30
0
  0
SPLINE
  5
A47
330
A02
100
AcDbEntity
  8
Shape2DView
100
AcDbSpline
210
0
220
0
230
1
 70
8
 71
3
 72
14
 73
10
 74
0
 40
0.262087
 40
0.262087
 40
0.262087
 40
0.262087
 40
0.309497
 40
0.309497
 40
0.309497
 40
0.356907
 40
0.356907
 40
0.356907
 40
0.451727
 40
0.451727
 40
0.451727
 40
0.451727
 10
-1.12941
 20
125.165
 30
0
 10
-5.44509
 20
125.664
 30
0
 10
-9.72722
 20
125.814
 30
0
 10
-14.0456
 20
125.646
 30
0
 10
-18.3632
 20
125.477
 30
0
 10
-22.7178
 20
124.99
 30
0
 10
-27.159
 20
124.204
 30
0
 10
-36.037
 20
122.634
 30
0
 10
-45.2733
 20
119.854
 30
0
 10
-55.0524
 20
116.074
 30
0
  0
SPLINE
  5
A48
330
A02
100
AcDbEntity
  8
Shape2DView
100
AcDbSpline
210
0
220
0
230
1
 70
8
 71
3
 72
11
 73
7
 74
0
 40
0
 40
0
 40
0
 40
0
 40
0.5
 40
0.5
 40
0.5
 40
1
 40
1
 40
1
 40
1
 10
-56.3635
 20
116.697
 30
0
 10
-56.29
 20
116.461
 30
0
 10
-56.1005
 20
116.224
 30
0
 10
-55.8418
 20
116.104
 30
0
 10
-55.5853
 20
115.979
 30
0
 10
-55.2816
 20
115.982
 30
0
 10
-55.0524
 20
116.074
 30
0
  0
ENDSEC
  0
SECTION
  2
OBJECTS
  0
DICTIONARY
  5
F000
330
0
100
AcDbDictionary
  3
ACAD_GROUP
350
F001
  0
DICTIONARY
  5
F001
330
F000
100
AcDbDictionary
  0
ENDSEC
  0
EOF