999
FreeCAD v0.21 33668 +26 (Git)
  0
SECTION
  2
HEADER
  9
$ACADVER
  1
AC1014
  9
$ACADMAINTVER
 70
     9
  9
$DWGCODEPAGE
  3
ANSI_1252
  9
$TEXTSTYLE
  7
STANDARD
  9
$DIMSTYLE
  2
STANDARD
  9
$DIMTXSTY
  7
STANDARD
  9
$CMLSTYLE
  2
STANDARD
  9
$LUNITS
 70
2
  9
$INSUNITS
 70
4
  9
$PEXTMAX
 10
50
 20
50
 30
50
  9
$PEXTMIN
 10
0
 20
0
 30
0
  9
$HANDSEED
  5
FFFF
  0
ENDSEC
  0
SECTION
  2
CLASSES
  0
CLASS
  1
ACDBDICTIONARYWDFLT
  2
AcDbDictionaryWithDefault
  3
ObjectDBX Classes
 90
        0
280
     0
281
     0
  0
CLASS
  1
XRECORD
  2
AcDbXrecord
  3
ObjectDBX Classes
 90
        0
280
     0
281
     0
  0
CLASS
  1
LWPOLYLINE
  2
AcDbPolyline
  3
ObjectDBX Classes
 90
        0
280
     0
281
     1
  0
ENDSEC
  0
SECTION
  2
TABLES
  0
TABLE
  2
VPORT
  5
20
330
0
100
AcDbSymbolTable
 70
     1
  0
VPORT
  5
21
330
20
100
AcDbSymbolTableRecord
100
AcDbViewportTableRecord
  2
*ACTIVE
 70
     0
  0
ENDTAB
  0
TABLE
  2
LTYPE
  5
22
330
0
100
AcDbSymbolTable
 70
     1
  0
LTYPE
  5
23
330
21
100
AcDbSymbolTableRecord
100
AcDbLinetypeTableRecord
  2
BYBLOCK
 70
     0
  3

 72
    65
 73
     0
 40
0.0
  0
LTYPE
  5
24
330
21
100
AcDbSymbolTableRecord
100
AcDbLinetypeTableRecord
  2
BYLAYER
 70
     0
  3

 72
    65
 73
     0
 40
0.0
  0
LTYPE
  5
25
330
21
100
AcDbSymbolTableRecord
100
AcDbLinetypeTableRecord
  2
CONTINUOUS
 70
     0
  3
Solid line
 72
    65
 73
     0
 40
0.0
  0
ENDTAB
  0
TABLE
  2
LAYER
  5
A57
330
0
100
AcDbSymbolTable
 70
3
  0
LAYER
  5
A58
330
A57
100
AcDbSymbolTableRecord
100
AcDbLayerTableRecord
  2
0
 70
   0
 62
   7
  6
CONTINUOUS
  0
LAYER
  5
A59
330
A57
100
AcDbSymbolTableRecord
100
AcDbLayerTableRecord
  2
none
 70
    0
 62
    7
  6
CONTINUOUS
  0
LAYER
  5
A5A
330
A57
100
AcDbSymbolTableRecord
100
AcDbLayerTableRecord
  2
Shape2DView002
 70
    0
 62
    7
  6
CONTINUOUS
  0
ENDTAB
  0
TABLE
  2
STYLE
  5
70
330
0
100
AcDbSymbolTable
 70
     2
  0
STYLE
  5
71
330
70
100
AcDbSymbolTableRecord
100
AcDbTextStyleTableRecord
  2
STANDARD
 70
     0
 40
0.0
 41
1.0
 50
0.0
 71
     0
 42
2.5
  3
arial.ttf
  4

  0
STYLE
  5
72
330
70
100
AcDbSymbolTableRecord
100
AcDbTextStyleTableRecord
  2
ANNOTATIVE
 70
     0
 40
0.0
 41
1.0
 50
0.0
 71
     0
 42
2.5
  3
arial.ttf
  4

  0
ENDTAB
  0
TABLE
  2
VIEW
  5
73
330
0
100
AcDbSymbolTable
 70
     0
  0
ENDTAB
  0
TABLE
  2
UCS
  5
74
330
0
100
AcDbSymbolTable
 70
     0
  0
ENDTAB
  0
TABLE
  2
APPID
  5
75
330
0
100
AcDbSymbolTable
 70
     2
  0
APPID
  5
76
330
75
100
AcDbSymbolTableRecord
100
AcDbRegAppTableRecord
  2
ACAD
 70
     0
  0
APPID
  5
77
330
75
100
AcDbSymbolTableRecord
100
AcDbRegAppTableRecord
  2
ACADANNOTATIVE
 70
     0
  0
ENDTAB
  0
TABLE
  2
DIMSTYLE
  5
78
330
0
100
AcDbSymbolTable
 70
     2
  0
DIMSTYLE
105
79
330
78
100
AcDbSymbolTableRecord
100
AcDbDimStyleTableRecord
  2
STANDARD
 70
     0
  3

  4

  5

  6

  7

 40
0.0
 41
2.5
 42
0.625
 43
3.75
 44
1.25
 45
0.0
 46
0.0
 47
0.0
 48
0.0
140
2.5
141
2.5
142
0.0
143
0.03937007874016
144
1.0
145
0.0
146
1.0
147
0.625
 71
     0
 72
     0
 73
     0
 74
     0
 75
     0
 76
     0
 77
     1
 78
     8
170
     0
171
     3
172
     1
173
     0
174
     0
175
     0
176
     0
177
     0
178
     0
270
     2
271
     2
272
     2
273
     2
274
     3
340
71
275
     0
280
     0
281
     0
282
     0
283
     0
284
     8
285
     0
286
     0
287
     3
288
     0
  0
ENDTAB
  0
TABLE
  2
BLOCK_RECORD
  5
A01
330
0
100
AcDbSymbolTable
  70
5
  0
BLOCK_RECORD
  5
A02
330
A01
100
AcDbSymbolTableRecord
100
AcDbBlockTableRecord
  2
*MODEL_SPACE
  0
BLOCK_RECORD
  5
A03
330
A01
100
AcDbSymbolTableRecord
100
AcDbBlockTableRecord
  2
*PAPER_SPACE
  0
ENDTAB
  0
ENDSEC
  0
SECTION
  2
BLOCKS
  0
BLOCK
  5
A04
330
A02
100
AcDbEntity
  8
0
100
AcDbBlockBegin
  2
*MODEL_SPACE
 70
   0
 10
0
 20
0
 30
0
  3
*MODEL_SPACE
  1
 
  0
ENDBLK
  5
A05
330
A02
100
AcDbEntity
  8
0
100
AcDbBlockEnd
  0
BLOCK
  5
A06
330
A03
100
AcDbEntity
 67
1
  8
0
100
AcDbBlockBegin
  2
*PAPER_SPACE
 70
   0
 10
0
 20
0
 30
0
  3
*PAPER_SPACE
  1
 
  0
ENDBLK
  5
A07
330
A03
100
AcDbEntity
 67
    1
  8
0
100
AcDbBlockEnd
  0
ENDSEC
  0
SECTION
  2
ENTITIES
  0
SPLINE
  5
A08
330
A02
100
AcDbEntity
  8
Shape2DView002
100
AcDbSpline
210
0
220
0
230
1
 70
8
 71
3
 72
8
 73
4
 74
0
 40
0.920362
 40
0.920362
 40
0.920362
 40
0.920362
 40
0.95496
 40
0.95496
 40
0.95496
 40
0.95496
 10
-180.595
 20
-224.436
 30
0
 10
-179.076
 20
-230.915
 30
0
 10
-177.67
 20
-237.568
 30
0
 10
-176.394
 20
-244.404
 30
0
  0
SPLINE
  5
A09
330
A02
100
AcDbEntity
  8
Shape2DView002
100
AcDbSpline
210
0
220
0
230
1
 70
8
 71
2
 72
6
 73
3
 74
0
 40
0.920362
 40
0.920362
 40
0.920362
 40
0.927512
 40
0.927512
 40
0.927512
 10
-180.595
 20
-224.436
 30
0
 10
-180.124
 20
-226.444
 30
0
 10
-179.668
 20
-228.475
 30
0
  0
SPLINE
  5
A0A
330
A02
100
AcDbEntity
  8
Shape2DView002
100
AcDbSpline
210
0
220
0
230
1
 70
8
 71
2
 72
6
 73
3
 74
0
 40
0.940224
 40
0.940224
 40
0.940224
 40
0.949932
 40
0.949932
 40
0.949932
 10
-178.094
 20
-235.768
 30
0
 10
-177.511
 20
-238.58
 30
0
 10
-176.959
 20
-241.435
 30
0
  0
SPLINE
  5
A0B
330
A02
100
AcDbEntity
  8
Shape2DView002
100
AcDbSpline
210
0
220
0
230
1
 70
8
 71
1
 72
4
 73
2
 74
0
 40
2.44985
 40
2.44985
 40
2.80651
 40
2.80651
 10
-176.394
 20
-244.404
 30
0
 10
-176.435
 20
-244.186
 30
0
  0
SPLINE
  5
A0C
330
A02
100
AcDbEntity
  8
Shape2DView002
100
AcDbSpline
210
0
220
0
230
1
 70
8
 71
3
 72
14
 73
10
 74
0
 40
0.0531274
 40
0.0531274
 40
0.0531274
 40
0.0531274
 40
0.0751068
 40
0.0751068
 40
0.0751068
 40
0.182246
 40
0.182246
 40
0.182246
 40
0.224751
 40
0.224751
 40
0.224751
 40
0.224751
 10
-149.434
 20
-241.334
 30
0
 10
-150.424
 20
-241.559
 30
0
 10
-151.414
 20
-241.792
 30
0
 10
-152.403
 20
-242.033
 30
0
 10
-157.222
 20
-243.21
 30
0
 10
-162.022
 20
-244.534
 30
0
 10
-166.815
 20
-245.901
 30
0
 10
-168.716
 20
-246.445
 30
0
 10
-170.616
 20
-246.996
 30
0
 10
-172.516
 20
-247.554
 30
0
  0
SPLINE
  5
A0D
330
A02
100
AcDbEntity
  8
Shape2DView002
100
AcDbSpline
210
0
220
0
230
1
 70
8
 71
3
 72
14
 73
10
 74
0
 40
0
 40
0
 40
0
 40
0
 40
0.502929
 40
0.502929
 40
0.502929
 40
0.817736
 40
0.817736
 40
0.817736
 40
1
 40
1
 40
1
 40
1
 10
-176.394
 20
-244.404
 30
0
 10
-176.229
 20
-245.306
 30
0
 10
-175.77
 20
-246.253
 30
0
 10
-175.033
 20
-246.899
 30
0
 10
-174.576
 20
-247.303
 30
0
 10
-174.011
 20
-247.575
 30
0
 10
-173.449
 20
-247.635
 30
0
 10
-173.124
 20
-247.671
 30
0
 10
-172.805
 20
-247.64
 30
0
 10
-172.516
 20
-247.554
 30
0
  0
SPLINE
  5
A0E
330
A02
100
AcDbEntity
  8
Shape2DView002
100
AcDbSpline
210
0
220
0
230
1
 70
8
 71
3
 72
11
 73
7
 74
0
 40
0.609832
 40
0.609832
 40
0.609832
 40
0.609832
 40
0.765097
 40
0.765097
 40
0.765097
 40
0.920362
 40
0.920362
 40
0.920362
 40
0.920362
 10
-237.016
 20
-82.9249
 30
0
 10
-226.984
 20
-102.442
 30
0
 10
-216.287
 20
-123.278
 30
0
 10
-206.396
 20
-146.51
 30
0
 10
-196.506
 20
-169.741
 30
0
 10
-187.414
 20
-195.357
 30
0
 10
-180.595
 20
-224.436
 30
0
  0
SPLINE
  5
A0F
330
A02
100
AcDbEntity
  8
Shape2DView002
100
AcDbSpline
210
0
220
0
230
1
 70
8
 71
3
 72
17
 73
13
 74
0
 40
0.262087
 40
0.262087
 40
0.262087
 40
0.262087
 40
0.349023
 40
0.349023
 40
0.349023
 40
0.435959
 40
0.435959
 40
0.435959
 40
0.522896
 40
0.522896
 40
0.522896
 40
0.609832
 40
0.609832
 40
0.609832
 40
0.609832
 10
-274.817
 20
42.0974
 30
0
 10
-276.074
 20
31.2752
 30
0
 10
-275.689
 20
20.631
 30
0
 10
-274.066
 20
10.2147
 30
0
 10
-272.445
 20
-0.208787
 30
0
 10
-269.607
 20
-10.4109
 30
0
 10
-265.969
 20
-20.5652
 30
0
 10
-262.328
 20
-30.7218
 30
0
 10
-257.885
 20
-40.8424
 30
0
 10
-252.963
 20
-51.1607
 30
0
 10
-248.039
 20
-61.4784
 30
0
 10
-242.632
 20
-71.9954
 30
0
 10
-237.016
 20
-82.9249
 30
0
  0
SPLINE
  5
A10
330
A02
100
AcDbEntity
  8
Shape2DView002
100
AcDbSpline
210
0
220
0
230
1
 70
8
 71
3
 72
17
 73
13
 74
0
 40
0
 40
0
 40
0
 40
0
 40
0.0655217
 40
0.0655217
 40
0.0655217
 40
0.131043
 40
0.131043
 40
0.131043
 40
0.196565
 40
0.196565
 40
0.196565
 40
0.262087
 40
0.262087
 40
0.262087
 40
0.262087
 10
-214.497
 20
144.196
 30
0
 10
-223.988
 20
135.024
 30
0
 10
-232.239
 20
126.144
 30
0
 10
-239.36
 20
117.451
 30
0
 10
-246.479
 20
108.757
 30
0
 10
-252.47
 20
100.248
 30
0
 10
-257.41
 20
91.8268
 30
0
 10
-262.349
 20
83.4075
 30
0
 10
-266.235
 20
75.072
 30
0
 10
-269.118
 20
66.7813
 30
0
 10
-272.001
 20
58.4931
 30
0
 10
-273.874
 20
50.252
 30
0
 10
-274.817
 20
42.0974
 30
0
  0
ELLIPSE
  5
A11
330
A02
100
AcDbEntity
  8
Shape2DView002
100
AcDbEllipse
 10
-204.074
 20
133.409
 30
0
 11
2.97443e-07
 21
15
 31
0
 40
1
 41
1.98296e-08
 42
0.768271
  0
LINE
  5
A12
330
A02
100
AcDbEntity
  8
Shape2DView002
100
AcDbLine
 10
-194.719
 20
148.409
 30
0
 11
-204.074
 21
148.409
 31
0
  0
ELLIPSE
  5
A13
330
A02
100
AcDbEntity
  8
Shape2DView002
100
AcDbEllipse
 10
-194.719
 20
133.409
 30
0
 11
2.95487e-07
 21
15
 31
0
 40
1
 41
6.17343
 42
1.93884e-08
  0
LINE
  5
A14
330
A02
100
AcDbEntity
  8
Shape2DView002
100
AcDbLine
 10
-190.11
 20
147.992
 30
0
 11
-193.076
 21
148.319
 31
0
  0
ELLIPSE
  5
A15
330
A02
100
AcDbEntity
  8
Shape2DView002
100
AcDbEllipse
 10
-191.753
 20
133.083
 30
0
 11
3.12207e-07
 21
15
 31
0
 40
1
 41
5.92647
 42
6.17343
  0
LINE
  5
A16
330
A02
100
AcDbEntity
  8
Shape2DView002
100
AcDbLine
 10
-183.969
 20
146.19
 30
0
 11
-186.515
 21
147.138
 31
0
  0
ELLIPSE
  5
A17
330
A02
100
AcDbEntity
  8
Shape2DView002
100
AcDbEllipse
 10
-189.207
 20
132.134
 30
0
 11
3.20922e-07
 21
15
 31
0
 40
1
 41
5.69995
 42
5.92647
  0
LINE
  5
A18
330
A02
100
AcDbEntity
  8
Shape2DView002
100
AcDbLine
 10
-179.295
 20
143.565
 30
0
 11
-180.946
 21
144.654
 31
0
  0
ELLIPSE
  5
A19
330
A02
100
AcDbEntity
  8
Shape2DView002
100
AcDbEllipse
 10
-187.555
 20
131.044
 30
0
 11
3.74039e-07
 21
15
 31
0
 40
1
 41
5.51737
 42
5.69995
  0
LINE
  5
A1A
330
A02
100
AcDbEntity
  8
Shape2DView002
100
AcDbLine
 10
-175.711
 20
140.465
 30
0
 11
-177.159
 21
141.857
 31
0
  0
ELLIPSE
  5
A1B
330
A02
100
AcDbEntity
  8
Shape2DView002
100
AcDbEllipse
 10
-186.108
 20
129.652
 30
0
 11
3.91482e-07
 21
15
 31
0
 40
1
 41
5.28695
 42
5.51737
  0
LINE
  5
A1C
330
A02
100
AcDbEntity
  8
Shape2DView002
100
AcDbLine
 10
-171.179
 20
134.193
 30
0
 11
-173.516
 21
137.804
 31
0
  0
ELLIPSE
  5
A1D
330
A02
100
AcDbEntity
  8
Shape2DView002
100
AcDbEllipse
 10
-183.77
 20
126.041
 30
0
 11
2.50365e-07
 21
15
 31
0
 40
1
 41
5.06496
 42
5.28695
  0
LINE
  5
A1E
330
A02
100
AcDbEntity
  8
Shape2DView002
100
AcDbLine
 10
-168.007
 20
126.64
 30
0
 11
-169.693
 21
131.221
 31
0
  0
ELLIPSE
  5
A1F
330
A02
100
AcDbEntity
  8
Shape2DView002
100
AcDbEllipse
 10
-182.085
 20
121.461
 30
0
 11
2.77918e-07
 21
15
 31
0
 40
1
 41
4.92113
 42
5.06496
  0
LINE
  5
A20
330
A02
100
AcDbEntity
  8
Shape2DView002
100
AcDbLine
 10
-166.268
 20
119.178
 30
0
 11
-167.41
 21
124.569
 31
0
  0
ELLIPSE
  5
A21
330
A02
100
AcDbEntity
  8
Shape2DView002
100
AcDbEllipse
 10
-180.943
 20
116.07
 30
0
 11
2.94816e-07
 21
15
 31
0
 40
1
 41
4.8289
 42
4.92113
  0
LINE
  5
A22
330
A02
100
AcDbEntity
  8
Shape2DView002
100
AcDbLine
 10
-165.337
 20
111.772
 30
0
 11
-166.044
 21
117.813
 31
0
  0
ELLIPSE
  5
A23
330
A02
100
AcDbEntity
  8
Shape2DView002
100
AcDbEllipse
 10
-180.236
 20
110.028
 30
0
 11
2.91811e-07
 21
15
 31
0
 40
1
 41
4.77064
 42
4.8289
  0
LINE
  5
A24
330
A02
100
AcDbEntity
  8
Shape2DView002
100
AcDbLine
 10
-164.88
 20
104.37
 30
0
 11
-165.261
 21
110.902
 31
0
  0
ELLIPSE
  5
A25
330
A02
100
AcDbEntity
  8
Shape2DView002
100
AcDbEllipse
 10
-179.855
 20
103.497
 30
0
 11
2.96605e-07
 21
15
 31
0
 40
1
 41
4.7281
 42
4.77064
  0
LINE
  5
A26
330
A02
100
AcDbEntity
  8
Shape2DView002
100
AcDbLine
 10
-164.638
 20
89.837
 30
0
 11
-164.857
 21
103.732
 31
0
  0
LINE
  5
A27
330
A02
100
AcDbEntity
  8
Shape2DView002
100
AcDbLine
 10
-164.419
 20
76.0651
 30
0
 11
-164.638
 21
89.837
 31
0
  0
LINE
  5
A28
330
A02
100
AcDbEntity
  8
Shape2DView002
100
AcDbLine
 10
-164.071
 20
70.1762
 30
0
 11
-164.419
 21
76.0651
 31
0
  0
LINE
  5
A29
330
A02
100
AcDbEntity
  8
Shape2DView002
100
AcDbLine
 10
-163.473
 20
65.1377
 30
0
 11
-164.071
 21
70.1762
 31
0
  0
LINE
  5
A2A
330
A02
100
AcDbEntity
  8
Shape2DView002
100
AcDbLine
 10
-162.665
 20
61.3578
 30
0
 11
-163.473
 21
65.1377
 31
0
  0
LINE
  5
A2B
330
A02
100
AcDbEntity
  8
Shape2DView002
100
AcDbLine
 10
-162.037
 20
59.6636
 30
0
 11
-162.665
 21
61.3578
 31
0
  0
ELLIPSE
  5
A2C
330
A02
100
AcDbEntity
  8
Shape2DView002
100
AcDbEllipse
 10
-163.852
 20
44.7738
 30
0
 11
3.06967e-07
 21
15
 31
0
 40
1
 41
4.84612
 42
6.16189
  0
LINE
  5
A2D
330
A02
100
AcDbEntity
  8
Shape2DView002
100
AcDbLine
 10
-148.986
 20
46.7738
 30
0
 11
-156.875
 21
46.7738
 31
0
  0
LINE
  5
A2E
330
A02
100
AcDbEntity
  8
Shape2DView002
100
AcDbLine
 10
-156.875
 20
46.7738
 30
0
 11
-156.875
 21
42.7738
 31
0
  0
LINE
  5
A2F
330
A02
100
AcDbEntity
  8
Shape2DView002
100
AcDbLine
 10
-156.875
 20
42.7738
 30
0
 11
-148.986
 21
42.7738
 31
0
  0
ELLIPSE
  5
A30
330
A02
100
AcDbEntity
  8
Shape2DView002
100
AcDbEllipse
 10
-163.852
 20
44.7738
 30
0
 11
3.06967e-07
 21
15
 31
0
 40
1
 41
3.03088
 42
4.57866
  0
LINE
  5
A31
330
A02
100
AcDbEntity
  8
Shape2DView002
100
AcDbLine
 10
-165.509
 20
29.8656
 30
0
 11
-168.682
 21
30.2183
 31
0
  0
ELLIPSE
  5
A32
330
A02
100
AcDbEntity
  8
Shape2DView002
100
AcDbEllipse
 10
-167.024
 20
45.1265
 30
0
 11
2.89036e-07
 21
15
 31
0
 40
1
 41
2.78115
 42
3.03088
  0
LINE
  5
A33
330
A02
100
AcDbEntity
  8
Shape2DView002
100
AcDbLine
 10
-172.315
 20
31.0904
 30
0
 11
-175.028
 21
32.1129
 31
0
  0
ELLIPSE
  5
A34
330
A02
100
AcDbEntity
  8
Shape2DView002
100
AcDbEllipse
 10
-169.737
 20
46.149
 30
0
 11
2.86407e-07
 21
15
 31
0
 40
1
 41
2.55449
 42
2.78115
  0
LINE
  5
A35
330
A02
100
AcDbEntity
  8
Shape2DView002
100
AcDbLine
 10
-178.047
 20
33.6608
 30
0
 11
-179.755
 21
34.7977
 31
0
  0
ELLIPSE
  5
A36
330
A02
100
AcDbEntity
  8
Shape2DView002
100
AcDbEllipse
 10
-171.446
 20
47.2859
 30
0
 11
2.6389e-07
 21
15
 31
0
 40
1
 41
2.37452
 42
2.55449
  0
LINE
  5
A37
330
A02
100
AcDbEntity
  8
Shape2DView002
100
AcDbLine
 10
-181.856
 20
36.4867
 30
0
 11
-183.354
 21
37.9305
 31
0
  0
ELLIPSE
  5
A38
330
A02
100
AcDbEntity
  8
Shape2DView002
100
AcDbEllipse
 10
-172.944
 20
48.7296
 30
0
 11
3.66821e-07
 21
15
 31
0
 40
1
 41
2.14662
 42
2.37452
  0
LINE
  5
A39
330
A02
100
AcDbEntity
  8
Shape2DView002
100
AcDbLine
 10
-185.525
 20
40.5617
 30
0
 11
-187.943
 21
44.2873
 31
0
  0
ELLIPSE
  5
A3A
330
A02
100
AcDbEntity
  8
Shape2DView002
100
AcDbEllipse
 10
-175.362
 20
52.4552
 30
0
 11
2.82549e-07
 21
15
 31
0
 40
1
 41
1.92568
 42
2.14662
  0
LINE
  5
A3B
330
A02
100
AcDbEntity
  8
Shape2DView002
100
AcDbLine
 10
-189.428
 20
47.243
 30
0
 11
-191.171
 21
51.9483
 31
0
  0
ELLIPSE
  5
A3C
330
A02
100
AcDbEntity
  8
Shape2DView002
100
AcDbEllipse
 10
-177.106
 20
57.1605
 30
0
 11
2.85225e-07
 21
15
 31
0
 40
1
 41
1.7816
 42
1.92568
  0
LINE
  5
A3D
330
A02
100
AcDbEntity
  8
Shape2DView002
100
AcDbLine
 10
-191.774
 20
54.0219
 30
0
 11
-192.955
 21
59.5417
 31
0
  0
ELLIPSE
  5
A3E
330
A02
100
AcDbEntity
  8
Shape2DView002
100
AcDbEllipse
 10
-178.287
 20
62.6804
 30
0
 11
2.96086e-07
 21
15
 31
0
 40
1
 41
1.68876
 42
1.7816
  0
LINE
  5
A3F
330
A02
100
AcDbEntity
  8
Shape2DView002
100
AcDbLine
 10
-193.183
 20
60.9151
 30
0
 11
-193.914
 21
67.0841
 31
0
  0
ELLIPSE
  5
A40
330
A02
100
AcDbEntity
  8
Shape2DView002
100
AcDbEllipse
 10
-179.018
 20
68.8495
 30
0
 11
2.98082e-07
 21
15
 31
0
 40
1
 41
1.62988
 42
1.68876
  0
LINE
  5
A41
330
A02
100
AcDbEntity
  8
Shape2DView002
100
AcDbLine
 10
-193.992
 20
67.9637
 30
0
 11
-194.386
 21
74.6168
 31
0
  0
ELLIPSE
  5
A42
330
A02
100
AcDbEntity
  8
Shape2DView002
100
AcDbEllipse
 10
-179.412
 20
75.5025
 30
0
 11
2.96561e-07
 21
15
 31
0
 40
1
 41
1.58672
 42
1.62988
  0
LINE
  5
A43
330
A02
100
AcDbEntity
  8
Shape2DView002
100
AcDbLine
 10
-194.41
 20
75.2637
 30
0
 11
-194.634
 21
89.3609
 31
0
  0
ELLIPSE
  5
A44
330
A02
100
AcDbEntity
  8
Shape2DView002
100
AcDbEllipse
 10
-179.636
 20
89.5997
 30
0
 11
2.96605e-07
 21
15
 31
0
 40
1
 41
1.58651
 42
1.58672
  0
LINE
  5
A45
330
A02
100
AcDbEntity
  8
Shape2DView002
100
AcDbLine
 10
-194.634
 20
89.364
 30
0
 11
-194.848
 21
102.942
 31
0
  0
LINE
  5
A46
330
A02
100
AcDbEntity
  8
Shape2DView002
100
AcDbLine
 10
-194.848
 20
102.942
 30
0
 11
-195.185
 21
108.719
 31
0
  0
LINE
  5
A47
330
A02
100
AcDbEntity
  8
Shape2DView002
100
AcDbLine
 10
-195.185
 20
108.719
 30
0
 11
-195.761
 21
113.639
 31
0
  0
LINE
  5
A48
330
A02
100
AcDbEntity
  8
Shape2DView002
100
AcDbLine
 10
-195.761
 20
113.639
 30
0
 11
-196.535
 21
117.295
 31
0
  0
LINE
  5
A49
330
A02
100
AcDbEntity
  8
Shape2DView002
100
AcDbLine
 10
-196.535
 20
117.295
 30
0
 11
-196.945
 21
118.409
 31
0
  0
LINE
  5
A4A
330
A02
100
AcDbEntity
  8
Shape2DView002
100
AcDbLine
 10
-196.945
 20
118.409
 30
0
 11
-197.938
 21
118.409
 31
0
  0
SPLINE
  5
A4B
330
A02
100
AcDbEntity
  8
Shape2DView002
100
AcDbSpline
210
0
220
0
230
1
 70
8
 71
3
 72
17
 73
13
 74
0
 40
0.0109404
 40
0.0109404
 40
0.0109404
 40
0.0109404
 40
0.0737271
 40
0.0737271
 40
0.0737271
 40
0.136514
 40
0.136514
 40
0.136514
 40
0.1993
 40
0.1993
 40
0.1993
 40
0.262087
 40
0.262087
 40
0.262087
 40
0.262087
 10
-197.938
 20
118.409
 30
0
 10
-205.932
 20
110.419
 30
0
 10
-212.729
 20
102.822
 30
0
 10
-218.449
 20
95.5867
 30
0
 10
-224.169
 20
88.3512
 30
0
 10
-228.812
 20
81.4798
 30
0
 10
-232.525
 20
74.9283
 30
0
 10
-236.238
 20
68.3751
 30
0
 10
-239.023
 20
62.1451
 30
0
 10
-241.051
 20
56.1429
 30
0
 10
-243.078
 20
50.1384
 30
0
 10
-244.353
 20
44.3594
 30
0
 10
-245.017
 20
38.6444
 30
0
  0
SPLINE
  5
A4C
330
A02
100
AcDbEntity
  8
Shape2DView002
100
AcDbSpline
210
0
220
0
230
1
 70
8
 71
3
 72
17
 73
13
 74
0
 40
0.262087
 40
0.262087
 40
0.262087
 40
0.262087
 40
0.349023
 40
0.349023
 40
0.349023
 40
0.435959
 40
0.435959
 40
0.435959
 40
0.522896
 40
0.522896
 40
0.522896
 40
0.609832
 40
0.609832
 40
0.609832
 40
0.609832
 10
-245.017
 20
38.6444
 30
0
 10
-245.93
 20
30.7339
 30
0
 10
-245.678
 20
22.9212
 30
0
 10
-244.423
 20
14.8233
 30
0
 10
-243.166
 20
6.73263
 30
0
 10
-240.885
 20
-1.63679
 30
0
 10
-237.727
 20
-10.4448
 30
0
 10
-234.573
 20
-19.2503
 30
0
 10
-230.545
 20
-28.4827
 30
0
 10
-225.887
 20
-38.2412
 30
0
 10
-221.231
 20
-48.0004
 30
0
 10
-215.949
 20
-58.2843
 30
0
 10
-210.333
 20
-69.2129
 30
0
  0
SPLINE
  5
A4D
330
A02
100
AcDbEntity
  8
Shape2DView002
100
AcDbSpline
210
0
220
0
230
1
 70
8
 71
3
 72
11
 73
7
 74
0
 40
0.609832
 40
0.609832
 40
0.609832
 40
0.609832
 40
0.765097
 40
0.765097
 40
0.765097
 40
0.920362
 40
0.920362
 40
0.920362
 40
0.920362
 10
-210.333
 20
-69.2129
 30
0
 10
-200.303
 20
-88.7337
 30
0
 10
-189.206
 20
-110.307
 30
0
 10
-178.794
 20
-134.757
 30
0
 10
-168.382
 20
-159.207
 30
0
 10
-158.664
 20
-186.544
 30
0
 10
-151.387
 20
-217.588
 30
0
  0
SPLINE
  5
A4E
330
A02
100
AcDbEntity
  8
Shape2DView002
100
AcDbSpline
210
0
220
0
230
1
 70
8
 71
2
 72
6
 73
3
 74
0
 40
0.920362
 40
0.920362
 40
0.920362
 40
0.949902
 40
0.949902
 40
0.949902
 10
-151.387
 20
-217.588
 30
0
 10
-149.307
 20
-226.446
 30
0
 10
-147.509
 20
-235.714
 30
0
  0
SPLINE
  5
A4F
330
A02
100
AcDbEntity
  8
Shape2DView002
100
AcDbSpline
210
0
220
0
230
1
 70
8
 71
3
 72
14
 73
10
 74
0
 40
0
 40
0
 40
0
 40
0
 40
0.258751
 40
0.258751
 40
0.258751
 40
0.533131
 40
0.533131
 40
0.533131
 40
1
 40
1
 40
1
 40
1
 10
-149.434
 20
-241.334
 30
0
 10
-149.023
 20
-241.244
 30
0
 10
-148.61
 20
-240.977
 30
0
 10
-148.283
 20
-240.562
 30
0
 10
-147.934
 20
-240.124
 30
0
 10
-147.684
 20
-239.542
 30
0
 10
-147.537
 20
-238.925
 30
0
 10
-147.285
 20
-237.868
 30
0
 10
-147.313
 20
-236.721
 30
0
 10
-147.509
 20
-235.714
 30
0
  0
SPLINE
  5
A50
330
A02
100
AcDbEntity
  8
Shape2DView002
100
AcDbSpline
210
0
220
0
230
1
 70
8
 71
3
 72
17
 73
13
 74
0
 40
0
 40
0
 40
0
 40
0
 40
0.0655217
 40
0.0655217
 40
0.0655217
 40
0.131043
 40
0.131043
 40
0.131043
 40
0.196565
 40
0.196565
 40
0.196565
 40
0.262087
 40
0.262087
 40
0.262087
 40
0.262087
 10
-214.497
 20
144.196
 30
0
 10
-223.988
 20
135.024
 30
0
 10
-232.239
 20
126.144
 30
0
 10
-239.36
 20
117.451
 30
0
 10
-246.479
 20
108.757
 30
0
 10
-252.47
 20
100.248
 30
0
 10
-257.41
 20
91.8268
 30
0
 10
-262.349
 20
83.4075
 30
0
 10
-266.235
 20
75.072
 30
0
 10
-269.118
 20
66.7813
 30
0
 10
-272.001
 20
58.4931
 30
0
 10
-273.874
 20
50.252
 30
0
 10
-274.817
 20
42.0974
 30
0
  0
SPLINE
  5
A51
330
A02
100
AcDbEntity
  8
Shape2DView002
100
AcDbSpline
210
0
220
0
230
1
 70
8
 71
3
 72
17
 73
13
 74
0
 40
0.0109404
 40
0.0109404
 40
0.0109404
 40
0.0109404
 40
0.0737271
 40
0.0737271
 40
0.0737271
 40
0.136514
 40
0.136514
 40
0.136514
 40
0.1993
 40
0.1993
 40
0.1993
 40
0.262087
 40
0.262087
 40
0.262087
 40
0.262087
 10
-197.938
 20
118.409
 30
0
 10
-205.932
 20
110.419
 30
0
 10
-212.729
 20
102.822
 30
0
 10
-218.449
 20
95.5867
 30
0
 10
-224.169
 20
88.3512
 30
0
 10
-228.812
 20
81.4798
 30
0
 10
-232.525
 20
74.9283
 30
0
 10
-236.238
 20
68.3751
 30
0
 10
-239.023
 20
62.1451
 30
0
 10
-241.051
 20
56.1429
 30
0
 10
-243.078
 20
50.1384
 30
0
 10
-244.353
 20
44.3594
 30
0
 10
-245.017
 20
38.6444
 30
0
  0
SPLINE
  5
A52
330
A02
100
AcDbEntity
  8
Shape2DView002
100
AcDbSpline
210
0
220
0
230
1
 70
8
 71
3
 72
17
 73
13
 74
0
 40
0.262087
 40
0.262087
 40
0.262087
 40
0.262087
 40
0.349023
 40
0.349023
 40
0.349023
 40
0.435959
 40
0.435959
 40
0.435959
 40
0.522896
 40
0.522896
 40
0.522896
 40
0.609832
 40
0.609832
 40
0.609832
 40
0.609832
 10
-245.017
 20
38.6444
 30
0
 10
-245.93
 20
30.7339
 30
0
 10
-245.678
 20
22.9212
 30
0
 10
-244.423
 20
14.8233
 30
0
 10
-243.166
 20
6.73263
 30
0
 10
-240.885
 20
-1.63679
 30
0
 10
-237.727
 20
-10.4448
 30
0
 10
-234.573
 20
-19.2503
 30
0
 10
-230.545
 20
-28.4827
 30
0
 10
-225.887
 20
-38.2412
 30
0
 10
-221.231
 20
-48.0004
 30
0
 10
-215.949
 20
-58.2843
 30
0
 10
-210.333
 20
-69.2129
 30
0
  0
SPLINE
  5
A53
330
A02
100
AcDbEntity
  8
Shape2DView002
100
AcDbSpline
210
0
220
0
230
1
 70
8
 71
3
 72
11
 73
7
 74
0
 40
0.609832
 40
0.609832
 40
0.609832
 40
0.609832
 40
0.765097
 40
0.765097
 40
0.765097
 40
0.920362
 40
0.920362
 40
0.920362
 40
0.920362
 10
-210.333
 20
-69.2129
 30
0
 10
-200.303
 20
-88.7337
 30
0
 10
-189.206
 20
-110.307
 30
0
 10
-178.794
 20
-134.757
 30
0
 10
-168.382
 20
-159.207
 30
0
 10
-158.664
 20
-186.544
 30
0
 10
-151.387
 20
-217.588
 30
0
  0
SPLINE
  5
A54
330
A02
100
AcDbEntity
  8
Shape2DView002
100
AcDbSpline
210
0
220
0
230
1
 70
8
 71
2
 72
6
 73
3
 74
0
 40
0.920362
 40
0.920362
 40
0.920362
 40
0.9417
 40
0.9417
 40
0.9417
 10
-151.387
 20
-217.588
 30
0
 10
-149.886
 20
-223.987
 30
0
 10
-148.529
 20
-230.599
 30
0
  0
SPLINE
  5
A55
330
A02
100
AcDbEntity
  8
Shape2DView002
100
AcDbSpline
210
0
220
0
230
1
 70
8
 71
1
 72
4
 73
2
 74
0
 40
0.999864
 40
0.999864
 40
1
 40
1
 10
-148.529
 20
-230.599
 30
0
 10
-148.529
 20
-230.599
 30
0
  0
SPLINE
  5
A56
330
A02
100
AcDbEntity
  8
Shape2DView002
100
AcDbSpline
210
0
220
0
230
1
 70
8
 71
2
 72
6
 73
3
 74
0
 40
4.20632
 40
4.20632
 40
4.20632
 40
10.7364
 40
10.7364
 40
10.7364
 10
-147.509
 20
-235.714
 30
0
 10
-148.022
 20
-233.068
 30
0
 10
-148.529
 20
-230.599
 30
0
  0
ENDSEC
  0
SECTION
  2
OBJECTS
  0
DICTIONARY
  5
F000
330
0
100
AcDbDictionary
  3
ACAD_GROUP
350
F001
  0
DICTIONARY
  5
F001
330
F000
100
AcDbDictionary
  0
ENDSEC
  0
EOF