999
FreeCAD v0.21 33668 +26 (Git)
  0
SECTION
  2
HEADER
  9
$ACADVER
  1
AC1014
  9
$ACADMAINTVER
 70
     9
  9
$DWGCODEPAGE
  3
ANSI_1252
  9
$TEXTSTYLE
  7
STANDARD
  9
$DIMSTYLE
  2
STANDARD
  9
$DIMTXSTY
  7
STANDARD
  9
$CMLSTYLE
  2
STANDARD
  9
$LUNITS
 70
2
  9
$INSUNITS
 70
4
  9
$PEXTMAX
 10
50
 20
50
 30
50
  9
$PEXTMIN
 10
0
 20
0
 30
0
  9
$HANDSEED
  5
FFFF
  0
ENDSEC
  0
SECTION
  2
CLASSES
  0
CLASS
  1
ACDBDICTIONARYWDFLT
  2
AcDbDictionaryWithDefault
  3
ObjectDBX Classes
 90
        0
280
     0
281
     0
  0
CLASS
  1
XRECORD
  2
AcDbXrecord
  3
ObjectDBX Classes
 90
        0
280
     0
281
     0
  0
CLASS
  1
LWPOLYLINE
  2
AcDbPolyline
  3
ObjectDBX Classes
 90
        0
280
     0
281
     1
  0
ENDSEC
  0
SECTION
  2
TABLES
  0
TABLE
  2
VPORT
  5
20
330
0
100
AcDbSymbolTable
 70
     1
  0
VPORT
  5
21
330
20
100
AcDbSymbolTableRecord
100
AcDbViewportTableRecord
  2
*ACTIVE
 70
     0
  0
ENDTAB
  0
TABLE
  2
LTYPE
  5
22
330
0
100
AcDbSymbolTable
 70
     1
  0
LTYPE
  5
23
330
21
100
AcDbSymbolTableRecord
100
AcDbLinetypeTableRecord
  2
BYBLOCK
 70
     0
  3

 72
    65
 73
     0
 40
0.0
  0
LTYPE
  5
24
330
21
100
AcDbSymbolTableRecord
100
AcDbLinetypeTableRecord
  2
BYLAYER
 70
     0
  3

 72
    65
 73
     0
 40
0.0
  0
LTYPE
  5
25
330
21
100
AcDbSymbolTableRecord
100
AcDbLinetypeTableRecord
  2
CONTINUOUS
 70
     0
  3
Solid line
 72
    65
 73
     0
 40
0.0
  0
ENDTAB
  0
TABLE
  2
LAYER
  5
A51
330
0
100
AcDbSymbolTable
 70
3
  0
LAYER
  5
A52
330
A51
100
AcDbSymbolTableRecord
100
AcDbLayerTableRecord
  2
0
 70
   0
 62
   7
  6
CONTINUOUS
  0
LAYER
  5
A53
330
A51
100
AcDbSymbolTableRecord
100
AcDbLayerTableRecord
  2
none
 70
    0
 62
    7
  6
CONTINUOUS
  0
LAYER
  5
A54
330
A51
100
AcDbSymbolTableRecord
100
AcDbLayerTableRecord
  2
Shape2DView005
 70
    0
 62
    7
  6
CONTINUOUS
  0
ENDTAB
  0
TABLE
  2
STYLE
  5
70
330
0
100
AcDbSymbolTable
 70
     2
  0
STYLE
  5
71
330
70
100
AcDbSymbolTableRecord
100
AcDbTextStyleTableRecord
  2
STANDARD
 70
     0
 40
0.0
 41
1.0
 50
0.0
 71
     0
 42
2.5
  3
arial.ttf
  4

  0
STYLE
  5
72
330
70
100
AcDbSymbolTableRecord
100
AcDbTextStyleTableRecord
  2
ANNOTATIVE
 70
     0
 40
0.0
 41
1.0
 50
0.0
 71
     0
 42
2.5
  3
arial.ttf
  4

  0
ENDTAB
  0
TABLE
  2
VIEW
  5
73
330
0
100
AcDbSymbolTable
 70
     0
  0
ENDTAB
  0
TABLE
  2
UCS
  5
74
330
0
100
AcDbSymbolTable
 70
     0
  0
ENDTAB
  0
TABLE
  2
APPID
  5
75
330
0
100
AcDbSymbolTable
 70
     2
  0
APPID
  5
76
330
75
100
AcDbSymbolTableRecord
100
AcDbRegAppTableRecord
  2
ACAD
 70
     0
  0
APPID
  5
77
330
75
100
AcDbSymbolTableRecord
100
AcDbRegAppTableRecord
  2
ACADANNOTATIVE
 70
     0
  0
ENDTAB
  0
TABLE
  2
DIMSTYLE
  5
78
330
0
100
AcDbSymbolTable
 70
     2
  0
DIMSTYLE
105
79
330
78
100
AcDbSymbolTableRecord
100
AcDbDimStyleTableRecord
  2
STANDARD
 70
     0
  3

  4

  5

  6

  7

 40
0.0
 41
2.5
 42
0.625
 43
3.75
 44
1.25
 45
0.0
 46
0.0
 47
0.0
 48
0.0
140
2.5
141
2.5
142
0.0
143
0.03937007874016
144
1.0
145
0.0
146
1.0
147
0.625
 71
     0
 72
     0
 73
     0
 74
     0
 75
     0
 76
     0
 77
     1
 78
     8
170
     0
171
     3
172
     1
173
     0
174
     0
175
     0
176
     0
177
     0
178
     0
270
     2
271
     2
272
     2
273
     2
274
     3
340
71
275
     0
280
     0
281
     0
282
     0
283
     0
284
     8
285
     0
286
     0
287
     3
288
     0
  0
ENDTAB
  0
TABLE
  2
BLOCK_RECORD
  5
A01
330
0
100
AcDbSymbolTable
  70
5
  0
BLOCK_RECORD
  5
A02
330
A01
100
AcDbSymbolTableRecord
100
AcDbBlockTableRecord
  2
*MODEL_SPACE
  0
BLOCK_RECORD
  5
A03
330
A01
100
AcDbSymbolTableRecord
100
AcDbBlockTableRecord
  2
*PAPER_SPACE
  0
ENDTAB
  0
ENDSEC
  0
SECTION
  2
BLOCKS
  0
BLOCK
  5
A04
330
A02
100
AcDbEntity
  8
0
100
AcDbBlockBegin
  2
*MODEL_SPACE
 70
   0
 10
0
 20
0
 30
0
  3
*MODEL_SPACE
  1
 
  0
ENDBLK
  5
A05
330
A02
100
AcDbEntity
  8
0
100
AcDbBlockEnd
  0
BLOCK
  5
A06
330
A03
100
AcDbEntity
 67
1
  8
0
100
AcDbBlockBegin
  2
*PAPER_SPACE
 70
   0
 10
0
 20
0
 30
0
  3
*PAPER_SPACE
  1
 
  0
ENDBLK
  5
A07
330
A03
100
AcDbEntity
 67
    1
  8
0
100
AcDbBlockEnd
  0
ENDSEC
  0
SECTION
  2
ENTITIES
  0
SPLINE
  5
A08
330
A02
100
AcDbEntity
  8
Shape2DView005
100
AcDbSpline
210
0
220
0
230
1
 70
8
 71
3
 72
11
 73
7
 74
0
 40
0.108102
 40
0.108102
 40
0.108102
 40
0.108102
 40
0.181262
 40
0.181262
 40
0.181262
 40
0.279467
 40
0.279467
 40
0.279467
 40
0.279467
 10
-464.567
 20
94.4655
 30
0
 10
-461.284
 20
95.3257
 30
0
 10
-458.007
 20
96.236
 30
0
 10
-454.735
 20
97.17
 30
0
 10
-450.342
 20
98.4248
 30
0
 10
-445.955
 20
99.7233
 30
0
 10
-441.572
 20
101.042
 30
0
  0
SPLINE
  5
A09
330
A02
100
AcDbEntity
  8
Shape2DView005
100
AcDbSpline
210
0
220
0
230
1
 70
8
 71
3
 72
14
 73
10
 74
0
 40
0
 40
0
 40
0
 40
0
 40
0.177349
 40
0.177349
 40
0.177349
 40
0.511523
 40
0.511523
 40
0.511523
 40
1
 40
1
 40
1
 40
1
 10
-441.572
 20
101.042
 30
0
 10
-441.302
 20
101.123
 30
0
 10
-441.006
 20
101.16
 30
0
 10
-440.703
 20
101.142
 30
0
 10
-440.132
 20
101.111
 30
0
 10
-439.546
 20
100.874
 30
0
 10
-439.065
 20
100.496
 30
0
 10
-438.356
 20
99.946
 30
0
 10
-437.873
 20
99.1238
 30
0
 10
-437.662
 20
98.3138
 30
0
  0
SPLINE
  5
A0A
330
A02
100
AcDbEntity
  8
Shape2DView005
100
AcDbSpline
210
0
220
0
230
1
 70
8
 71
3
 72
8
 73
4
 74
0
 40
0.609832
 40
0.609832
 40
0.609832
 40
0.609832
 40
0.897459
 40
0.897459
 40
0.897459
 40
0.897459
 10
-384.402
 20
-30.5513
 30
0
 10
-402.987
 20
5.60065
 30
0
 10
-423.845
 20
46.2984
 30
0
 10
-437.662
 20
98.3138
 30
0
  0
SPLINE
  5
A0B
330
A02
100
AcDbEntity
  8
Shape2DView005
100
AcDbSpline
210
0
220
0
230
1
 70
8
 71
3
 72
17
 73
13
 74
0
 40
0.262087
 40
0.262087
 40
0.262087
 40
0.262087
 40
0.349023
 40
0.349023
 40
0.349023
 40
0.435959
 40
0.435959
 40
0.435959
 40
0.522896
 40
0.522896
 40
0.522896
 40
0.609832
 40
0.609832
 40
0.609832
 40
0.609832
 10
-346.6
 20
-155.574
 30
0
 10
-345.343
 20
-144.751
 30
0
 10
-345.728
 20
-134.107
 30
0
 10
-347.351
 20
-123.691
 30
0
 10
-348.973
 20
-113.267
 30
0
 10
-351.811
 20
-103.065
 30
0
 10
-355.449
 20
-92.9111
 30
0
 10
-359.09
 20
-82.7544
 30
0
 10
-363.532
 20
-72.6339
 30
0
 10
-368.455
 20
-62.3156
 30
0
 10
-373.378
 20
-51.9979
 30
0
 10
-378.786
 20
-41.4809
 30
0
 10
-384.402
 20
-30.5513
 30
0
  0
SPLINE
  5
A0C
330
A02
100
AcDbEntity
  8
Shape2DView005
100
AcDbSpline
210
0
220
0
230
1
 70
8
 71
3
 72
17
 73
13
 74
0
 40
0
 40
0
 40
0
 40
0
 40
0.0655217
 40
0.0655217
 40
0.0655217
 40
0.131043
 40
0.131043
 40
0.131043
 40
0.196565
 40
0.196565
 40
0.196565
 40
0.262087
 40
0.262087
 40
0.262087
 40
0.262087
 10
-406.92
 20
-257.672
 30
0
 10
-397.429
 20
-248.5
 30
0
 10
-389.178
 20
-239.62
 30
0
 10
-382.058
 20
-230.927
 30
0
 10
-374.938
 20
-222.234
 30
0
 10
-368.948
 20
-213.724
 30
0
 10
-364.008
 20
-205.303
 30
0
 10
-359.068
 20
-196.884
 30
0
 10
-355.182
 20
-188.548
 30
0
 10
-352.3
 20
-180.258
 30
0
 10
-349.416
 20
-171.969
 30
0
 10
-347.544
 20
-163.728
 30
0
 10
-346.6
 20
-155.574
 30
0
  0
ELLIPSE
  5
A0D
330
A02
100
AcDbEntity
  8
Shape2DView005
100
AcDbEllipse
 10
-417.344
 20
-246.886
 30
0
 11
-9.94706e-08
 21
-15
 31
0
 40
1
 41
6.63138e-09
 42
0.768271
  0
LINE
  5
A0E
330
A02
100
AcDbEntity
  8
Shape2DView005
100
AcDbLine
 10
-426.699
 20
-261.886
 30
0
 11
-417.344
 21
-261.886
 31
0
  0
ELLIPSE
  5
A0F
330
A02
100
AcDbEntity
  8
Shape2DView005
100
AcDbEllipse
 10
-426.699
 20
-246.886
 30
0
 11
-1.01132e-07
 21
-15
 31
0
 40
1
 41
6.17343
 42
6.69301e-09
  0
LINE
  5
A10
330
A02
100
AcDbEntity
  8
Shape2DView005
100
AcDbLine
 10
-431.308
 20
-261.469
 30
0
 11
-428.342
 21
-261.795
 31
0
  0
ELLIPSE
  5
A11
330
A02
100
AcDbEntity
  8
Shape2DView005
100
AcDbEllipse
 10
-429.665
 20
-246.559
 30
0
 11
-1.10229e-07
 21
-15
 31
0
 40
1
 41
5.92647
 42
6.17343
  0
LINE
  5
A12
330
A02
100
AcDbEntity
  8
Shape2DView005
100
AcDbLine
 10
-437.449
 20
-259.666
 30
0
 11
-434.903
 21
-260.615
 31
0
  0
ELLIPSE
  5
A13
330
A02
100
AcDbEntity
  8
Shape2DView005
100
AcDbEllipse
 10
-432.211
 20
-245.61
 30
0
 11
-8.3957e-08
 21
-15
 31
0
 40
1
 41
5.69995
 42
5.92647
  0
LINE
  5
A14
330
A02
100
AcDbEntity
  8
Shape2DView005
100
AcDbLine
 10
-442.123
 20
-257.041
 30
0
 11
-440.472
 21
-258.13
 31
0
  0
ELLIPSE
  5
A15
330
A02
100
AcDbEntity
  8
Shape2DView005
100
AcDbEllipse
 10
-433.862
 20
-244.521
 30
0
 11
-9.65563e-08
 21
-15
 31
0
 40
1
 41
5.51737
 42
5.69995
  0
LINE
  5
A16
330
A02
100
AcDbEntity
  8
Shape2DView005
100
AcDbLine
 10
-445.706
 20
-253.941
 30
0
 11
-444.259
 21
-255.333
 31
0
  0
ELLIPSE
  5
A17
330
A02
100
AcDbEntity
  8
Shape2DView005
100
AcDbEllipse
 10
-435.31
 20
-243.129
 30
0
 11
-9.73972e-08
 21
-15
 31
0
 40
1
 41
5.28695
 42
5.51737
  0
LINE
  5
A18
330
A02
100
AcDbEntity
  8
Shape2DView005
100
AcDbLine
 10
-450.239
 20
-247.67
 30
0
 11
-447.901
 21
-251.281
 31
0
  0
ELLIPSE
  5
A19
330
A02
100
AcDbEntity
  8
Shape2DView005
100
AcDbEllipse
 10
-437.647
 20
-239.518
 30
0
 11
-1.05014e-07
 21
-15
 31
0
 40
1
 41
5.06496
 42
5.28695
  0
LINE
  5
A1A
330
A02
100
AcDbEntity
  8
Shape2DView005
100
AcDbLine
 10
-453.41
 20
-240.117
 30
0
 11
-451.725
 21
-244.697
 31
0
  0
ELLIPSE
  5
A1B
330
A02
100
AcDbEntity
  8
Shape2DView005
100
AcDbEllipse
 10
-439.333
 20
-234.937
 30
0
 11
-9.92053e-08
 21
-15
 31
0
 40
1
 41
4.92113
 42
5.06496
  0
LINE
  5
A1C
330
A02
100
AcDbEntity
  8
Shape2DView005
100
AcDbLine
 10
-455.149
 20
-232.654
 30
0
 11
-454.007
 21
-238.045
 31
0
  0
ELLIPSE
  5
A1D
330
A02
100
AcDbEntity
  8
Shape2DView005
100
AcDbEllipse
 10
-440.475
 20
-229.546
 30
0
 11
-9.96563e-08
 21
-15
 31
0
 40
1
 41
4.8289
 42
4.92113
  0
LINE
  5
A1E
330
A02
100
AcDbEntity
  8
Shape2DView005
100
AcDbLine
 10
-456.08
 20
-225.248
 30
0
 11
-455.373
 21
-231.29
 31
0
  0
ELLIPSE
  5
A1F
330
A02
100
AcDbEntity
  8
Shape2DView005
100
AcDbEllipse
 10
-441.182
 20
-223.505
 30
0
 11
-9.93284e-08
 21
-15
 31
0
 40
1
 41
4.77064
 42
4.8289
  0
LINE
  5
A20
330
A02
100
AcDbEntity
  8
Shape2DView005
100
AcDbLine
 10
-456.537
 20
-217.846
 30
0
 11
-456.156
 21
-224.378
 31
0
  0
ELLIPSE
  5
A21
330
A02
100
AcDbEntity
  8
Shape2DView005
100
AcDbEllipse
 10
-441.563
 20
-216.973
 30
0
 11
-9.97307e-08
 21
-15
 31
0
 40
1
 41
4.7281
 42
4.77064
  0
LINE
  5
A22
330
A02
100
AcDbEntity
  8
Shape2DView005
100
AcDbLine
 10
-456.779
 20
-203.313
 30
0
 11
-456.561
 21
-217.208
 31
0
  0
LINE
  5
A23
330
A02
100
AcDbEntity
  8
Shape2DView005
100
AcDbLine
 10
-456.999
 20
-189.541
 30
0
 11
-456.779
 21
-203.313
 31
0
  0
LINE
  5
A24
330
A02
100
AcDbEntity
  8
Shape2DView005
100
AcDbLine
 10
-457.347
 20
-183.652
 30
0
 11
-456.999
 21
-189.541
 31
0
  0
LINE
  5
A25
330
A02
100
AcDbEntity
  8
Shape2DView005
100
AcDbLine
 10
-457.944
 20
-178.614
 30
0
 11
-457.347
 21
-183.652
 31
0
  0
LINE
  5
A26
330
A02
100
AcDbEntity
  8
Shape2DView005
100
AcDbLine
 10
-458.753
 20
-174.834
 30
0
 11
-457.944
 21
-178.614
 31
0
  0
LINE
  5
A27
330
A02
100
AcDbEntity
  8
Shape2DView005
100
AcDbLine
 10
-459.381
 20
-173.14
 30
0
 11
-458.753
 21
-174.834
 31
0
  0
ELLIPSE
  5
A28
330
A02
100
AcDbEntity
  8
Shape2DView005
100
AcDbEllipse
 10
-457.566
 20
-158.25
 30
0
 11
-9.83557e-08
 21
-15
 31
0
 40
1
 41
4.84612
 42
6.16189
  0
LINE
  5
A29
330
A02
100
AcDbEntity
  8
Shape2DView005
100
AcDbLine
 10
-472.432
 20
-160.25
 30
0
 11
-464.543
 21
-160.25
 31
0
  0
LINE
  5
A2A
330
A02
100
AcDbEntity
  8
Shape2DView005
100
AcDbLine
 10
-464.543
 20
-160.25
 30
0
 11
-464.543
 21
-156.25
 31
0
  0
LINE
  5
A2B
330
A02
100
AcDbEntity
  8
Shape2DView005
100
AcDbLine
 10
-464.543
 20
-156.25
 30
0
 11
-472.432
 21
-156.25
 31
0
  0
ELLIPSE
  5
A2C
330
A02
100
AcDbEntity
  8
Shape2DView005
100
AcDbEllipse
 10
-457.566
 20
-158.25
 30
0
 11
-9.83557e-08
 21
-15
 31
0
 40
1
 41
3.03088
 42
4.57866
  0
LINE
  5
A2D
330
A02
100
AcDbEntity
  8
Shape2DView005
100
AcDbLine
 10
-455.908
 20
-143.342
 30
0
 11
-452.736
 21
-143.695
 31
0
  0
ELLIPSE
  5
A2E
330
A02
100
AcDbEntity
  8
Shape2DView005
100
AcDbEllipse
 10
-454.393
 20
-158.603
 30
0
 11
-1.06342e-07
 21
-15
 31
0
 40
1
 41
2.78115
 42
3.03088
  0
LINE
  5
A2F
330
A02
100
AcDbEntity
  8
Shape2DView005
100
AcDbLine
 10
-449.103
 20
-144.567
 30
0
 11
-446.39
 21
-145.589
 31
0
  0
ELLIPSE
  5
A30
330
A02
100
AcDbEntity
  8
Shape2DView005
100
AcDbEllipse
 10
-451.68
 20
-159.625
 30
0
 11
-8.25089e-08
 21
-15
 31
0
 40
1
 41
2.55449
 42
2.78115
  0
LINE
  5
A31
330
A02
100
AcDbEntity
  8
Shape2DView005
100
AcDbLine
 10
-443.371
 20
-147.137
 30
0
 11
-441.662
 21
-148.274
 31
0
  0
ELLIPSE
  5
A32
330
A02
100
AcDbEntity
  8
Shape2DView005
100
AcDbEllipse
 10
-449.972
 20
-160.762
 30
0
 11
-9.70849e-08
 21
-15
 31
0
 40
1
 41
2.37452
 42
2.55449
  0
LINE
  5
A33
330
A02
100
AcDbEntity
  8
Shape2DView005
100
AcDbLine
 10
-439.561
 20
-149.963
 30
0
 11
-438.063
 21
-151.407
 31
0
  0
ELLIPSE
  5
A34
330
A02
100
AcDbEntity
  8
Shape2DView005
100
AcDbEllipse
 10
-448.474
 20
-162.206
 30
0
 11
-1.00239e-07
 21
-15
 31
0
 40
1
 41
2.14662
 42
2.37452
  0
LINE
  5
A35
330
A02
100
AcDbEntity
  8
Shape2DView005
100
AcDbLine
 10
-435.893
 20
-154.038
 30
0
 11
-433.474
 21
-157.764
 31
0
  0
ELLIPSE
  5
A36
330
A02
100
AcDbEntity
  8
Shape2DView005
100
AcDbEllipse
 10
-446.055
 20
-165.931
 30
0
 11
-1.05854e-07
 21
-15
 31
0
 40
1
 41
1.92568
 42
2.14662
  0
LINE
  5
A37
330
A02
100
AcDbEntity
  8
Shape2DView005
100
AcDbLine
 10
-431.99
 20
-160.719
 30
0
 11
-430.246
 21
-165.425
 31
0
  0
ELLIPSE
  5
A38
330
A02
100
AcDbEntity
  8
Shape2DView005
100
AcDbEllipse
 10
-444.311
 20
-170.637
 30
0
 11
-9.63634e-08
 21
-15
 31
0
 40
1
 41
1.7816
 42
1.92568
  0
LINE
  5
A39
330
A02
100
AcDbEntity
  8
Shape2DView005
100
AcDbLine
 10
-429.644
 20
-167.498
 30
0
 11
-428.462
 21
-173.018
 31
0
  0
ELLIPSE
  5
A3A
330
A02
100
AcDbEntity
  8
Shape2DView005
100
AcDbEllipse
 10
-443.13
 20
-176.157
 30
0
 11
-9.92501e-08
 21
-15
 31
0
 40
1
 41
1.68876
 42
1.7816
  0
LINE
  5
A3B
330
A02
100
AcDbEntity
  8
Shape2DView005
100
AcDbLine
 10
-428.235
 20
-174.391
 30
0
 11
-427.503
 21
-180.56
 31
0
  0
ELLIPSE
  5
A3C
330
A02
100
AcDbEntity
  8
Shape2DView005
100
AcDbEllipse
 10
-442.399
 20
-182.326
 30
0
 11
-9.8826e-08
 21
-15
 31
0
 40
1
 41
1.62988
 42
1.68876
  0
LINE
  5
A3D
330
A02
100
AcDbEntity
  8
Shape2DView005
100
AcDbLine
 10
-427.425
 20
-181.44
 30
0
 11
-427.032
 21
-188.093
 31
0
  0
ELLIPSE
  5
A3E
330
A02
100
AcDbEntity
  8
Shape2DView005
100
AcDbEllipse
 10
-442.006
 20
-188.979
 30
0
 11
-9.97171e-08
 21
-15
 31
0
 40
1
 41
1.58672
 42
1.62988
  0
LINE
  5
A3F
330
A02
100
AcDbEntity
  8
Shape2DView005
100
AcDbLine
 10
-427.008
 20
-188.74
 30
0
 11
-426.783
 21
-202.837
 31
0
  0
ELLIPSE
  5
A40
330
A02
100
AcDbEntity
  8
Shape2DView005
100
AcDbEllipse
 10
-441.781
 20
-203.076
 30
0
 11
-9.97307e-08
 21
-15
 31
0
 40
1
 41
1.58651
 42
1.58672
  0
LINE
  5
A41
330
A02
100
AcDbEntity
  8
Shape2DView005
100
AcDbLine
 10
-426.783
 20
-202.84
 30
0
 11
-426.57
 21
-216.418
 31
0
  0
LINE
  5
A42
330
A02
100
AcDbEntity
  8
Shape2DView005
100
AcDbLine
 10
-426.57
 20
-216.418
 30
0
 11
-426.233
 21
-222.195
 31
0
  0
LINE
  5
A43
330
A02
100
AcDbEntity
  8
Shape2DView005
100
AcDbLine
 10
-426.233
 20
-222.195
 30
0
 11
-425.657
 21
-227.115
 31
0
  0
LINE
  5
A44
330
A02
100
AcDbEntity
  8
Shape2DView005
100
AcDbLine
 10
-425.657
 20
-227.115
 30
0
 11
-424.882
 21
-230.771
 31
0
  0
LINE
  5
A45
330
A02
100
AcDbEntity
  8
Shape2DView005
100
AcDbLine
 10
-424.882
 20
-230.771
 30
0
 11
-424.472
 21
-231.886
 31
0
  0
LINE
  5
A46
330
A02
100
AcDbEntity
  8
Shape2DView005
100
AcDbLine
 10
-424.472
 20
-231.886
 30
0
 11
-423.479
 21
-231.886
 31
0
  0
SPLINE
  5
A47
330
A02
100
AcDbEntity
  8
Shape2DView005
100
AcDbSpline
210
0
220
0
230
1
 70
8
 71
3
 72
17
 73
13
 74
0
 40
0.0109404
 40
0.0109404
 40
0.0109404
 40
0.0109404
 40
0.0737271
 40
0.0737271
 40
0.0737271
 40
0.136514
 40
0.136514
 40
0.136514
 40
0.1993
 40
0.1993
 40
0.1993
 40
0.262087
 40
0.262087
 40
0.262087
 40
0.262087
 10
-423.479
 20
-231.886
 30
0
 10
-415.486
 20
-223.895
 30
0
 10
-408.689
 20
-216.298
 30
0
 10
-402.969
 20
-209.063
 30
0
 10
-397.248
 20
-201.827
 30
0
 10
-392.605
 20
-194.956
 30
0
 10
-388.893
 20
-188.405
 30
0
 10
-385.179
 20
-181.851
 30
0
 10
-382.394
 20
-175.621
 30
0
 10
-380.366
 20
-169.619
 30
0
 10
-378.34
 20
-163.615
 30
0
 10
-377.064
 20
-157.836
 30
0
 10
-376.401
 20
-152.121
 30
0
  0
SPLINE
  5
A48
330
A02
100
AcDbEntity
  8
Shape2DView005
100
AcDbSpline
210
0
220
0
230
1
 70
8
 71
3
 72
17
 73
13
 74
0
 40
0.262087
 40
0.262087
 40
0.262087
 40
0.262087
 40
0.349023
 40
0.349023
 40
0.349023
 40
0.435959
 40
0.435959
 40
0.435959
 40
0.522896
 40
0.522896
 40
0.522896
 40
0.609832
 40
0.609832
 40
0.609832
 40
0.609832
 10
-376.401
 20
-152.121
 30
0
 10
-375.487
 20
-144.21
 30
0
 10
-375.739
 20
-136.397
 30
0
 10
-376.995
 20
-128.3
 30
0
 10
-378.252
 20
-120.209
 30
0
 10
-380.533
 20
-111.839
 30
0
 10
-383.69
 20
-103.031
 30
0
 10
-386.844
 20
-94.2259
 30
0
 10
-390.872
 20
-84.9936
 30
0
 10
-395.53
 20
-75.235
 30
0
 10
-400.186
 20
-65.4758
 30
0
 10
-405.468
 20
-55.192
 30
0
 10
-411.085
 20
-44.2634
 30
0
  0
SPLINE
  5
A49
330
A02
100
AcDbEntity
  8
Shape2DView005
100
AcDbSpline
210
0
220
0
230
1
 70
8
 71
3
 72
8
 73
4
 74
0
 40
0.609832
 40
0.609832
 40
0.609832
 40
0.609832
 40
0.895276
 40
0.895276
 40
0.895276
 40
0.895276
 10
-411.085
 20
-44.2634
 30
0
 10
-429.521
 20
-8.3725
 30
0
 10
-451.578
 20
34.4394
 30
0
 10
-466.32
 20
89.3517
 30
0
  0
SPLINE
  5
A4A
330
A02
100
AcDbEntity
  8
Shape2DView005
100
AcDbSpline
210
0
220
0
230
1
 70
8
 71
3
 72
17
 73
13
 74
0
 40
0
 40
0
 40
0
 40
0
 40
0.139755
 40
0.139755
 40
0.139755
 40
0.429047
 40
0.429047
 40
0.429047
 40
0.869743
 40
0.869743
 40
0.869743
 40
1
 40
1
 40
1
 40
1
 10
-464.567
 20
94.4655
 30
0
 10
-464.789
 20
94.4086
 30
0
 10
-465.003
 20
94.3098
 30
0
 10
-465.21
 20
94.1691
 30
0
 10
-465.635
 20
93.8793
 30
0
 10
-465.986
 20
93.4027
 30
0
 10
-466.206
 20
92.8511
 30
0
 10
-466.547
 20
92.0077
 30
0
 10
-466.606
 20
91.0219
 30
0
 10
-466.478
 20
90.1266
 30
0
 10
-466.44
 20
89.8602
 30
0
 10
-466.387
 20
89.6019
 30
0
 10
-466.32
 20
89.3517
 30
0
  0
SPLINE
  5
A4B
330
A02
100
AcDbEntity
  8
Shape2DView005
100
AcDbSpline
210
0
220
0
230
1
 70
8
 71
2
 72
6
 73
3
 74
0
 40
3.41843
 40
3.41843
 40
3.41843
 40
9.15055
 40
9.15055
 40
9.15055
 10
-466.32
 20
89.3517
 30
0
 10
-465.757
 20
87.259
 30
0
 10
-465.216
 20
85.3114
 30
0
  0
SPLINE
  5
A4C
330
A02
100
AcDbEntity
  8
Shape2DView005
100
AcDbSpline
210
0
220
0
230
1
 70
8
 71
1
 72
4
 73
2
 74
0
 40
0.999776
 40
0.999776
 40
1
 40
1
 10
-465.216
 20
85.3126
 30
0
 10
-465.216
 20
85.3114
 30
0
  0
SPLINE
  5
A4D
330
A02
100
AcDbEntity
  8
Shape2DView005
100
AcDbSpline
210
0
220
0
230
1
 70
8
 71
1
 72
4
 73
2
 74
0
 40
2.03333
 40
2.03333
 40
2.33431
 40
2.33431
 10
-437.662
 20
98.3138
 30
0
 10
-437.618
 20
98.1483
 30
0
  0
SPLINE
  5
A4E
330
A02
100
AcDbEntity
  8
Shape2DView005
100
AcDbSpline
210
0
220
0
230
1
 70
8
 71
3
 72
8
 73
4
 74
0
 40
0.609832
 40
0.609832
 40
0.609832
 40
0.609832
 40
0.888237
 40
0.888237
 40
0.888237
 40
0.888237
 10
-411.085
 20
-44.2634
 30
0
 10
-429.066
 20
-9.25746
 30
0
 10
-450.492
 20
32.3319
 30
0
 10
-465.216
 20
85.3114
 30
0
  0
SPLINE
  5
A4F
330
A02
100
AcDbEntity
  8
Shape2DView005
100
AcDbSpline
210
0
220
0
230
1
 70
8
 71
3
 72
17
 73
13
 74
0
 40
0.262087
 40
0.262087
 40
0.262087
 40
0.262087
 40
0.349023
 40
0.349023
 40
0.349023
 40
0.435959
 40
0.435959
 40
0.435959
 40
0.522896
 40
0.522896
 40
0.522896
 40
0.609832
 40
0.609832
 40
0.609832
 40
0.609832
 10
-376.401
 20
-152.121
 30
0
 10
-375.487
 20
-144.21
 30
0
 10
-375.739
 20
-136.397
 30
0
 10
-376.995
 20
-128.3
 30
0
 10
-378.252
 20
-120.209
 30
0
 10
-380.533
 20
-111.839
 30
0
 10
-383.69
 20
-103.031
 30
0
 10
-386.844
 20
-94.2259
 30
0
 10
-390.872
 20
-84.9936
 30
0
 10
-395.53
 20
-75.235
 30
0
 10
-400.186
 20
-65.4758
 30
0
 10
-405.468
 20
-55.192
 30
0
 10
-411.085
 20
-44.2634
 30
0
  0
SPLINE
  5
A50
330
A02
100
AcDbEntity
  8
Shape2DView005
100
AcDbSpline
210
0
220
0
230
1
 70
8
 71
3
 72
17
 73
13
 74
0
 40
0.0109404
 40
0.0109404
 40
0.0109404
 40
0.0109404
 40
0.0737271
 40
0.0737271
 40
0.0737271
 40
0.136514
 40
0.136514
 40
0.136514
 40
0.1993
 40
0.1993
 40
0.1993
 40
0.262087
 40
0.262087
 40
0.262087
 40
0.262087
 10
-423.479
 20
-231.886
 30
0
 10
-415.486
 20
-223.895
 30
0
 10
-408.689
 20
-216.298
 30
0
 10
-402.969
 20
-209.063
 30
0
 10
-397.248
 20
-201.827
 30
0
 10
-392.605
 20
-194.956
 30
0
 10
-388.893
 20
-188.405
 30
0
 10
-385.179
 20
-181.851
 30
0
 10
-382.394
 20
-175.621
 30
0
 10
-380.366
 20
-169.619
 30
0
 10
-378.34
 20
-163.615
 30
0
 10
-377.064
 20
-157.836
 30
0
 10
-376.401
 20
-152.121
 30
0
  0
ENDSEC
  0
SECTION
  2
OBJECTS
  0
DICTIONARY
  5
F000
330
0
100
AcDbDictionary
  3
ACAD_GROUP
350
F001
  0
DICTIONARY
  5
F001
330
F000
100
AcDbDictionary
  0
ENDSEC
  0
EOF