999
FreeCAD v0.21 33668 +26 (Git)
  0
SECTION
  2
HEADER
  9
$ACADVER
  1
AC1014
  9
$ACADMAINTVER
 70
     9
  9
$DWGCODEPAGE
  3
ANSI_1252
  9
$TEXTSTYLE
  7
STANDARD
  9
$DIMSTYLE
  2
STANDARD
  9
$DIMTXSTY
  7
STANDARD
  9
$CMLSTYLE
  2
STANDARD
  9
$LUNITS
 70
2
  9
$INSUNITS
 70
4
  9
$PEXTMAX
 10
50
 20
50
 30
50
  9
$PEXTMIN
 10
0
 20
0
 30
0
  9
$HANDSEED
  5
FFFF
  0
ENDSEC
  0
SECTION
  2
CLASSES
  0
CLASS
  1
ACDBDICTIONARYWDFLT
  2
AcDbDictionaryWithDefault
  3
ObjectDBX Classes
 90
        0
280
     0
281
     0
  0
CLASS
  1
XRECORD
  2
AcDbXrecord
  3
ObjectDBX Classes
 90
        0
280
     0
281
     0
  0
CLASS
  1
LWPOLYLINE
  2
AcDbPolyline
  3
ObjectDBX Classes
 90
        0
280
     0
281
     1
  0
ENDSEC
  0
SECTION
  2
TABLES
  0
TABLE
  2
VPORT
  5
20
330
0
100
AcDbSymbolTable
 70
     1
  0
VPORT
  5
21
330
20
100
AcDbSymbolTableRecord
100
AcDbViewportTableRecord
  2
*ACTIVE
 70
     0
  0
ENDTAB
  0
TABLE
  2
LTYPE
  5
22
330
0
100
AcDbSymbolTable
 70
     1
  0
LTYPE
  5
23
330
21
100
AcDbSymbolTableRecord
100
AcDbLinetypeTableRecord
  2
BYBLOCK
 70
     0
  3

 72
    65
 73
     0
 40
0.0
  0
LTYPE
  5
24
330
21
100
AcDbSymbolTableRecord
100
AcDbLinetypeTableRecord
  2
BYLAYER
 70
     0
  3

 72
    65
 73
     0
 40
0.0
  0
LTYPE
  5
25
330
21
100
AcDbSymbolTableRecord
100
AcDbLinetypeTableRecord
  2
CONTINUOUS
 70
     0
  3
Solid line
 72
    65
 73
     0
 40
0.0
  0
ENDTAB
  0
TABLE
  2
LAYER
  5
A4A
330
0
100
AcDbSymbolTable
 70
3
  0
LAYER
  5
A4B
330
A4A
100
AcDbSymbolTableRecord
100
AcDbLayerTableRecord
  2
0
 70
   0
 62
   7
  6
CONTINUOUS
  0
LAYER
  5
A4C
330
A4A
100
AcDbSymbolTableRecord
100
AcDbLayerTableRecord
  2
none
 70
    0
 62
    7
  6
CONTINUOUS
  0
LAYER
  5
A4D
330
A4A
100
AcDbSymbolTableRecord
100
AcDbLayerTableRecord
  2
Shape2DView
 70
    0
 62
    7
  6
CONTINUOUS
  0
ENDTAB
  0
TABLE
  2
STYLE
  5
70
330
0
100
AcDbSymbolTable
 70
     2
  0
STYLE
  5
71
330
70
100
AcDbSymbolTableRecord
100
AcDbTextStyleTableRecord
  2
STANDARD
 70
     0
 40
0.0
 41
1.0
 50
0.0
 71
     0
 42
2.5
  3
arial.ttf
  4

  0
STYLE
  5
72
330
70
100
AcDbSymbolTableRecord
100
AcDbTextStyleTableRecord
  2
ANNOTATIVE
 70
     0
 40
0.0
 41
1.0
 50
0.0
 71
     0
 42
2.5
  3
arial.ttf
  4

  0
ENDTAB
  0
TABLE
  2
VIEW
  5
73
330
0
100
AcDbSymbolTable
 70
     0
  0
ENDTAB
  0
TABLE
  2
UCS
  5
74
330
0
100
AcDbSymbolTable
 70
     0
  0
ENDTAB
  0
TABLE
  2
APPID
  5
75
330
0
100
AcDbSymbolTable
 70
     2
  0
APPID
  5
76
330
75
100
AcDbSymbolTableRecord
100
AcDbRegAppTableRecord
  2
ACAD
 70
     0
  0
APPID
  5
77
330
75
100
AcDbSymbolTableRecord
100
AcDbRegAppTableRecord
  2
ACADANNOTATIVE
 70
     0
  0
ENDTAB
  0
TABLE
  2
DIMSTYLE
  5
78
330
0
100
AcDbSymbolTable
 70
     2
  0
DIMSTYLE
105
79
330
78
100
AcDbSymbolTableRecord
100
AcDbDimStyleTableRecord
  2
STANDARD
 70
     0
  3

  4

  5

  6

  7

 40
0.0
 41
2.5
 42
0.625
 43
3.75
 44
1.25
 45
0.0
 46
0.0
 47
0.0
 48
0.0
140
2.5
141
2.5
142
0.0
143
0.03937007874016
144
1.0
145
0.0
146
1.0
147
0.625
 71
     0
 72
     0
 73
     0
 74
     0
 75
     0
 76
     0
 77
     1
 78
     8
170
     0
171
     3
172
     1
173
     0
174
     0
175
     0
176
     0
177
     0
178
     0
270
     2
271
     2
272
     2
273
     2
274
     3
340
71
275
     0
280
     0
281
     0
282
     0
283
     0
284
     8
285
     0
286
     0
287
     3
288
     0
  0
ENDTAB
  0
TABLE
  2
BLOCK_RECORD
  5
A01
330
0
100
AcDbSymbolTable
  70
5
  0
BLOCK_RECORD
  5
A02
330
A01
100
AcDbSymbolTableRecord
100
AcDbBlockTableRecord
  2
*MODEL_SPACE
  0
BLOCK_RECORD
  5
A03
330
A01
100
AcDbSymbolTableRecord
100
AcDbBlockTableRecord
  2
*PAPER_SPACE
  0
ENDTAB
  0
ENDSEC
  0
SECTION
  2
BLOCKS
  0
BLOCK
  5
A04
330
A02
100
AcDbEntity
  8
0
100
AcDbBlockBegin
  2
*MODEL_SPACE
 70
   0
 10
0
 20
0
 30
0
  3
*MODEL_SPACE
  1
 
  0
ENDBLK
  5
A05
330
A02
100
AcDbEntity
  8
0
100
AcDbBlockEnd
  0
BLOCK
  5
A06
330
A03
100
AcDbEntity
 67
1
  8
0
100
AcDbBlockBegin
  2
*PAPER_SPACE
 70
   0
 10
0
 20
0
 30
0
  3
*PAPER_SPACE
  1
 
  0
ENDBLK
  5
A07
330
A03
100
AcDbEntity
 67
    1
  8
0
100
AcDbBlockEnd
  0
ENDSEC
  0
SECTION
  2
ENTITIES
  0
SPLINE
  5
A08
330
A02
100
AcDbEntity
  8
Shape2DView
100
AcDbSpline
210
0
220
0
230
1
 70
8
 71
2
 72
6
 73
3
 74
0
 40
0.707537
 40
0.707537
 40
0.707537
 40
0.879102
 40
0.879102
 40
0.879102
 10
62.1589
 20
388.735
 30
0
 10
58.5079
 20
400.191
 30
0
 10
54.8365
 20
411.643
 30
0
  0
SPLINE
  5
A09
330
A02
100
AcDbEntity
  8
Shape2DView
100
AcDbSpline
210
0
220
0
230
1
 70
8
 71
3
 72
14
 73
10
 74
0
 40
0
 40
0
 40
0
 40
0
 40
0.277375
 40
0.277375
 40
0.277375
 40
0.544407
 40
0.544407
 40
0.544407
 40
1
 40
1
 40
1
 40
1
 10
54.8365
 20
411.643
 30
0
 10
54.7123
 20
412.028
 30
0
 10
54.6671
 20
412.46
 30
0
 10
54.7213
 20
412.89
 30
0
 10
54.7723
 20
413.304
 30
0
 10
54.9149
 20
413.714
 30
0
 10
55.1337
 20
414.076
 30
0
 10
55.5049
 20
414.699
 30
0
 10
56.0979
 20
415.169
 30
0
 10
56.7244
 20
415.408
 30
0
  0
SPLINE
  5
A0A
330
A02
100
AcDbEntity
  8
Shape2DView
100
AcDbSpline
210
0
220
0
230
1
 70
8
 71
3
 72
14
 73
10
 74
0
 40
0.262087
 40
0.262087
 40
0.262087
 40
0.262087
 40
0.309815
 40
0.309815
 40
0.309815
 40
0.357544
 40
0.357544
 40
0.357544
 40
0.453001
 40
0.453001
 40
0.453001
 40
0.453001
 10
125.357
 20
426.488
 30
0
 10
119.418
 20
427.177
 30
0
 10
113.527
 20
427.374
 30
0
 10
107.702
 20
427.141
 30
0
 10
101.876
 20
426.908
 30
0
 10
96.1155
 20
426.245
 30
0
 10
90.4164
 20
425.226
 30
0
 10
79.014
 20
423.186
 30
0
 10
67.8682
 20
419.736
 30
0
 10
56.7244
 20
415.408
 30
0
  0
SPLINE
  5
A0B
330
A02
100
AcDbEntity
  8
Shape2DView
100
AcDbSpline
210
0
220
0
230
1
 70
8
 71
3
 72
17
 73
13
 74
0
 40
0
 40
0
 40
0
 40
0
 40
0.0655217
 40
0.0655217
 40
0.0655217
 40
0.131043
 40
0.131043
 40
0.131043
 40
0.196565
 40
0.196565
 40
0.196565
 40
0.262087
 40
0.262087
 40
0.262087
 40
0.262087
 10
227.456
 20
366.168
 30
0
 10
218.284
 20
375.659
 30
0
 10
209.404
 20
383.91
 30
0
 10
200.71
 20
391.031
 30
0
 10
192.017
 20
398.15
 30
0
 10
183.508
 20
404.141
 30
0
 10
175.087
 20
409.081
 30
0
 10
166.667
 20
414.02
 30
0
 10
158.332
 20
417.906
 30
0
 10
150.041
 20
420.789
 30
0
 10
141.753
 20
423.672
 30
0
 10
133.512
 20
425.545
 30
0
 10
125.357
 20
426.488
 30
0
  0
ARC
  5
A0C
330
A02
100
AcDbEntity
  8
Shape2DView
100
AcDbCircle
 10
216.669
 20
355.745
 30
0
 40
15
100
AcDbArc
 50
0
 51
44.0187
  0
LINE
  5
A0D
330
A02
100
AcDbEntity
  8
Shape2DView
100
AcDbLine
 10
231.669
 20
346.389
 30
0
 11
231.669
 21
355.745
 31
0
  0
ARC
  5
A0E
330
A02
100
AcDbEntity
  8
Shape2DView
100
AcDbCircle
 10
216.669
 20
346.389
 30
0
 40
15
100
AcDbArc
 50
-6.28824
 51
0
  0
LINE
  5
A0F
330
A02
100
AcDbEntity
  8
Shape2DView
100
AcDbLine
 10
231.252
 20
341.781
 30
0
 11
231.579
 21
344.746
 31
0
  0
ARC
  5
A10
330
A02
100
AcDbEntity
  8
Shape2DView
100
AcDbCircle
 10
216.343
 20
343.424
 30
0
 40
15
100
AcDbArc
 50
-20.4385
 51
-6.28824
  0
LINE
  5
A11
330
A02
100
AcDbEntity
  8
Shape2DView
100
AcDbLine
 10
229.45
 20
335.64
 30
0
 11
230.398
 21
338.186
 31
0
  0
ARC
  5
A12
330
A02
100
AcDbEntity
  8
Shape2DView
100
AcDbCircle
 10
215.394
 20
340.878
 30
0
 40
15
100
AcDbArc
 50
-33.4168
 51
-20.4385
  0
LINE
  5
A13
330
A02
100
AcDbEntity
  8
Shape2DView
100
AcDbLine
 10
226.825
 20
330.965
 30
0
 11
227.914
 21
332.617
 31
0
  0
ARC
  5
A14
330
A02
100
AcDbEntity
  8
Shape2DView
100
AcDbCircle
 10
214.304
 20
339.226
 30
0
 40
15
100
AcDbArc
 50
-43.8783
 51
-33.4168
  0
LINE
  5
A15
330
A02
100
AcDbEntity
  8
Shape2DView
100
AcDbLine
 10
223.725
 20
327.382
 30
0
 11
225.116
 21
328.829
 31
0
  0
ARC
  5
A16
330
A02
100
AcDbEntity
  8
Shape2DView
100
AcDbCircle
 10
212.912
 20
337.779
 30
0
 40
15
100
AcDbArc
 50
-57.0803
 51
-43.8783
  0
LINE
  5
A17
330
A02
100
AcDbEntity
  8
Shape2DView
100
AcDbLine
 10
217.453
 20
322.849
 30
0
 11
221.064
 21
325.187
 31
0
  0
ARC
  5
A18
330
A02
100
AcDbEntity
  8
Shape2DView
100
AcDbCircle
 10
209.301
 20
335.441
 30
0
 40
15
100
AcDbArc
 50
-69.7989
 51
-57.0803
  0
LINE
  5
A19
330
A02
100
AcDbEntity
  8
Shape2DView
100
AcDbLine
 10
209.9
 20
319.678
 30
0
 11
214.481
 21
321.364
 31
0
  0
ARC
  5
A1A
330
A02
100
AcDbEntity
  8
Shape2DView
100
AcDbCircle
 10
204.721
 20
333.755
 30
0
 40
15
100
AcDbArc
 50
-78.0402
 51
-69.7989
  0
LINE
  5
A1B
330
A02
100
AcDbEntity
  8
Shape2DView
100
AcDbLine
 10
202.438
 20
317.939
 30
0
 11
207.829
 21
319.081
 31
0
  0
ARC
  5
A1C
330
A02
100
AcDbEntity
  8
Shape2DView
100
AcDbCircle
 10
199.33
 20
332.613
 30
0
 40
15
100
AcDbArc
 50
-83.3246
 51
-78.0402
  0
LINE
  5
A1D
330
A02
100
AcDbEntity
  8
Shape2DView
100
AcDbLine
 10
195.032
 20
317.008
 30
0
 11
201.073
 21
317.715
 31
0
  0
ARC
  5
A1E
330
A02
100
AcDbEntity
  8
Shape2DView
100
AcDbCircle
 10
193.288
 20
331.906
 30
0
 40
15
100
AcDbArc
 50
-86.6624
 51
-83.3246
  0
LINE
  5
A1F
330
A02
100
AcDbEntity
  8
Shape2DView
100
AcDbLine
 10
187.63
 20
316.551
 30
0
 11
194.162
 21
316.932
 31
0
  0
ARC
  5
A20
330
A02
100
AcDbEntity
  8
Shape2DView
100
AcDbCircle
 10
186.756
 20
331.525
 30
0
 40
15
100
AcDbArc
 50
-89.0997
 51
-86.6624
  0
LINE
  5
A21
330
A02
100
AcDbEntity
  8
Shape2DView
100
AcDbLine
 10
173.097
 20
316.309
 30
0
 11
186.992
 21
316.527
 31
0
  0
LINE
  5
A22
330
A02
100
AcDbEntity
  8
Shape2DView
100
AcDbLine
 10
159.325
 20
316.09
 30
0
 11
173.097
 21
316.309
 31
0
  0
LINE
  5
A23
330
A02
100
AcDbEntity
  8
Shape2DView
100
AcDbLine
 10
153.436
 20
315.741
 30
0
 11
159.325
 21
316.09
 31
0
  0
LINE
  5
A24
330
A02
100
AcDbEntity
  8
Shape2DView
100
AcDbLine
 10
148.398
 20
315.144
 30
0
 11
153.436
 21
315.741
 31
0
  0
LINE
  5
A25
330
A02
100
AcDbEntity
  8
Shape2DView
100
AcDbLine
 10
144.618
 20
314.335
 30
0
 11
148.398
 21
315.144
 31
0
  0
LINE
  5
A26
330
A02
100
AcDbEntity
  8
Shape2DView
100
AcDbLine
 10
142.923
 20
313.708
 30
0
 11
144.618
 21
314.335
 31
0
  0
ARC
  5
A27
330
A02
100
AcDbEntity
  8
Shape2DView
100
AcDbCircle
 10
128.034
 20
315.523
 30
0
 40
15
100
AcDbArc
 50
-82.3377
 51
-6.94991
  0
LINE
  5
A28
330
A02
100
AcDbEntity
  8
Shape2DView
100
AcDbLine
 10
130.034
 20
300.656
 30
0
 11
130.034
 21
308.546
 31
0
  0
LINE
  5
A29
330
A02
100
AcDbEntity
  8
Shape2DView
100
AcDbLine
 10
130.034
 20
308.546
 30
0
 11
126.034
 21
308.546
 31
0
  0
LINE
  5
A2A
330
A02
100
AcDbEntity
  8
Shape2DView
100
AcDbLine
 10
126.034
 20
308.546
 30
0
 11
126.034
 21
300.656
 31
0
  0
ARC
  5
A2B
330
A02
100
AcDbEntity
  8
Shape2DView
100
AcDbCircle
 10
128.034
 20
315.523
 30
0
 40
15
100
AcDbArc
 50
173.657
 51
-97.6623
  0
LINE
  5
A2C
330
A02
100
AcDbEntity
  8
Shape2DView
100
AcDbLine
 10
113.126
 20
317.18
 30
0
 11
113.478
 21
320.353
 31
0
  0
ARC
  5
A2D
330
A02
100
AcDbEntity
  8
Shape2DView
100
AcDbCircle
 10
128.386
 20
318.695
 30
0
 40
15
100
AcDbArc
 50
159.348
 51
173.657
  0
LINE
  5
A2E
330
A02
100
AcDbEntity
  8
Shape2DView
100
AcDbLine
 10
114.35
 20
323.986
 30
0
 11
115.373
 21
326.699
 31
0
  0
ARC
  5
A2F
330
A02
100
AcDbEntity
  8
Shape2DView
100
AcDbCircle
 10
129.409
 20
321.408
 30
0
 40
15
100
AcDbArc
 50
146.361
 51
159.348
  0
LINE
  5
A30
330
A02
100
AcDbEntity
  8
Shape2DView
100
AcDbLine
 10
116.921
 20
329.717
 30
0
 11
118.058
 21
331.426
 31
0
  0
ARC
  5
A31
330
A02
100
AcDbEntity
  8
Shape2DView
100
AcDbCircle
 10
130.546
 20
323.117
 30
0
 40
15
100
AcDbArc
 50
136.05
 51
146.361
  0
LINE
  5
A32
330
A02
100
AcDbEntity
  8
Shape2DView
100
AcDbLine
 10
119.747
 20
333.527
 30
0
 11
121.19
 21
335.025
 31
0
  0
ARC
  5
A33
330
A02
100
AcDbEntity
  8
Shape2DView
100
AcDbCircle
 10
131.99
 20
324.614
 30
0
 40
15
100
AcDbArc
 50
122.992
 51
136.05
  0
LINE
  5
A34
330
A02
100
AcDbEntity
  8
Shape2DView
100
AcDbLine
 10
123.822
 20
337.196
 30
0
 11
127.547
 21
339.614
 31
0
  0
ARC
  5
A35
330
A02
100
AcDbEntity
  8
Shape2DView
100
AcDbCircle
 10
135.715
 20
327.033
 30
0
 40
15
100
AcDbArc
 50
110.333
 51
122.992
  0
LINE
  5
A36
330
A02
100
AcDbEntity
  8
Shape2DView
100
AcDbLine
 10
130.503
 20
341.098
 30
0
 11
135.208
 21
342.842
 31
0
  0
ARC
  5
A37
330
A02
100
AcDbEntity
  8
Shape2DView
100
AcDbCircle
 10
140.42
 20
328.777
 30
0
 40
15
100
AcDbArc
 50
102.078
 51
110.333
  0
LINE
  5
A38
330
A02
100
AcDbEntity
  8
Shape2DView
100
AcDbLine
 10
137.282
 20
343.445
 30
0
 11
142.802
 21
344.626
 31
0
  0
ARC
  5
A39
330
A02
100
AcDbEntity
  8
Shape2DView
100
AcDbCircle
 10
145.94
 20
329.958
 30
0
 40
15
100
AcDbArc
 50
96.7587
 51
102.078
  0
LINE
  5
A3A
330
A02
100
AcDbEntity
  8
Shape2DView
100
AcDbLine
 10
144.175
 20
344.854
 30
0
 11
150.344
 21
345.585
 31
0
  0
ARC
  5
A3B
330
A02
100
AcDbEntity
  8
Shape2DView
100
AcDbCircle
 10
152.109
 20
330.689
 30
0
 40
15
100
AcDbArc
 50
93.3854
 51
96.7587
  0
LINE
  5
A3C
330
A02
100
AcDbEntity
  8
Shape2DView
100
AcDbLine
 10
151.224
 20
345.663
 30
0
 11
157.877
 21
346.056
 31
0
  0
ARC
  5
A3D
330
A02
100
AcDbEntity
  8
Shape2DView
100
AcDbCircle
 10
158.762
 20
331.083
 30
0
 40
15
100
AcDbArc
 50
90.9123
 51
93.3854
  0
LINE
  5
A3E
330
A02
100
AcDbEntity
  8
Shape2DView
100
AcDbLine
 10
158.524
 20
346.081
 30
0
 11
172.621
 21
346.305
 31
0
  0
ARC
  5
A3F
330
A02
100
AcDbEntity
  8
Shape2DView
100
AcDbCircle
 10
172.86
 20
331.307
 30
0
 40
15
100
AcDbArc
 50
90.9003
 51
90.9123
  0
LINE
  5
A40
330
A02
100
AcDbEntity
  8
Shape2DView
100
AcDbLine
 10
172.624
 20
346.305
 30
0
 11
186.202
 21
346.519
 31
0
  0
LINE
  5
A41
330
A02
100
AcDbEntity
  8
Shape2DView
100
AcDbLine
 10
186.202
 20
346.519
 30
0
 11
191.979
 21
346.856
 31
0
  0
LINE
  5
A42
330
A02
100
AcDbEntity
  8
Shape2DView
100
AcDbLine
 10
191.979
 20
346.856
 30
0
 11
196.898
 21
347.431
 31
0
  0
LINE
  5
A43
330
A02
100
AcDbEntity
  8
Shape2DView
100
AcDbLine
 10
196.898
 20
347.431
 30
0
 11
200.555
 21
348.206
 31
0
  0
LINE
  5
A44
330
A02
100
AcDbEntity
  8
Shape2DView
100
AcDbLine
 10
200.555
 20
348.206
 30
0
 11
201.669
 21
348.616
 31
0
  0
LINE
  5
A45
330
A02
100
AcDbEntity
  8
Shape2DView
100
AcDbLine
 10
201.669
 20
348.616
 30
0
 11
201.669
 21
349.609
 31
0
  0
SPLINE
  5
A46
330
A02
100
AcDbEntity
  8
Shape2DView
100
AcDbSpline
210
0
220
0
230
1
 70
8
 71
3
 72
17
 73
13
 74
0
 40
0.0109404
 40
0.0109404
 40
0.0109404
 40
0.0109404
 40
0.0737271
 40
0.0737271
 40
0.0737271
 40
0.136514
 40
0.136514
 40
0.136514
 40
0.1993
 40
0.1993
 40
0.1993
 40
0.262087
 40
0.262087
 40
0.262087
 40
0.262087
 10
201.669
 20
349.609
 30
0
 10
193.679
 20
357.602
 30
0
 10
186.082
 20
364.399
 30
0
 10
178.847
 20
370.119
 30
0
 10
171.611
 20
375.84
 30
0
 10
164.74
 20
380.483
 30
0
 10
158.188
 20
384.196
 30
0
 10
151.635
 20
387.909
 30
0
 10
145.405
 20
390.694
 30
0
 10
139.403
 20
392.722
 30
0
 10
133.398
 20
394.749
 30
0
 10
127.619
 20
396.024
 30
0
 10
121.904
 20
396.687
 30
0
  0
SPLINE
  5
A47
330
A02
100
AcDbEntity
  8
Shape2DView
100
AcDbSpline
210
0
220
0
230
1
 70
8
 71
3
 72
14
 73
10
 74
0
 40
0.262087
 40
0.262087
 40
0.262087
 40
0.262087
 40
0.310863
 40
0.310863
 40
0.310863
 40
0.359639
 40
0.359639
 40
0.359639
 40
0.457192
 40
0.457192
 40
0.457192
 40
0.457192
 10
121.904
 20
396.687
 30
0
 10
117.464
 20
397.201
 30
0
 10
113.06
 20
397.345
 30
0
 10
108.615
 20
397.153
 30
0
 10
104.171
 20
396.96
 30
0
 10
99.6853
 20
396.431
 30
0
 10
95.106
 20
395.587
 30
0
 10
85.952
 20
393.901
 30
0
 10
76.4097
 20
390.938
 30
0
 10
66.2856
 20
386.934
 30
0
  0
SPLINE
  5
A48
330
A02
100
AcDbEntity
  8
Shape2DView
100
AcDbSpline
210
0
220
0
230
1
 70
8
 71
3
 72
17
 73
13
 74
0
 40
0
 40
0
 40
0
 40
0
 40
0.260562
 40
0.260562
 40
0.260562
 40
0.505715
 40
0.505715
 40
0.505715
 40
0.645354
 40
0.645354
 40
0.645354
 40
1
 40
1
 40
1
 40
1
 10
62.1589
 20
388.735
 30
0
 10
62.2827
 20
388.344
 30
0
 10
62.5034
 20
387.959
 30
0
 10
62.8096
 20
387.638
 30
0
 10
63.0966
 20
387.335
 30
0
 10
63.4568
 20
387.092
 30
0
 10
63.8505
 20
386.932
 30
0
 10
64.076
 20
386.841
 30
0
 10
64.3078
 20
386.776
 30
0
 10
64.5462
 20
386.739
 30
0
 10
65.149
 20
386.642
 30
0
 10
65.7626
 20
386.726
 30
0
 10
66.2856
 20
386.934
 30
0
  0
SPLINE
  5
A49
330
A02
100
AcDbEntity
  8
Shape2DView
100
AcDbSpline
210
0
220
0
230
1
 70
8
 71
2
 72
6
 73
3
 74
0
 40
1.15234
 40
1.15234
 40
1.15234
 40
5.34255
 40
5.34255
 40
5.34255
 10
66.2856
 20
386.934
 30
0
 10
66.9322
 20
387.19
 30
0
 10
67.555
 20
387.432
 30
0
  0
ENDSEC
  0
SECTION
  2
OBJECTS
  0
DICTIONARY
  5
F000
330
0
100
AcDbDictionary
  3
ACAD_GROUP
350
F001
  0
DICTIONARY
  5
F001
330
F000
100
AcDbDictionary
  0
ENDSEC
  0
EOF