999
FreeCAD v0.21 33668 +26 (Git)
  0
SECTION
  2
HEADER
  9
$ACADVER
  1
AC1014
  9
$ACADMAINTVER
 70
     9
  9
$DWGCODEPAGE
  3
ANSI_1252
  9
$TEXTSTYLE
  7
STANDARD
  9
$DIMSTYLE
  2
STANDARD
  9
$DIMTXSTY
  7
STANDARD
  9
$CMLSTYLE
  2
STANDARD
  9
$LUNITS
 70
2
  9
$INSUNITS
 70
4
  9
$PEXTMAX
 10
50
 20
50
 30
50
  9
$PEXTMIN
 10
0
 20
0
 30
0
  9
$HANDSEED
  5
FFFF
  0
ENDSEC
  0
SECTION
  2
CLASSES
  0
CLASS
  1
ACDBDICTIONARYWDFLT
  2
AcDbDictionaryWithDefault
  3
ObjectDBX Classes
 90
        0
280
     0
281
     0
  0
CLASS
  1
XRECORD
  2
AcDbXrecord
  3
ObjectDBX Classes
 90
        0
280
     0
281
     0
  0
CLASS
  1
LWPOLYLINE
  2
AcDbPolyline
  3
ObjectDBX Classes
 90
        0
280
     0
281
     1
  0
ENDSEC
  0
SECTION
  2
TABLES
  0
TABLE
  2
VPORT
  5
20
330
0
100
AcDbSymbolTable
 70
     1
  0
VPORT
  5
21
330
20
100
AcDbSymbolTableRecord
100
AcDbViewportTableRecord
  2
*ACTIVE
 70
     0
  0
ENDTAB
  0
TABLE
  2
LTYPE
  5
22
330
0
100
AcDbSymbolTable
 70
     1
  0
LTYPE
  5
23
330
21
100
AcDbSymbolTableRecord
100
AcDbLinetypeTableRecord
  2
BYBLOCK
 70
     0
  3

 72
    65
 73
     0
 40
0.0
  0
LTYPE
  5
24
330
21
100
AcDbSymbolTableRecord
100
AcDbLinetypeTableRecord
  2
BYLAYER
 70
     0
  3

 72
    65
 73
     0
 40
0.0
  0
LTYPE
  5
25
330
21
100
AcDbSymbolTableRecord
100
AcDbLinetypeTableRecord
  2
CONTINUOUS
 70
     0
  3
Solid line
 72
    65
 73
     0
 40
0.0
  0
ENDTAB
  0
TABLE
  2
LAYER
  5
A54
330
0
100
AcDbSymbolTable
 70
3
  0
LAYER
  5
A55
330
A54
100
AcDbSymbolTableRecord
100
AcDbLayerTableRecord
  2
0
 70
   0
 62
   7
  6
CONTINUOUS
  0
LAYER
  5
A56
330
A54
100
AcDbSymbolTableRecord
100
AcDbLayerTableRecord
  2
none
 70
    0
 62
    7
  6
CONTINUOUS
  0
LAYER
  5
A57
330
A54
100
AcDbSymbolTableRecord
100
AcDbLayerTableRecord
  2
Shape2DView008
 70
    0
 62
    7
  6
CONTINUOUS
  0
ENDTAB
  0
TABLE
  2
STYLE
  5
70
330
0
100
AcDbSymbolTable
 70
     2
  0
STYLE
  5
71
330
70
100
AcDbSymbolTableRecord
100
AcDbTextStyleTableRecord
  2
STANDARD
 70
     0
 40
0.0
 41
1.0
 50
0.0
 71
     0
 42
2.5
  3
arial.ttf
  4

  0
STYLE
  5
72
330
70
100
AcDbSymbolTableRecord
100
AcDbTextStyleTableRecord
  2
ANNOTATIVE
 70
     0
 40
0.0
 41
1.0
 50
0.0
 71
     0
 42
2.5
  3
arial.ttf
  4

  0
ENDTAB
  0
TABLE
  2
VIEW
  5
73
330
0
100
AcDbSymbolTable
 70
     0
  0
ENDTAB
  0
TABLE
  2
UCS
  5
74
330
0
100
AcDbSymbolTable
 70
     0
  0
ENDTAB
  0
TABLE
  2
APPID
  5
75
330
0
100
AcDbSymbolTable
 70
     2
  0
APPID
  5
76
330
75
100
AcDbSymbolTableRecord
100
AcDbRegAppTableRecord
  2
ACAD
 70
     0
  0
APPID
  5
77
330
75
100
AcDbSymbolTableRecord
100
AcDbRegAppTableRecord
  2
ACADANNOTATIVE
 70
     0
  0
ENDTAB
  0
TABLE
  2
DIMSTYLE
  5
78
330
0
100
AcDbSymbolTable
 70
     2
  0
DIMSTYLE
105
79
330
78
100
AcDbSymbolTableRecord
100
AcDbDimStyleTableRecord
  2
STANDARD
 70
     0
  3

  4

  5

  6

  7

 40
0.0
 41
2.5
 42
0.625
 43
3.75
 44
1.25
 45
0.0
 46
0.0
 47
0.0
 48
0.0
140
2.5
141
2.5
142
0.0
143
0.03937007874016
144
1.0
145
0.0
146
1.0
147
0.625
 71
     0
 72
     0
 73
     0
 74
     0
 75
     0
 76
     0
 77
     1
 78
     8
170
     0
171
     3
172
     1
173
     0
174
     0
175
     0
176
     0
177
     0
178
     0
270
     2
271
     2
272
     2
273
     2
274
     3
340
71
275
     0
280
     0
281
     0
282
     0
283
     0
284
     8
285
     0
286
     0
287
     3
288
     0
  0
ENDTAB
  0
TABLE
  2
BLOCK_RECORD
  5
A01
330
0
100
AcDbSymbolTable
  70
5
  0
BLOCK_RECORD
  5
A02
330
A01
100
AcDbSymbolTableRecord
100
AcDbBlockTableRecord
  2
*MODEL_SPACE
  0
BLOCK_RECORD
  5
A03
330
A01
100
AcDbSymbolTableRecord
100
AcDbBlockTableRecord
  2
*PAPER_SPACE
  0
ENDTAB
  0
ENDSEC
  0
SECTION
  2
BLOCKS
  0
BLOCK
  5
A04
330
A02
100
AcDbEntity
  8
0
100
AcDbBlockBegin
  2
*MODEL_SPACE
 70
   0
 10
0
 20
0
 30
0
  3
*MODEL_SPACE
  1
 
  0
ENDBLK
  5
A05
330
A02
100
AcDbEntity
  8
0
100
AcDbBlockEnd
  0
BLOCK
  5
A06
330
A03
100
AcDbEntity
 67
1
  8
0
100
AcDbBlockBegin
  2
*PAPER_SPACE
 70
   0
 10
0
 20
0
 30
0
  3
*PAPER_SPACE
  1
 
  0
ENDBLK
  5
A07
330
A03
100
AcDbEntity
 67
    1
  8
0
100
AcDbBlockEnd
  0
ENDSEC
  0
SECTION
  2
ENTITIES
  0
SPLINE
  5
A08
330
A02
100
AcDbEntity
  8
Shape2DView008
100
AcDbSpline
210
0
220
0
230
1
 70
8
 71
3
 72
8
 73
4
 74
0
 40
0.180771
 40
0.180771
 40
0.180771
 40
0.180771
 40
0.352352
 40
0.352352
 40
0.352352
 40
0.352352
 10
-699.63
 20
119.671
 30
0
 10
-691.955
 20
121.865
 30
0
 10
-684.298
 20
124.182
 30
0
 10
-676.646
 20
126.53
 30
0
  0
SPLINE
  5
A09
330
A02
100
AcDbEntity
  8
Shape2DView008
100
AcDbSpline
210
0
220
0
230
1
 70
8
 71
3
 72
14
 73
10
 74
0
 40
0
 40
0
 40
0
 40
0
 40
0.176004
 40
0.176004
 40
0.176004
 40
0.531569
 40
0.531569
 40
0.531569
 40
1
 40
1
 40
1
 40
1
 10
-676.646
 20
126.53
 30
0
 10
-676.387
 20
126.61
 30
0
 10
-676.113
 20
126.648
 30
0
 10
-675.824
 20
126.644
 30
0
 10
-675.245
 20
126.635
 30
0
 10
-674.644
 20
126.424
 30
0
 10
-674.145
 20
126.068
 30
0
 10
-673.482
 20
125.602
 30
0
 10
-673.002
 20
124.9
 30
0
 10
-672.758
 20
124.186
 30
0
  0
SPLINE
  5
A0A
330
A02
100
AcDbEntity
  8
Shape2DView008
100
AcDbSpline
210
0
220
0
230
1
 70
8
 71
3
 72
8
 73
4
 74
0
 40
0.609832
 40
0.609832
 40
0.609832
 40
0.609832
 40
0.835988
 40
0.835988
 40
0.835988
 40
0.835988
 10
-629.231
 20
27.1862
 30
0
 10
-643.844
 20
55.6121
 30
0
 10
-659.863
 20
86.8475
 30
0
 10
-672.758
 20
124.186
 30
0
  0
SPLINE
  5
A0B
330
A02
100
AcDbEntity
  8
Shape2DView008
100
AcDbSpline
210
0
220
0
230
1
 70
8
 71
3
 72
17
 73
13
 74
0
 40
0.262087
 40
0.262087
 40
0.262087
 40
0.262087
 40
0.349023
 40
0.349023
 40
0.349023
 40
0.435959
 40
0.435959
 40
0.435959
 40
0.522896
 40
0.522896
 40
0.522896
 40
0.609832
 40
0.609832
 40
0.609832
 40
0.609832
 10
-591.43
 20
-97.8361
 30
0
 10
-590.173
 20
-87.0139
 30
0
 10
-590.558
 20
-76.3697
 30
0
 10
-592.18
 20
-65.9534
 30
0
 10
-593.802
 20
-55.5299
 30
0
 10
-596.64
 20
-45.3278
 30
0
 10
-600.278
 20
-35.1736
 30
0
 10
-603.919
 20
-25.0169
 30
0
 10
-608.362
 20
-14.8963
 30
0
 10
-613.284
 20
-4.57803
 30
0
 10
-618.208
 20
5.73966
 30
0
 10
-623.615
 20
16.2567
 30
0
 10
-629.231
 20
27.1862
 30
0
  0
SPLINE
  5
A0C
330
A02
100
AcDbEntity
  8
Shape2DView008
100
AcDbSpline
210
0
220
0
230
1
 70
8
 71
3
 72
17
 73
13
 74
0
 40
0
 40
0
 40
0
 40
0
 40
0.0655217
 40
0.0655217
 40
0.0655217
 40
0.131043
 40
0.131043
 40
0.131043
 40
0.196565
 40
0.196565
 40
0.196565
 40
0.262087
 40
0.262087
 40
0.262087
 40
0.262087
 10
-651.75
 20
-199.935
 30
0
 10
-642.258
 20
-190.763
 30
0
 10
-634.008
 20
-181.883
 30
0
 10
-626.887
 20
-173.189
 30
0
 10
-619.768
 20
-164.496
 30
0
 10
-613.777
 20
-155.987
 30
0
 10
-608.837
 20
-147.565
 30
0
 10
-603.898
 20
-139.146
 30
0
 10
-600.011
 20
-130.811
 30
0
 10
-597.129
 20
-122.52
 30
0
 10
-594.246
 20
-114.232
 30
0
 10
-592.373
 20
-105.991
 30
0
 10
-591.43
 20
-97.8361
 30
0
  0
ELLIPSE
  5
A0D
330
A02
100
AcDbEntity
  8
Shape2DView008
100
AcDbEllipse
 10
-662.173
 20
-189.148
 30
0
 11
-9.33725e-07
 21
-15
 31
0
 40
1
 41
6.22483e-08
 42
0.768271
  0
LINE
  5
A0E
330
A02
100
AcDbEntity
  8
Shape2DView008
100
AcDbLine
 10
-671.528
 20
-204.148
 30
0
 11
-662.173
 21
-204.148
 31
0
  0
ELLIPSE
  5
A0F
330
A02
100
AcDbEntity
  8
Shape2DView008
100
AcDbEllipse
 10
-671.528
 20
-189.148
 30
0
 11
-9.68029e-07
 21
-15
 31
0
 40
1
 41
6.17343
 42
6.28268e-08
  0
LINE
  5
A10
330
A02
100
AcDbEntity
  8
Shape2DView008
100
AcDbLine
 10
-676.137
 20
-203.731
 30
0
 11
-673.171
 21
-204.058
 31
0
  0
ELLIPSE
  5
A11
330
A02
100
AcDbEntity
  8
Shape2DView008
100
AcDbEllipse
 10
-674.494
 20
-188.821
 30
0
 11
-9.26756e-07
 21
-15
 31
0
 40
1
 41
5.92647
 42
6.17343
  0
LINE
  5
A12
330
A02
100
AcDbEntity
  8
Shape2DView008
100
AcDbLine
 10
-682.278
 20
-201.928
 30
0
 11
-679.732
 21
-202.877
 31
0
  0
ELLIPSE
  5
A13
330
A02
100
AcDbEntity
  8
Shape2DView008
100
AcDbEllipse
 10
-677.04
 20
-187.873
 30
0
 11
-9.75166e-07
 21
-15
 31
0
 40
1
 41
5.69995
 42
5.92647
  0
LINE
  5
A14
330
A02
100
AcDbEntity
  8
Shape2DView008
100
AcDbLine
 10
-686.952
 20
-199.303
 30
0
 11
-685.301
 21
-200.393
 31
0
  0
ELLIPSE
  5
A15
330
A02
100
AcDbEntity
  8
Shape2DView008
100
AcDbEllipse
 10
-678.691
 20
-186.783
 30
0
 11
-9.32186e-07
 21
-15
 31
0
 40
1
 41
5.51737
 42
5.69995
  0
LINE
  5
A16
330
A02
100
AcDbEntity
  8
Shape2DView008
100
AcDbLine
 10
-690.536
 20
-196.203
 30
0
 11
-689.088
 21
-197.595
 31
0
  0
ELLIPSE
  5
A17
330
A02
100
AcDbEntity
  8
Shape2DView008
100
AcDbEllipse
 10
-680.139
 20
-185.391
 30
0
 11
-1.24296e-06
 21
-15
 31
0
 40
1
 41
5.28695
 42
5.51737
  0
LINE
  5
A18
330
A02
100
AcDbEntity
  8
Shape2DView008
100
AcDbLine
 10
-695.068
 20
-189.932
 30
0
 11
-692.73
 21
-193.543
 31
0
  0
ELLIPSE
  5
A19
330
A02
100
AcDbEntity
  8
Shape2DView008
100
AcDbEllipse
 10
-682.477
 20
-181.78
 30
0
 11
-9.11132e-07
 21
-15
 31
0
 40
1
 41
5.06496
 42
5.28695
  0
LINE
  5
A1A
330
A02
100
AcDbEntity
  8
Shape2DView008
100
AcDbLine
 10
-698.24
 20
-182.379
 30
0
 11
-696.554
 21
-186.96
 31
0
  0
ELLIPSE
  5
A1B
330
A02
100
AcDbEntity
  8
Shape2DView008
100
AcDbEllipse
 10
-684.162
 20
-177.199
 30
0
 11
-8.69954e-07
 21
-15
 31
0
 40
1
 41
4.92113
 42
5.06496
  0
LINE
  5
A1C
330
A02
100
AcDbEntity
  8
Shape2DView008
100
AcDbLine
 10
-699.979
 20
-174.917
 30
0
 11
-698.837
 21
-180.308
 31
0
  0
ELLIPSE
  5
A1D
330
A02
100
AcDbEntity
  8
Shape2DView008
100
AcDbEllipse
 10
-685.304
 20
-171.808
 30
0
 11
-8.6845e-07
 21
-15
 31
0
 40
1
 41
4.8289
 42
4.92113
  0
LINE
  5
A1E
330
A02
100
AcDbEntity
  8
Shape2DView008
100
AcDbLine
 10
-700.91
 20
-167.511
 30
0
 11
-700.203
 21
-173.552
 31
0
  0
ELLIPSE
  5
A1F
330
A02
100
AcDbEntity
  8
Shape2DView008
100
AcDbEllipse
 10
-686.011
 20
-165.767
 30
0
 11
-9.42394e-07
 21
-15
 31
0
 40
1
 41
4.77064
 42
4.8289
  0
LINE
  5
A20
330
A02
100
AcDbEntity
  8
Shape2DView008
100
AcDbLine
 10
-701.367
 20
-160.109
 30
0
 11
-700.986
 21
-166.64
 31
0
  0
ELLIPSE
  5
A21
330
A02
100
AcDbEntity
  8
Shape2DView008
100
AcDbEllipse
 10
-686.392
 20
-159.235
 30
0
 11
-9.2776e-07
 21
-15
 31
0
 40
1
 41
4.7281
 42
4.77064
  0
LINE
  5
A22
330
A02
100
AcDbEntity
  8
Shape2DView008
100
AcDbLine
 10
-701.609
 20
-145.576
 30
0
 11
-701.39
 21
-159.471
 31
0
  0
LINE
  5
A23
330
A02
100
AcDbEntity
  8
Shape2DView008
100
AcDbLine
 10
-701.828
 20
-131.804
 30
0
 11
-701.609
 21
-145.576
 31
0
  0
LINE
  5
A24
330
A02
100
AcDbEntity
  8
Shape2DView008
100
AcDbLine
 10
-702.176
 20
-125.915
 30
0
 11
-701.828
 21
-131.804
 31
0
  0
LINE
  5
A25
330
A02
100
AcDbEntity
  8
Shape2DView008
100
AcDbLine
 10
-702.774
 20
-120.876
 30
0
 11
-702.176
 21
-125.915
 31
0
  0
LINE
  5
A26
330
A02
100
AcDbEntity
  8
Shape2DView008
100
AcDbLine
 10
-703.582
 20
-117.096
 30
0
 11
-702.774
 21
-120.876
 31
0
  0
LINE
  5
A27
330
A02
100
AcDbEntity
  8
Shape2DView008
100
AcDbLine
 10
-704.21
 20
-115.402
 30
0
 11
-703.582
 21
-117.096
 31
0
  0
ELLIPSE
  5
A28
330
A02
100
AcDbEntity
  8
Shape2DView008
100
AcDbEllipse
 10
-702.395
 20
-100.513
 30
0
 11
-9.44325e-07
 21
-15
 31
0
 40
1
 41
4.84612
 42
6.16189
  0
LINE
  5
A29
330
A02
100
AcDbEntity
  8
Shape2DView008
100
AcDbLine
 10
-717.261
 20
-102.513
 30
0
 11
-709.372
 21
-102.513
 31
0
  0
LINE
  5
A2A
330
A02
100
AcDbEntity
  8
Shape2DView008
100
AcDbLine
 10
-709.372
 20
-102.513
 30
0
 11
-709.372
 21
-98.5125
 31
0
  0
LINE
  5
A2B
330
A02
100
AcDbEntity
  8
Shape2DView008
100
AcDbLine
 10
-709.372
 20
-98.5125
 30
0
 11
-717.261
 21
-98.5125
 31
0
  0
ELLIPSE
  5
A2C
330
A02
100
AcDbEntity
  8
Shape2DView008
100
AcDbEllipse
 10
-702.395
 20
-100.513
 30
0
 11
-9.44325e-07
 21
-15
 31
0
 40
1
 41
3.03088
 42
4.57866
  0
LINE
  5
A2D
330
A02
100
AcDbEntity
  8
Shape2DView008
100
AcDbLine
 10
-700.738
 20
-85.6043
 30
0
 11
-697.565
 21
-85.957
 31
0
  0
ELLIPSE
  5
A2E
330
A02
100
AcDbEntity
  8
Shape2DView008
100
AcDbEllipse
 10
-699.222
 20
-100.865
 30
0
 11
-9.14191e-07
 21
-15
 31
0
 40
1
 41
2.78115
 42
3.03088
  0
LINE
  5
A2F
330
A02
100
AcDbEntity
  8
Shape2DView008
100
AcDbLine
 10
-693.932
 20
-86.8291
 30
0
 11
-691.219
 21
-87.8516
 31
0
  0
ELLIPSE
  5
A30
330
A02
100
AcDbEntity
  8
Shape2DView008
100
AcDbEllipse
 10
-696.51
 20
-101.888
 30
0
 11
-1.13404e-06
 21
-15
 31
0
 40
1
 41
2.55449
 42
2.78115
  0
LINE
  5
A31
330
A02
100
AcDbEntity
  8
Shape2DView008
100
AcDbLine
 10
-688.2
 20
-89.3995
 30
0
 11
-686.492
 21
-90.5364
 31
0
  0
ELLIPSE
  5
A32
330
A02
100
AcDbEntity
  8
Shape2DView008
100
AcDbEllipse
 10
-694.801
 20
-103.025
 30
0
 11
-1.09699e-06
 21
-15
 31
0
 40
1
 41
2.37452
 42
2.55449
  0
LINE
  5
A33
330
A02
100
AcDbEntity
  8
Shape2DView008
100
AcDbLine
 10
-684.39
 20
-92.2254
 30
0
 11
-682.893
 21
-93.6692
 31
0
  0
ELLIPSE
  5
A34
330
A02
100
AcDbEntity
  8
Shape2DView008
100
AcDbEllipse
 10
-693.303
 20
-104.468
 30
0
 11
-1.08789e-06
 21
-15
 31
0
 40
1
 41
2.14662
 42
2.37452
  0
LINE
  5
A35
330
A02
100
AcDbEntity
  8
Shape2DView008
100
AcDbLine
 10
-680.722
 20
-96.3004
 30
0
 11
-678.303
 21
-100.026
 31
0
  0
ELLIPSE
  5
A36
330
A02
100
AcDbEntity
  8
Shape2DView008
100
AcDbEllipse
 10
-690.885
 20
-108.194
 30
0
 11
-9.1555e-07
 21
-15
 31
0
 40
1
 41
1.92568
 42
2.14662
  0
LINE
  5
A37
330
A02
100
AcDbEntity
  8
Shape2DView008
100
AcDbLine
 10
-676.819
 20
-102.982
 30
0
 11
-675.076
 21
-107.687
 31
0
  0
ELLIPSE
  5
A38
330
A02
100
AcDbEntity
  8
Shape2DView008
100
AcDbEllipse
 10
-689.141
 20
-112.899
 30
0
 11
-8.12679e-07
 21
-15
 31
0
 40
1
 41
1.7816
 42
1.92568
  0
LINE
  5
A39
330
A02
100
AcDbEntity
  8
Shape2DView008
100
AcDbLine
 10
-674.473
 20
-109.761
 30
0
 11
-673.292
 21
-115.28
 31
0
  0
ELLIPSE
  5
A3A
330
A02
100
AcDbEntity
  8
Shape2DView008
100
AcDbEllipse
 10
-687.96
 20
-118.419
 30
0
 11
-9.41774e-07
 21
-15
 31
0
 40
1
 41
1.68876
 42
1.7816
  0
LINE
  5
A3B
330
A02
100
AcDbEntity
  8
Shape2DView008
100
AcDbLine
 10
-673.064
 20
-116.654
 30
0
 11
-672.333
 21
-122.823
 31
0
  0
ELLIPSE
  5
A3C
330
A02
100
AcDbEntity
  8
Shape2DView008
100
AcDbEllipse
 10
-687.229
 20
-124.588
 30
0
 11
-9.16624e-07
 21
-15
 31
0
 40
1
 41
1.62988
 42
1.68876
  0
LINE
  5
A3D
330
A02
100
AcDbEntity
  8
Shape2DView008
100
AcDbLine
 10
-672.255
 20
-123.702
 30
0
 11
-671.861
 21
-130.355
 31
0
  0
ELLIPSE
  5
A3E
330
A02
100
AcDbEntity
  8
Shape2DView008
100
AcDbEllipse
 10
-686.835
 20
-131.241
 30
0
 11
-9.25754e-07
 21
-15
 31
0
 40
1
 41
1.58672
 42
1.62988
  0
LINE
  5
A3F
330
A02
100
AcDbEntity
  8
Shape2DView008
100
AcDbLine
 10
-671.837
 20
-131.002
 30
0
 11
-671.613
 21
-145.1
 31
0
  0
ELLIPSE
  5
A40
330
A02
100
AcDbEntity
  8
Shape2DView008
100
AcDbEllipse
 10
-686.611
 20
-145.338
 30
0
 11
-9.2776e-07
 21
-15
 31
0
 40
1
 41
1.58651
 42
1.58672
  0
LINE
  5
A41
330
A02
100
AcDbEntity
  8
Shape2DView008
100
AcDbLine
 10
-671.612
 20
-145.103
 30
0
 11
-671.399
 21
-158.681
 31
0
  0
LINE
  5
A42
330
A02
100
AcDbEntity
  8
Shape2DView008
100
AcDbLine
 10
-671.399
 20
-158.681
 30
0
 11
-671.062
 21
-164.458
 31
0
  0
LINE
  5
A43
330
A02
100
AcDbEntity
  8
Shape2DView008
100
AcDbLine
 10
-671.062
 20
-164.458
 30
0
 11
-670.486
 21
-169.377
 31
0
  0
LINE
  5
A44
330
A02
100
AcDbEntity
  8
Shape2DView008
100
AcDbLine
 10
-670.486
 20
-169.377
 30
0
 11
-669.712
 21
-173.034
 31
0
  0
LINE
  5
A45
330
A02
100
AcDbEntity
  8
Shape2DView008
100
AcDbLine
 10
-669.712
 20
-173.034
 30
0
 11
-669.302
 21
-174.148
 31
0
  0
LINE
  5
A46
330
A02
100
AcDbEntity
  8
Shape2DView008
100
AcDbLine
 10
-669.302
 20
-174.148
 30
0
 11
-668.309
 21
-174.148
 31
0
  0
SPLINE
  5
A47
330
A02
100
AcDbEntity
  8
Shape2DView008
100
AcDbSpline
210
0
220
0
230
1
 70
8
 71
3
 72
17
 73
13
 74
0
 40
0.0109404
 40
0.0109404
 40
0.0109404
 40
0.0109404
 40
0.0737271
 40
0.0737271
 40
0.0737271
 40
0.136514
 40
0.136514
 40
0.136514
 40
0.1993
 40
0.1993
 40
0.1993
 40
0.262087
 40
0.262087
 40
0.262087
 40
0.262087
 10
-668.309
 20
-174.148
 30
0
 10
-660.315
 20
-166.157
 30
0
 10
-653.518
 20
-158.561
 30
0
 10
-647.798
 20
-151.325
 30
0
 10
-642.077
 20
-144.09
 30
0
 10
-637.435
 20
-137.218
 30
0
 10
-633.722
 20
-130.667
 30
0
 10
-630.009
 20
-124.114
 30
0
 10
-627.224
 20
-117.884
 30
0
 10
-625.196
 20
-111.882
 30
0
 10
-623.169
 20
-105.877
 30
0
 10
-621.894
 20
-100.098
 30
0
 10
-621.23
 20
-94.3831
 30
0
  0
SPLINE
  5
A48
330
A02
100
AcDbEntity
  8
Shape2DView008
100
AcDbSpline
210
0
220
0
230
1
 70
8
 71
3
 72
17
 73
13
 74
0
 40
0.262087
 40
0.262087
 40
0.262087
 40
0.262087
 40
0.349023
 40
0.349023
 40
0.349023
 40
0.435959
 40
0.435959
 40
0.435959
 40
0.522896
 40
0.522896
 40
0.522896
 40
0.609832
 40
0.609832
 40
0.609832
 40
0.609832
 10
-621.23
 20
-94.3831
 30
0
 10
-620.317
 20
-86.4726
 30
0
 10
-620.569
 20
-78.6599
 30
0
 10
-621.824
 20
-70.562
 30
0
 10
-623.081
 20
-62.4713
 30
0
 10
-625.362
 20
-54.1019
 30
0
 10
-628.52
 20
-45.2939
 30
0
 10
-631.674
 20
-36.4884
 30
0
 10
-635.702
 20
-27.256
 30
0
 10
-640.36
 20
-17.4975
 30
0
 10
-645.016
 20
-7.73827
 30
0
 10
-650.298
 20
2.54557
 30
0
 10
-655.914
 20
13.4742
 30
0
  0
SPLINE
  5
A49
330
A02
100
AcDbEntity
  8
Shape2DView008
100
AcDbSpline
210
0
220
0
230
1
 70
8
 71
3
 72
8
 73
4
 74
0
 40
0.609832
 40
0.609832
 40
0.609832
 40
0.609832
 40
0.836913
 40
0.836913
 40
0.836913
 40
0.836913
 10
-655.914
 20
13.4742
 30
0
 10
-670.581
 20
42.0264
 30
0
 10
-687.538
 20
74.9597
 30
0
 10
-701.283
 20
114.88
 30
0
  0
SPLINE
  5
A4A
330
A02
100
AcDbEntity
  8
Shape2DView008
100
AcDbSpline
210
0
220
0
230
1
 70
8
 71
3
 72
17
 73
13
 74
0
 40
0
 40
0
 40
0
 40
0
 40
0.160874
 40
0.160874
 40
0.160874
 40
0.462412
 40
0.462412
 40
0.462412
 40
0.921342
 40
0.921342
 40
0.921342
 40
1
 40
1
 40
1
 40
1
 10
-699.63
 20
119.671
 30
0
 10
-699.885
 20
119.6
 30
0
 10
-700.129
 20
119.479
 30
0
 10
-700.361
 20
119.309
 30
0
 10
-700.792
 20
118.993
 30
0
 10
-701.133
 20
118.5
 30
0
 10
-701.33
 20
117.946
 30
0
 10
-701.634
 20
117.099
 30
0
 10
-701.621
 20
116.137
 30
0
 10
-701.408
 20
115.301
 30
0
 10
-701.372
 20
115.157
 30
0
 10
-701.33
 20
115.017
 30
0
 10
-701.283
 20
114.88
 30
0
  0
SPLINE
  5
A4B
330
A02
100
AcDbEntity
  8
Shape2DView008
100
AcDbSpline
210
0
220
0
230
1
 70
8
 71
2
 72
6
 73
3
 74
0
 40
2.80647
 40
2.80647
 40
2.80647
 40
7.95763
 40
7.95763
 40
7.95763
 10
-701.283
 20
114.88
 30
0
 10
-700.719
 20
113.242
 30
0
 10
-700.181
 20
111.713
 30
0
  0
SPLINE
  5
A4C
330
A02
100
AcDbEntity
  8
Shape2DView008
100
AcDbSpline
210
0
220
0
230
1
 70
8
 71
1
 72
4
 73
2
 74
0
 40
0.999931
 40
0.999931
 40
1
 40
1
 10
-700.181
 20
111.713
 30
0
 10
-700.181
 20
111.713
 30
0
  0
SPLINE
  5
A4D
330
A02
100
AcDbEntity
  8
Shape2DView008
100
AcDbSpline
210
0
220
0
230
1
 70
8
 71
1
 72
4
 73
2
 74
0
 40
1.65912
 40
1.65912
 40
1.99735
 40
1.99735
 10
-672.758
 20
124.186
 30
0
 10
-672.702
 20
124.023
 30
0
  0
SPLINE
  5
A4E
330
A02
100
AcDbEntity
  8
Shape2DView008
100
AcDbSpline
210
0
220
0
230
1
 70
8
 71
3
 72
8
 73
4
 74
0
 40
0.609832
 40
0.609832
 40
0.609832
 40
0.609832
 40
0.83088
 40
0.83088
 40
0.83088
 40
0.83088
 10
-655.914
 20
13.4742
 30
0
 10
-670.192
 20
41.2677
 30
0
 10
-686.639
 20
73.213
 30
0
 10
-700.181
 20
111.713
 30
0
  0
SPLINE
  5
A4F
330
A02
100
AcDbEntity
  8
Shape2DView008
100
AcDbSpline
210
0
220
0
230
1
 70
8
 71
3
 72
8
 73
4
 74
0
 40
0.609832
 40
0.609832
 40
0.609832
 40
0.609832
 40
0.655063
 40
0.655063
 40
0.655063
 40
0.655063
 10
-629.231
 20
27.1862
 30
0
 10
-632.153
 20
32.8724
 30
0
 10
-635.132
 20
38.6696
 30
0
 10
-638.131
 20
44.6056
 30
0
  0
SPLINE
  5
A50
330
A02
100
AcDbEntity
  8
Shape2DView008
100
AcDbSpline
210
0
220
0
230
1
 70
8
 71
1
 72
4
 73
2
 74
0
 40
0.830281
 40
0.830281
 40
0.83164
 40
0.83164
 10
-671.776
 20
121.371
 30
0
 10
-672.011
 20
122.039
 30
0
  0
SPLINE
  5
A51
330
A02
100
AcDbEntity
  8
Shape2DView008
100
AcDbSpline
210
0
220
0
230
1
 70
8
 71
3
 72
17
 73
13
 74
0
 40
0.262087
 40
0.262087
 40
0.262087
 40
0.262087
 40
0.349023
 40
0.349023
 40
0.349023
 40
0.435959
 40
0.435959
 40
0.435959
 40
0.522896
 40
0.522896
 40
0.522896
 40
0.609832
 40
0.609832
 40
0.609832
 40
0.609832
 10
-621.23
 20
-94.3831
 30
0
 10
-620.317
 20
-86.4726
 30
0
 10
-620.569
 20
-78.6599
 30
0
 10
-621.824
 20
-70.562
 30
0
 10
-623.081
 20
-62.4713
 30
0
 10
-625.362
 20
-54.1019
 30
0
 10
-628.52
 20
-45.2939
 30
0
 10
-631.674
 20
-36.4884
 30
0
 10
-635.702
 20
-27.256
 30
0
 10
-640.36
 20
-17.4975
 30
0
 10
-645.016
 20
-7.73827
 30
0
 10
-650.298
 20
2.54557
 30
0
 10
-655.914
 20
13.4742
 30
0
  0
SPLINE
  5
A52
330
A02
100
AcDbEntity
  8
Shape2DView008
100
AcDbSpline
210
0
220
0
230
1
 70
8
 71
3
 72
17
 73
13
 74
0
 40
0.0109404
 40
0.0109404
 40
0.0109404
 40
0.0109404
 40
0.0737271
 40
0.0737271
 40
0.0737271
 40
0.136514
 40
0.136514
 40
0.136514
 40
0.1993
 40
0.1993
 40
0.1993
 40
0.262087
 40
0.262087
 40
0.262087
 40
0.262087
 10
-668.309
 20
-174.148
 30
0
 10
-660.315
 20
-166.157
 30
0
 10
-653.518
 20
-158.561
 30
0
 10
-647.798
 20
-151.325
 30
0
 10
-642.077
 20
-144.09
 30
0
 10
-637.435
 20
-137.218
 30
0
 10
-633.722
 20
-130.667
 30
0
 10
-630.009
 20
-124.114
 30
0
 10
-627.224
 20
-117.884
 30
0
 10
-625.196
 20
-111.882
 30
0
 10
-623.169
 20
-105.877
 30
0
 10
-621.894
 20
-100.098
 30
0
 10
-621.23
 20
-94.3831
 30
0
  0
SPLINE
  5
A53
330
A02
100
AcDbEntity
  8
Shape2DView008
100
AcDbSpline
210
0
220
0
230
1
 70
8
 71
3
 72
17
 73
13
 74
0
 40
0
 40
0
 40
0
 40
0
 40
0.0655217
 40
0.0655217
 40
0.0655217
 40
0.131043
 40
0.131043
 40
0.131043
 40
0.196565
 40
0.196565
 40
0.196565
 40
0.262087
 40
0.262087
 40
0.262087
 40
0.262087
 10
-651.75
 20
-199.935
 30
0
 10
-642.258
 20
-190.763
 30
0
 10
-634.008
 20
-181.883
 30
0
 10
-626.887
 20
-173.189
 30
0
 10
-619.768
 20
-164.496
 30
0
 10
-613.777
 20
-155.987
 30
0
 10
-608.837
 20
-147.565
 30
0
 10
-603.898
 20
-139.146
 30
0
 10
-600.011
 20
-130.811
 30
0
 10
-597.129
 20
-122.52
 30
0
 10
-594.246
 20
-114.232
 30
0
 10
-592.373
 20
-105.991
 30
0
 10
-591.43
 20
-97.8361
 30
0
  0
ENDSEC
  0
SECTION
  2
OBJECTS
  0
DICTIONARY
  5
F000
330
0
100
AcDbDictionary
  3
ACAD_GROUP
350
F001
  0
DICTIONARY
  5
F001
330
F000
100
AcDbDictionary
  0
ENDSEC
  0
EOF