999
FreeCAD v0.21 33668 +26 (Git)
  0
SECTION
  2
HEADER
  9
$ACADVER
  1
AC1014
  9
$ACADMAINTVER
 70
     9
  9
$DWGCODEPAGE
  3
ANSI_1252
  9
$TEXTSTYLE
  7
STANDARD
  9
$DIMSTYLE
  2
STANDARD
  9
$DIMTXSTY
  7
STANDARD
  9
$CMLSTYLE
  2
STANDARD
  9
$LUNITS
 70
2
  9
$INSUNITS
 70
4
  9
$PEXTMAX
 10
50
 20
50
 30
50
  9
$PEXTMIN
 10
0
 20
0
 30
0
  9
$HANDSEED
  5
FFFF
  0
ENDSEC
  0
SECTION
  2
CLASSES
  0
CLASS
  1
ACDBDICTIONARYWDFLT
  2
AcDbDictionaryWithDefault
  3
ObjectDBX Classes
 90
        0
280
     0
281
     0
  0
CLASS
  1
XRECORD
  2
AcDbXrecord
  3
ObjectDBX Classes
 90
        0
280
     0
281
     0
  0
CLASS
  1
LWPOLYLINE
  2
AcDbPolyline
  3
ObjectDBX Classes
 90
        0
280
     0
281
     1
  0
ENDSEC
  0
SECTION
  2
TABLES
  0
TABLE
  2
VPORT
  5
20
330
0
100
AcDbSymbolTable
 70
     1
  0
VPORT
  5
21
330
20
100
AcDbSymbolTableRecord
100
AcDbViewportTableRecord
  2
*ACTIVE
 70
     0
  0
ENDTAB
  0
TABLE
  2
LTYPE
  5
22
330
0
100
AcDbSymbolTable
 70
     1
  0
LTYPE
  5
23
330
21
100
AcDbSymbolTableRecord
100
AcDbLinetypeTableRecord
  2
BYBLOCK
 70
     0
  3

 72
    65
 73
     0
 40
0.0
  0
LTYPE
  5
24
330
21
100
AcDbSymbolTableRecord
100
AcDbLinetypeTableRecord
  2
BYLAYER
 70
     0
  3

 72
    65
 73
     0
 40
0.0
  0
LTYPE
  5
25
330
21
100
AcDbSymbolTableRecord
100
AcDbLinetypeTableRecord
  2
CONTINUOUS
 70
     0
  3
Solid line
 72
    65
 73
     0
 40
0.0
  0
ENDTAB
  0
TABLE
  2
LAYER
  5
A56
330
0
100
AcDbSymbolTable
 70
3
  0
LAYER
  5
A57
330
A56
100
AcDbSymbolTableRecord
100
AcDbLayerTableRecord
  2
0
 70
   0
 62
   7
  6
CONTINUOUS
  0
LAYER
  5
A58
330
A56
100
AcDbSymbolTableRecord
100
AcDbLayerTableRecord
  2
none
 70
    0
 62
    7
  6
CONTINUOUS
  0
LAYER
  5
A59
330
A56
100
AcDbSymbolTableRecord
100
AcDbLayerTableRecord
  2
Shape2DView014
 70
    0
 62
    7
  6
CONTINUOUS
  0
ENDTAB
  0
TABLE
  2
STYLE
  5
70
330
0
100
AcDbSymbolTable
 70
     2
  0
STYLE
  5
71
330
70
100
AcDbSymbolTableRecord
100
AcDbTextStyleTableRecord
  2
STANDARD
 70
     0
 40
0.0
 41
1.0
 50
0.0
 71
     0
 42
2.5
  3
arial.ttf
  4

  0
STYLE
  5
72
330
70
100
AcDbSymbolTableRecord
100
AcDbTextStyleTableRecord
  2
ANNOTATIVE
 70
     0
 40
0.0
 41
1.0
 50
0.0
 71
     0
 42
2.5
  3
arial.ttf
  4

  0
ENDTAB
  0
TABLE
  2
VIEW
  5
73
330
0
100
AcDbSymbolTable
 70
     0
  0
ENDTAB
  0
TABLE
  2
UCS
  5
74
330
0
100
AcDbSymbolTable
 70
     0
  0
ENDTAB
  0
TABLE
  2
APPID
  5
75
330
0
100
AcDbSymbolTable
 70
     2
  0
APPID
  5
76
330
75
100
AcDbSymbolTableRecord
100
AcDbRegAppTableRecord
  2
ACAD
 70
     0
  0
APPID
  5
77
330
75
100
AcDbSymbolTableRecord
100
AcDbRegAppTableRecord
  2
ACADANNOTATIVE
 70
     0
  0
ENDTAB
  0
TABLE
  2
DIMSTYLE
  5
78
330
0
100
AcDbSymbolTable
 70
     2
  0
DIMSTYLE
105
79
330
78
100
AcDbSymbolTableRecord
100
AcDbDimStyleTableRecord
  2
STANDARD
 70
     0
  3

  4

  5

  6

  7

 40
0.0
 41
2.5
 42
0.625
 43
3.75
 44
1.25
 45
0.0
 46
0.0
 47
0.0
 48
0.0
140
2.5
141
2.5
142
0.0
143
0.03937007874016
144
1.0
145
0.0
146
1.0
147
0.625
 71
     0
 72
     0
 73
     0
 74
     0
 75
     0
 76
     0
 77
     1
 78
     8
170
     0
171
     3
172
     1
173
     0
174
     0
175
     0
176
     0
177
     0
178
     0
270
     2
271
     2
272
     2
273
     2
274
     3
340
71
275
     0
280
     0
281
     0
282
     0
283
     0
284
     8
285
     0
286
     0
287
     3
288
     0
  0
ENDTAB
  0
TABLE
  2
BLOCK_RECORD
  5
A01
330
0
100
AcDbSymbolTable
  70
5
  0
BLOCK_RECORD
  5
A02
330
A01
100
AcDbSymbolTableRecord
100
AcDbBlockTableRecord
  2
*MODEL_SPACE
  0
BLOCK_RECORD
  5
A03
330
A01
100
AcDbSymbolTableRecord
100
AcDbBlockTableRecord
  2
*PAPER_SPACE
  0
ENDTAB
  0
ENDSEC
  0
SECTION
  2
BLOCKS
  0
BLOCK
  5
A04
330
A02
100
AcDbEntity
  8
0
100
AcDbBlockBegin
  2
*MODEL_SPACE
 70
   0
 10
0
 20
0
 30
0
  3
*MODEL_SPACE
  1
 
  0
ENDBLK
  5
A05
330
A02
100
AcDbEntity
  8
0
100
AcDbBlockEnd
  0
BLOCK
  5
A06
330
A03
100
AcDbEntity
 67
1
  8
0
100
AcDbBlockBegin
  2
*PAPER_SPACE
 70
   0
 10
0
 20
0
 30
0
  3
*PAPER_SPACE
  1
 
  0
ENDBLK
  5
A07
330
A03
100
AcDbEntity
 67
    1
  8
0
100
AcDbBlockEnd
  0
ENDSEC
  0
SECTION
  2
ENTITIES
  0
SPLINE
  5
A08
330
A02
100
AcDbEntity
  8
Shape2DView014
100
AcDbSpline
210
0
220
0
230
1
 70
8
 71
3
 72
8
 73
4
 74
0
 40
0.373337
 40
0.373337
 40
0.373337
 40
0.373337
 40
0.546525
 40
0.546525
 40
0.546525
 40
0.546525
 10
-945.936
 20
59.9722
 30
0
 10
-953.657
 20
57.5898
 30
0
 10
-961.373
 20
55.1717
 30
0
 10
-969.086
 20
52.7388
 30
0
  0
SPLINE
  5
A09
330
A02
100
AcDbEntity
  8
Shape2DView014
100
AcDbSpline
210
0
220
0
230
1
 70
8
 71
3
 72
14
 73
10
 74
0
 40
0
 40
0
 40
0
 40
0
 40
0.190715
 40
0.190715
 40
0.190715
 40
0.589724
 40
0.589724
 40
0.589724
 40
1
 40
1
 40
1
 40
1
 10
-969.086
 20
52.7388
 30
0
 10
-969.345
 20
52.6564
 30
0
 10
-969.618
 20
52.6134
 30
0
 10
-969.905
 20
52.6097
 30
0
 10
-970.502
 20
52.6017
 30
0
 10
-971.123
 20
52.7934
 30
0
 10
-971.637
 20
53.1377
 30
0
 10
-972.168
 20
53.4892
 30
0
 10
-972.585
 20
53.993
 30
0
 10
-972.842
 20
54.53
 30
0
  0
SPLINE
  5
A0A
330
A02
100
AcDbEntity
  8
Shape2DView014
100
AcDbSpline
210
0
220
0
230
1
 70
8
 71
3
 72
8
 73
4
 74
0
 40
0.609832
 40
0.609832
 40
0.609832
 40
0.609832
 40
0.699194
 40
0.699194
 40
0.699194
 40
0.699194
 10
-990.544
 20
89.7451
 30
0
 10
-984.771
 20
78.5113
 30
0
 10
-978.776
 20
66.8427
 30
0
 10
-972.842
 20
54.53
 30
0
  0
SPLINE
  5
A0B
330
A02
100
AcDbEntity
  8
Shape2DView014
100
AcDbSpline
210
0
220
0
230
1
 70
8
 71
3
 72
17
 73
13
 74
0
 40
0.262087
 40
0.262087
 40
0.262087
 40
0.262087
 40
0.349023
 40
0.349023
 40
0.349023
 40
0.435959
 40
0.435959
 40
0.435959
 40
0.522896
 40
0.522896
 40
0.522896
 40
0.609832
 40
0.609832
 40
0.609832
 40
0.609832
 10
-1028.35
 20
214.767
 30
0
 10
-1029.6
 20
203.945
 30
0
 10
-1029.22
 20
193.301
 30
0
 10
-1027.59
 20
182.885
 30
0
 10
-1025.97
 20
172.461
 30
0
 10
-1023.13
 20
162.259
 30
0
 10
-1019.5
 20
152.105
 30
0
 10
-1015.86
 20
141.948
 30
0
 10
-1011.41
 20
131.828
 30
0
 10
-1006.49
 20
121.509
 30
0
 10
-1001.57
 20
111.192
 30
0
 10
-996.16
 20
100.675
 30
0
 10
-990.544
 20
89.7451
 30
0
  0
SPLINE
  5
A0C
330
A02
100
AcDbEntity
  8
Shape2DView014
100
AcDbSpline
210
0
220
0
230
1
 70
8
 71
3
 72
17
 73
13
 74
0
 40
0
 40
0
 40
0
 40
0
 40
0.0655217
 40
0.0655217
 40
0.0655217
 40
0.131043
 40
0.131043
 40
0.131043
 40
0.196565
 40
0.196565
 40
0.196565
 40
0.262087
 40
0.262087
 40
0.262087
 40
0.262087
 10
-968.026
 20
316.866
 30
0
 10
-977.517
 20
307.694
 30
0
 10
-985.768
 20
298.814
 30
0
 10
-992.888
 20
290.121
 30
0
 10
-1000.01
 20
281.427
 30
0
 10
-1006
 20
272.918
 30
0
 10
-1010.94
 20
264.497
 30
0
 10
-1015.88
 20
256.077
 30
0
 10
-1019.76
 20
247.742
 30
0
 10
-1022.65
 20
239.451
 30
0
 10
-1025.53
 20
231.163
 30
0
 10
-1027.4
 20
222.922
 30
0
 10
-1028.35
 20
214.767
 30
0
  0
ELLIPSE
  5
A0D
330
A02
100
AcDbEntity
  8
Shape2DView014
100
AcDbEllipse
 10
-957.602
 20
306.079
 30
0
 11
4.96964e-07
 21
-15
 31
0
 40
1
 41
3.14159
 42
3.90986
  0
LINE
  5
A0E
330
A02
100
AcDbEntity
  8
Shape2DView014
100
AcDbLine
 10
-948.247
 20
321.079
 30
0
 11
-957.602
 21
321.079
 31
0
  0
ELLIPSE
  5
A0F
330
A02
100
AcDbEntity
  8
Shape2DView014
100
AcDbEllipse
 10
-948.247
 20
306.079
 30
0
 11
4.78469e-07
 21
-15
 31
0
 40
1
 41
3.03184
 42
3.14159
  0
LINE
  5
A10
330
A02
100
AcDbEntity
  8
Shape2DView014
100
AcDbLine
 10
-943.638
 20
320.662
 30
0
 11
-946.604
 21
320.989
 31
0
  0
ELLIPSE
  5
A11
330
A02
100
AcDbEntity
  8
Shape2DView014
100
AcDbEllipse
 10
-945.281
 20
305.753
 30
0
 11
4.212e-07
 21
-15
 31
0
 40
1
 41
2.78487
 42
3.03184
  0
LINE
  5
A12
330
A02
100
AcDbEntity
  8
Shape2DView014
100
AcDbLine
 10
-937.497
 20
318.86
 30
0
 11
-940.043
 21
319.808
 31
0
  0
ELLIPSE
  5
A13
330
A02
100
AcDbEntity
  8
Shape2DView014
100
AcDbEllipse
 10
-942.735
 20
304.804
 30
0
 11
6.46854e-07
 21
-15
 31
0
 40
1
 41
2.55836
 42
2.78487
  0
LINE
  5
A14
330
A02
100
AcDbEntity
  8
Shape2DView014
100
AcDbLine
 10
-932.823
 20
316.235
 30
0
 11
-934.474
 21
317.324
 31
0
  0
ELLIPSE
  5
A15
330
A02
100
AcDbEntity
  8
Shape2DView014
100
AcDbEllipse
 10
-941.084
 20
303.714
 30
0
 11
5.31541e-07
 21
-15
 31
0
 40
1
 41
2.37577
 42
2.55836
  0
LINE
  5
A16
330
A02
100
AcDbEntity
  8
Shape2DView014
100
AcDbLine
 10
-929.239
 20
313.135
 30
0
 11
-930.687
 21
314.527
 31
0
  0
ELLIPSE
  5
A17
330
A02
100
AcDbEntity
  8
Shape2DView014
100
AcDbEllipse
 10
-939.636
 20
302.322
 30
0
 11
5.19786e-07
 21
-15
 31
0
 40
1
 41
2.14535
 42
2.37577
  0
LINE
  5
A18
330
A02
100
AcDbEntity
  8
Shape2DView014
100
AcDbLine
 10
-924.707
 20
306.863
 30
0
 11
-927.045
 21
310.474
 31
0
  0
ELLIPSE
  5
A19
330
A02
100
AcDbEntity
  8
Shape2DView014
100
AcDbEllipse
 10
-937.298
 20
298.711
 30
0
 11
4.96969e-07
 21
-15
 31
0
 40
1
 41
1.92337
 42
2.14535
  0
LINE
  5
A1A
330
A02
100
AcDbEntity
  8
Shape2DView014
100
AcDbLine
 10
-921.536
 20
299.31
 30
0
 11
-923.221
 21
303.891
 31
0
  0
ELLIPSE
  5
A1B
330
A02
100
AcDbEntity
  8
Shape2DView014
100
AcDbEllipse
 10
-935.613
 20
294.131
 30
0
 11
4.96955e-07
 21
-15
 31
0
 40
1
 41
1.77953
 42
1.92337
  0
LINE
  5
A1C
330
A02
100
AcDbEntity
  8
Shape2DView014
100
AcDbLine
 10
-919.797
 20
291.848
 30
0
 11
-920.939
 21
297.239
 31
0
  0
ELLIPSE
  5
A1D
330
A02
100
AcDbEntity
  8
Shape2DView014
100
AcDbEllipse
 10
-934.471
 20
288.74
 30
0
 11
4.7259e-07
 21
-15
 31
0
 40
1
 41
1.6873
 42
1.77953
  0
LINE
  5
A1E
330
A02
100
AcDbEntity
  8
Shape2DView014
100
AcDbLine
 10
-918.866
 20
284.442
 30
0
 11
-919.573
 21
290.483
 31
0
  0
ELLIPSE
  5
A1F
330
A02
100
AcDbEntity
  8
Shape2DView014
100
AcDbEllipse
 10
-933.764
 20
282.698
 30
0
 11
5.00009e-07
 21
-15
 31
0
 40
1
 41
1.62905
 42
1.6873
  0
LINE
  5
A20
330
A02
100
AcDbEntity
  8
Shape2DView014
100
AcDbLine
 10
-918.409
 20
277.04
 30
0
 11
-918.789
 21
283.572
 31
0
  0
ELLIPSE
  5
A21
330
A02
100
AcDbEntity
  8
Shape2DView014
100
AcDbEllipse
 10
-933.383
 20
276.167
 30
0
 11
4.93366e-07
 21
-15
 31
0
 40
1
 41
1.58651
 42
1.62905
  0
LINE
  5
A22
330
A02
100
AcDbEntity
  8
Shape2DView014
100
AcDbLine
 10
-918.167
 20
262.507
 30
0
 11
-918.385
 21
276.402
 31
0
  0
LINE
  5
A23
330
A02
100
AcDbEntity
  8
Shape2DView014
100
AcDbLine
 10
-917.947
 20
248.735
 30
0
 11
-918.167
 21
262.507
 31
0
  0
LINE
  5
A24
330
A02
100
AcDbEntity
  8
Shape2DView014
100
AcDbLine
 10
-917.599
 20
242.846
 30
0
 11
-917.947
 21
248.735
 31
0
  0
LINE
  5
A25
330
A02
100
AcDbEntity
  8
Shape2DView014
100
AcDbLine
 10
-917.002
 20
237.808
 30
0
 11
-917.599
 21
242.846
 31
0
  0
LINE
  5
A26
330
A02
100
AcDbEntity
  8
Shape2DView014
100
AcDbLine
 10
-916.193
 20
234.028
 30
0
 11
-917.002
 21
237.808
 31
0
  0
LINE
  5
A27
330
A02
100
AcDbEntity
  8
Shape2DView014
100
AcDbLine
 10
-915.565
 20
232.334
 30
0
 11
-916.193
 21
234.028
 31
0
  0
ELLIPSE
  5
A28
330
A02
100
AcDbEntity
  8
Shape2DView014
100
AcDbEllipse
 10
-917.38
 20
217.444
 30
0
 11
4.69499e-07
 21
-15
 31
0
 40
1
 41
1.70453
 42
3.02029
  0
LINE
  5
A29
330
A02
100
AcDbEntity
  8
Shape2DView014
100
AcDbLine
 10
-902.514
 20
219.444
 30
0
 11
-910.403
 21
219.444
 31
0
  0
LINE
  5
A2A
330
A02
100
AcDbEntity
  8
Shape2DView014
100
AcDbLine
 10
-910.403
 20
219.444
 30
0
 11
-910.403
 21
215.444
 31
0
  0
LINE
  5
A2B
330
A02
100
AcDbEntity
  8
Shape2DView014
100
AcDbLine
 10
-910.403
 20
215.444
 30
0
 11
-902.514
 21
215.444
 31
0
  0
ELLIPSE
  5
A2C
330
A02
100
AcDbEntity
  8
Shape2DView014
100
AcDbEllipse
 10
-917.38
 20
217.444
 30
0
 11
4.69499e-07
 21
-15
 31
0
 40
1
 41
6.17247
 42
1.43706
  0
LINE
  5
A2D
330
A02
100
AcDbEntity
  8
Shape2DView014
100
AcDbLine
 10
-919.037
 20
202.536
 30
0
 11
-922.21
 21
202.888
 31
0
  0
ELLIPSE
  5
A2E
330
A02
100
AcDbEntity
  8
Shape2DView014
100
AcDbEllipse
 10
-920.553
 20
217.797
 30
0
 11
5.5219e-07
 21
-15
 31
0
 40
1
 41
5.92274
 42
6.17247
  0
LINE
  5
A2F
330
A02
100
AcDbEntity
  8
Shape2DView014
100
AcDbLine
 10
-925.843
 20
203.76
 30
0
 11
-928.556
 21
204.783
 31
0
  0
ELLIPSE
  5
A30
330
A02
100
AcDbEntity
  8
Shape2DView014
100
AcDbEllipse
 10
-923.266
 20
218.819
 30
0
 11
5.65822e-07
 21
-15
 31
0
 40
1
 41
5.69608
 42
5.92274
  0
LINE
  5
A31
330
A02
100
AcDbEntity
  8
Shape2DView014
100
AcDbLine
 10
-931.575
 20
206.331
 30
0
 11
-933.284
 21
207.468
 31
0
  0
ELLIPSE
  5
A32
330
A02
100
AcDbEntity
  8
Shape2DView014
100
AcDbEllipse
 10
-924.974
 20
219.956
 30
0
 11
5.92529e-07
 21
-15
 31
0
 40
1
 41
5.51611
 42
5.69608
  0
LINE
  5
A33
330
A02
100
AcDbEntity
  8
Shape2DView014
100
AcDbLine
 10
-935.385
 20
209.157
 30
0
 11
-936.883
 21
210.601
 31
0
  0
ELLIPSE
  5
A34
330
A02
100
AcDbEntity
  8
Shape2DView014
100
AcDbEllipse
 10
-926.472
 20
221.4
 30
0
 11
4.11032e-07
 21
-15
 31
0
 40
1
 41
5.28821
 42
5.51611
  0
LINE
  5
A35
330
A02
100
AcDbEntity
  8
Shape2DView014
100
AcDbLine
 10
-939.053
 20
213.232
 30
0
 11
-941.472
 21
216.957
 31
0
  0
ELLIPSE
  5
A36
330
A02
100
AcDbEntity
  8
Shape2DView014
100
AcDbEllipse
 10
-928.891
 20
225.125
 30
0
 11
4.92946e-07
 21
-15
 31
0
 40
1
 41
5.06728
 42
5.28821
  0
LINE
  5
A37
330
A02
100
AcDbEntity
  8
Shape2DView014
100
AcDbLine
 10
-942.956
 20
219.913
 30
0
 11
-944.7
 21
224.618
 31
0
  0
ELLIPSE
  5
A38
330
A02
100
AcDbEntity
  8
Shape2DView014
100
AcDbEllipse
 10
-930.634
 20
229.831
 30
0
 11
4.98718e-07
 21
-15
 31
0
 40
1
 41
4.92319
 42
5.06728
  0
LINE
  5
A39
330
A02
100
AcDbEntity
  8
Shape2DView014
100
AcDbLine
 10
-945.302
 20
226.692
 30
0
 11
-946.483
 21
232.212
 31
0
  0
ELLIPSE
  5
A3A
330
A02
100
AcDbEntity
  8
Shape2DView014
100
AcDbEllipse
 10
-931.816
 20
235.35
 30
0
 11
4.90063e-07
 21
-15
 31
0
 40
1
 41
4.83035
 42
4.92319
  0
LINE
  5
A3B
330
A02
100
AcDbEntity
  8
Shape2DView014
100
AcDbLine
 10
-946.711
 20
233.585
 30
0
 11
-947.442
 21
239.754
 31
0
  0
ELLIPSE
  5
A3C
330
A02
100
AcDbEntity
  8
Shape2DView014
100
AcDbEllipse
 10
-932.547
 20
241.519
 30
0
 11
4.93452e-07
 21
-15
 31
0
 40
1
 41
4.77148
 42
4.83035
  0
LINE
  5
A3D
330
A02
100
AcDbEntity
  8
Shape2DView014
100
AcDbLine
 10
-947.52
 20
240.634
 30
0
 11
-947.914
 21
247.287
 31
0
  0
ELLIPSE
  5
A3E
330
A02
100
AcDbEntity
  8
Shape2DView014
100
AcDbEllipse
 10
-932.94
 20
248.173
 30
0
 11
4.93833e-07
 21
-15
 31
0
 40
1
 41
4.72831
 42
4.77148
  0
LINE
  5
A3F
330
A02
100
AcDbEntity
  8
Shape2DView014
100
AcDbLine
 10
-947.938
 20
247.934
 30
0
 11
-948.163
 21
262.031
 31
0
  0
ELLIPSE
  5
A40
330
A02
100
AcDbEntity
  8
Shape2DView014
100
AcDbEllipse
 10
-933.165
 20
262.27
 30
0
 11
4.93366e-07
 21
-15
 31
0
 40
1
 41
4.7281
 42
4.72831
  0
LINE
  5
A41
330
A02
100
AcDbEntity
  8
Shape2DView014
100
AcDbLine
 10
-948.163
 20
262.034
 30
0
 11
-948.376
 21
275.612
 31
0
  0
LINE
  5
A42
330
A02
100
AcDbEntity
  8
Shape2DView014
100
AcDbLine
 10
-948.376
 20
275.612
 30
0
 11
-948.713
 21
281.389
 31
0
  0
LINE
  5
A43
330
A02
100
AcDbEntity
  8
Shape2DView014
100
AcDbLine
 10
-948.713
 20
281.389
 30
0
 11
-949.289
 21
286.309
 31
0
  0
LINE
  5
A44
330
A02
100
AcDbEntity
  8
Shape2DView014
100
AcDbLine
 10
-949.289
 20
286.309
 30
0
 11
-950.063
 21
289.965
 31
0
  0
LINE
  5
A45
330
A02
100
AcDbEntity
  8
Shape2DView014
100
AcDbLine
 10
-950.063
 20
289.965
 30
0
 11
-950.474
 21
291.079
 31
0
  0
LINE
  5
A46
330
A02
100
AcDbEntity
  8
Shape2DView014
100
AcDbLine
 10
-950.474
 20
291.079
 30
0
 11
-951.467
 21
291.079
 31
0
  0
SPLINE
  5
A47
330
A02
100
AcDbEntity
  8
Shape2DView014
100
AcDbSpline
210
0
220
0
230
1
 70
8
 71
3
 72
17
 73
13
 74
0
 40
0.0109404
 40
0.0109404
 40
0.0109404
 40
0.0109404
 40
0.0737271
 40
0.0737271
 40
0.0737271
 40
0.136514
 40
0.136514
 40
0.136514
 40
0.1993
 40
0.1993
 40
0.1993
 40
0.262087
 40
0.262087
 40
0.262087
 40
0.262087
 10
-951.467
 20
291.079
 30
0
 10
-959.46
 20
283.089
 30
0
 10
-966.257
 20
275.492
 30
0
 10
-971.977
 20
268.257
 30
0
 10
-977.698
 20
261.021
 30
0
 10
-982.341
 20
254.15
 30
0
 10
-986.053
 20
247.598
 30
0
 10
-989.766
 20
241.045
 30
0
 10
-992.552
 20
234.815
 30
0
 10
-994.58
 20
228.813
 30
0
 10
-996.606
 20
222.808
 30
0
 10
-997.881
 20
217.029
 30
0
 10
-998.545
 20
211.314
 30
0
  0
SPLINE
  5
A48
330
A02
100
AcDbEntity
  8
Shape2DView014
100
AcDbSpline
210
0
220
0
230
1
 70
8
 71
3
 72
17
 73
13
 74
0
 40
0.262087
 40
0.262087
 40
0.262087
 40
0.262087
 40
0.349023
 40
0.349023
 40
0.349023
 40
0.435959
 40
0.435959
 40
0.435959
 40
0.522896
 40
0.522896
 40
0.522896
 40
0.609832
 40
0.609832
 40
0.609832
 40
0.609832
 10
-998.545
 20
211.314
 30
0
 10
-999.459
 20
203.404
 30
0
 10
-999.207
 20
195.591
 30
0
 10
-997.951
 20
187.493
 30
0
 10
-996.694
 20
179.403
 30
0
 10
-994.413
 20
171.033
 30
0
 10
-991.256
 20
162.225
 30
0
 10
-988.102
 20
153.42
 30
0
 10
-984.073
 20
144.187
 30
0
 10
-979.416
 20
134.429
 30
0
 10
-974.76
 20
124.67
 30
0
 10
-969.478
 20
114.386
 30
0
 10
-963.861
 20
103.457
 30
0
  0
SPLINE
  5
A49
330
A02
100
AcDbEntity
  8
Shape2DView014
100
AcDbSpline
210
0
220
0
230
1
 70
8
 71
3
 72
8
 73
4
 74
0
 40
0.609832
 40
0.609832
 40
0.609832
 40
0.609832
 40
0.706237
 40
0.706237
 40
0.706237
 40
0.706237
 10
-963.861
 20
103.457
 30
0
 10
-957.633
 20
91.3374
 30
0
 10
-950.995
 20
78.4239
 30
0
 10
-944.364
 20
64.524
 30
0
  0
SPLINE
  5
A4A
330
A02
100
AcDbEntity
  8
Shape2DView014
100
AcDbSpline
210
0
220
0
230
1
 70
8
 71
3
 72
14
 73
10
 74
0
 40
0
 40
0
 40
0
 40
0
 40
0.214914
 40
0.214914
 40
0.214914
 40
0.542022
 40
0.542022
 40
0.542022
 40
1
 40
1
 40
1
 40
1
 10
-945.936
 20
59.9722
 30
0
 10
-945.594
 20
60.0769
 30
0
 10
-945.256
 20
60.2612
 30
0
 10
-944.966
 20
60.5209
 30
0
 10
-944.521
 20
60.914
 30
0
 10
-944.204
 20
61.4787
 30
0
 10
-944.07
 20
62.0789
 30
0
 10
-943.874
 20
62.9222
 30
0
 10
-944.021
 20
63.8136
 30
0
 10
-944.364
 20
64.524
 30
0
  0
SPLINE
  5
A4B
330
A02
100
AcDbEntity
  8
Shape2DView014
100
AcDbSpline
210
0
220
0
230
1
 70
8
 71
2
 72
6
 73
3
 74
0
 40
1.99647
 40
1.99647
 40
1.99647
 40
3.4762
 40
3.4762
 40
3.4762
 10
-944.364
 20
64.524
 30
0
 10
-944.525
 20
64.8615
 30
0
 10
-944.684
 20
65.1932
 30
0
  0
SPLINE
  5
A4C
330
A02
100
AcDbEntity
  8
Shape2DView014
100
AcDbSpline
210
0
220
0
230
1
 70
8
 71
3
 72
14
 73
10
 74
0
 40
0
 40
0
 40
0
 40
0
 40
0.217276
 40
0.217276
 40
0.217276
 40
0.551306
 40
0.551306
 40
0.551306
 40
1
 40
1
 40
1
 40
1
 10
-946.84
 20
62.0323
 30
0
 10
-946.504
 20
62.1462
 30
0
 10
-946.173
 20
62.3378
 30
0
 10
-945.89
 20
62.6014
 30
0
 10
-945.453
 20
63.0047
 30
0
 10
-945.145
 20
63.5757
 30
0
 10
-945.02
 20
64.179
 30
0
 10
-944.846
 20
64.9922
 30
0
 10
-944.992
 20
65.8452
 30
0
 10
-945.323
 20
66.5271
 30
0
  0
SPLINE
  5
A4D
330
A02
100
AcDbEntity
  8
Shape2DView014
100
AcDbSpline
210
0
220
0
230
1
 70
8
 71
1
 72
4
 73
2
 74
0
 40
1.11408
 40
1.11408
 40
1.52363
 40
1.52363
 10
-972.842
 20
54.53
 30
0
 10
-972.914
 20
54.6776
 30
0
  0
SPLINE
  5
A4E
330
A02
100
AcDbEntity
  8
Shape2DView014
100
AcDbSpline
210
0
220
0
230
1
 70
8
 71
1
 72
4
 73
2
 74
0
 40
4.93083
 40
4.93083
 40
5.42031
 40
5.42031
 10
-973.495
 20
55.8813
 30
0
 10
-973.577
 20
56.0507
 30
0
  0
SPLINE
  5
A4F
330
A02
100
AcDbEntity
  8
Shape2DView014
100
AcDbSpline
210
0
220
0
230
1
 70
8
 71
1
 72
4
 73
2
 74
0
 40
0.999906
 40
0.999906
 40
1
 40
1
 10
-973.577
 20
56.0503
 30
0
 10
-973.577
 20
56.0507
 30
0
  0
SPLINE
  5
A50
330
A02
100
AcDbEntity
  8
Shape2DView014
100
AcDbSpline
210
0
220
0
230
1
 70
8
 71
2
 72
6
 73
3
 74
0
 40
0.609832
 40
0.609832
 40
0.609832
 40
0.629113
 40
0.629113
 40
0.629113
 10
-963.861
 20
103.457
 30
0
 10
-961.992
 20
99.8217
 30
0
 10
-960.079
 20
96.0885
 30
0
  0
SPLINE
  5
A51
330
A02
100
AcDbEntity
  8
Shape2DView014
100
AcDbSpline
210
0
220
0
230
1
 70
8
 71
1
 72
4
 73
2
 74
0
 40
0.701328
 40
0.701328
 40
0.70159
 40
0.70159
 10
-945.377
 20
66.6397
 30
0
 10
-945.323
 20
66.5271
 30
0
  0
SPLINE
  5
A52
330
A02
100
AcDbEntity
  8
Shape2DView014
100
AcDbSpline
210
0
220
0
230
1
 70
8
 71
3
 72
8
 73
4
 74
0
 40
0.609832
 40
0.609832
 40
0.609832
 40
0.609832
 40
0.695507
 40
0.695507
 40
0.695507
 40
0.695507
 10
-990.544
 20
89.7451
 30
0
 10
-985.009
 20
78.9748
 30
0
 10
-979.27
 20
67.8048
 30
0
 10
-973.577
 20
56.0507
 30
0
  0
SPLINE
  5
A53
330
A02
100
AcDbEntity
  8
Shape2DView014
100
AcDbSpline
210
0
220
0
230
1
 70
8
 71
3
 72
17
 73
13
 74
0
 40
0.262087
 40
0.262087
 40
0.262087
 40
0.262087
 40
0.349023
 40
0.349023
 40
0.349023
 40
0.435959
 40
0.435959
 40
0.435959
 40
0.522896
 40
0.522896
 40
0.522896
 40
0.609832
 40
0.609832
 40
0.609832
 40
0.609832
 10
-1028.35
 20
214.767
 30
0
 10
-1029.6
 20
203.945
 30
0
 10
-1029.22
 20
193.301
 30
0
 10
-1027.59
 20
182.885
 30
0
 10
-1025.97
 20
172.461
 30
0
 10
-1023.13
 20
162.259
 30
0
 10
-1019.5
 20
152.105
 30
0
 10
-1015.86
 20
141.948
 30
0
 10
-1011.41
 20
131.828
 30
0
 10
-1006.49
 20
121.509
 30
0
 10
-1001.57
 20
111.192
 30
0
 10
-996.16
 20
100.675
 30
0
 10
-990.544
 20
89.7451
 30
0
  0
SPLINE
  5
A54
330
A02
100
AcDbEntity
  8
Shape2DView014
100
AcDbSpline
210
0
220
0
230
1
 70
8
 71
3
 72
17
 73
13
 74
0
 40
0.0109404
 40
0.0109404
 40
0.0109404
 40
0.0109404
 40
0.0737271
 40
0.0737271
 40
0.0737271
 40
0.136514
 40
0.136514
 40
0.136514
 40
0.1993
 40
0.1993
 40
0.1993
 40
0.262087
 40
0.262087
 40
0.262087
 40
0.262087
 10
-951.467
 20
291.079
 30
0
 10
-959.46
 20
283.089
 30
0
 10
-966.257
 20
275.492
 30
0
 10
-971.977
 20
268.257
 30
0
 10
-977.698
 20
261.021
 30
0
 10
-982.341
 20
254.15
 30
0
 10
-986.053
 20
247.598
 30
0
 10
-989.766
 20
241.045
 30
0
 10
-992.552
 20
234.815
 30
0
 10
-994.58
 20
228.813
 30
0
 10
-996.606
 20
222.808
 30
0
 10
-997.881
 20
217.029
 30
0
 10
-998.545
 20
211.314
 30
0
  0
SPLINE
  5
A55
330
A02
100
AcDbEntity
  8
Shape2DView014
100
AcDbSpline
210
0
220
0
230
1
 70
8
 71
3
 72
17
 73
13
 74
0
 40
0
 40
0
 40
0
 40
0
 40
0.0655217
 40
0.0655217
 40
0.0655217
 40
0.131043
 40
0.131043
 40
0.131043
 40
0.196565
 40
0.196565
 40
0.196565
 40
0.262087
 40
0.262087
 40
0.262087
 40
0.262087
 10
-968.026
 20
316.866
 30
0
 10
-977.517
 20
307.694
 30
0
 10
-985.768
 20
298.814
 30
0
 10
-992.888
 20
290.121
 30
0
 10
-1000.01
 20
281.427
 30
0
 10
-1006
 20
272.918
 30
0
 10
-1010.94
 20
264.497
 30
0
 10
-1015.88
 20
256.077
 30
0
 10
-1019.76
 20
247.742
 30
0
 10
-1022.65
 20
239.451
 30
0
 10
-1025.53
 20
231.163
 30
0
 10
-1027.4
 20
222.922
 30
0
 10
-1028.35
 20
214.767
 30
0
  0
ENDSEC
  0
SECTION
  2
OBJECTS
  0
DICTIONARY
  5
F000
330
0
100
AcDbDictionary
  3
ACAD_GROUP
350
F001
  0
DICTIONARY
  5
F001
330
F000
100
AcDbDictionary
  0
ENDSEC
  0
EOF